<?xml version='1.0' ?>
<svg xmlns="http://www.w3.org/2000/svg" xmlns:xlink="http://www.w3.org/1999/xlink" version="1.1" width="1133.9023945031536" height="1250.339313509792">
  <style type="text/css">.edge {
  fill: None;
}
.edge.visible {
  stroke: #000000;
}
.edge.hidden {
  stroke: #C8C8FF;
}
</style>
  <g>
    <path class="edge sharp hidden" d="M224.39894831847096,90.68863235714679 C220.51444462511452,92.50118976990517 216.86497244014626,94.81640555333256 213.57011421238147,97.5584181455717 C210.27442863136218,100.2994365551617 207.33390311474193,103.4667961862333 204.84488691687702,106.95671431760397 C202.35481797031284,110.44588132927572 200.31667248468082,114.25702674829671 198.79723406653608,118.26527302637712 C197.27658637267695,122.27306070007086 196.27489853385217,126.4772829320353 195.8249920847407,130.74018255543842 C195.37379949785674,135.0029462496251 195.47446303723072,139.3236787258236 196.1236837644418,143.5608053441675 C196.77162612503605,147.7981276386513 197.968017836683,151.95113972024475 199.67365791151198,155.883762378396 C201.37811140745143,159.81689945838696 203.59152998898836,163.5289933035563 206.2413882921826,166.8984119269636 C208.89022986261745,170.2686298852367 211.9750707045165,173.29561243193285 215.39483086306913,175.88017649618632 M215.39483086306916,175.88017649618632 C219.1200686413459,178.6976365862113 223.24264970735518,180.98860967702512 227.6024786405149,182.66412801252346 C231.96165390278026,184.3413456918079 236.5570580979116,185.40271549067012 241.21023102790883,185.80702065607431 M241.21023102790883,185.80702065607431 C342.09726217300675,194.59271442477592 442.9842933181048,265.0005547913003 543.8713244632027,374.7924646838344 M543.8713244632027,374.7924646838344 C681.3581035983872,524.4146301385304 818.8448827335708,747.1796292290612 956.331661868755,986.8048791499996 M956.3316618687551,986.8048791499996 C966.3355467432975,1009.0271921096451 976.2731055796735,1030.5962149240227 986.1579289327035,1051.314037820326 C996.0427074477997,1072.0281107444089 1005.8747504795498,1091.8909837504173 1015.6663931206502,1110.5997478433665 M956.3316618687551,986.8048791499996 C956.9536878857101,987.8901749564563 957.7819019497144,988.8566270343887 958.7591337546504,989.6375223355759 C959.7356391891939,990.4193260918793 960.8604295775863,991.0149883378202 962.0558632058741,991.3833916095314 C963.250953781838,991.7529061409252 964.5157897057451,991.8948839817019 965.7630619259348,991.7995242958946 C967.0104222868823,991.7053243318217 968.2392823475835,991.3738583420723 969.364817085396,990.8280074846919 C970.490858815738,990.2832032757742 971.5127298096777,989.5244237143143 972.3598922406713,988.6040448147251 C973.2079100387554,987.6844539953574 973.8805825671857,986.6039544390529 974.331476918698,985.4371310773381 C974.7834559093876,984.2707274069801 975.0133180321488,983.0188766436779 975.0051966317667,981.7679913492091 C974.9982383557463,980.5170992457921 974.7533011241612,979.2681100915845 974.287292873101,978.1072398735014 M974.287292873101,978.1072398735014 C987.7308208218722,1007.953603333456 1001.0447488954251,1036.6324970973471 1014.2643358727161,1063.6354576518972 C1027.483747455922,1090.6264612911496 1040.608817942869,1115.941531721062 1053.6698950781274,1138.737411800081 C1066.7307968193008,1161.5213349638043 1079.7277052087861,1181.7860677766348 1092.6860569567652,1198.3535594687517 C1105.6442333106584,1214.909094245571 1118.5638530230483,1227.7673879016797 1131.465441769723,1235.4155960389774 M974.287292873101,978.1072398735014 C724.3245113548912,354.5880998125599 474.361729836681,-25.993021619202505 224.39894831847096,90.68863235714684" />
    <path class="edge outline hidden" d="M215.39483086306922,175.8801764961863 C207.64409120390704,170.02085713156617 199.98852144725717,164.6535408532892 192.52513216768426,159.89041717437325 C185.06331127331498,155.1271819678353 177.7936708560228,150.96813936065848 170.85713627607532,147.52235609244366 C163.58153678456512,143.90617065504716 156.66563530627735,141.07967218015375 150.3171531862427,139.0877747336705 C143.96280279584192,137.0899585630996 138.1758717636944,135.92674342093906 132.99976986457955,135.47731909864422 M132.9997698645551,135.47731909864208 C159.22288898007812,137.76115326577704 185.64473501154225,142.19240218572554 212.2548488352487,149.18992008171261 C238.8607845910031,156.1810158053596 265.654849641203,165.7379698675729 292.50951648597476,178.09957113713767 C302.4030802358956,182.65078321711135 312.28847596635796,187.5720645218648 322.1657036773617,192.8634150513975 C332.03958279336365,198.15423617208813 341.8977950919541,203.81696804258812 351.7016929535608,209.82341931429872 C361.50473792464425,215.8287262662854 371.25349184021104,222.177765270286 380.8854305304175,228.81030015058806 C390.516503644412,235.4416863061851 400.030792277191,242.35657448186652 409.3415405093266,249.46256033533533 C417.58595867286135,255.75363135361476 425.67141673403836,262.18206872534756 433.51341577250867,268.65223436839085 C441.3551050798236,275.12098225366594 448.95049380546845,281.627255744149 456.20701082903815,288.03647614467616 C463.46431384344555,294.4459509982346 470.3809116342373,300.75544066186126 476.88684109676296,306.838247729763 C483.3941797545788,312.9223858836241 489.4900246000101,318.7781799079116 495.1444702688107,324.3169594081809 C500.8004758198112,329.85755104946554 506.01526474748476,335.0807371990101 510.80320866146866,339.94934401528093 C515.592390627021,344.8196484497506 519.9559181696109,349.33625314935153 523.9434286150763,353.5102741866056 C527.931382763938,357.68528274137094 531.5455184438247,361.5198577983219 534.848496947931,365.0535225247679 C538.1506522897186,368.58686909016495 541.144857121296,371.8227260557164 543.8713244632027,374.7924646838344" />
    <path class="edge sharp visible" d="M30.850910916161638,73.54136482374224 C25.828955666614913,75.88361020451397 21.20208835186643,79.06920204137325 17.222076365077687,82.92479944891632 M17.222076365077687,82.92479944891632 C13.800299799618632,86.23609273634534 10.855927796621444,90.0396507705405 8.50774598768709,94.18202563448061 C6.157854174313777,98.32343065371134 4.404747236774115,102.80260479940532 3.319152107418847,107.4388433183698 C2.231642875889464,112.07463324557978 1.81192015230631,116.8663149120726 2.0769160700813933,121.62057627076366 C2.3399491239643933,126.37494662940578 3.2876338640258225,131.0906941751447 4.881737728567321,135.5775702134815 C6.473988996528374,140.06510401399944 8.712256641359904,144.32263128598763 11.506242321823363,148.17838922339342 C14.298635801164222,152.03530038439806 17.646040837120772,155.4894667598665 21.41341101536662,158.40153615551324 C25.179578648002344,161.31516070672052 29.364758135105454,163.68595165025548 33.80010638390315,165.4182634078655 C38.234738794045136,167.1524062833946 42.918420316499386,168.2476310235282 47.66219362559946,168.65975312266974 M1015.6663931206501,1110.5997478433665 L1015.6676640417977,1110.6021759319406 M1015.6676640417977,1110.6021759319403 C1023.8452457747651,1126.2244748002277 1031.9946219183103,1141.0395340192406 1040.1223068580143,1154.8147760506656 C1048.2499699839952,1168.5881937146169 1056.3559419061357,1181.321794190982 1064.446126225701,1192.7319176521157 C1072.5362887315393,1204.1402167457743 1080.6106636347984,1214.225038824198 1088.6745437524103,1222.6516417704056 C1096.7384020562959,1231.076420349135 1104.7917655745348,1237.8429797956476 1112.8393163397259,1242.565495703612 M47.66219362559946,168.65975312266974 C237.20875477973297,185.16631518827026 426.75531593386677,273.10263364523456 616.301877088,467.34375762131856 M616.301877088,467.34375762131856 C781.8143568385751,636.9555400934769 947.326836589151,887.6228374478044 1112.8393163397259,1242.565495703612 M1112.8393163397259,1242.565495703612 C1113.6843181347942,1244.3865110673978 1115.094015698304,1245.938743342334 1116.8254748306772,1246.9546994787142 M1116.8254748306772,1246.9546994787142 C1118.5474990924863,1247.973774615883 1120.5807010035842,1248.4552074343337 1122.5768602662542,1248.3165420981854 C1124.5735206119762,1248.1852890379282 1126.523429712181,1247.434597016475 1128.0926338967881,1246.1930342391033 C1129.6664369230732,1244.9573061491546 1130.851890838393,1243.2367287370853 1131.4459681223886,1241.3259818073466 C1132.0471355690122,1239.4174540402514 1132.0540207904562,1237.3280454280316 1131.465441769723,1235.4155960389774 M1131.465441769723,1235.4155960389774 C899.1219603467226,475.45431143883593 666.7784789237232,143.38192678649477 434.43499750072306,45.53243063007602 M434.43499750072317,45.53243063007607 C299.9069686392023,-11.122913270236088 165.37893977768243,10.744204308880839 30.850910916161638,73.54136482374224" />
    <path class="edge outline visible" d="M17.22207636507767,82.92479944891625 C24.69162648483636,75.69418185349902 32.4348057742162,69.24327318601868 40.45781284604891,63.60362164665324 C48.477657678029615,57.964700229748566 56.77733029246321,53.13703594095881 65.27448658632602,49.17262040936465 M1015.6676640417979,1110.6021759319403 C1008.529816133509,1096.9634601214293 1001.2138513074526,1083.089486662594 993.689039646069,1068.932256945971 C986.1634108306333,1054.7739235940855 978.4289351798715,1040.3323339844103 970.4320024627623,1025.5285877201336 C962.4342525916004,1010.7237378205925 954.1740456540911,995.5567312664499 945.5748911057494,979.917765873537 C936.9749194033544,964.2776968453604 928.0360000901288,948.1656689784162 918.6587623081202,931.4409783011836 C911.2687956088687,918.2680963527931 903.6841953859714,904.844537916546 895.7336604748749,890.9085929738028 C887.786737646101,876.9792354732342 879.4738801291293,862.5374914661705 870.7249250644334,847.5060993148708 C861.9795820820602,832.481294605746 852.7981415519645,816.866841752386 843.2115789196496,800.7699274979501 C833.6286283696572,784.679600685689 823.6405557174464,768.1068124723522 813.3794747135487,751.3431979819975 C807.603114746179,741.9020073395292 801.7633575787005,732.438302615121 796.0715411755899,723.291601974795 C790.3761736133418,714.1386639867809 784.8262281047795,705.2978708037574 779.5338722376131,696.9346393561507 C774.2390427062821,688.5672340404788 769.1997242151466,680.6734455595912 764.459083834404,673.3023670377713 C759.7168409831513,665.9287495126064 755.2716377505727,659.0748114243364 751.1220341116586,652.719098303265 C746.971492894567,646.3620524286652 743.1153528889041,640.5011153775517 739.5261839597975,635.0780600811233 C735.9365360435288,629.6544496660799 732.6131009310627,624.6675192404703 729.5152989260674,620.0440429139715 C723.318085725022,610.7950217782136 718.0277070007311,603.0064741405489 713.2526108066843,596.025900675148 C708.5070574022901,589.0969790545151 704.3352020353475,583.0634330363021 700.5775692289462,577.6675318762248 C696.8215209884913,572.2742424134585 693.4803622043205,567.5197063350472 690.438985246019,563.2193204214043 C687.3988802462848,558.9210265834068 684.6592239681625,555.0779914363975 682.1405236211262,551.5641898788673 C679.6227826252793,548.0519607753188 677.3266644562605,544.8700737874694 675.1995381568324,541.9365325252787 C670.949126405535,536.0756345545317 667.3646969664012,531.1922766596019 664.212747879262,526.9347713958899 C661.0611432569663,522.6774835559626 658.3633596503865,519.0815211862384 655.8955401149499,515.8012847080696 C653.7413155310483,512.9445162914215 651.8052670728555,510.3976192534682 650.0328225741316,508.0812716875645 C648.2608382363157,505.76560676813995 646.6524595862289,503.6804941710785 645.165999992196,501.76572778847515 C643.6799993438894,499.85164204822445 642.3159212081538,498.10790822305836 641.0449304627957,496.4933798882763 C639.7743966378597,494.8795288556364 638.5969553880761,493.39489186432 637.4965663922555,492.0172886469409 C634.2825805239016,487.9941918109485 631.6738331238925,484.80731540492104 629.3971880646021,482.07871557708216 C627.1257947306246,479.357528146804 625.1865505271604,477.09466251119244 623.4535272296973,475.11996613313886 C622.0352630952251,473.5045543431796 620.7550676033495,472.0819253204353 619.5736647623411,470.7998488844353 C618.3927682875984,469.5184581845721 617.3105070654012,468.3773924349514 616.3018770880001,467.34375762131856 M1116.8254748306772,1246.954699478714 C1107.8885598472402,1241.6751243158192 1099.3854064230081,1234.4979244481133 1091.0427582529414,1225.8464814591182 C1082.7060181050042,1217.1892961667181 1074.5297832112299,1207.057867753027 1066.4062218861886,1195.714793306186 C1057.8912944780982,1183.81649754605 1049.4355877145879,1170.5950850778006 1040.9904193941175,1156.3255469930891 C1032.546171898176,1142.0544670007052 1024.112462845271,1126.7352613918574 1015.6663931206504,1110.5997478433662 M65.2744865862519,49.17262040939909 C77.43158721690735,43.5011265602299 90.0730693482648,38.00386662921231 103.57146688196677,32.74843428388226 C110.32337533396387,30.121224435265194 117.2906083864855,27.555205304214773 124.56465005865587,25.06463775252456 C131.84118781383228,22.57428750911434 139.42216265797757,20.159257627474915 147.46894893438673,17.83989360123894 C152.48436042684463,16.393545294184758 157.65490869163025,14.998405751221085 163.07426994205392,13.64606144866862 C168.49569175995157,12.294685785545632 174.17525724050262,10.987088260231676 180.25033960381174,9.74083889958158 C186.32861854398334,8.49554548520977 192.78823671650665,7.310671495549224 199.8420726111595,6.229415099755065 C203.37153342832343,5.6891702805468904 207.05243391187864,5.175409936945014 210.9433796534364,4.69772594150691 C214.83586946576946,4.220201156159733 218.93685953168207,3.77863408785201 223.34797069195696,3.387056704913732 C227.9489460673925,2.9787059821718893 232.60146959816598,2.65800297460566 237.16861312988888,2.4321272048854423 C241.73794635204393,2.205599666242087 246.2236740952728,2.0729166077387258 250.54988211767696,2.023247601273755 C254.8775554867678,1.9733035838885393 259.0470286619385,2.0057450929112233 263.023171910212,2.1022247571746897 C267.0002497720612,2.1986609663729104 270.78494582572654,2.3587725787221854 274.3681016461926,2.5631297086465743 C281.5377957567534,2.9729396282678886 287.8927674173597,3.554531306616112 293.5214472755547,4.186236036564835 C299.1528760909357,4.820045636509383 304.06631217108963,5.5045370347074885 308.42166994918614,6.178897114632102 C312.7774229725736,6.854793716119121 316.5770590092938,7.522266465047752 319.9893104839681,8.163233471703261 C323.40152667772384,8.805176789916612 326.42636746542945,9.421270360235418 329.2313135091216,10.020079791354217 C334.83851169542567,11.219487498621415 339.57919022919435,12.348503214681594 344.7360924257208,13.662282980759926 C348.4950248464418,14.625498847504149 351.9392357704252,15.56129131738589 355.157752122454,16.47212847548864 C358.37514558655505,17.382953507598522 361.36581765005974,18.26881954704801 364.1875685297606,19.131855209122755 C369.8264240412808,20.85784278941191 374.80256535908154,22.492801516799766 379.36633616368687,24.05040824500331 C383.92547128874685,25.60789593950584 388.06288231839073,27.087937827533874 391.90483626171397,28.50089151502732 C395.7449578337898,29.913764269630327 399.2867822249471,31.25948020533053 402.60753109268296,32.54614655098497 C409.24265918705515,35.1190901561121 415.01166569795924,37.457030998494936 420.2396308549803,39.60812747866396 C422.85146598169587,40.683513313082535 425.3230664146421,41.711852583564465 427.68191024620916,42.69780290214837 C430.03859352027894,43.68305228199675 432.2896226051171,44.627928191306076 434.43499750072317,45.532430630076306" />
  </g>
</svg>
