<?xml version='1.0' ?>
<svg xmlns="http://www.w3.org/2000/svg" xmlns:xlink="http://www.w3.org/1999/xlink" version="1.1" width="820.1306541535694" height="393.90376047805773">
  <style type="text/css">.edge {
  fill: None;
}
.edge.visible {
  stroke: #000000;
}
.edge.hidden {
  stroke: #C8C8FF;
}
</style>
  <g>
    <path class="edge sharp hidden" d="M22.081973787921545,249.54799677505008 C28.370808259026703,254.91471317214032 34.26544942661265,260.3851142154538 39.895653164128206,265.98095579652403 C45.525326291289936,271.57600358142486 50.89056198838126,277.2964919040823 56.10625903894619,283.14195036329954 C61.32142547915735,288.98661502634803 66.38705327284232,294.956249825957 71.40318411364059,301.02815806820297 C76.4187843440852,307.0992725142801 81.3848876216433,313.2726604029942 86.38667855005012,319.50339874769435 C91.38793886810328,325.7333432962254 96.42488683700522,332.02063830074263 101.56784997058695,338.29813448186695 C106.71028249381501,344.5748368668227 111.95873018172273,350.84174042838504 117.3686634582369,357.0094695944482 C122.7780661243973,363.17640496434285 128.34895437916413,369.24416593873764 134.1219415565593,375.1011506527994 C139.89439812360087,380.9573415706918 145.86895361327086,386.60275622825117 152.07136426968708,391.9035664679145 M366.93242989151474,236.02683874374935 Q377.4081320064433,235.0396877081148 387.88383412137193,233.7044325914753 M387.8838341213718,233.70443259147532 C525.7445147517094,216.12621715053322 663.6051953820463,152.96547303539307 801.4658760123841,29.7219816345158 M801.4658760123841,29.7219816345158 C795.2462775461609,27.517726463073174 788.202738093257,25.26371910115024 780.5873496006832,23.078365328490253 C772.9708642655953,20.89202865434975 764.7825298908373,18.77434556947228 756.2437268330117,16.816200612147256 C747.7038269326708,14.857072753341765 738.8134583492625,13.057483022088753 729.7632898489741,11.480794715224032 C720.7120245061714,9.903123506878803 711.5009592464901,8.548353722921858 702.2900512457069,7.452327418735141 C693.0780464024098,6.355318213067945 683.8661988180113,5.517052487170998 674.7837540778781,4.945851054972526 C665.7002124952305,4.373666721293563 656.7460737568481,4.068546681313064 648.0198718576868,4.011290507505482 C639.29257311601,3.9530514322174044 630.7932112135551,4.142676223102257 622.5896085548636,4.533443211180682 C614.3849090536577,4.923227297778626 606.4759687962161,5.514153581570153 598.8998985966714,6.231979152122165 M801.4658760123841,29.7219816345158 C802.7578013060485,28.564193186922186 804.3566884544047,27.75337064051096 806.0541147541232,27.39520702490016 C807.7506607281067,27.0328949964599 809.5410624034752,27.124235320644924 811.1919276724328,27.65732396675376 M272.7981747439196,360.38676066485334 C191.86145176195146,355.54188246153336 110.92472877998316,322.94445641880304 29.988005798015024,256.59507390371743" />
    <path class="edge outline hidden" d="M387.8838341213718,233.70443259147532 C388.31427804746676,233.64965479207464 388.7087017634217,233.59495963108068 388.97328618454856,233.55587620513137 C389.2406524204617,233.51654910701674 389.384249421121,233.4923791242825 389.38357486276607,233.49244786140596 M389.38357486276607,233.49244786140596 C389.38768846411034,233.49206764444628 388.98418821790483,233.55996175168124 388.2277251500283,233.72035996689002 C387.472405564235,233.880289723939 386.3660730689159,234.13253116233878 384.9953941505236,234.48819641956297 C383.6249454949241,234.84348374049222 381.9920969064085,235.3020010802446 380.1899601918803,235.8642775422062 C378.3871421249105,236.42626723350796 376.4169790000992,237.09182087364036 374.3535027182625,237.85343716970033 C371.6293131520639,238.8577482221768 368.75328777335994,240.027544250302 365.8575056091656,241.33535412600963 C362.95948669125045,242.64318348729387 360.0435106300276,244.08612788548749 357.17703208875025,245.63853671231664 C354.3080587559286,247.1917942796923 351.48763123064026,248.8538417559673 348.7157495128851,250.62467914114188 C345.9432848636529,252.39627424888548 343.21506366955157,254.27812572545946 340.5083738300822,256.29211377713125 M22.0280255499099,249.50196815568947 C25.966549862960036,252.8611678606725 29.99951876646396,256.2198371061355 34.1771058615854,259.60441997068057 C38.35368332432743,262.9879824275541 42.676270237282665,266.39844643469576 47.16646885318199,269.83290464012964 C51.6551336053468,273.2661469716019 56.3122521030567,276.72324419579735 61.11612595529266,280.16668199792866 C65.9182191584435,283.60915123768496 70.86727520509665,287.0370598009616 75.89133425329506,290.3854286584503 C80.91368331507664,293.7333478143186 86.01052297612466,297.0004293490448 91.0615596808808,300.1089751437996 C96.11131451192108,303.2176904181491 101.11394875550572,306.16654066414407 105.91277148072996,308.88266327133863 C110.71113789698646,311.5995036310967 115.30348459720376,314.08262097855203 119.51978827070084,316.2795573786488 C123.73689865403922,318.4775176673239 127.57478190883336,320.38900083792777 130.88539605390486,321.99074296309556 C133.9727097132948,323.482022667388 136.77278377911148,324.79209303743346 139.3650447438625,325.97507326462113 C141.95639930771276,327.15742069688554 144.3392919409991,328.212221401445 146.56785972780725,329.17593977226153 C151.02062968775968,331.1003474312281 154.86926560347936,332.66953068764093 158.35446645604463,334.04145617389383 C161.83505309095605,335.41020301335254 164.94335521217667,336.57549471094137 167.79463765659756,337.60895220645176 C170.64421209761565,338.6412601086642 173.23312745456167,339.53921085963816 175.63126553573264,340.34395650439444 C180.4217438343937,341.94958404260734 184.46758582334047,343.1948129082798 188.10554962267273,344.26260623415277 C189.9219663807372,344.7947765326706 191.62969362704047,345.278019741824 193.25052690667454,345.72153038844584 C194.87247501429354,346.1658439610586 196.40251473569847,346.5668697054138 197.89080633250637,346.9542569934371 C203.5420708555913,348.4052324078025 208.19918901604066,349.4410046854728 212.32250118317393,350.27435518620547 C216.43628658498142,351.10297805999744 220.01596326097672,351.7289869981037 223.25478856207621,352.23257806093056 C228.4774614100117,353.0410593603135 232.84880212865897,353.5481679834478 236.75347703523653,353.89882637308517 C240.65078466367146,354.2463377702349 244.08135727265682,354.43741479680835 247.22283395133144,354.52845809563644 C251.19817491167896,354.6412661237292 254.71965532832672,354.59805781300065 257.9881893834379,354.4478712607561 C261.2538255609949,354.29644303991176 264.2667655342181,354.0381661161987 267.14623886726514,353.6870660778879 C271.1549541735975,353.1958647828549 274.91124800046686,352.5285341717893 278.6203248533612,351.6627747404617 C284.5624823520231,350.2692886488777 290.4045595338246,348.3853104125477 296.6184688627236,345.7008364085035 C302.8218359050586,343.0117849896825 309.3969117912677,339.52204462453483 316.52055993072685,334.793655532007" />
    <path class="edge sharp visible" d="M12.163491036053415,241.4350636715658 C9.576590673946525,239.1566455205504 7.387885384762511,236.42784365868033 5.725253412566246,233.40809232264542 C4.060440510373569,230.3895428167879 2.9225913112903723,227.08165993050136 2.3781863612359704,223.67771134195922 C1.831322668852653,220.27415690186888 1.8781952877525232,216.77635851525446 2.516065584382753,213.3886801637655 C3.15148858510526,210.00054192116238 4.3775684888558,206.72433705778283 6.122669818410054,203.7514825354068 C7.865623215711048,200.77736819388238 10.126664606873922,198.10819565081584 12.773689411352052,195.89991513753978 C15.419118346099001,193.68972309165918 18.449114335422966,191.9416055611469 21.686645452046626,190.7576988952311 C24.923320516717578,189.571453866235 28.365798132912115,188.95005395374523 31.812946680209734,188.92980521344856 C35.26007971383057,188.9070663705929 38.71003857407393,189.48549035598907 41.961254402512964,190.63128195625754 M41.961254402512964,190.63128195625754 C48.78926294676983,195.60089733225635 54.72002587731698,201.0607239358643 60.01871914671952,206.9797415337122 C65.31641052304253,212.8978379106914 69.98203223822107,219.27512528191036 74.2527072385943,226.05478922968214 C78.5223803458881,232.83353195658532 82.39710673837658,240.01465126004177 86.08595635617357,247.51553853804737 C89.77380408089098,255.01550459518447 93.27577503091699,262.8352386268713 96.77288614013912,270.86633784678656 C100.2689953562819,278.89651584583373 103.76024473162076,287.1380590331096 107.39959819381826,295.4567704379772 C111.03794976293618,303.7745606219764 114.82440541891258,312.169519023567 118.88387608318374,320.48165448779537 C122.9423448543754,328.79286873115507 127.2738286338618,337.0212600371521 131.9751853368537,344.9810430665157 C136.67554014676602,352.9399048750106 141.74576788018388,360.63015840687217 147.2546734460918,367.84022413851187 M152.0713642696871,391.9035664679145 C150.51537083835387,391.9129466129286 148.95831007607697,391.6277766232738 147.50663833453376,391.0675535394881 C146.0544537072944,390.5086609734876 144.70872618776454,389.6751277402347 143.56146347915467,388.6239422097175 M143.56146347915467,388.62394220971754 C142.01454968321752,387.2110145104562 140.83386949432963,385.4017476078946 140.16344712592993,383.41684471685784 C139.48864201024438,381.4334275428502 139.32571318770223,379.2791511959766 139.69453653137282,377.2168042281947 C140.05880346869276,375.1536476134272 140.95394091645582,373.18738624445484 142.2707539088962,371.55787432878543 C143.5839641212494,369.92545774686977 145.31568437619367,368.63371684671085 147.2546734460918,367.84022413851187 M12.163491036053415,241.4350636715658 Q17.2611582230261,245.43317297620723 22.028025549909913,249.50196815568947 M22.02802554990991,249.50196815568947 L22.08197378792155,249.54799677505002 M41.961254402512964,190.63128195625754 C150.28497956551342,228.762685453229 258.60870472851394,246.23932148974373 366.93242989151474,236.02683874374932 M147.2546734460918,367.8402241385119 C211.67257357408857,341.3953739881578 276.09047370208555,304.22423435290375 340.5083738300821,256.29211377713125 M340.50837383008206,256.29211377713125 C426.63888208561195,192.20405907877029 512.7693903411417,108.87832179761475 598.8998985966714,6.231979152122165 M811.1919276724329,27.657323966753765 C812.7765414642422,28.164991453831696 814.2290893884672,29.0769968049427 815.3748452712991,30.283632748460317 C816.5232074555829,31.487788527833523 817.3620945443773,32.98375563994243 817.7905946184981,34.591584969772 C818.2225702757305,36.198483963196274 818.2431524135447,37.91348538412919 817.8498677319428,39.53028853373021 C817.4600801587932,41.147938050473996 816.6573401333694,42.663608086325766 815.5382077893935,43.89497910969479 M815.5382077893936,43.89497910969479 C801.8456893702407,37.83110191299642 785.5149189165581,32.298759947294585 767.9797390855475,27.65819479301344 C750.435317041585,23.010362851922956 731.6864856202953,19.254307722253152 712.9083055162426,16.54680095376659 C694.1208831992396,13.832027398470697 675.3041121994737,12.165802204358037 657.3742712488782,11.501426890529622 C639.4351880853309,10.82978478989186 622.3830349709538,11.159992569538344 606.8753086750415,12.241881717908484 M598.8998985966714,6.231979152122165 C599.727549243558,5.237778283791081 600.9553005140456,4.590624108215013 602.2432490442254,4.469678108822469 M602.2432490442254,4.469678108822469 C603.1813744573373,4.376414060690825 604.1444564877078,4.556832924340651 604.9852098528511,4.983342572871009 C605.8272902040866,5.407226259853463 606.5438093790826,6.075566064983483 607.0251886503236,6.886152709705552 C607.5090953466714,7.69523304969857 607.7560068662171,8.64344912607947 607.7281638740751,9.585787463414185 C607.703262058743,10.528207952747414 607.4037071393071,11.461129761377467 606.8753086750415,12.241881717908484 M815.5382077893936,43.89497910969479 C634.6248634409017,243.38521079677147 453.71151909241127,371.2162467921699 272.79817474391956,360.38676066485334 M29.988005798015017,256.5950739037175 Q21.075748417034195,249.28967865720975 12.163491036053358,241.43506367156573 M606.8753086750415,12.241881717908484 C510.14632338739193,155.6484998292207 413.4173380997426,270.2730865261676 316.68835281209306,334.6819777242505 M316.68835281209306,334.68197772425043 C261.8160232979577,371.2197940876828 206.94369378382243,391.5979208697381 152.07136426968714,391.9035664679146" />
    <path class="edge outline visible" d="M143.56146347915467,388.6239422097176 C134.33831558057986,380.17744443121717 125.72666251478849,371.05144727115305 117.58336594673878,361.7044603532858 C109.44028079496717,352.354435540552 101.76571619947104,342.78326380212206 94.42245348099108,333.36439370548726 C88.0906702851059,325.23964897228944 82.01252567265612,317.2218036285491 76.07548497945479,309.50922004904163 C70.13769157076705,301.7929478308007 64.34689645550856,294.3857453290623 58.56948893587456,287.3826930340745 C52.788565712857,280.37416712272767 47.026924459644874,273.7735993704015 41.05251478369421,267.5228090092887 C35.07182641646276,261.2647600541908 28.884264000673557,255.36029644257567 22.081973787921584,249.54799677505005 M811.1919276724329,27.65732396675375 C804.4554098711761,25.490911082842352 797.0353588711605,23.26229345256452 789.1244602122603,21.0930007255809 C781.2130022450057,18.922737467171647 772.810696618867,16.81179911205661 764.0945682397734,14.854540429978517 C755.3778805523249,12.896311216474793 746.3473701119196,11.091761676007946 737.1644011905396,9.508071698402766 C727.9808729608035,7.923411189371919 718.6448862500921,6.5596102432027195 709.3021446964354,5.4566738698018264 C699.7706067407108,4.33047172494563 690.229743505085,3.4753715437028334 680.8157828005781,2.9021025798981155 C671.4008947991381,2.32769118283713 662.1129093288154,2.035111003214222 653.0620898865011,2.003103163678667 C644.0103431472535,1.969952890886843 635.1957624360118,2.1973749581823627 626.7026469355358,2.632122357039083 C618.2086041381267,3.065727322639537 610.0360265514801,3.706657619801172 602.2432490442256,4.46967810882245 M316.5205599307268,334.793655532007 L316.68835281209317,334.68197772425054" />
  </g>
</svg>
