<?xml version='1.0' ?>
<svg xmlns="http://www.w3.org/2000/svg" xmlns:xlink="http://www.w3.org/1999/xlink" version="1.1" width="1024.8301087571929" height="1277.3277154730729">
  <style type="text/css">.edge {
  fill: None;
}
.edge.visible {
  stroke: #000000;
}
.edge.hidden {
  stroke: #C8C8FF;
}
</style>
  <g>
    <path class="edge sharp hidden" d="M45.00983705234728,21.074374108332506 C39.43551448531146,23.031726966126914 34.30819562315377,26.246053438062482 30.11746231558518,30.41043302994644 C25.920399095451224,34.56843292048058 22.666027063396754,39.67042793606637 20.665089896952363,45.22925461920353 C18.65569908893818,50.7850310804284 17.90266233514382,56.789548432687745 18.477883285198573,62.669465343400276 C19.044159179974105,68.550250467927 20.937861878431242,74.29787445260074 23.97817127234913,79.36352570098364 M23.978171272349133,79.36352570098366 C25.725888276492732,82.28150740993111 27.848046251564398,84.97482486036553 30.27622695416055,87.3566456228626 C32.7037062704817,89.73918121854126 35.43681768750233,91.80983684379233 38.387445897320305,93.50185479958802 C41.33757579542232,95.19474143247842 44.50474779956108,96.50871813855134 47.786852492415036,97.40142233157798 C51.068694208870944,98.29509286336904 54.46494051437433,98.76734697115114 57.8660966984894,98.80295941918132 M57.8660966984894,98.80295941918132 C56.48466576677587,96.49828829951876 55.1931341521145,95.31624309428423 53.98081348978309,95.30230605968575 M53.98081348978309,95.30230605968575 C52.5729798293245,95.28929473835097 51.271867446156804,96.84899593959261 50.064964609831726,100.1536355113953 C48.85822417741227,103.46215074439135 47.74569329183544,108.51560434794838 46.7194075320114,115.59474068346596 C45.69328417609309,122.677752680177 44.75340594592759,131.78644740884843 43.89635572978398,143.3100877442952 C43.03946791754597,154.83760374093518 42.26540811932981,168.78006534435028 41.57530653276307,185.63525394276976 M57.8660966984894,98.80295941918132 C213.04557046053327,100.4506453637823 368.22504422257686,239.75501379157237 523.4045179846205,449.2384447371279 M523.4045179846205,449.2384447371279 C683.6248845463117,665.5267931959248 843.8452511080029,956.6276911180096 1004.0656176696946,1248.2717078434162 M1004.0656176696946,1248.2717078434162 C1002.9286817620161,1252.895987320229 1001.848945163681,1256.7752686292122 1000.8264078746878,1259.9095517703631 C999.8037268981551,1263.0472723145197 998.8327495346251,1265.4410181797355 997.9134757841009,1267.0907893660149 C996.9934167092232,1268.7376062219541 996.1225877117621,1269.6343978285777 995.297138970842,1269.7428137858262 C994.4717294174343,1269.8502922695286 993.6917001205704,1269.1693951038562 992.9542985096916,1267.6355226294513 M1004.0656176696946,1248.2717078434162 C1005.0281997125745,1250.03165639096 1006.535660415612,1251.486638864897 1008.3285944126694,1252.3862845472813 C1010.1181514086159,1253.2926297876295 1012.1843830503738,1253.6392013475083 1014.1717255731844,1253.3663574003785 C1016.1600746414147,1253.1009480122407 1018.0597715886967,1252.2174479791024 1019.5439123107003,1250.8678923255518 C1021.033089976226,1249.5238967896225 1022.0994074871543,1247.7204580637083 1022.5593712480919,1245.7679186966752 M1010.7953186786965,1258.4949630074525 C1009.8553188916067,1255.8136932073678 1008.9911002448388,1251.4880275224648 1008.2003247364028,1245.2539317593792 C1007.4096748424698,1239.0165203842846 1006.6924680868702,1230.870678931007 1006.0498836737459,1220.4595360698595 M978.0525147663361,1136.1976769279033 C896.8727450045266,948.0348270197298 815.6929752427169,774.6678817900539 734.5132054809083,623.1391111674504 M734.5132054809081,623.1391111674506 C504.67874933805473,194.13404391699902 274.8442931952012,-59.82551209290375 45.00983705234722,21.074374108332705 M45.00983705234728,21.074374108332506 C43.377299710560905,18.351538400827664 41.870179721180016,17.19326926385437 40.47121039113181,17.68358688036048" />
    <path class="edge outline hidden" d="M23.97817127234913,79.3635257009837 C24.31536278423077,79.91886038716886 24.85746712766609,80.78929008644555 25.882926176544128,82.0798484038737 C26.398745207838225,82.72510271481733 27.040317146595804,83.47739358120667 27.875790775666403,84.33961937213093 C28.712384005930872,85.20087311957117 29.742340153833446,86.17327495802499 31.06515921657389,87.23250803564311 C32.095153213868485,88.05562445664896 33.30559585175795,88.93016043255784 34.74317032467343,89.81063710510897 C36.1800564350588,90.68972021666316 37.84889379228836,91.57588665157591 39.77613430161567,92.38226978997406 C41.70080406537751,93.18765579389785 43.88708907037021,93.91042445476134 46.28850320767827,94.4334213337117 C48.6862176488942,94.95768157030204 51.300665988873384,95.27535930517125 53.980813489783024,95.30230605968576 M53.98081348978383,95.30230605968563 C60.917135638984455,95.38616556670256 68.20521806278171,95.72163986858885 75.88758674667685,96.42042701259014 C83.56796817475973,97.11841053447425 91.64263586294061,98.17970689847351 100.09847263397951,99.69351273255371 C108.55232214920618,101.20651494451674 117.38734074729138,103.17202662656095 126.53476808825361,105.65674298737225 C135.68020817340386,108.14065572606665 145.1380570014317,111.14377314352821 154.78391106961527,114.71028902916373 C163.82672005097533,118.03764595476287 173.03358309425397,121.85735847117544 182.26682679326643,126.10920466997666 C191.50137994388874,130.3607743469582 200.7623137502454,135.0444777063289 209.94861945122634,140.09235022871513 C219.13623460381692,145.13994622928172 228.24922165103223,150.55171139286435 237.22323647683612,156.2519385891407 C246.1985607542498,161.9518892635976 255.03491281025268,167.94030197074844 263.70461317388276,174.13372696932288 C282.3556488587319,187.47242583995177 300.2184680059014,201.7905464262839 317.36874795960097,216.69939875952304 C334.52458849476864,231.61847898998994 350.96788983646735,247.1282909673642 366.9300256100171,263.12652584522846 C372.96186319640856,269.1719524268548 378.81100298524905,275.1773956778894 384.601867292024,281.2442664512607 C390.3905675691537,287.30978179141374 396.1248638149708,293.44322920898435 401.86636598159555,299.70532170523853 C407.60467369060046,305.96400750108705 413.35074554070883,312.3536167201152 419.0750202385483,318.837187174362 C424.79642904985946,325.3171003782828 430.49411376364236,331.88979631215955 436.05703493273876,338.4140803447386 C447.18050765168664,351.4542665926638 457.74872302903646,364.30446622725435 466.51616312351723,375.1999198605339 C470.9040361878544,380.65052005228904 474.8420432966282,385.6063229804579 478.250363552114,389.92682608183014 C481.6629590876258,394.25346414812884 484.54228081140036,397.93749009160086 486.928954740056,401.0101835075575 C490.151777932239,405.15898676294023 492.70910306165115,408.4765591834039 494.8899536875386,411.31749025327986 C497.06615771304814,414.152787279986 498.8613785142955,416.5060195554852 500.4351715772359,418.57478599830284 C502.00618089176066,420.6401604513952 503.35232302034666,422.41692637772724 504.55584523059383,424.00846962647967 C505.7579453226187,425.59826260776117 506.81505532177897,426.9999709239255 507.77023992273826,428.26873557792436 C509.67816830228884,430.8030852685769 511.1797166696357,432.80805388812223 512.4767137703466,434.54277038433537 C513.1242814449108,435.40891454183884 513.7201420409671,436.20658730671335 514.278224311759,436.95391174837584 C514.835318767419,437.7000494996709 515.356541815712,438.3980997663818 515.8288001234914,439.03372093062296 C517.7132155004891,441.56391103479785 519.1323792287154,443.4757143128245 520.3403615615513,445.1041877859211 C521.5425272284951,446.72504090177506 522.5335115000502,448.0625642126997 523.4045179846207,449.238444737128 M1010.8043945800733,1258.5208448919782 C1002.465731290791,1234.975193423952 993.8610210908467,1211.2023370115344 984.9792553506658,1187.218638063969 C976.0980970755112,1163.2362958706965 966.9398832601196,1139.0431111422752 957.5106142956397,1114.6934354081225 C948.0819527961843,1090.3451164282596 938.3822361476406,1065.8403064426643 928.4344737618733,1041.2713461009191 C918.4873188411308,1016.7037425134648 908.2921181831667,992.071988569861 897.8888902205636,967.50641403986 C886.3531258442415,940.2653419221111 874.5673773968505,913.115103380847 862.6494615652385,886.3457217711974 C850.7341110297217,859.5800992732077 838.6865931099854,833.1953337068331 826.6965527835448,807.5867035537009 C818.4725247686921,790.0186065642387 810.2697167089469,772.8046261668069 802.1779054288896,756.1083180699178 C794.0858414336824,739.4109421462498 786.1047742181655,723.2312385231265 778.3174045827479,707.7028637592553 C770.5297822321819,692.173421168605 762.9358574617177,677.2953074372074 755.6112550475989,663.1722799739637 C748.286399918331,649.0481846839406 741.2308671454086,635.6791756620719 734.513205480908,623.1391111674504" />
    <path class="edge sharp visible" d="M28.7190468866209,107.90666863192098 C24.972466734056656,109.22445042824897 21.424577156019378,111.10492005798488 18.230809341658567,113.46569525431596 C15.035938092989545,115.82497691695026 12.196142964675092,118.6638587589135 9.835833872306953,121.85797092165978 C7.474031631271431,125.05097917541286 5.592420863009046,128.59826366979985 4.273433952910767,132.3444197920432 C2.9526956705691494,136.08995880794265 2.1949755860225415,140.0332502414611 2.0334689979957563,144.0015404882601 M2.0334689979957563,144.0015404882601 C1.8121675720021453,149.3344290411952 2.6752605623056334,154.70911066269665 4.555141008816461,159.70458102036724 C6.429394670340432,164.7021652075994 9.318612248429467,169.3156840685809 12.996478203589858,173.1837555063169 C16.669985845079733,177.05596628830472 21.128570941639502,180.17896978433654 26.022987844431864,182.30813817445704 C30.915003913419646,184.44281704337124 36.23809805991404,185.58158950416885 41.57530653276308,185.63525394276974 M992.9542985096917,1267.6355226294513 L992.9542922536077,1267.6355096117968 M992.9542922536077,1267.6355096117968 C991.8406349740292,1265.315556610753 990.8239031012017,1261.057406133428 989.8993576027082,1254.5249216652176 C988.9750160634586,1247.9875579283312 988.142860898542,1239.1758602005625 987.4038639343685,1227.6170724443668 M41.57530653276308,185.63525394276974 C204.36015784579814,187.36369331042587 367.1450091588332,276.31134050889364 529.9298604718679,459.42180279381137 M529.9298604718679,459.42180279381137 C682.4211949593672,630.9534811239696 834.9125294468688,885.1159274837139 987.4038639343685,1227.6170724443668 M1022.5593712480919,1245.7679186966752 C1023.0500635084388,1243.721817497738 1022.8688582641412,1241.5225283396237 1022.0498857082606,1239.5843329700347 M1022.0498857082607,1239.5843329700344 C1020.8878358825937,1244.6310484618325 1019.7869168130705,1248.8222824835652 1018.7471284996894,1252.1580350352315 C1017.7071699619241,1255.4982806827734 1016.7224895926464,1257.9831194456774 1015.7930873918552,1259.6125513239429 C1014.8628645092301,1261.2379110005004 1013.9853184750881,1261.9993233566472 1013.156546544725,1261.8453966068862 C1012.3278210391949,1261.690244467342 1011.547869637442,1260.6197532218894 1010.8140894900623,1258.548220171081 M1010.8140894900623,1258.5482201710813 L1010.8140764025864,1258.5481832116404 M1010.8140764025864,1258.5481832116402 L1010.7953186786965,1258.4949630074525 M987.4038639343685,1227.6170724443668 C987.8755240972171,1228.677500392066 988.5338501444653,1229.6544656790409 989.3396159026715,1230.4897553340652 C990.1447599511338,1231.3256445689904 991.0968957001935,1232.0193948259605 992.1392915402662,1232.5296702146188 C993.1813073680811,1233.0407210735125 994.3130026574054,1233.368012078951 995.4669463931975,1233.4920411405358 C996.6207975352961,1233.6169288856831 997.7962544620132,1233.5384855046168 998.9232792918988,1233.2613857692447 C1000.0505099952172,1232.9851247169333 1001.1286809215923,1232.5103615745784 1002.0935505585439,1231.8653842633096 C1003.0588998599998,1231.2211250991643 1003.91041024943,1230.4070105339931 1004.5973452441516,1229.471548057032 C1005.2849761630497,1228.5365970441812 1005.807648894016,1227.4808190724505 1006.1342211390329,1226.3671225359521 C1006.4616219717714,1225.2536692264755 1006.5927404571089,1224.0829180072153 1006.5197633369215,1222.9246249484609 M1006.5197633369216,1222.9246249484609 C1006.4674553365638,1222.0875443737775 1006.3091732596673,1221.257163757812 1006.0498836737459,1220.4595360698595 M1022.0498857082607,1239.5843329700344 C1007.384095394285,1204.6668965022848 992.7183050803104,1170.1908369199798 978.0525147663361,1136.1976769279036 M40.47121039113181,17.68358688036048 C39.150361674406355,18.150191242215456 37.925992035455046,20.087878389609376 36.78755444898025,23.662621530728842 C35.64925529816046,27.2406683466821 34.59688819981716,32.45577115636099 33.623782326994174,39.56640606329864 C32.650814889826236,46.68034464507015 31.757108678178646,55.68981532410051 30.939869063436802,66.94579709926961 C30.12276788435006,78.20508254927252 29.382133302169052,91.71087909541421 28.7190468866209,107.90666863192098 M1006.0498836737459,1220.4595360698595 C832.9184022965658,687.6156260685477 659.7869209193852,374.51749722065574 486.6554395422043,215.30383138874276 M486.65543954220425,215.3038313887427 C334.009975323677,74.92933832991363 181.36451110514892,54.17668883838508 28.719046886620873,107.90666863192098" />
    <path class="edge outline visible" d="M2.033468997995783,144.00154048826016 C2.855632898973872,123.9684985477418 3.7929292388238123,107.79040409631777 4.891313145857557,94.47456649589364 C5.440900126912085,87.81604559588735 6.028225392392754,81.8786788158142 6.678722985740573,76.49993669171351 C7.330852574273651,71.11789340314955 8.044220869582828,66.29844086176954 8.889957780296488,61.786616998638365 C9.295605856305801,59.62781381779881 9.737301368575148,57.53039557035588 10.24076868851729,55.43875697675669 C10.74586918183229,53.34542820197587 11.312803453195858,51.257751578820724 12.013024728460662,49.072796754654014 C12.451378013418319,47.71781480020118 12.940346127844347,46.30991278284454 13.525870679913874,44.82958969231641 C14.112718913803828,43.347729798853116 14.792156673716159,41.78895395943079 15.647188658798015,40.09073068159539 C16.505403815522687,38.3930775724439 17.5352462857958,36.551482152091715 18.90884957476372,34.51937765123522 C20.287495525196874,32.48995029068187 22.005935382703758,30.265518976836642 24.377497173457296,27.874476868884084 C26.160475396255958,26.092726206659133 28.311500074844687,24.22202754456061 30.9822058928912,22.436654173305218 C33.64537006390736,20.65685511358452 36.82821537438136,18.962381344706973 40.4712103911317,17.683586880360338 M992.9542922536077,1267.6355096117968 C979.030649317441,1238.6839083734694 964.034213715687,1207.958535230521 947.5784750395354,1174.9170786551554 C931.1242146088935,1141.880168557589 913.2297425342214,1106.5461063455018 893.5499392809909,1068.499881869463 C883.7088220631151,1049.4764306620004 873.4200878873073,1029.7753020796029 862.6243137472827,1009.336560002044 C851.8277930187317,988.8972701366687 840.5248289331635,967.7209583798191 828.6350940054834,945.7323505523548 C816.7443328296505,923.7429176228463 804.2673974189019,900.9417802264077 791.0952253398398,877.230561326627 C777.9217473529985,853.5182400105755 764.0536293050409,828.896428794864 749.3452433447744,803.2358829874562 C744.6686387318591,795.085297151611 739.9891260257057,786.9654805766002 735.2203374325632,778.7437387317956 C730.4538283197569,770.525496410089 725.6055386094845,762.2162401561088 720.6486028432414,753.7749877045676 C710.7339551606414,736.8928042152511 700.3972553055863,719.4956184060978 689.4143461917636,701.299076807778 C683.9227485115098,692.201257159312 678.2688474941182,682.9038709574885 672.4290663046953,673.383466578219 C666.588646523418,663.8622197856848 660.56594764377,654.1232844331984 654.3226758973457,644.1242337882607 C648.0754935732634,634.1195343784932 641.6182237182265,623.8700802893896 634.8081117159704,613.1826135473132 C631.4008865157738,607.8357264082181 627.9023981406822,602.3749052071746 624.2699758362382,596.7398634188296 C620.6365391144178,591.1033432754023 616.8700000208986,585.2938162454128 612.8994066593418,579.2097802477984 C608.908569867332,573.0940145006504 605.1991795850639,567.4550287157622 601.78815797782,562.2976507895855 C598.3759191284913,557.1386628923232 595.2606570438995,552.4593059996803 592.4254429942353,548.219666814876 C586.751830837697,539.7368562189039 582.2037528350237,533.0168622128872 578.4694043674335,527.528058571504 C574.7349100251582,522.0405430690386 571.7997532490791,517.7647560371324 569.3572929160514,514.2185043462231 C566.9184679849675,510.6784008305451 564.9703471557121,507.8661875818455 563.3136001848811,505.4796745087831 C561.6599249980707,503.09798709458187 560.3017699175545,501.14891685338796 559.1276059162985,499.4677351994301 C557.9545400484157,497.7882122987182 556.969489058187,496.38280230533746 556.0897345553232,495.1300537075633 C555.2106293642926,493.8782907316124 554.4344609709767,492.7754660454219 553.6910262571906,491.7190464571564 C553.3199576810232,491.19172264204497 552.9572988401706,490.67669559190324 552.6030497346322,490.1739653067315 C552.2492820388445,489.6720840499383 551.9030283103018,489.18147350566915 551.5787791847945,488.7249810563394 C549.6430793579643,485.98833477830715 548.1619434284354,483.9038276099609 546.9361309785636,482.18415103914833 C545.7128761579273,480.46817620245383 544.7449448169498,479.11703196329415 543.904710156582,477.94705836483945 C543.0670331254496,476.7807865005033 542.3570527749287,475.79568527687377 541.7187559245635,474.91174329244546 C541.0830167034343,474.03150304213574 540.518960982462,473.2524220310287 540.0421891997867,472.5981374129428 C539.1736362794719,471.40360258223313 538.4657444745404,470.4361663218155 537.8458655300379,469.5931259682219 C537.2274058295831,468.7521014829095 536.6969743228163,468.03549573565743 536.2216784842578,467.39707553323393 C535.4459826180218,466.35528757560155 534.8113196544391,465.5135133505874 534.2513141644137,464.77895145491607 C533.6926925479888,464.04633355304424 533.2087660493811,463.42097829526244 532.7719829738385,462.864621864637 C532.1571013419941,462.08155044446016 531.6328726368471,461.4313766399162 531.1660897530642,460.86762162413436 C530.7001162101391,460.30492491525547 530.2915355110615,459.8285738491575 529.929860471868,459.42180279381137 M1022.5593712480918,1245.7679186966752 C1021.5313324444656,1250.0925018694006 1020.541999393017,1253.8457016055972 1019.5562669151682,1257.0987692496599 C1019.0630649210639,1258.725873126652 1018.5714273665949,1260.2278361361396 1018.0674967172646,1261.624665208615 C1017.5628800839083,1263.0221787111254 1017.0467358994651,1264.3138598751789 1016.485999076723,1265.5388796722664 C1016.1633185107942,1266.2426372178384 1015.8235826937004,1266.9258498673319 1015.4493583311543,1267.6035784946816 C1015.0742080699611,1268.2815717284677 1014.6645619583985,1268.9540858753346 1014.1770615400209,1269.6435907893876 C1013.8316122994651,1270.1308870973576 1013.4462634241115,1270.6262689756732 1012.9880151320996,1271.137476652806 C1012.5289194552455,1271.6480291013113 1011.9969661251802,1272.174346820309 1011.3354285844696,1272.705823636687 C1010.9127140896749,1273.0445049230811 1010.4382599731205,1273.3804021548674 1009.892851624465,1273.7036552940617 C1009.3479912208173,1274.0260776576606 1008.7312346734036,1274.33435066157 1008.0387098321359,1274.5953525511602 C1007.347174456968,1274.8562292591039 1006.578928876285,1275.0683295856365 1005.7578059908273,1275.1950266900776 C1004.9381140925627,1275.3223042068228 1004.064602977863,1275.362673234387 1003.2011731888733,1275.2957584766323 C1001.933484040302,1275.205246343404 1000.6962632099207,1274.8779107571945 999.6336959099481,1274.4253803226134 C998.5654528613771,1273.9732533702966 997.6718633432166,1273.3959315696109 996.9381916069541,1272.8163410285742 C995.7850173521854,1271.8923246567092 995.0074124515015,1270.966621984499 994.3934104573891,1270.1036214809385 C993.7834101330325,1269.2363760639655 993.3370127152466,1268.4318328156417 992.9542985096917,1267.6355226294513 M1006.5197633369216,1222.9246249484609 C1006.8673223489347,1228.4730726510952 1007.2350341895278,1233.3497290532505 1007.6205347720038,1237.602722651795 C1008.0058153544326,1241.8548147448328 1008.4089179020863,1245.4832733566004 1008.8213183269368,1248.5109848297789 C1009.1779853869314,1251.1279471676946 1009.5435378068562,1253.2976234139228 1009.8944110910869,1254.9952528388483 C1010.2418003760508,1256.6885312446298 1010.5887320007328,1257.9217167772415 1010.8140894900622,1258.548220171081 M486.65543954220414,215.3038313887428 C484.7999507649429,213.59599194661158 482.7707118976968,211.6905258882299 480.5285312229598,209.5435666584371 C478.28511811939563,207.39566723531922 475.8287509066968,205.00627737792811 473.0857163046694,202.30520813412642 C470.3414628293341,199.6031956808716 467.31049551734395,196.5895141758204 463.88494552485224,193.16757083441033 C460.45821155562584,189.74467651899747 456.63679154910096,185.91354336430018 452.2796246462757,181.55096036205464 C449.1645203570862,178.432784869914 445.7506853107691,175.0358764034929 441.97385263201363,171.29888153607018 C438.1946862118,167.5610487606695 434.0526255159464,163.48310658719387 429.41801824176633,158.98024921391914 C424.78104232955656,154.47656169721668 419.6515662863479,149.54794864610173 413.8335888335868,144.08636627512504 C408.0132291872764,138.62395677684833 401.50438043305684,132.6285752215721 394.04432631747056,125.96902127556962 C389.3976988524712,121.80835106906807 384.33140745062826,117.39449027152969 378.78111421484476,112.68196586009637 C373.2270806299785,107.96979588562183 367.18904521117224,102.95896229725257 360.49794028701797,97.61391630697352 C353.8030950137811,92.26922475365315 346.4551802351976,86.59032079842316 338.1803985055485,80.55157988811104 C329.90187642681735,74.51319341475765 320.6964873970212,68.11496998632225 310.1857041961331,61.341209284475454 C306.88980117302197,59.234482342644135 303.49365447570415,57.09842086122311 299.9375322115973,54.93417663715813 C296.38256525571876,52.769815105708496 292.67267876398387,50.576344768079174 288.77762868969637,48.352127949575966 C280.98260287224815,43.905668011806476 272.47314440160113,39.32709010090527 262.8530101137625,34.668274836910015 C258.04015850863055,32.33998074190373 252.9451679450929,29.993488583710803 247.4920082813822,27.646257910854768 C242.03720737013663,25.29950328850739 236.22778761334334,22.951323217160255 229.94417638833158,20.63208272350655 C223.65607158308092,18.313848729407404 216.9024837103842,16.022962538127434 209.44175065958055,13.817317460013461 C205.70924837801675,12.714936398167557 201.79674692827342,11.634552155089281 197.65047587743052,10.58817461161832 C193.50331399578766,9.541969718321988 189.12302405919223,8.529657124307647 184.43098156327773,7.568065315998751 C180.22144815514108,6.716422726937566 175.27921006193577,5.8006585357407925 169.7567076078707,4.972082871740296 C164.23621255868025,4.142531283828103 158.13862299215393,3.402680169227183 151.67217955958583,2.8758749627904003 C145.2064178609453,2.3471677902614734 138.37428864877987,2.032945693084897 131.40271411495235,2.002660230582275 C124.43081603051455,1.9700496249290171 117.32127548592402,2.221742042211108 110.29154824656115,2.7614462085810874 C103.26081255846036,3.2989049198638805 96.3110095460898,4.123668989569134 89.63095140076524,5.175935576456806 C82.94952029498452,6.226539261442675 76.53826993574548,7.502866294018723 70.54716261218394,8.897913754743257 C64.55463820285729,10.29238373187332 58.9820092176971,11.802722188632789 53.93915253501161,13.305117839983469 C48.89515502766168,14.808524291168997 44.37999872026803,16.30006320949989 40.47121039113131,17.68358688036119 M1010.8140764025861,1258.54818321164 L1010.8043945800732,1258.5208448919782" />
  </g>
</svg>
