<?xml version='1.0' ?>
<svg xmlns="http://www.w3.org/2000/svg" xmlns:xlink="http://www.w3.org/1999/xlink" version="1.1" width="895.5203748426438" height="748.5962337394759">
  <style type="text/css">.edge {
  fill: None;
}
.edge.visible {
  stroke: #000000;
}
.edge.hidden {
  stroke: #C8C8FF;
}
</style>
  <g>
    <path class="edge sharp hidden" d="M7.704450706880344,361.79360457702177 C5.681229130174629,359.0026342988285 4.1455435659912165,355.85986138738554 3.1867440050078075,352.54860774172715 C2.2255785883345576,349.2380668589803 1.8419640592147428,345.76092024141724 2.0584994060081163,342.3204760360868 C2.2725416540196304,338.8798705116804 3.086617426221161,335.4778157976479 4.453095557616345,332.3130425390535 C5.817286625899241,329.1472815567029 7.733122948346366,326.2204736060016 10.088595860892,323.7035430446888 C12.442255173457955,321.18491644819295 15.234293700557082,319.07751177469174 18.301665902305558,317.50452492029854 C21.367899543371394,315.9293222284861 24.70784969575563,314.8894046261059 28.126418699611435,314.4455956307145 C31.544659906947377,313.9993099208009 35.03968349742875,314.1493726042462 38.40712474334349,314.88684080685283 C41.77511883046858,315.6219007589104 45.01361528247603,316.94382831187005 47.93372381576981,318.7757417366783 M7.704450706880344,361.79360457702177 C7.264241736805965,361.1858943027092 6.846844892154653,360.56166002811653 6.453434353040194,359.92265778825157 M47.93372381577046,318.7757417366783 C323.9683686359522,491.8073645438172 600.0030134561321,395.7309529931484 876.0376582763129,84.37844295243917 M876.0376582763133,84.37844295243912 C876.8477924637482,83.46386609494782 877.8273812455457,82.70020882157019 878.9119884153381,82.13758486959784 C879.9960990045985,81.5740360643588 881.1844430523599,81.21199417529317 882.3986255331758,81.07543265933697 C883.612691689322,80.93781393576405 884.8517621860708,81.02576913510265 886.034180919669,81.33346166691138 C887.2168667233256,81.6401285528183 888.3421024418247,82.16630699075428 889.335756522199,82.87727022568993 C890.3300243936967,83.58737483247683 891.192033008917,84.481779840302 891.8649341321736,85.50158098140872 C892.538719281422,86.52079750813171 893.0229249578134,87.6647278713777 893.2856033959017,88.85799883085812 C893.5493197961199,90.05103772570585 893.5913275478013,91.29259773395441 893.4089401442251,92.50074419057778 C893.2275885276467,93.70906120827776 892.8220358496465,94.88306872016732 892.2188465352729,95.94558031113212 M559.9913184768802,516.2362182607192 C375.8956958868805,651.7458275768067 191.80007329688064,615.9383606118004 7.704450706880436,361.7936045770217 M404.6559446518171,396.87999206619054 C427.11989402655234,392.9064519324103 449.5838434012876,387.3042276441418 472.04779277602285,380.1023331977998 M472.04779277602285,380.1023331977998 C606.7110812761196,336.9295689880588 741.3743697762161,236.27152475075687 876.0376582763129,84.37844295243914 M7.70445070688038,361.7936045770217 C15.30506868810094,374.0696733051039 22.069902614161535,387.0306348814101 28.462311018766503,400.8462184012581 C34.85172129013297,414.65589638254164 40.868706040043826,429.3201963073673 46.892676071525514,444.843492191265 C52.91364796976872,460.36088253659926 58.94160514958277,476.7372688410073 65.27201068331637,493.81167004023524 C71.59941808381143,510.88016570090036 78.22927383822598,528.6466762563855 85.37309328823088,546.7848655626555 C92.51391460499728,564.9171493303612 100.16869961735397,583.4211118488516 108.46501593629401,601.8050618943047 C116.75833412199562,620.1831064011946 125.69318361428027,638.4411384350467 135.31318429346373,655.9221116922574 C144.93018683940846,673.3971794109034 155.23234057225173,690.0951883529087 166.17931764163092,705.1937371348808 C177.12329657777138,720.2863803782892 188.71209885044794,733.7795634616664 200.82144887861978,744.6855299218369 M361.61345852842203,593.7696946499946 C318.37838114701276,595.2659545644345 275.1433037656035,586.3816727670709 231.9082263841942,566.5077852640877 M231.90822638419417,566.5077852640876 C157.17363449175633,532.154501731159 82.43904259931841,464.9650127650516 7.704450706880436,361.7936045770218 M876.0376582763133,84.37844295243912 C877.4852306779917,82.73739264886021 879.4870776928785,81.59826624063717 881.6370277970141,81.19141901754129 C883.784963560491,80.77406776357017 886.0661966585145,81.0918349698628 888.018154028683,82.08096306168272 M876.0376582763129,84.37844295243917 C867.2829497158713,79.63557689355817 857.5439936929434,74.74444911492725 847.2165154539231,70.03042546016503 C836.8876389438988,65.31166771957386 825.9702402177832,60.770014102851604 814.8208929338838,56.598276050404465 C803.6701473789815,52.421803912128304 792.2874532662969,48.615247338127396 780.9902326660534,45.23886336559524 C769.6916137948072,41.857745307234126 758.4784684360026,38.90679985034178 747.629067071779,36.31372962889937 C736.7782674365523,33.71592532162789 726.2912117959067,31.475996249806297 716.4070190438964,29.389090644202945 C706.5214280208833,27.297450952770557 697.2386998865051,25.358834727556385 688.7588019467316,23.235835796116255 C680.2775057359551,21.108102778847037 672.5990397197827,18.7959870553518 665.884219616099,15.829528049973653 C659.1680012414121,12.858334958766418 653.4154287792137,9.232798585676258 648.7481663593026,4.350403951833642" />
    <path class="edge outline hidden" d="M472.0477927760221,380.1023331977998 C465.13199297606246,382.31667370894166 459.95779744836966,383.9788975480347 455.8007310057588,385.35117040235036 C451.6525251847196,386.71909429733637 448.52134149769046,387.7969794751609 445.9307384736152,388.72516851845785 C442.96627619821436,389.78715988263286 440.7088860214868,390.654533053646 438.74174398482666,391.45463025402444 C436.78159936058466,392.2531891752444 435.1118922189052,392.98452894876067 433.51171152396296,393.732849331101 C431.94695494584096,394.4656453979617 430.44955373884784,395.2149560717468 428.9140706994324,396.0381894633709 C427.3806230039387,396.8609369565672 425.8092340704294,397.757334425487 424.15163817308564,398.77098559861696 C421.43215036062793,400.43376804292575 418.47859863726114,402.4055001605098 415.24358803315414,404.8118166004495 C412.0122374088589,407.21491513705325 408.5104480406444,410.0436814944068 404.78456453373803,413.34293125917003 C401.06061520396906,416.63948937450823 397.1089150234314,420.41320204884045 393.02122569753266,424.6428009159198 C390.97850742062815,426.75598659138734 388.9029973938124,428.98122266279836 386.8204936485304,431.29601629511114 C384.73872177536714,433.6098702990163 382.64915393419363,436.01422100855336 380.5979440154788,438.46041102814024 C378.29559209004583,441.2048974436031 376.04251787348363,443.9985982646382 373.97298785796175,446.6659507187402 C371.9067775464412,449.3269989315691 370.02426370773435,451.86154179476034 368.55255410776977,453.9176895844082 C366.7798557008913,456.3877314452673 365.6148828539211,458.1613799468024 365.54334210930017,458.278110440351 M231.90822638419468,566.5077852640875 C236.52189702469613,568.6259601618244 240.4950591571661,570.3257226563011 244.07486937487806,571.7860914873144 C247.65065277295,573.2433481557091 250.82798851778244,574.4570818529529 253.74267023618847,575.5203259977976 C256.6552272768925,576.5819894259439 259.3020879947751,577.4907396635747 261.7606126500191,578.2962262347036 C264.21808224927173,579.1009738363475 266.48567213370416,579.8012711782887 268.611928230353,580.426673752291 C272.8606649120718,581.674996674175 276.55467737518285,582.6306082198595 279.9173558631387,583.4219150047544 C283.27721720898603,584.2116785805335 286.29154441924754,584.8261290954842 289.08795888248915,585.3350991438645 C294.58728884257664,586.3292270722336 299.23497950581685,586.9092891753422 303.4244306106075,587.2637207010314 C307.60618356412783,587.6139408794533 311.32944847516455,587.7383655001662 314.77180303513524,587.707330291186 C320.2610792892598,587.6524263725676 325.0636506847676,587.2181070376663 329.56174566463324,586.4994938275058 C334.0537670389439,585.7769183379875 338.24132906382295,584.769632141169 342.33607040961624,583.4609900446893 C346.88729883257326,582.0009035898555 351.33046132980064,580.1636196731909 355.8554367604692,577.8353775862303 C360.3782462573924,575.5040005525794 364.98294915645033,572.6782612781194 369.7987734724038,569.1566030384531 C374.61239539275317,565.6334119439888 379.63721405188,561.4108705327343 384.940788957489,556.2444871635919 C390.2421261314221,551.0781848252589 395.8222952171803,544.9645861386817 401.68620107476005,537.6614558692653 C407.1922574186727,530.8050266512261 412.94677354312677,522.895167880558 418.8660567553906,513.8684620066057" />
    <path class="edge sharp visible" d="M6.453434353040194,359.9226577882516 C4.694435931237357,357.06768303616815 3.4201076415720335,353.91542225808894 2.700677629022376,350.6400659591818 C1.9790883880296284,347.3652054748129 1.8128608622139302,343.96890747861244 2.2113387858192266,340.6392475152 C2.6075948935342512,337.3093182154318 3.568364893369381,334.04762878118754 5.040427607686743,331.0346442023815 C6.510484630263467,328.02067955884235 8.49110863590409,325.25684557700254 10.87263695865194,322.8960249283621 C13.252597790447073,320.5336240889149 16.03232385505848,318.5753665122385 19.058052567645927,317.1296776522295 C22.08281743174837,315.68197525743307 25.352153327908123,314.74755578197096 28.68517168887064,314.3781824615436 C32.01793865053706,314.00658522422964 35.4127847507046,314.2002127674971 38.68171596436915,314.9482040409281 C41.95116039968934,315.69404015704265 45.09303573306675,316.99376320153135 47.93372381576981,318.77574173667836 M892.2188465352729,95.94558031113212 C781.4763371824754,291.211949010795 670.7338278296779,434.7205691325364 559.9913184768803,516.2362182607192 M47.93372381577046,318.7757417366783 C166.8411307611196,393.31255069754513 285.74853770646837,417.91295229145146 404.65594465181704,396.87999206619054 M47.93372381577046,318.77574173667824 C54.81740230402803,330.4349253833312 60.745599832905384,342.8803881974448 65.98741177962557,356.3275969456179 C71.22997648018573,369.7687649164604 75.78615559858873,384.21167882136285 79.94612161957447,399.7026636616646 C84.10684039440004,415.1876077246357 87.8713460718083,431.72062272300656 91.55088824405536,449.17889189285654 C95.23118317014226,466.6311202853759 98.82651459106809,485.00860284937465 102.66920920660529,504.0193810556723 C106.51265657598239,523.0241184846395 110.60346713997095,542.6621515559057 115.29504470586001,562.4723799750309 C119.987375025589,582.2765676168252 125.28047234721852,602.2529506064789 131.54881758555416,621.7712868842915 C137.81791557772968,641.2835823847735 145.06226148661136,660.3378311734145 153.67741333452113,678.1346494252547 C162.29331793627077,695.9254268997643 172.28002847704857,712.4587738374732 184.05418008669312,726.766164648161 M200.82144887861978,744.6855299218369 C199.65846663658095,745.4155130570064 198.37422653088336,745.9515991390285 197.03740025948218,746.2651219458321 C195.70077225355203,746.5794893681378 194.3121551390241,746.6711539238876 192.94580122707944,746.5352141190779 C191.57936171973918,746.4001375709552 190.23579672094684,746.0375170251532 188.98694988638545,745.4667423446085 C187.7377426742214,744.8967568008983 186.58381214358366,744.1188723007947 185.58686113848424,743.174684362404 M185.5868611384842,743.1746843624042 C184.4973314255649,742.1443177134631 183.59602169137023,740.9157804232548 182.94024526500093,739.5671931550778 C182.28336173703298,738.2191448054818 181.8724288714485,736.7519033001481 181.73357726569725,735.258768601514 C181.59349971499248,733.7657484084428 181.72559176775786,732.2477842816427 182.12145358826388,730.801401607794 C182.51612756252322,729.3546944662965 183.17432103601732,727.9804873886028 184.05418008669312,726.766164648161 M892.2188465352729,95.94558031113212 C715.3503838663227,407.80832068694747 538.4819211973725,587.6487112529821 361.61345852842203,593.7696946499946 M888.018154028683,82.08096306168274 C889.2246190943387,82.68753707598282 890.3058499748067,83.54190368582132 891.1740573337682,84.57595130422109 C892.0435474341355,85.60895549187687 892.6996263718904,86.82036125724426 893.09042157007,88.11284095251487 C893.4826812164235,89.40487695025219 893.6092694820936,90.77670744704325 893.4593183390014,92.11858126414955 C893.3110133508512,93.46061111693346 892.885781312831,94.7714048591832 892.2188465352729,95.94558031113209 M184.05418008669312,726.766164648161 C244.54940315402854,643.202497885637 305.04462622136447,552.5313643960098 365.5398492887001,458.28355204258276 M365.5398492887001,458.2835520425827 C459.9426216455676,311.2098770710873 554.345394002436,155.4264201917308 648.7481663593026,4.35040395183367 M648.7481663593026,4.350403951833641 C649.1451678988351,3.7139409605540896 649.6878563310361,3.1691991501216847 650.3228148085738,2.76979716077313 C650.9571362387043,2.36938402323821 651.6827448655401,2.1149294563975807 652.4282185922447,2.0314803276964546 C653.1735584380365,1.946843676445869 653.9376084198344,2.0333428225450327 654.6451631942679,2.2824630931765313 C655.3531139345665,2.5304558665408323 656.0034730811976,2.940684473301562 656.532225527365,3.4727704552058345 M656.532225527365,3.4727704552058345 C657.1990668428729,4.140653163667723 657.6694028450563,5.0015520812552605 657.8711528502199,5.923529187966976 C658.0757886299774,6.844869972966011 658.0110544339163,7.823731721552462 657.6868699440147,8.710100989628131 M657.6868699440147,8.710100989628131 C578.0799322144738,227.42836483347278 498.4729944849319,392.4890783764165 418.8660567553911,513.8684620066056 M418.8660567553911,513.8684620066056 C346.18452079646744,624.6884519170555 273.502984837543,699.0966367372796 200.82144887861978,744.6855299218369 M892.2188465352729,95.94558031113212 C882.7351937761456,90.46370549972772 872.4495591574064,84.9871794147434 861.6838115918546,79.78557653277485 C850.9172589493064,74.57967524949308 839.6705933599478,69.64869716922722 828.2431415806925,65.14186153180361 C816.8148847244421,60.63072749306686 805.2058416782971,56.54373589717238 793.6927970432895,52.909750747177334 C782.1789473312867,49.271467195869064 770.761096030422,46.086190090460256 759.6934855858448,43.262428197238435 C748.6250700642714,40.43436790270344 737.9068953989862,37.9678228203555 727.7706618792537,35.65094647971288 C717.6336232825254,33.32977173775704 708.07852583135,31.158265737506508 699.3145276591094,28.804226771710088 C690.5497244098722,26.44588940460047 682.5760204395709,23.905019071945013 675.5800317257008,20.72905882972303 C668.5832379348354,17.548800186187894 662.5641594004019,13.733451633086265 657.6868699440147,8.710100989628131" />
    <path class="edge outline visible" d="M6.453434330757773,359.9226578156258 C10.362354347468793,366.27208384572816 14.048881087643842,372.92055845443997 17.60120159768224,379.94232626963264 C21.152830069782624,386.96248233691443 24.570211380639666,394.3560019614469 27.92215551438796,402.15200082958796 C33.00648270393154,413.97658991243185 37.938804383998225,426.7420769253759 42.923665135109545,440.38728854086503 C47.907105376676114,454.02849528757946 52.942890405590866,468.5473169302005 58.19579053512453,483.7704438154959 C63.44736122559625,498.9905547570046 68.91585273299047,514.9128612345486 74.72881107684472,531.2796071688595 C80.54053105211983,547.6443260843693 86.69652358015855,564.4513747500075 93.28966036028257,581.3862405601003 C97.13851076795541,591.2716966024163 101.14024135668059,601.1938886671915 105.31315664196967,611.0836500415193 C109.48661644136946,620.9727851741986 113.83125727513496,630.8294956396259 118.38063005387556,640.5670799587298 C122.9305490633824,650.3040352128129 127.68519635566591,659.9218703437667 132.69341730278592,669.3162700519198 C137.70218619732756,678.71003787168 142.96452508450693,687.8803762918332 148.54462186418698,696.7052771376796 C154.01212570193994,705.3508104942556 159.78682841548766,713.6583647320731 165.94040013194638,721.4681335862595 C172.09323807898318,729.2756673553869 178.6250168867277,736.5853138296111 185.58686113848216,743.1746843624042 M365.5433421093001,458.27811044035093 Q365.5397646102789,458.28366962624307 365.5397876778743,458.28364801293196 M365.5397876778743,458.28364801293196 L365.5398492887025,458.28355204258264 M888.0181539328705,82.08096323188732 C877.826390117866,76.94546695753743 866.6316344567141,71.61102227164203 854.8740732522465,66.50249423503138 C843.1149933665848,61.38744072235279 830.7928453701699,56.497111622801704 818.3048907862237,52.0718346459408 C809.8764223836642,49.08183499174749 801.3714137634294,46.291535874274 792.9064227540018,43.736387275575474 C784.4411789301078,41.17931596482231 776.0153472353799,38.854431166601984 767.7393206117397,36.746360861461014 C759.4631385412894,34.637009340697 751.3368938385648,32.744547709375915 743.4666825700172,31.018491365067295 C735.5962954227823,29.29106924239355 727.9818796417917,27.730256088383296 720.7244104525364,26.24687238254214 C713.4668254205382,24.76226835847146 706.5660167499268,23.354257583408177 700.1198743690151,21.898861827523866 C693.6734775672514,20.442760310090975 687.6825732095858,18.937972516980544 682.239046687781,17.240990324272328 C676.7941721218729,15.543508088526023 671.900620823141,13.654382798966752 667.615219553662,11.418235687294203 C663.3251877913646,9.179990469824304 659.6535120037299,6.601188104221597 656.532225527365,3.4727704552058185" />
  </g>
</svg>
