<?xml version='1.0' ?>
<svg xmlns="http://www.w3.org/2000/svg" xmlns:xlink="http://www.w3.org/1999/xlink" version="1.1" width="998.5393182594198" height="892.2383863572926">
  <style type="text/css">.edge {
  fill: None;
}
.edge.visible {
  stroke: #000000;
}
.edge.hidden {
  stroke: #C8C8FF;
}
</style>
  <g>
    <path class="edge sharp hidden" d="M7.621542826284269,454.3347919859816 Q6.937365701031221,453.38079297955187 6.329799812426687,452.37626517117496 M7.621542826284269,454.3347919859816 C15.506370633850327,467.2968631166952 22.4335068050943,480.9363354233233 28.83754881418892,495.5553689404872 C35.23970692777036,510.1670594693009 41.1187708792025,525.7583112086509 46.856589068289665,542.4256805193581 C52.59252336186367,559.0857068417154 58.18721189309276,576.821850735431 63.96975398741303,595.5250648875269 C69.75041218622006,614.2209360512726 75.71892394811837,633.8838774733998 82.1516395241754,654.1992381671305 C88.58247120471933,674.5072558725115 95.47750669942218,695.4676928494969 103.06034718498324,716.5602944375114 C110.64130377503119,737.6455530371751 118.91006535593728,758.8629762478689 128.03748403003289,779.4867057352153 C137.1630188086152,800.1030922342131 147.14721068038685,820.1257850098635 158.10816267331052,838.6233220539954 C169.06723077072095,857.113516109776 181.00305898928355,874.0785544340383 193.98100128259236,888.3813713448066 M428.5132081049222,512.4652719232449 C459.87103291939013,508.9334622242584 491.22885773385786,502.3941778417127 522.5866825483253,492.7905168957034 M522.5866825483253,492.79051689570343 C674.5982430759346,446.23539083646756 826.6098036035448,327.6684910845209 978.6213641311548,130.6076735827352 M978.6213641311548,130.60767358273517 C969.8669365012651,125.23605327259641 959.9989884781157,119.47707841800245 949.3888492614053,113.76420796571568 C938.7783719399221,108.0447722682797 927.4257034248797,102.37144097315117 915.6927059823433,96.99384616291472 C903.9593704350327,91.60968610752907 891.8457059602322,86.52126253703575 879.7041078903675,81.79438066984173 C867.5621717157313,77.06093355749849 855.3923019460328,72.68902814845465 843.537426980071,68.56064279693953 C831.6822139093362,64.42569220027521 820.1419956423374,60.53426166113959 809.2502336442376,56.58450266958438 C798.3581335413649,52.628178432879835 788.1144897073915,48.61352574375574 778.8432966738451,44.054869228085764 C769.5717655355252,39.489647467266515 761.2726851976344,34.38042187990147 754.2605832580626,28.05769022768665 C747.2481432137195,21.728393330322522 741.5226815676965,14.185590368108636 737.389258984254,4.575952238563332 M978.6213641311548,130.60767358273517 C979.3481681180456,129.66469569460784 980.2452256378285,128.85351392209037 981.2563391709461,128.22494649524862 C982.266947931486,127.59556741028669 983.3909905362482,127.14918855743565 984.5580510742441,126.91377338096643 C985.7249222327894,126.67742149084106 986.9340914529885,126.6521792810421 988.1098092871865,126.83962874923228 C989.2856772434822,127.02613433184256 990.4273689059012,127.42521611825022 991.4633630214859,128.0118726597416 M384.4793510897613,697.7780507086352 C336.7925538346172,699.8498534138262 289.1057565794735,690.5078268843366 241.41895932432945,668.5373060650654 M241.4189593243295,668.5373060650653 C163.48648715831484,632.6318332554824 85.55401499229956,562.9982378465816 7.621542826284269,454.3347919859818" />
    <path class="edge outline hidden" d="M522.5866825483255,492.79051689570343 C517.5363881605001,494.33440625550867 513.1623439019746,495.64754200730124 509.31983351333565,496.7951953589197 C505.4780132208867,497.94231609430267 502.1677218591484,498.9239513358906 499.2635629208031,499.7904571947227 C496.3600975515045,500.65643261252103 493.862754727247,501.4072724603227 491.66555493282203,502.0784786580154 C489.4690544955408,502.7491580400108 487.572682270566,503.34019449103675 485.89003780150165,503.87233724924613 C482.2617479366885,505.0200237405227 479.604947676047,505.9161182278865 477.34574404372904,506.7194036334397 C475.09579975276694,507.52077366762023 473.2439096450316,508.2294830451174 471.4753382952997,508.95053687210714 C469.30710270367246,509.83688158696475 467.25878126569955,510.74303278313846 465.0345867763429,511.8203860662992 C463.4048758706649,512.6110878893778 461.6897247470869,513.4865321475091 459.83438394979913,514.4968763060929 C457.98023572769137,515.5066363164174 455.98710116818665,516.6506712184738 453.83337292677396,517.9629753413083 C449.53062229531525,520.5847943786584 444.57267131645216,523.8884669172838 439.0006509320214,528.0323744170347 C436.2165390315107,530.1029044987159 433.2824912575846,532.3813231439685 430.2201343281188,534.8725752680829 C427.1582880228628,537.363199647883 423.9676566401227,540.0673290177245 420.6839143819144,542.9725244670007 C417.40100423036716,545.8767014331361 414.0240874668422,548.9829401198592 410.61188728610057,552.2504771034799 C407.201037482545,555.5164529292023 403.75358871069966,558.9450468229521 400.36582473281646,562.4519759548252 C398.3443770502729,564.544324310004 396.3464179342335,566.658389917805 394.4038108534797,568.762221410472 C392.46156294475713,570.8653612388279 390.5746787378803,572.9582550635239 388.7850766147263,574.9895884528959 C385.2090410280029,579.0460786115964 382.0102179764161,582.8796257122731 379.6427085457951,585.8489185997068 C377.108413111199,589.0176129337326 375.54586198782636,591.1829355076153 375.5486302455317,591.1870702946449 M455.52452822445366,592.5619280656405 C449.54786921687355,602.1136513900071 444.0670841339164,610.3158353855082 439.009456565626,617.4763495544499 C433.951806457501,624.6351069725519 429.3173127628491,630.7521940358936 425.0326273005936,636.0862909087334 C420.74792007277995,641.4186314021254 416.81301887497506,645.9679806486132 413.15396543473685,649.9438398733785 C409.4948915194025,653.917943337683 406.11166205805307,657.3185551956606 402.9297448198123,660.306015065041 C398.11341312885463,664.8239557179738 393.7601864087012,668.4104684469886 389.62868499231104,671.449600288993 C385.4980397956903,674.4826517673899 381.58849382473164,676.9682939334573 377.6821848096492,679.1202664554736 C374.5459390894507,680.844879738823 371.3996068481156,682.3514591649654 368.1472834912429,683.6888931614692 C364.89436376194254,685.0247907136268 361.5354828222683,686.1915387378801 357.95802953365495,687.1950004635723 C354.37996904898085,688.1969295380883 350.5833524910363,689.0355602281198 346.43855911538424,689.6738367735387 C342.29315410886534,690.310588205165 337.7995749308127,690.7469654185977 332.81106705633204,690.9032047109847 C330.3517009115387,690.979551067503 327.75719058642994,690.9809101340596 325.00969911751406,690.8967386525037 C322.26122720433153,690.8119888532926 319.35978705695345,690.6417298098293 316.2600904195016,690.3592213457006 C313.1594068349281,690.0761261614939 309.8604815961825,689.6807961031036 306.29039307507173,689.1300588080042 C302.71931020103705,688.5787295579244 298.877080806829,687.872000860238 294.66294252945954,686.9501215890484 C291.6815933666561,686.2965318349729 288.5007131743585,685.5249886556905 285.05442125178615,684.5992926425827 C281.60498188967324,683.6713626659077 277.8871910538198,682.5863307409542 273.7569378755395,681.2533664021223 C269.6210194933817,679.916433326302 265.0863209734344,678.3419186509898 259.8600038776703,676.3357871977973 C257.24377714784345,675.3304761835991 254.4504003231089,674.2142284611361 251.40784425081983,672.9365566351926 C248.36382286753442,671.6577738470949 245.07182895940667,670.2185138526313 241.41895932432968,668.5373060650655" />
    <path class="edge sharp visible" d="M6.329799812426687,452.376265171175 C4.595479350761845,449.5108458137419 3.346890234762484,446.3525870680399 2.652966628724194,443.07585611094186 C1.956870447559827,439.79958599437356 1.8157714280781871,436.40640706274974 2.237459729599868,433.0836559968669 C2.656944687574725,429.76062605313564 3.639016280000754,426.5096095459944 5.129454444553474,423.5100945959133 C6.617903367546775,420.509592024038 8.614008134188998,417.7620225238126 11.007564185774964,415.41907887837317 C13.399566153161247,413.07454863186643 16.187877682342414,411.13576256204504 19.21855659301672,409.7097607085684 C22.248289284585862,408.2817495886541 25.518943420424197,407.36720363420557 28.84994672082935,407.01661480087336 C32.18071682250266,406.6638173242712 35.57024673707141,406.87514474930015 38.831401221166715,407.63892963837367 C42.093061454289696,408.4005519408208 45.224789898425776,409.71426790149974 48.05368435287097,411.5075475054611 M48.05368435287096,411.5075475054611 C55.23034190811869,423.84170411928187 61.32798302661984,436.9653406602951 66.58915449731101,451.2180356659106 C71.85214362150039,465.4633497729203 76.27866309787987,480.83772234453295 80.16215401333726,497.4740667571924 C84.04746258229288,514.1030302712454 87.38974259032658,531.9939656263464 90.53332942227742,551.0731210379693 C93.67873390772651,570.1448955509859 96.62544521709299,590.4048901205268 99.76869303316728,611.5726878010981 C102.91375850273985,632.7331045830636 106.25536047902038,654.801324476061 110.23962294275076,677.2902653736305 C114.22570305997945,699.7718253725941 118.85444366465791,722.6741063761301 124.62286303547978,745.3033611168121 C130.3931000597998,767.9252349588874 137.30301585026314,790.2740825381096 145.9005229835143,811.4494914260822 C154.4998477702637,832.6175194154489 164.7867638998012,852.6121087135674 177.36007824672237,870.3261817310749 M193.9810012825924,888.3813713448066 C192.73556703990732,889.1491673577395 191.3541260344476,889.6953556631931 189.9203727296948,889.9868453100122 C188.4868421921988,890.2794290722247 187.00182444378788,890.3171468085043 185.55528875423332,890.0977132200741 C184.10858604562202,889.8793835476121 182.70119908217356,889.404028378715 181.4183939933372,888.700446791194 C180.13505235439783,887.9978443386276 178.97703163574496,887.0674206826308 178.01448967159558,885.9655454579753 M178.01448967159558,885.9655454579754 C177.0863739535351,884.904629127868 176.3400369431531,883.6852627273131 175.81750188018242,882.3761029509016 C175.29407266507832,881.067300428246 174.9947052151188,879.6693544242742 174.93625534100974,878.2609772273502 C174.87684346503224,876.8526402709556 175.05837815425238,875.4345716804042 175.4706379436409,874.08661649268 C175.8819767833848,872.7383800909917 176.52383714156343,871.4609257747356 177.36007824672237,870.3261817310749 M48.05368435287096,411.5075475054611 C174.87352560355475,491.8416573629902 301.6933668542385,526.7489012248042 428.5132081049222,512.4652719232449 M177.36007824672237,870.3261817310749 C243.58174150039457,780.4018608998124 309.8034047540667,687.710238383901 376.02506800773887,590.4969828572581 M376.0250680077388,590.496982857258 C496.47979833324405,413.66970454396636 616.9345286587493,221.88203809411468 737.389258984254,4.575952238563275 M991.4633630214857,128.01187265974158 C992.6303475102886,128.6712085453395 993.6619452803727,129.56850593882677 994.4766386559911,130.63286073942413 C995.2925461625937,131.6962850878296 995.8907425923861,132.92571510927732 996.2239581818214,134.2240005797132 C996.5586551599957,135.52190495028952 996.6280415086933,136.887380265064 996.4266349069449,138.21252554862127 C996.2267408760316,139.5378996000346 995.7562507124501,140.82163502320222 995.0523431271811,141.96228974999548 M995.0523431271811,141.96228974999548 C985.5443378829127,135.87408145052953 975.1097099571691,129.5487314312075 964.0444708659795,123.36489582681125 C952.9794976271758,117.17492333888917 941.2839132229259,111.12646526589329 929.2611730360456,105.42634500388056 C917.2386987015498,99.7200878583419 904.8890685844237,94.36216852378675 892.5231819342627,89.3875776575467 C880.1575611364865,84.40684990778077 867.7756838056756,79.80945062633013 855.6958930582094,75.4585377318015 C843.6163681631284,71.10148795374693 831.8389298513912,66.99092456261438 820.6893651061607,62.81817273828527 C809.5400662133147,58.63928403043025 799.0186408869754,54.39820688937867 789.4583199770859,49.61443375628684 C779.898264919581,44.82452373966906 771.2993142785272,39.49191773101096 764.0021427706499,32.964275432743584 C756.7052371151578,26.430496250950227 750.7101105928425,18.701680779547583 746.3648817872132,8.953655982241346 M737.389258984254,4.575952238563332 C737.8349463719736,3.7691334519478756 738.5093218408082,3.0909320612518587 739.313605045535,2.640687376433969 C740.116569512431,2.188094734209281 741.0466182524868,1.9650447319422795 741.967518940744,2.004211014451664 C742.8885301396426,2.040686687866471 743.7971574965221,2.339244993866283 744.5603078148042,2.856152792089879 C745.3249650080261,3.3708288666081994 745.9414606797254,4.1020428191159475 746.3194914053458,4.942688710006997 M746.3194914053458,4.942688710006997 C746.6029548623467,5.5695557327630665 746.754676328185,6.25548303455273 746.7620373581656,6.94342111343893 C746.770246940687,7.631349466905598 746.6340868880271,8.32053452333037 746.3648817872133,8.953655982241344 M995.0523431271811,141.96228974999548 C791.5280124480419,472.1870578310976 588.0036817689013,688.9357236255814 384.47935108976134,697.7780507086352 M746.3648817872133,8.953655982241344 C649.4180972662931,237.34596765485642 552.4713127453737,437.58787696589286 455.52452822445366,592.5619280656405 M455.52452822445366,592.5619280656405 C368.34335257716646,731.9251883992855 281.16217692987914,834.6810751783207 193.9810012825924,888.3813713448066" />
    <path class="edge outline visible" d="M6.3297998124267,452.37626517117496 C10.62963506339814,459.4972767386977 14.630584173996782,466.919896655148 18.425604034614707,474.78153074742704 C22.22023168149344,482.6409110484709 25.80877550908839,490.9386298609996 29.273210423092635,499.74898685731745 C32.73732557771846,508.5574067800617 36.07717724945043,517.8777892222497 39.36578708138529,527.7301957960981 C42.654149608302504,537.5809820140327 45.89111572611953,547.9631166992835 49.14278253743965,558.8512914984864 C52.3942744981029,569.7381626594356 55.66031258296624,581.1303982699948 59.00209807624237,592.9661881057278 C62.34378117322245,604.8009910208694 65.76105710931242,617.0786724968432 69.31226007243728,629.7097885326572 C76.41485539888907,654.967994656432 84.05139461182117,681.6505639610132 92.68538837956989,708.8469077752235 C96.23384554116795,720.0213383251164 99.95178527385686,731.2658793715748 103.87734160229327,742.5025668459282 C107.8035115259576,753.738484546723 111.93729159321195,764.9665395193903 116.33399649509423,776.0872140356114 C120.73131801665318,787.2071230701599 125.39155792068249,798.2196424922391 130.38729624917056,809.0038210867037 C135.3836542217844,819.7872384913819 140.71550416669936,830.3423059124239 146.47277616142478,840.5267588206784 C151.11099917828656,848.7306515857513 156.0259537870379,856.6879954276242 161.26786949824532,864.2996162625392 C166.5094531046592,871.9101959412179 172.07801630366274,879.1749478258243 178.01448967159553,885.9655454579755 M375.5486302455317,591.1870702946449 C375.5485679488566,591.1870798185811 375.70281452908256,590.9699695553584 376.02506800773887,590.496982857258 M991.463363021486,128.01187265974147 C985.200507659915,124.46806129736017 978.4897864764074,120.72530790234916 971.4339486287658,116.93128309590989 C964.3780229766362,113.13586252383696 956.9769770210222,109.28917186024786 949.33110139406,105.49980028860008 C941.6851396685538,101.7090323326099 933.7943446323491,97.97558478847294 925.7565961583455,94.36894807805628 C917.7187632917421,90.76091436458829 909.5339733479924,87.27969280475263 901.2977432071938,83.95565773497881 C891.5878903703928,80.03488353257949 881.8092133345682,76.33973050183334 872.1281027504157,72.85391814541569 C862.4471542816834,69.36577209714068 852.8637703357556,66.08695986476418 843.5488807950844,62.935857578954 C834.2341542739907,59.78242481617553 825.1879202292841,56.756695141533264 816.5856730915725,53.71179133058115 C807.9835898775923,50.66456025754964 799.8254916417386,47.59814818977824 792.291462679157,44.300514564600064 C787.0103008196088,41.98832233158109 782.0285468340974,39.56276201547162 777.4108598468158,36.94132090983723 C772.7919486994692,34.31915460901566 768.5355425227883,31.502635714676067 764.6720239591536,28.38894605514256 C760.8080134358744,25.273814858543584 757.3353284980774,21.863041092757573 754.2705769181025,18.013443548276467 C751.2060655789026,14.16168812485165 748.5479255699621,9.87263711873875 746.3194914053457,4.942688710007132" />
  </g>
</svg>
