<?xml version='1.0' ?>
<svg xmlns="http://www.w3.org/2000/svg" xmlns:xlink="http://www.w3.org/1999/xlink" version="1.1" width="840.5786573687267" height="706.3488763783471">
  <style type="text/css">.edge {
  fill: None;
}
.edge.visible {
  stroke: #000000;
}
.edge.hidden {
  stroke: #C8C8FF;
}
</style>
  <g>
    <path class="edge sharp hidden" d="M38.37115805878153,23.624534284191697 C32.67512230771559,25.76069550992831 27.482077909906934,29.22056137454273 23.31689413641415,33.65443697476654 C19.144362159240487,38.081398158852714 16.00650976163529,43.47512239801179 14.220484792919867,49.29045768103601 C12.424817095867482,55.10282269269246 11.983906071725164,61.32728881150487 12.942315265705108,67.3347391427906 C13.890759320242624,73.34377080879811 16.236964115446796,79.1259592621044 19.74379499049182,84.0968894452087 M19.743794990491818,84.0968894452087 C21.600944149380776,86.73474136912907 23.778933430204326,89.14639223729694 26.214538099313515,91.26183434605836 C28.649610903749338,93.377888664133 31.341981924931737,95.1974586781876 34.213494504770594,96.66772429127577 C37.084637390932954,98.13871170443512 40.13454789424961,99.26020322411075 43.27469032707492,99.99964305224965 C46.41464678301389,100.73987226127662 49.64442617052874,101.09795324708647 52.87027146318007,101.06349151504101 M52.870271463180075,101.06349151504101 C51.58286366150351,99.23631679382224 50.38382067206575,98.30201883906626 49.2633688677105,98.31281060141679 M49.2633688677105,98.31281060141679 C47.904270403534795,98.32940581881468 46.66058222769194,99.73294085540556 45.52225238453367,102.73133715165659 C44.38421228769611,105.73422403902111 43.351530523543175,110.33197218604607 42.42226803340674,116.85823958437761 M38.37115805878153,23.624534284191697 C36.81739187169934,21.420187614647293 35.392095517936085,20.51259648754741 34.07876663388949,21.004118914608146 M52.870271463180075,101.06349151504101 C157.983531745683,99.95378067215503 263.09679202818637,143.28711525014722 368.21005231068926,217.05164840668388 M446.4983673539738,277.4040283390112 C571.248968715415,381.8573019385294 695.9995700768557,524.274382305523 820.7501714382973,681.231822521342 M820.7501714382972,681.231822521342 C819.6736555363797,685.6417913179868 818.6580013307159,689.2579118743464 817.696884990053,692.1093581823268 C816.7365947836905,694.9604574829266 815.8285504519861,697.0442292007945 814.972751994939,698.3606733359305 M820.7501714382972,681.231822521342 C821.5514646247331,682.2410371627461 822.5502937148018,683.0925529550043 823.67357872096,683.7240678992223 C824.7962220014078,684.356723406996 826.0423731555472,684.7688458456688 827.320857549803,684.9302818936699 M833.3907988475925,683.7757308131022 C834.6275593705215,683.097874035897 835.7174717047327,682.1542863416969 836.565414726685,681.0273174547533 C837.4148524141406,679.9014747399256 838.0212923224475,678.5936146793198 838.3318081611117,677.2178793481352 M828.373072450155,688.3244374550995 L828.3386206141149,688.2597490597605 M828.3386206141149,688.2597490597602 L828.3386158777755,688.2597400414311 M828.0570256230993,687.6611225242827 Q827.5289342757616,686.4226115803028 827.0407194542379,684.3324783376016 M837.0146474435667,669.6399633370834 C743.2859278391336,522.3898253559524 649.5572082347013,386.3400343652773 555.8284886302689,276.22518393573745 M555.8284886302689,276.2251839357375 C461.42131802438547,165.3132722547067 367.0141474185024,80.71311773680914 272.60697681261945,37.48160262950444" />
    <path class="edge outline hidden" d="M19.743794990491836,84.09688944520872 C20.015313027053725,84.48216372320628 20.362734855578992,84.95215557209934 20.818729914115266,85.51353360803371 C21.27558852202718,86.07490748581424 21.84112850644381,86.72952583728022 22.572198687931028,87.48394085027063 C23.304081725125,88.2374806332427 24.201603105883287,89.09267536438337 25.344371610560938,90.03157079102046 C26.487902277276486,90.96871991577481 27.876788214405085,91.99142802266992 29.61197873936201,93.03284440631852 C30.696742154304395,93.6827400415037 31.914482159902683,94.33504107923899 33.28351654302647,94.95728968454534 C34.651712583318506,95.57887402642541 36.17184432726712,96.16909268196832 37.83875596245214,96.67688844025875 C39.50452863318145,97.18463552289221 41.317722521278185,97.6086464543649 43.24129080956129,97.89650110536743 C45.16341951176469,98.18492266848247 47.19656394028546,98.33587469721911 49.263368867710476,98.31281060141681 M396.6551677411547,235.78466597879245 C396.04096890396545,235.36258049447963 395.30970721700027,234.85339441151143 394.3849880155297,234.20039223377242 C393.4571073202842,233.54513288152685 392.33570838101525,232.74602475799358 390.8558385436887,231.68313202245236 C389.8228334837294,230.94130473402328 388.6107483139894,230.06800009486776 387.10603655746036,228.9822739413379 C385.59686481201095,227.89355488387645 383.7949989102155,226.59239701447544 381.46190012139573,224.91400564211912 C379.7052637692385,223.6508979722284 377.6418689314893,222.17081459325516 375.0679917554179,220.3376206377081 C372.4862876374022,218.4997862528037 369.394053579143,216.3089434586412 365.36823020656095,213.49902668720156 C363.7671115031356,212.38177994564612 362.0084010827169,211.16284860750494 360.0518264296263,209.81635971515382 C358.09435431296873,208.46952004082968 355.93902620899826,206.99512036573805 353.52043898548203,205.3574663226482 C351.10095107755495,203.71946245327257 348.4182095469876,201.9182025848605 345.38159046137304,199.90819769980234 C342.34406875884196,197.89784356187062 338.95267224971707,195.67874359177355 335.0915020912487,193.1956301770586 C331.7166121751439,191.01815426386136 327.9602021607574,188.64331949817543 323.73095842026225,186.02067351154506 C319.49951186753174,183.3983036965229 314.7952315886931,180.52812266055685 309.4651252133271,177.3674108402215 C304.1328160257257,174.20697519149445 298.1746807415973,170.75600875839834 291.37604824793044,166.97952478253913 C284.5752129420278,163.20331697828783 276.9338804265872,159.10159163127338 268.1757008460041,154.64709478813202 C262.3838436098697,151.71441134403057 256.20108179434465,148.67281348780563 249.3674304255116,145.4792372542695 C242.53605101622108,142.28800187202103 235.06252044440322,138.94431308644525 226.750468603328,135.47065076841193 C218.43659260111684,131.99955197011153 209.2929337204285,128.3980046133375 199.0720453427291,124.76026712148078 C188.84523668321538,121.12531581780165 177.54993691747075,117.45369935302391 164.77293153616506,113.91768941952037 C159.72976390233845,112.52555105549507 154.32730402331507,111.12486871890994 148.79514972067716,109.8075254285911 C143.2607523727722,108.48844900068389 137.5960750481783,107.25147500934534 131.9678931763447,106.14006644624618 C126.33774947727198,105.02746196781814 120.7434869204479,104.03936737902069 115.2969326479757,103.18586786763461 C109.84871124634131,102.33162478610627 104.54755506110952,101.61110231446919 99.4585944931906,101.01367350183973 C94.3682749742353,100.41586858718189 89.48947924720619,99.94046393510025 84.84926995934016,99.56640956323334 C80.20802337861208,99.19226168037893 75.80466265422301,98.9189517523965 71.63718910862232,98.72291931459353 C63.29812140491936,98.33256442727782 55.91319587385794,98.24276904700946 49.26336886770997,98.31281060141684 M828.0665420118892,687.7418368439435 C819.2269699689442,670.9203131404444 809.9750980988963,653.7672246026955 800.2769423947502,636.2868274485123 C792.9441887607762,623.0642025030313 785.3579480100735,609.6696798372387 777.5182201426402,596.1032594511357 C769.6772128309464,582.5400991545691 761.5764447635842,568.8112048970526 753.2260981867902,554.9626582836468 C744.8765633787145,541.1153171733249 736.277450061207,527.1483237071149 727.461670004616,513.14151357642 C718.6467017167437,499.1359089488092 709.6150666897879,485.0904876567143 700.4224062182111,471.11883947788107 C690.4715461947,455.9939654824568 680.3393306698787,440.96277837207236 670.1672720316744,426.2471906916868 C659.9974746832511,411.5333482533601 649.787834221445,397.1351052450331 639.7431791480215,383.3232409893189 C631.7717798865544,372.35720461188833 623.8942167827646,361.75253384593447 616.2432651323693,351.65244451197145 C608.5910857491527,341.55038930823457 601.1655178193323,331.95291553648855 594.0649601196308,322.9481946635744 C586.9631746871071,313.9415079208859 580.1863994847033,305.52757407702853 573.7986567701439,297.73952024516717 C567.4096863227635,289.9495005435314 561.4097483632287,282.7853608538921 555.828488630269,276.22518393573756" />
    <path class="edge sharp visible" d="M27.923154629008422,39.41928235352836 C24.584977162633614,40.67369831163943 21.416151411003476,42.37756637074488 18.528874008826723,44.470558941640334 C15.640887062721465,46.56257232759369 13.035009654126497,49.04330331762184 10.80350641701241,51.82491820559126 C8.571060099258943,54.60577626515565 6.71342174671335,57.686977746238206 5.296363599093252,60.95942859554764 C3.878195886024844,64.23139874531998 2.900883892900948,67.69398229194428 2.3990306745525527,71.22458165757786 M2.3990306745525527,71.22458165757786 C1.5858609776856616,76.90986473481473 2.0200606516073036,82.76889670181286 3.662391904710633,88.27220801249489 C5.2970222425272615,93.77781160445859 8.137653016572662,98.92053499932214 11.927581723337934,103.23563972060681 C15.711469755993274,107.5560424609789 20.439730028460946,111.04321025079865 25.685078614655016,113.38201467448667 C30.92715001453702,115.72815525671315 36.6794892407578,116.92288558191362 42.42226803340674,116.8582395843776 M34.07876663388949,21.004118914608146 C32.87146000873056,21.459642631101985 31.758914214035315,23.09958625635687 30.734230465480696,26.095390756574844 C29.709749557412973,29.094338950509222 28.773130695485953,33.44914801940679 27.923154629008422,39.41928235352836 M368.21005231068926,217.05164840668385 C394.28012693075345,235.346646378745 420.3502015508183,255.5135699913347 446.4202761708828,277.3386478037864 M446.4202761708829,277.3386478037863 L446.4983673539738,277.4040283390112 M814.9727519949389,698.3606733359305 C813.7036558483751,700.3062463387578 812.5437892160023,700.5702098520862 811.4852614544061,698.9960680509429 M811.4852614544061,698.9960680509428 L811.4852592749819,698.996064803335 M811.4852592749818,698.9960648033352 C810.8705253381219,698.0796722017709 810.2901707035638,696.5393818419557 809.7439485328999,694.3187736851473 M42.42226803340674,116.85823958437761 C160.49990126932286,115.61166013710285 278.5775345052389,154.6454517890331 396.65516774115474,235.78466597879242 M396.65516774115474,235.78466597879242 C534.3514280050698,330.4051800295795 672.0476882689846,482.2851268564502 809.7439485329002,694.3187736851473 M827.3208575498031,684.9302818936699 C829.3987121143405,685.1982092412109 831.5564100548261,684.7877972825187 833.3907988475926,683.7757308131021 M838.3318081611122,677.2178793481359 C838.6230867451139,675.9345693738879 838.6569910570082,674.5936085559657 838.4309370483932,673.2972196580208 C838.2062843100922,672.0005874371853 837.7218787482329,670.749716791091 837.0146474435667,669.6399633370833 M837.0146474435667,669.6399633370834 C836.1441404684097,673.7680978524608 835.31439213147,677.2388466905336 834.5225772762997,680.0764744519279 C833.7311299845805,682.9131013822096 832.9765979991507,685.1171197817969 832.2589813200079,686.688529650688 C831.5410534206634,688.2592803857874 830.8590226521256,689.1979351361741 830.2116414689167,689.4822794851468 C829.5642884573314,689.7657938516663 828.9515850310759,689.3949978167728 828.373072450155,688.3244374550995 M828.3386158777753,688.2597400414311 Q828.1964341946583,687.989080821658 828.0570256230992,687.6611225242823 M809.7439485329,694.3187736851473 C810.3789761493762,695.2974400230094 811.187123695439,696.1632855874353 812.1197432723466,696.864188625373 C813.051833006051,697.5657964675846 814.1078655250191,698.1020649734778 815.2242724616598,698.4407133701864 C816.3404231329898,698.7802053005673 817.5163132170162,698.9218837721022 818.6811586933155,698.8572195645017 C819.8460527299083,698.7934357052551 820.999239818764,698.5233458302628 822.0713034440594,698.0632089763982 C823.1437144777748,697.6038823904613 824.1343924501733,696.9547703869861 824.9837027011886,696.1549464416214 C825.8336171371795,695.3557645522583 826.5416805946455,694.406325092117 827.0652703371202,693.3637798110142 C827.58964781836,692.3216305493443 827.929253655666,691.1869682812908 828.0636457448275,690.0280959077782 C828.1989135072838,688.8693253418458 828.1288911658103,687.6870039789766 827.8577926537283,686.5523007675537 M827.8577926537284,686.5523007675537 C827.6745199788871,685.7835115700616 827.3996065222216,685.0366278348125 827.0407194542379,684.3324783376016 M272.60697681261934,37.48160262950444 C194.5283705613403,1.7273646405195062 116.44976431006121,-5.73085176060208 38.3711580587817,23.624534284191725 M827.0407194542379,684.3324783376016 C669.6522802553857,375.4402741208761 512.263841056535,171.45991469312065 354.875401857683,76.91213179274837 M354.87540185768296,76.91213179274837 C245.8913194481246,11.442244577993335 136.90723703856682,-1.5557038235302931 27.923154629008366,39.41928235352836" />
    <path class="edge outline visible" d="M2.3990306745525345,71.22458165757786 C2.900829981511161,67.70529066431665 3.4533555476104074,64.42466985893053 4.118913027042453,61.221133930043464 C4.746829750241785,58.21984948386861 5.460862425088551,55.29503169556175 6.443955525827595,52.171713532828306 C6.869635917851709,50.825435273557794 7.3492404338472,49.43914519883849 7.920605299720193,47.97451459669509 C8.493306255737942,46.509469350971635 9.157744834950877,44.966070557063794 9.989181320742148,43.29438723643645 C10.737826313652935,41.80112633621886 11.613854590249757,40.19474647198315 12.733653802631338,38.45879455789211 C13.855126207755514,36.72386223862991 15.213215264574563,34.84638177152964 16.982824186159117,32.840714618152624 C18.752868232190853,30.84125778207735 20.946868851805046,28.704443275157256 23.763578906773063,26.620787335593217 C25.170633289842588,25.581419687650357 26.732539566482362,24.55969164934934 28.454956216373713,23.604008754977094 C30.176252468192814,22.64900028505123 32.05936606820667,21.759928730477757 34.07876663388947,21.004118914608142 M811.4852614544061,698.9960680509428 C796.7471618688852,677.0373932741645 780.5022982674469,653.621104180431 762.2716074567339,628.4337033638787 C744.0413118176432,603.2554687195194 723.8251889692773,576.3061223523418 701.1552405236906,547.5288196778625 C694.0145870841224,538.4612232335786 686.6346780774429,529.2312187404318 679.0155135036551,519.8388061984231 C671.3948546660909,510.44886141994687 663.5274330609267,500.9005316377565 655.4264621060477,491.23341189968335 C647.3264992875567,481.56741891009375 638.9929871193522,471.7826359646224 630.46736683819,461.95020706863875 C621.9427546934158,452.1189049211387 613.2260344356849,442.2399568231269 604.3868751206228,432.4160557375111 C595.37825624053,422.3992117268011 586.1939478184897,412.3881540076398 577.0782174957052,402.65384299251053 C567.9627548954278,392.91844156761107 558.9158703944046,383.4597868467427 550.189327864023,374.51830776882355 C541.4630530561471,365.57573828113397 533.0571202189115,357.1503444363932 525.23078945388,349.452023699953 C517.4047264113552,341.7526125537425 510.15826544103555,334.7802745158332 503.75816287466574,328.7143755780111 C490.006365407266,315.6956148289482 479.9789026332513,306.6196576624659 472.4000454375508,299.85056728751556 C464.8161905026488,293.09060152275725 459.6809411460609,288.6375025495308 455.578631555078,285.11082266216033 C453.5908098701217,283.4029578442684 451.8866094242677,281.950987415913 450.382849843218,280.6766768057995 C448.88007616057797,279.4033390326183 447.57774334274194,278.30766107767937 446.42027617088286,277.33864780378633 M838.3318081611121,677.2178793481357 C837.472002780653,681.0126818331711 836.6412624343183,684.3083011245731 835.8093433031652,687.1777594659195 C835.393079461231,688.6130042844303 834.9770289559058,689.9416341635939 834.5492901742507,691.1827042577225 C834.1209738419399,692.4243828524448 833.6816083084515,693.5778825587453 833.2031209190977,694.6792961093228 C832.6633958300142,695.91116074941 832.0895130921173,697.0748241831334 831.3039245823111,698.297041859622 C830.7428948095759,699.1554484180734 830.0849381628243,700.0560869772021 829.0774439103759,701.0323436866519 C828.6823737061267,701.415093089332 828.2306360469656,701.7989757607536 827.6943924784364,702.1850588143219 C827.1584204468303,702.5695532732675 826.5352827192083,702.9540786808459 825.8047438749566,703.2952215010127 C825.0757233426184,703.6357926485161 824.2366419070023,703.9308117750919 823.309776881081,704.1208585101149 C822.3856769420647,704.3113504944331 821.3711336260959,704.3947006536841 820.365846679483,704.3239555975288 C819.1864049914782,704.2492427530168 818.0224154851312,703.9691970037231 817.0143000809755,703.5662025352146 C816.0012334223766,703.1639176400902 815.1369329344349,702.6485808842478 814.4238744874326,702.1174788867037 C813.7089254189457,701.5844017091777 813.1392676223044,701.0371173791464 812.6651286403953,700.5126418548365 C812.1916172500679,699.9874151952899 811.8088310678186,699.4782166613601 811.4852592749821,698.9960648033353 M827.8577926537284,686.5523007675536 C827.9906380439601,687.1102499355246 828.1149908416483,687.5554990515617 828.213312261239,687.8665974134196 C828.3104811915927,688.176913151357 828.3845306639582,688.3540041848331 828.3856521941509,688.3545063418234 M828.3856521941509,688.3545063418234 Q828.3874785618434,688.3555601624346 828.3386158777754,688.2597400414312 M828.3386206141149,688.2597490597602 L828.0665420118892,687.7418368439435 M34.07876663388868,21.00411891460837 C36.561191202338335,20.072422592288657 39.32612107236131,19.06506770604742 42.42404060645393,17.998192586302395 C45.5209304470679,16.931840634883127 48.94798882250135,15.80573255524021 52.732025043844985,14.649751970083365 C56.514972209326345,13.494484182011897 60.65774239062853,12.30886424359385 65.15840072266326,11.14322092584917 C69.65640543576602,9.978199655755308 74.51597000469334,8.834058691113324 79.6602505757952,7.779578523090521 C84.80066316518915,6.724918254327755 90.22721338349592,5.762417738767855 95.75283911594865,4.956553894044667 C101.27476162842053,4.149228726189723 106.89361774033232,3.5014312622243646 112.3164832209333,3.0363227857951465 C117.73739181522281,2.5688883605137542 122.95705400940345,2.2848076994244697 127.62637354784857,2.1397364037861704 C132.29644007626095,1.9934501466361836 136.41000716384391,1.980578304800128 139.63935774587839,2.0175552197101183 C145.4585875160423,2.0852166450997656 150.5189469464943,2.3067498372264086 155.1563529447283,2.605957080213953 C159.7871142517075,2.906611134256715 163.98449222850414,3.287117989585478 167.90163752524438,3.711108897944517 C171.8158899375864,4.1357613513745815 175.4442739633423,4.605081581608242 178.8613641405468,5.100720795201535 C182.27740462275816,5.596632477204557 185.47986479291373,6.1193514852145885 188.5154919335867,6.657833268832156 C194.58319300980304,7.7359300015387005 199.9949992039245,8.873298718940259 204.98988416465147,10.025232797457019 C207.48279509424208,10.601953804018716 209.87616104108304,11.182814086771996 212.16998200517452,11.767813645716844 C214.46755624667372,12.352434450459137 216.67115652378067,12.941154907619568 218.81865706644035,13.529206678711034 C224.86235707662425,15.200087028850657 230.30900171344433,16.863462757955975 235.3173146737548,18.49893757713013 C240.32410623502545,20.134690594375424 244.89256235315656,21.742543762879986 249.13880178926615,23.309891963271312 C253.38352648181737,24.877516486653874 257.3060087690174,26.404643289077608 260.9799325818193,27.886410496054516 C264.652366954523,29.368446897160208 268.07615879265995,30.805147385484517 271.283238614066,32.199201352603886 C277.2791461218179,34.80670389701691 282.5907336640388,37.25173763158152 287.3984713557196,39.548419277571426 C292.20460152180374,41.845141892016365 296.5069611564081,43.993490931841116 300.4409533139607,46.00874742616243 C304.37332101980115,48.024048136464 307.9373145936163,49.90626405541512 311.2228027264106,51.67193329678974 C314.50669160182,53.437633872776566 317.5119729951658,55.086835732126175 320.28366883733474,56.636984609759054 C324.63540145886003,59.07166305420198 328.45864114321523,61.2604394252143 331.89386496401505,63.25356086266921 C335.3278756074313,65.24633449101408 338.37397619496585,67.04340416367184 341.13861304278817,68.68530699390692 C343.9020048634183,70.32687677147987 346.38396532264187,71.81326470532294 348.6560522703055,73.17569527024217 C350.92688581343384,74.53779666383662 352.987850586112,75.77593849188737 354.87540185768313,76.91213179274855" />
  </g>
</svg>
