<?xml version='1.0' ?>
<svg xmlns="http://www.w3.org/2000/svg" xmlns:xlink="http://www.w3.org/1999/xlink" version="1.1" width="1123.9023946492177" height="1226.8932718675958">
  <style type="text/css">.edge {
  fill: None;
}
.edge.visible {
  stroke: #000000;
}
.edge.hidden {
  stroke: #C8C8FF;
}
</style>
  <g>
    <path class="edge sharp hidden" d="M222.2053782664069,79.1872231267813 C218.87301344590634,80.40098914315851 215.70360697552448,82.06093668752114 212.80816083268465,84.1089296979964 C209.9120317064302,86.15595674504995 207.29041345700722,88.59063974194186 205.03512286128534,91.32770887925537 C202.77891939749077,94.06402558070684 200.88947247632942,97.10220815689932 199.43295610887753,100.33585060152822 C197.97536118702774,103.56900701610678 196.95097384800317,106.99700852383941 196.39567114336404,110.49979634053969 C195.83920005719054,114.00239873431796 195.75191929191482,117.5791214575573 196.13688567276193,121.10469715500244 C196.52067601885142,124.63040106985277 197.37664043181525,128.1042876500208 198.67480053090583,131.4046912190804 C199.9718596531238,134.70552762355004 201.71086775057387,137.83225347624642 203.83091963027226,140.67536156957806 C205.95002302662215,143.51917668483767 208.4497672063884,146.0788333913533 211.24260375948677,148.26468496434032 M211.24260375948677,148.2646849643403 C214.73075487729702,150.99749524170824 218.67700356441205,153.14353835477985 222.86679621362856,154.5861362232429 C227.0556533716285,156.03144827315032 231.48611665662614,156.77264689897677 235.9173061182085,156.76943385257783 M235.9173061182085,156.76943385257786 C350.5868678344175,156.72343576267315 465.2564295506255,245.88942209888734 579.9259912668339,386.6925600993181 M636.4127674220618,460.0632570663063 C739.8082957628687,601.4000337702396 843.2038241036765,779.703146938999 946.5993524444834,967.4266393411815 M946.5993524444834,967.4266393411815 C954.6951596380449,985.225641335177 962.752957926695,1002.6001779662951 970.7796310666785,1019.4492024480121 C978.8062903652678,1036.2965840131692 986.8018245151907,1052.6184534289227 994.7727297136473,1068.2677622450824 M946.5993524444834,967.4266393411815 C947.2093383882409,968.5353835950035 948.0324860448101,969.5261529245633 949.0106722738846,970.3289878697041 C949.9880856400772,971.1327639182774 951.1197695411777,971.747976142998 952.3258157304027,972.1311840921244 C953.5314926138004,972.5155523152191 954.8105831701823,972.6676137328866 956.0727704082617,972.576630800826 C957.3350446298889,972.4868624552139 958.5794230216022,972.1541211951876 959.7180404016151,971.6019028104045 C960.8571885854277,971.0507802306848 961.8896801574858,970.2806143514646 962.7426103920624,969.3457857140108 C963.596439762127,968.4117782596983 964.2700364773847,967.3138425642401 964.7158380040133,966.1295044887981 C965.1627789048633,964.9455958884548 965.3815739529934,963.6762168038744 965.3567742496041,962.4109983249614 C965.3331921099016,961.1457567944298 965.0660330138504,959.8856687235832 964.5741616123005,958.7197102353359 M964.5741616123005,958.7197102353359 C977.9324481249618,988.0726779071314 991.1772185856728,1016.2883634991706 1004.3416679812095,1042.8613204931792 C1017.5059844830837,1069.42237290256 1030.5899799197841,1094.340696713911 1043.6231282555627,1116.7775170393877 C1056.656143697681,1139.2024327802367 1069.63831203888,1159.1458450352122 1082.5953862208958,1175.4356505468998 C1095.5523275092507,1191.7135514739598 1108.4841746384225,1204.3378456577336 1121.4129595276313,1211.8031014712349 M964.5741616123005,958.7197102353359 C717.1179004970027,371.3469697526854 469.6616393817048,-10.991920114152423 222.20537826640702,79.1872231267813" />
    <path class="edge outline hidden" d="M211.24260375948677,148.26468496434035 C202.36502547162567,141.31481184695326 193.5739809494848,134.9693173441667 184.9781630049994,129.38302677431207 C176.38440542004102,123.79685322134037 167.9858744127381,118.96988360130078 159.9489528617833,115.06021970524648 C155.7715396117799,113.02779945370172 151.68344536437885,111.24287281044073 147.7241000792211,109.71877003876529 C143.7640514833004,108.19425764301147 139.9327518496225,106.93056911884284 136.24993843646598,105.9295652553651 C132.56641428639404,104.92975321532411 129.03139863530075,104.1878214934282 125.64489148318665,103.70377008967765 C122.257688446462,103.21770761433346 119.01901618717413,102.98472111458894 115.90922656087577,102.98373243115691 M588.0121686737272,394.7418417447163 C588.010601174001,394.74023714335004 587.970929758935,394.70057038870794 587.8683331892753,394.590622183787 C587.7651166017545,394.4798810902919 587.5988523997318,394.29871077106037 587.3271714904308,393.9924649649556 C587.0922085224787,393.7274777502817 586.7779403890339,393.3683537272305 586.3352260310703,392.852713435749 C585.8905763237312,392.33470361807343 585.3174893116758,391.66019631049096 584.5122730931282,390.70004188096385 C583.9662327243725,390.048909368635 583.3105098023623,389.2629133771575 582.4792566239233,388.2611792221523 C581.6451428731344,387.2560322794115 580.6356124060259,386.0352761700782 579.3045477867746,384.422280798698 C578.5726507269371,383.53653245658404 577.7681899553571,382.5595628381904 576.8031861456047,381.38992708030537 C575.8384816107597,380.22053749322885 574.7237740472298,378.87023175525854 573.3794638259897,377.2444577858179 C572.03051225021,375.6134221800304 570.4624980262081,373.71866833137017 568.4658635978426,371.31831834154974 C567.4653403671192,370.1156594840709 566.3540538451465,368.7825326665885 565.0824939260158,367.2624815784089 C563.8101807382159,365.74158528103686 562.3779235285542,364.034131900112 560.7151206683802,362.05999926755186 C560.3525513584078,361.62748232352277 559.9661217036557,361.1701691765578 559.5703735423526,360.7021486804861 C559.1740937293179,360.2336655602543 558.7674486188945,359.75323180669176 558.3504382110823,359.2608474197984 C557.5159890034854,358.2755118703783 556.6384950379638,357.2400140725491 555.6798495941562,356.1129728750397 C554.7213446006471,354.98606168889233 553.6815924651498,353.7675083434866 552.5312524768368,352.42438238624817 C551.3804147665029,351.08075280260925 550.1214176890676,349.6149647316145 548.7100207948043,347.979027732916 C547.2975431520634,346.342008310984 545.7327225079283,344.5348929480684 543.9400600712115,342.47838890924777 C542.1458156604755,340.4203068259129 540.12619669379,338.1152810430534 537.7661409232755,335.4445359735105 C536.5852170749116,334.10827190707585 535.3183993879353,332.6797960274431 533.9396012871033,331.1326206661938 C532.5600651693736,329.5847115942008 531.0696530638409,327.91920088746855 529.4219888131679,326.0894297753568 C527.7728955171456,324.2582379700669 525.9684038658639,322.26462881268924 523.9226453864567,320.0226822012024 C521.8743540053415,317.77821736499874 519.5876631359431,315.28826610451085 516.9064725870014,312.39708377617274 C514.5482609268912,309.8556149280984 512.0639328665198,307.2010323719057 509.54836710520624,304.5394764315802 C507.03161617734094,301.87644897195577 504.4830038704245,299.20556766982895 501.9643048359142,296.591875310321 C499.44468125480086,293.97708281925134 496.95448264576163,291.41877514149047 494.52967697092635,288.95129637994233 C492.1041439111006,286.483006220323 489.74365086292437,284.10501717666637 487.4638796243864,281.82905920739745 C482.8994819072375,277.27253311227975 478.6749548245658,273.13931568673195 474.7244634618559,269.33356384583465 C470.76538981528273,265.5203426012033 467.0820546336273,262.0346249229328 463.37347845171723,258.57814451792314 C459.0472569448895,254.5494531257477 454.93184789165497,250.7912041748099 450.96660390099703,247.23356972542499 C447.00203887495127,243.6766930142519 443.1879643574036,240.32078350640575 439.4827439664787,237.11722993212777 C432.0760747235901,230.71440738347604 425.09278201128893,224.9072152863562 418.3621261277093,219.4900736757342 C411.63501114472587,214.07712008658328 405.17094725990097,209.06550344069768 398.8983399880618,204.3669083742364 C392.62439192802003,199.66721080263687 386.55231475040205,195.29182126722958 380.5729719003568,191.12155426029528 C373.03956331753704,185.87659669564644 365.71561032694586,181.01584352080997 358.5491832156182,176.47438060094441 C351.383258705303,171.93350460767863 344.37507382129075,167.71216179799464 337.4867716789636,163.76187198184965 C323.71315449658215,155.86482863957326 310.4092338866416,149.04028615676813 297.3978250922157,143.04850840533763 C271.3837923051853,131.0771990713069 246.55302660813922,122.44342785880959 222.2688746060032,116.20118079512592 C203.9884842865084,111.51251354559155 186.0520471513744,108.21536005091804 168.3519576795607,106.08061678273913 C150.65367787961083,103.94746120171644 133.19174574298103,102.97671584718799 115.90922656080986,102.98373243115701" />
    <path class="edge sharp visible" d="M28.304117677606996,57.82001854512498 C23.10716192365681,59.710235614958634 18.312416126021596,62.69510287173506 14.322377692077378,66.5240536254222 M14.322377692077376,66.5240536254222 C11.460526865073145,69.26565316105712 9.010241309903847,72.43582169102866 7.07841746302374,75.8962572840851 C5.144986107866639,79.3557949737383 3.730589015269767,83.10457471087513 2.896930818607705,86.97905176261185 C2.0614726320088916,90.85314107996327 1.8070005755638723,94.85177990517596 2.1446162637299366,98.80052317712352 C2.4803973324911133,102.74942288201525 3.408166400602375,106.64725720795917 4.887448534959741,110.32397890785845 C6.365022306014135,114.00138747947285 8.393671157296879,117.45659408427338 10.884893023942954,120.53886141851402 C13.374682602871355,123.62228584480519 16.3263073658455,126.33185765721407 19.610999420394204,128.5493688357897 C22.89466086580552,130.76840583801672 26.510416670444222,132.49472511236274 30.300525511091497,133.65301411663918 C34.09009580939905,134.813063906675 38.05289632899817,135.40473975721142 42.01604552940876,135.40222927092154 M579.9259912668339,386.69256009931803 C598.7549166519099,409.8126604966314 617.5838420369856,434.32501030234835 636.4127674220618,460.0632570663064 M994.7727297136473,1068.2677622450822 L994.7738151762749,1068.2698932241306 M994.773815176275,1068.2698932241306 C1003.8550824694715,1086.0968336253318 1012.9043965535808,1103.0525708544412 1021.9307511480474,1118.8468742601299 C1030.9570824219318,1134.6384096090442 1039.9604542061734,1149.2685111345404 1048.9492072439843,1162.3694425956844 C1057.9379369612168,1175.4676060000606 1066.9120479320195,1187.036599340086 1075.8792279233928,1196.631180785252 C1084.8463845941844,1206.222994173646 1093.8066102855478,1213.8403956671777 1102.7669397882537,1218.9606378457422 M42.01604552940876,135.40222927092154 C224.01475324418172,135.32922303635732 406.0134609589542,212.0049430512295 588.0121686737273,394.7418417447163 M588.0121686737273,394.74184174471634 C759.5970923785691,567.022717878851 931.1820160834121,833.5745893571176 1102.7669397882537,1218.9606378457422 M1102.7669397882537,1218.9606378457422 C1103.618655351552,1220.8847412177633 1105.0974066158547,1222.522829687858 1106.9246212578114,1223.5663197510532 M1106.9246212578114,1223.5663197510532 C1108.6625373871734,1224.5680973997187 1110.7069866804504,1225.0258896082341 1112.7061596437643,1224.8609172730462 C1114.7059356126451,1224.7034228047296 1116.6506152875447,1223.923958816241 1118.205558761015,1222.6566548892824 C1119.7652309507632,1221.3951751742204 1120.9275164562455,1219.6520630738075 1121.4924105167925,1217.7272760920519 C1122.064499213104,1215.804615569875 1122.0364050927897,1213.7097301699916 1121.412959527631,1211.8031014712346 M1121.4129595276313,1211.8031014712349 C900.9965252315102,533.4310703151939 680.5800909353908,204.91475184526993 460.1636566392697,80.61459325655102 M460.1636566392697,80.61459325655107 C316.210476985382,-0.5653927888154651 172.25729733149475,5.359941966390913 28.304117677606996,57.82001854512475" />
    <path class="edge outline visible" d="M14.322377692077453,66.5240536254222 C22.88945483632156,58.31448575881577 31.790966644249494,51.23640398614279 41.02099312484633,45.32437347187101 C50.24522474237628,39.41268889573933 59.797971032575205,34.667055578008856 69.51105583855633,31.131724951070908 M994.7738151762751,1068.2698932241308 C984.5562905330239,1048.205835850335 974.0878654754401,1027.873029422511 963.3111138705062,1007.1783082269485 C952.5332231639454,986.4825993069575 941.4470059100365,965.4249756192297 929.9631411302225,943.8846151660849 C918.4781372487812,922.3432669885123 906.5954858414401,900.3191820455268 894.1939710840993,877.6638820554808 C881.7913172251342,855.0075943410087 868.8698000161738,831.7200915794784 855.2763087875885,807.6252392052821 C847.5404404020461,793.9201689697044 839.6091978729133,779.9917804514877 831.4241280252356,765.7739840617982 C823.2406364886916,751.559024568786 814.8033176336038,737.0546572043029 806.0979109967733,722.2742254864985 C797.3940826710768,707.496630665371 788.4221665636394,692.4429714909247 779.2120949230177,677.2060245882911 C770.0036015935304,661.9719145823351 760.5569527308616,646.5545168481946 750.9462732953244,631.1260411179854 C746.9469570203423,624.7100772413899 742.8889134732044,618.2340862662169 738.7797519512277,611.724934898306 C734.6726201565561,605.2185538138349 730.5185679942779,598.6853908160268 726.3809100160665,592.2280717668338 C722.2437087473513,585.7711629288813 718.1254334644686,579.3938190977944 714.1013250066385,573.2087875923842 C710.0767823273803,567.0228870668631 706.1476917057039,561.031062021899 702.3765079693628,555.3207515392571 C698.6044971528532,549.6090676061698 694.9907977781552,544.1793097390834 691.5742806185928,539.0798179788835 C688.1545574741984,533.9773368036595 684.9388282993488,529.2095666154024 681.9270930940417,524.7765074141125 C678.9169533795254,520.3440087503838 676.1173104701259,516.250247010006 673.5215686317813,512.4750463912765 C670.9253444913828,508.6992032126977 668.5324458789613,505.2409825627477 666.3227622083457,502.0622410419609 C661.902786861472,495.704707506106 658.214517879673,490.46009859470644 655.0439351249188,485.977095611762 C651.8748347770044,481.49722435863066 649.2175370136359,477.77269882558204 646.9069585451589,474.55175478443493 C644.5982961051221,471.3337172817476 642.6400744009458,468.6257649418466 640.9236501819428,466.2587212374841 C639.2083708189577,463.8951457472295 637.7335986007623,461.8619047372874 636.4127674220618,460.0632570663062 M1106.9246212578112,1223.5663197510532 C1096.935122559168,1217.8139008867295 1087.482049559852,1209.7276444601644 1078.210371229211,1199.8756653776186 C1068.946903280659,1190.0159165690723 1059.8648300007817,1178.390445104546 1050.8390110574621,1165.3498135622851 C1041.4371215060958,1151.7536678980905 1032.0971480550188,1136.6341182825429 1022.7654603419838,1120.3474761167538 C1013.4347760372998,1104.058420366295 1004.112377470657,1086.6022720655928 994.7727297136473,1068.2677622450828 M69.51105583844856,31.13172495111064 C78.82735424123635,27.740107381450223 88.3550078259506,24.51218198298617 98.26662767934212,21.48633068335108 C108.17818557694592,18.46135619079816 118.44667900892979,15.632858404670987 129.29106530406102,13.073979792219891 C134.71490221678135,11.795128519093614 140.2851425362133,10.584653712344043 146.0458057900772,9.457437774498983 C151.8075071790789,8.330494039334356 157.75753768764437,7.286363831620507 163.96768215935393,6.3472725392959735 C170.18048279948582,5.408798334441421 176.64854154706273,4.574327049437052 183.5160289155839,3.882937758413775 C190.38935463273157,3.1928448011690764 197.65334146242992,2.643961887303682 205.61296205591486,2.3110946004563857 C209.0862234013142,2.165747418528426 213.46658880353294,2.035899603904048 218.49303380303323,2.0062489011537648 C223.52028158785595,1.9762322225960833 229.2031163261746,2.049476132771798 235.29536179777162,2.300864348274044 C241.38628010409332,2.550567502348644 247.8864331942104,2.9808826415379572 254.50847514620392,3.618504292272083 C261.13030235480386,4.253804588467699 267.86964394453236,5.096622416332655 274.4320436427289,6.107109628635746 C280.9962915104536,7.115744914738729 287.3793183943425,8.289860311523128 293.3395216336336,9.536575203602048 C299.3028527781283,10.782725047407592 304.84227963915026,12.098258413027079 309.8063790301174,13.37456449932241 C314.77292742958184,14.651410392197864 319.16817838380325,15.88767715507699 322.9126631985163,16.992132925847915 C326.65634225065395,18.09634066151676 329.759117207317,19.073657728120914 332.12241526501117,19.83124831277746 C337.1127134892702,21.43749007799944 341.44496860243606,22.929838137570545 345.3934770497776,24.34609171822881 C349.3369690456089,25.761691866438465 352.8894682976323,27.100265301867775 356.1869727542694,28.38159092307711 C359.4821052092405,29.66260409440999 362.5181692222554,30.885842164915967 365.366362827332,32.06254193717041 C368.2135567065173,33.239107690662834 370.8710620424822,34.368896464922585 373.38315466331574,35.45952975791592 C378.40390894474007,37.64033880097949 382.85321819043253,39.66586907793392 386.9442224987997,41.57807373257967 C391.03396604999153,43.4900961734113 394.7441482158143,45.286072482220355 398.2162609784058,46.99833421569292 C402.8342693102344,49.2807338706831 407.008352006013,51.40637643603713 410.860578045959,53.40702741436334 C414.7116177257804,55.40741006917327 418.2408007497681,57.2828011369554 421.5369780146663,59.057453061861814 C424.8319689194405,60.831836663252005 427.8939540651252,62.50548112176627 430.7785662649944,64.09512582310072 C433.6619921047399,65.68450220091879 436.3680449986694,67.18987882155687 438.91913967658763,68.62048201225423 C443.091002201852,70.95697643967601 446.8825232235569,73.10103055142528 450.39614249840304,75.08974756882381 C453.90840441196514,77.07806467323074 457.14276457867015,78.9110446832873 460.1636566392697,80.61459325655119" />
  </g>
</svg>
