<?xml version='1.0' ?>
<svg xmlns="http://www.w3.org/2000/svg" xmlns:xlink="http://www.w3.org/1999/xlink" version="1.1" width="2679.0921025061734" height="1724.041950944237">
  <style type="text/css">.edge {
  fill: None;
}
.edge.visible {
  stroke: #000000;
}
.edge.hidden {
  stroke: #C8C8FF;
}
</style>
  <g>
    <path class="edge sharp hidden" d="M2105.1252389526144,1703.276036169873 C2103.6157668186556,1702.1205846641374 2102.3971298805277,1700.509387248113 2101.5336630554507,1698.5275034715207 C2100.668865245445,1696.5470064668289 2100.159614145571,1694.196686380665 2100.0327944904757,1691.6006225895858 C2099.9045423393973,1689.0054771139835 2100.158777205927,1686.1657190648584 2100.7820773378144,1683.2312667337983 C2101.403995651835,1680.2971666802791 2102.394707904951,1677.2696510530436 2103.7019118453027,1674.3085502042659 C2105.0079314374734,1671.3471981854668 2106.629873334255,1668.4535513588512 2108.4821110082457,1665.780372871273 C2110.333487624798,1663.1063664413355 2112.4143530232295,1660.6539934863329 2114.6148528969557,1658.552721177813 C2116.8149064781837,1656.4501321118396 2119.133635716079,1654.6995596252987 2121.4486289221954,1653.393420881676 C2123.76363801949,1652.085616433139 2126.073902184442,1651.2228154472557 2128.2574565634195,1650.8505674327666 M2128.2574565634195,1650.8505674327666 C2041.581739246529,1599.290947039754 1954.2814850427317,1548.503603874088 1866.5426089004536,1498.3540328081908 C1778.803014140479,1448.2041127167556 1690.6247974420228,1398.6919647250909 1602.173752458022,1349.6733109906108 C1513.721988856326,1300.654308230594 1424.9973969690852,1252.1287997277661 1336.1456491537504,1203.9427349245411 C1247.2931827207194,1155.756321095782 1158.3135603595956,1107.9093509666268 1069.332333132339,1060.2380012644953 C980.3503872873872,1012.5663025368284 891.366836576304,965.0702242361841 802.4871107655655,917.5761703749812 C713.606666337131,870.0817674882426 624.8300468090399,822.5893890409449 536.2425606522824,774.9156663305049 C447.6543558778282,727.2415945945287 359.255284474707,679.386178595412 271.1105336184195,631.1562769155688 C182.96506414443581,582.9260262101901 95.07391521728559,534.3212898240862 7.482152716983364,485.1391536246733 M2128.2574565634195,1650.8505674327666 C2307.2744126577068,1620.2601143128309 2486.2913687519963,1497.5513771426108 2665.3083248462826,1209.402210508959 M2665.3083248462826,1209.402210508959 C2569.4065561340244,1157.3118125986146 2472.932084733724,1105.5228871422537 2376.061573804755,1054.028276364006 C2279.1902771186983,1002.5333049611569 2181.9229409039767,951.3326482364198 2084.414227121563,900.4090509251224 C1986.9047275820628,849.4850929892251 1889.1538504748753,798.8381944667682 1791.2942565625845,748.4410026042807 C1693.433876893207,698.0434501171937 1595.4647804187307,647.8956042900757 1497.49762670334,597.9600148806583 C1399.5296872308672,548.0240648466407 1301.563690517482,498.30037123032366 1203.6882949289893,448.74138630063834 C1105.8121135834103,399.18204074635287 1008.0265333627212,349.78740387869993 910.3982114343298,300.4998304778106 C812.7691037488519,251.21189645232153 715.2972543556715,202.0310258935972 618.027319223801,152.88947609297054 C520.7565983348445,103.74756566774411 423.6877917071992,54.64497600061577 326.8435541114832,5.503866894120165 M2665.3083248462826,1209.402210508959 C2665.966045829859,1208.3428985742294 2666.7351797127785,1207.3637385609961 2667.5628621168626,1206.5320307200254 C2668.3902612272386,1205.6996036221562 2669.275593931327,1205.0152459791773 2670.158010089373,1204.52599478321 C2671.040442019059,1204.0357933083833 2671.919300136535,1203.741063510644 2672.7341789362235,1203.6620631235955 C2673.549370570851,1203.582012775285 2674.2999762919494,1203.7177507348802 2674.9344064391353,1204.0599466598755" />
    <path class="edge outline hidden" />
    <path class="edge sharp visible" d="M2107.187256022804,1704.4965674555183 Q2106.637060789793,1704.2542516973717 2106.121660574664,1703.9493198506916 M2106.121660574664,1703.9493198506916 Q2105.604707004669,1703.6434427344684 2105.125238952614,1703.2760361698731 M10.888067461226456,502.82038456789815 C9.719556017290316,503.5032798850393 8.550281195755826,503.9148902807759 7.470186634755065,504.023553712668 C6.389604060289167,504.1338656228434 5.399212275926482,503.94112882999127 4.575195373231898,503.460168587422 M4.575195373231897,503.460168587422 C3.5529937422969105,502.8672742382289 2.789724249047097,501.8297875955423 2.374393550724001,500.468694070451 C1.9562046286101546,499.1102431630849 1.8868685720948182,497.431169280573 2.1744717026613936,495.6272740833468 C2.459149049609263,493.82438671003274 3.1001381379004815,491.90063481799143 4.022689800641834,490.08035448784426 C4.942939684162269,488.2592089909992 6.142730730805957,486.54552973499966 7.482152716983364,485.1391536246733 M2107.187256022804,1704.4965674555183 C1934.294631428459,1602.1491736485928 1759.9684627173428,1501.0155911522256 1585.0723475307948,1400.7425335523305 C1410.1683884603576,1300.4605480093455 1234.6944829144923,1201.0390873628335 1059.294599785643,1101.8748827922018 C883.8868727729046,1002.7017502784804 708.5531681771836,903.7858738406416 533.7178261420258,804.2740022515852 C358.8746402229789,704.7532027194394 184.5298168644963,604.6364080360788 10.888067461226456,502.82038456789815 M7.482152716983364,485.1391536246733 C113.93595318181607,373.21595048995977 220.3897536466496,213.4580430588133 326.8435541114832,5.503866894120165 M2674.9344064391353,1204.0599466598755 C2675.58702241136,1204.4105488792964 2676.1163231767623,1204.9790919855955 2676.483927329573,1205.7243503663278 C2676.852362006564,1206.4687035098318 2677.058794328225,1207.389153991105 2677.0882555649655,1208.4189572042712 C2677.11862494909,1209.4482015126382 2676.9719988300662,1210.58594322302 2676.659009693837,1211.7496815726977 C2676.3468737028015,1212.9132887763599 2675.868632821314,1214.1019287308084 2675.2589660729127,1215.2294090981354 M2675.2589660729127,1215.2294090981354 C2482.5691253200007,1110.2086371445935 2288.0537508051293,1006.7220132467418 2092.712840969419,904.4702951652773 C1897.3652331453682,802.2163229271329 1701.1920900004793,701.1972565053795 1505.0058663023992,601.0507372736922 C1308.8129446159828,500.9019638853268 1112.6069423763763,401.6257376870295 917.0127706777685,302.7965836654621 C721.4119009908214,203.96517548721496 526.422861844873,105.58083948569737 332.483020660642,7.154984260550492 M326.8435541114832,5.503866894120165 C327.45721674705675,4.297389660067967 328.3831679570141,3.2249048719391253 329.3415238238862,2.610585726897697 C330.2993690046234,1.9866722656337235 331.2741077418342,1.8309512743568932 331.97110807347815,2.190489227048814 M331.97110807347815,2.190489227048814 C332.5795246633553,2.4944895621731322 332.97489478642535,3.1771967231514147 333.06534908467563,4.0799760909791845 C333.1607155500351,4.979281933233096 332.9503101724201,6.090338880113608 332.48302066064207,7.154984260550464 M2675.2589660729127,1215.2294090981354 C2485.901729389542,1565.6576907789413 2296.5444927061735,1787.888664376206 2107.187256022804,1704.4965674555183 M332.48302066064207,7.154984260550464 C225.28470292750336,252.56025724587676 118.08638519436462,440.23992631216225 10.888067461226484,502.8203845678986" />
    <path class="edge outline visible" d="M2106.121660574664,1703.9493198506916 C1981.5163477135966,1630.2239149019892 1856.0507458177533,1557.0741417290687 1730.1110143146352,1484.4266290473804 C1604.168763856588,1411.7763505816927 1477.752365447512,1339.6283679197659 1351.1774477768558,1267.8318678250291 C1238.6599779142553,1204.0083256421706 1126.0157158636175,1140.4636677517474 1013.4205393248071,1077.0390806503979 C900.8237973206654,1013.6129129437455 788.2756833252083,950.307763312853 675.9082420090551,886.9205613058687 C563.53944968217,823.5313346529488 451.3508725314482,760.0610029106225 339.4367269270252,696.2498055408314 C227.52144476646893,632.436139484471 115.8801366490695,568.2825550873309 4.575195373233328,503.4601685874227 M2674.9344064391353,1204.059946659876 C2484.0419327409413,1101.2918711209988 2291.431602578558,999.5321057452715 2098.038855997921,898.8312634014856 C1904.6395509598347,798.1219831292491 1710.4578295034971,698.4716258889549 1516.2454948662353,599.6945425527362 C1318.1236803035072,498.92367901587346 1119.971235049521,399.0628200894979 922.4153710007129,299.6711284466497 C724.8532609424595,200.27065522913395 527.8877320893833,101.33934929514496 331.9711080734751,2.1904892270467826" />
  </g>
</svg>
