<?xml version='1.0' ?>
<svg xmlns="http://www.w3.org/2000/svg" xmlns:xlink="http://www.w3.org/1999/xlink" version="1.1" width="895.5203747948381" height="748.5962337394764">
  <style type="text/css">.edge {
  fill: None;
}
.edge.visible {
  stroke: #000000;
}
.edge.hidden {
  stroke: #C8C8FF;
}
</style>
  <g>
    <path class="edge sharp hidden" d="M7.704450808372712,361.920441248059 Q7.101444514323779,361.08797018760674 6.556814942714543,360.21618852127904 M7.704450808372712,361.920441248059 C15.388042666198816,374.15710776417717 22.211524096330667,387.0973774054574 28.648068629082804,400.90354729689545 C35.081538972935675,414.7038584646205 41.12807241940881,429.3700698825041 47.174765209637584,444.9004344115757 C53.21838381096705,460.4249402169337 59.262161756052215,476.8135991334803 65.60711799684921,493.9006197582762 C71.94900004874694,510.98178165935917 78.59206039635652,528.7613052686917 85.75124070245504,546.9093549193681 C92.90734681965421,565.0515458463311 100.57957289534248,583.5622628146383 108.8967833031174,601.9476258934152 C117.21091952199328,620.3271302484792 126.17004007295569,638.581280714013 135.81693204042395,656.0521530951756 C145.46074981899284,673.5171667526251 155.79233901406732,690.1989023257033 166.7684094208871,705.2753913556014 C177.74140563880746,720.3460216617851 189.35888306847312,733.8114054247906 201.49147421594446,744.685529921837 M405.32038226164144,396.8888246506546 C427.41828813026746,392.9484428581616 449.51619399889506,387.4322991456021 471.61409986752096,380.3680121711937 M471.6140998675211,380.36801217119375 C606.4219527042824,337.27246436208014 741.2298055410439,236.5614223633372 876.0376583778052,84.50527962347638 M876.0376583778052,84.50527962347638 C867.3657413986344,79.7228046318215 857.6853333528712,74.81087114895956 847.4019384627089,70.08737299345358 C837.1170695601961,65.35918791288572 826.2292138132841,60.81943815967376 815.1026030983503,56.65478365064718 C803.9745183710656,52.48544221655866 792.6076786757584,48.691196026655426 781.3250435429874,45.32747109603314 C770.0409343978652,41.959059240348886 758.8410298152806,39.02116864394559 748.0070169799711,36.437991420184986 C737.1715301323113,33.85012727136245 726.7019350319284,31.616976495182683 716.8386465177447,29.531497303273685 C706.9738839912101,27.441331186302804 697.7154280508752,25.498836653602705 689.2624211898438,23.36573801506778 C680.8079403164622,21.227952451470923 673.1589085223846,18.89956278203926 666.4731959548981,15.911059414933284 C659.7860093750608,12.917869122765413 654.0621420218143,9.264565132923323 649.418191696628,4.350403951833755 M876.0376583778052,84.50527962347638 C877.492984239539,82.85564050882537 879.5085253388298,81.71307538520327 881.67141985575,81.311622385368 C883.8323255027143,80.89959724616754 886.1252862596025,81.23156565803852 888.0806096021233,82.23952673252617 M362.20000990905527,593.87559542557 C316.2672829685438,595.56494461235 270.3345560280326,585.541061737474 224.4018290875212,563.0736138550182 M224.40182908752115,563.0736138550183 C152.1693696611384,527.7419641646852 79.93691023475611,461.6376453860096 7.704450808372698,361.920441248059" />
    <path class="edge outline hidden" d="M471.6140998675246,380.3680121711937 C464.8651482758696,382.5227717686387 459.8391297100773,384.1353437049767 455.80682695071994,385.46556856007874 C451.78369966923157,386.79145786133876 448.7542181839206,387.834904676654 446.246036965544,388.7342972661265 C443.4386098777271,389.7408961085357 441.28501343979656,390.56804418338015 439.3996731206355,391.3338696998892 C437.52080357210394,392.09827310624405 435.9103498286846,392.8014172023971 434.3639306476271,393.5215351522925 C432.81770944972493,394.2425455143688 431.3354734312043,394.9809902790049 429.8130327919972,395.79376823718275 C428.2926269882405,396.6060546445022 426.7321501975068,397.4924057383057 425.0845743910951,398.4957586957304 C422.37014864374964,400.14853608787945 419.4172766744373,402.11233966828127 416.1820743245648,404.51136229897526 C412.95046379300516,406.9071903355152 409.44783530656247,409.72902966810096 405.72204408133877,413.0209016449682 C401.9980179446834,416.3102438168895 398.04731069048006,420.0759899533833 393.9583684766833,424.30060398671804 C391.9149672107354,426.4113685421997 389.8381056271941,428.63504727313074 387.75263387981624,430.95035854068453 C385.66788208082954,433.2647537344874 383.5737149747117,435.6717108377915 381.5150032773898,438.1244431017755 C379.21397846902727,440.8646898046146 376.95835478372237,443.65840035506994 374.8793373173308,446.3349218399548 C372.80366512342033,449.0051590595808 370.90474853927316,451.5580531730704 369.40734631983946,453.64718815287443 C367.50871299682484,456.28823295873406 366.2685917683129,458.18495260112525 366.25391412864434,458.214940592153 M419.5804143059122,513.8008626699035 C415.8864154447748,519.4355669299339 412.24385790115247,524.6523573737132 408.6826736280079,529.4495416297742 C405.1209308760977,534.247781324201 401.6402609658462,538.6275048615552 398.255004245726,542.6164471127861 C391.48114409933396,550.5973072486803 385.1001293630788,557.0095898329777 379.0894160375933,562.2377426431312 C373.07375742764907,567.4658339812459 367.42614908243013,571.5245165267163 361.9884939658966,574.7885122787056 C356.5458034857489,578.048696886503 351.3157009854328,580.5154722072765 346.0020032873517,582.4488419586389 C343.62350569674766,583.3125522826027 341.2205786287953,584.0629558960557 338.7611835045027,584.7145157320808 C336.30101301238915,585.3655545113197 333.78445927952794,585.9177628161993 331.1577427392828,586.3710094601099 C328.53022082360246,586.8237301956138 325.79258018307564,587.1774968155001 322.86847291561565,587.4174503701829 C319.94354429510145,587.6568749970594 316.832174001944,587.7824920443313 313.4350112906129,587.7646324583053 C310.10189987467766,587.7448370063437 306.4811371545118,587.5805328748307 302.4016175098021,587.2021425610841 C298.3147637900444,586.8197048903235 293.7689235135676,586.223120733415 288.3878899967603,585.2295530418489 C285.41553596143183,584.6764126579493 282.1967652659064,584.0074566832172 278.5722411964528,583.1326217455037 C274.94441263973533,582.2560206109745 270.9307463105907,581.1903038329981 266.2534395740406,579.7703981961644 C263.9123668563566,579.058766409555 261.40199709929925,578.256268785026 258.6612718578698,577.3241441741429 C255.91915867761304,576.390986530265 252.94881738856333,575.3299586623441 249.65136903045703,574.0742989254877 C246.3510381805683,572.8163389554779 242.72788210115337,571.367426764335 238.6038361968608,569.5977598546511 C234.47421349156278,567.8234504898993 229.8509472970491,565.734729928414 224.40182908752283,563.0736138550182" />
    <path class="edge sharp visible" d="M6.556814942714543,360.216188521279 C4.774816759806608,357.3658261194582 3.4778119894118515,354.2134394350169 2.737920291755344,350.9343170147817 C1.9958308761760408,347.65569125133754 1.8112132633103142,344.251917074905 2.1943332126026114,340.91226101983216 C2.5752146111791996,337.57234892663655 3.523648645846998,334.2981717886742 4.98689763525497,331.27179010910606 C6.448117814303834,328.2444283393538 8.423445041689238,325.46632739335365 10.803041392063545,323.0919633712514 C13.181045749484657,320.71600491870396 15.962167649233882,318.7449332084147 18.99176297811735,317.28834956959133 C22.020381325813993,315.82973562066536 25.29600664354688,314.8863154176574 28.636497930906057,314.5105478236212 C31.976736605088046,314.13254129164943 35.38022416460573,314.322369789748 38.657709987146454,315.06947782482933 C41.9356958513529,315.8143888865203 45.086093055771016,317.1162184622753 47.93372391726189,318.90257840771557 M47.93372391726189,318.9025784077155 C54.90036172540376,330.5223577864225 60.88719728052251,342.9471278469068 66.1731390593425,356.3849229776637 C71.45975755202211,369.81672414687347 76.04548226840308,384.2615503863556 80.22816967327716,399.75960516127844 C84.41153379201079,415.2516659746533 88.19186059923756,431.7969553234688 91.88595454781621,449.26784574956287 C95.58072521025449,466.7327422141094 99.18926301404458,485.1232397559351 103.04732040011265,504.1438799935495 C106.9060545000402,523.1585262696163 111.01430818224567,542.803315241473 115.72678187572191,562.6149576042991 C120.43993228305781,582.420606005578 125.75730270166437,602.393107797828 132.05254154860208,621.9013427529009 C138.3484571093993,641.4035837464266 145.6222410985273,660.4415579027755 154.26648992111362,678.2163140704729 C162.9114154575594,695.9850762766217 172.92680582746334,712.4906204941201 184.7242054240196,726.7661646481611 M201.49147421594444,744.6855299218371 C200.33051050333577,745.4142434236221 199.04871279231256,745.9497406300293 197.71438795817647,746.2634846562348 C196.3802605032532,746.5780673675034 194.99419774201735,746.67075817847 193.63006211668844,746.5366176613237 C192.26584246696993,746.4033345509087 190.92415604838885,746.0432792597379 189.67650089792468,745.4756386846843 C188.42848919789307,744.9087824239152 187.27506289395183,744.1345929019054 186.27768710186126,743.194326588224 M186.2776871018613,743.194326588224 C185.18406353726596,742.1648237300722 184.27881267331827,740.9360814615854 183.61967832764248,739.5864776438391 C182.95943080341465,738.2374180682828 182.54572195572456,736.7683598609124 182.40494111552292,735.2730104155424 C182.26292670049298,733.7777776127368 182.3939304362626,732.2572102816964 182.7895956538866,730.8083014977659 C183.184065318007,729.3590668753443 183.84294472773723,727.9824168709765 184.7242054240196,726.7661646481611 M47.93372391726189,318.9025784077155 C167.06261003205495,393.5782210288708 286.1914961468488,418.13125805576357 405.3203822616415,396.88882465065467 M184.7242054240196,726.7661646481611 C245.2341083255608,643.1822202387167 305.7440112271023,552.4873592730067 366.2539141286445,458.2149405921532 M366.2539141286445,458.2149405921531 C460.6420066513055,311.16142785950126 555.0300991739675,155.4029275461701 649.4181916966281,4.350403951833755 M888.0806096021233,82.23952673252617 C889.27747809161,82.85193808690428 890.3481243656764,83.7092070317992 891.2074408402403,84.74318815858108 C892.0679474227605,85.77617905010554 892.7162630914358,86.984847923871 893.1008519621312,88.27311579723964 C893.4869240801986,89.56093994454524 893.6088840060079,90.92707318228747 893.4570375751271,92.26291868534004 C893.3067296628598,93.59893800357578 892.8827654458323,94.90333373905415 892.2188466367652,96.07241698216933 M892.2188466367652,96.07241698216933 C882.8179821213475,90.55092921379249 872.5908937829813,85.05359536540766 861.869228759304,79.84251700485004 C851.1466829240705,74.6271874115405 839.9295604035268,69.69811330605806 828.5248456117415,65.198361739184 C817.1192500083994,60.69435893955789 805.5260621338151,56.61967867854017 794.0276036784859,52.99835348985765 C782.5282644116003,49.37277706842317 771.1236545639707,46.200555719324015 760.0714331025214,43.38668745923295 C749.0183308295161,40.56856796638995 738.3176169426922,38.10880156255513 728.2022876854049,35.793351747347195 C718.0860776165616,33.473650699387356 708.5552521772546,31.2982662400544 699.8181448872691,28.934127351913112 C691.0801567857272,26.565737231019867 683.1358868335064,24.00859268131822 676.1690058268206,20.81058816831883 C669.2012440085776,17.608332422567464 663.210871135871,13.765216713518313 658.3568952813403,8.710100989627904 M649.4181916966281,4.350403951833755 C649.8164344978319,3.7119404645108616 650.3612945206286,3.16579028155081 650.9988136680751,2.7660389339388147 C651.6356892689848,2.365262920198055 652.3642247921911,2.1115128313991707 653.1122721297925,2.029918730011415 C653.8601873116863,1.947121919017219 654.6264408124528,2.036610184202286 655.3351498207919,2.2895208315017666 C656.0442645629926,2.54129162933206 656.6947228444078,2.9560887527118886 657.2221088112256,3.492834753962894 M657.2221088112256,3.4928347539628946 C657.8818417767851,4.161132247479164 658.3460248211913,5.0193865568950065 658.5441975744353,5.937317307725856 C658.7452016671949,6.854632114017584 658.6794405262038,7.82815139867176 658.3568952813403,8.710100989627904 M892.2188466367652,96.07241698216933 C715.5459010608615,407.5904124808718 538.8729554849585,587.3777818443904 362.20000990905515,593.87559542557 M658.3568952813403,8.710100989627904 C578.7647349561971,227.3877642485707 499.17257463105364,392.4277962173875 419.58041430591067,513.8008626699034 M419.5804143059106,513.8008626699034 C346.88410094258865,624.6581938022023 274.1877875792668,699.0873677324113 201.49147421594444,744.6855299218371" />
    <path class="edge outline visible" d="M6.556814942713572,360.216188521279 C10.365264593535965,366.3127348118943 13.96112041325927,372.6953990114994 17.42591300601378,379.43090050642564 C20.890051818359645,386.16490235026936 24.223127403736704,393.25174148943506 27.488364514832853,400.7161470799412 C32.61185268136146,412.42859849019544 37.56845998691849,425.1131355573074 42.56574222634555,438.6837264529961 C47.56166695835282,452.25130614561283 52.59826662423032,466.704939666807 57.84508681106666,481.8742815022913 C63.09054949048326,497.04061213470425 68.54623269085891,512.922651081408 74.34367179152959,529.265739142113 C80.13975338478056,545.6058159997455 86.27759087832652,562.4069419713796 92.85070944375092,579.3301441707185 C96.76007980758972,589.3943150823154 100.82788939424714,599.5018654333433 105.07277461643243,609.5795432387117 C109.31823431781179,619.6565634396594 113.74076965471905,629.7037110949482 118.37510245729973,639.6293212957237 C123.01000973907466,649.55427389208 127.85671448652269,659.357689033922 132.96602394722666,668.9294888886375 C138.07590788712457,678.500631138933 143.44839654027828,687.8401581021009 149.1503825717061,696.8195790217653 C154.6333168310752,705.4527839518157 160.42321214652966,713.746426993475 166.59128482430788,721.5403405016676 C172.75859736824782,729.3320476165538 179.30408727451135,736.6240251979722 186.27768710186047,743.1943265882242 M888.0806096021252,82.23952673252614 C877.5788641520242,76.85500490118642 865.9807710990661,71.28909451211717 853.7813219407332,65.99607282295722 C841.5802336524965,60.69568729163805 828.7776443837814,55.66701413839172 815.8224283479717,51.156343366612575 C807.5065559163957,48.257593804537436 799.127315016578,45.560009689096844 790.7969149959035,43.0919319285294 C782.4663043566727,40.62203827633006 774.1842018603329,38.37877455422734 766.0575576694418,36.34257905559241 C757.9307415166425,34.305188967106 749.9595073277112,32.47494374020683 742.2459724102018,30.799562545710955 C734.5322558696722,29.122907907895296 727.0761464378998,27.60129767484904 719.9745135223201,26.146343483986 C705.7695153119527,23.229492441399668 692.9888042578206,20.5992775149031 682.3593030863916,17.21344584882352 C677.042156219944,15.518082870498738 672.2640448658802,13.629901447392719 668.0753292112774,11.399897988952839 C663.8821457337642,9.16769880516519 660.2878603414762,6.600455272694329 657.2221088112265,3.4928347539629954" />
  </g>
</svg>
