<?xml version='1.0' ?>
<svg xmlns="http://www.w3.org/2000/svg" xmlns:xlink="http://www.w3.org/1999/xlink" version="1.1" width="895.5203747948385" height="748.5962337394759">
  <style type="text/css">.edge {
  fill: None;
}
.edge.visible {
  stroke: #000000;
}
.edge.hidden {
  stroke: #C8C8FF;
}
</style>
  <g>
    <path class="edge sharp hidden" d="M7.70445080837311,361.7936045770217 Q7.043840273655816,360.88160252313406 6.45343443225001,359.92265781562435 M7.70445080837311,361.7936045770217 C15.305068789593564,374.0696733051039 22.069902715654084,387.0306348814101 28.462311120259017,400.8462184012581 C34.85172139162544,414.65589638254164 40.868706141536244,429.3201963073673 46.892676173017925,444.843492191265 C52.913648071261086,460.36088253659926 58.941605251075174,476.7372688410073 65.27201078480869,493.81167004023524 C71.59941818530376,510.88016570090036 78.2292739397183,528.6466762563855 85.37309338972318,546.7848655626555 C92.51391470648954,564.9171493303612 100.16869971884621,583.4211118488516 108.46501603778623,601.8050618943047 C116.75833422348767,620.1831064011946 125.69318371577248,638.4411384350467 135.3131843949557,655.9221116922574 C144.93018694090057,673.3971794109034 155.23234067374352,690.0951883529087 166.1793177431227,705.1937371348808 C177.1232966792632,720.2863803782892 188.71209895193948,733.7795634616664 200.8214489801113,744.6855299218369 M404.655944753309,396.8799920661905 C427.11989412804394,392.90645193241 449.5838435027798,387.30422764414186 472.04779287751506,380.1023331977996 M472.047792877515,380.1023331977997 C606.7110813776119,336.92956898805863 741.374369877709,236.2715247507567 876.0376583778057,84.37844295243917 M876.0376583778057,84.37844295243917 C867.2829498173643,79.63557689355817 857.5439937944368,74.74444911492725 847.2165155554159,70.03042546016503 C836.8876390453912,65.31166771957386 825.9702403192766,60.770014102851604 814.8208930353766,56.598276050404465 C803.670147480474,52.421803912128304 792.28745336779,48.615247338127396 780.990232767546,45.23886336559524 C769.6916138962998,41.857745307234126 758.4784685374951,38.90679985034178 747.6290671732714,36.31372962889937 C736.7782675380449,33.71592532162789 726.2912118973991,31.475996249806297 716.407019145389,29.389090644202945 C706.5214281223759,27.297450952770557 697.2386999879974,25.358834727556385 688.7588020482244,23.235835796116255 C680.2775058374473,21.108102778847037 672.5990398212754,18.7959870553518 665.8842197175918,15.829528049973653 C659.1680013429044,12.858334958766418 653.4154288807067,9.232798585676258 648.7481664607951,4.350403951833642 M876.0376583778057,84.37844295243917 C877.4852951927995,82.73764368023727 879.4870606397565,81.59825078608543 881.6370090798455,81.19132215860022 C883.7849733666142,80.7740460270468 886.0662314600677,81.09209253899489 888.0181540343631,82.08096323188747 M361.61345862991334,593.7696946499946 C318.37838124850407,595.2659545644343 275.1433038670949,586.3816727670703 231.90822648568565,566.507785264087 M231.90822648568553,566.5077852640871 C157.17363459324844,532.1545017311586 82.43904270081084,464.9650127650517 7.70445080837311,361.7936045770217" />
    <path class="edge outline hidden" d="M472.047792877515,380.10233319779974 C465.13199307755013,382.31667370894155 459.95779754986074,383.97889754803487 455.80073110724925,385.35117040235014 C451.6525252862107,386.71909429733654 448.5213415991785,387.79697947516075 445.93073857510376,388.7251685184576 C442.9662762997076,389.7871598826323 440.7088861229816,390.6545330536439 438.74174408632325,391.45463025402177 C436.7815994620825,392.2531891752412 435.1118923204042,392.98452894875663 433.51171162546257,393.73284933109596 C431.94695504733977,394.46564539795645 430.4495538403489,395.2149560717415 428.91407080093313,396.03818946336537 C427.38062310543967,396.860936956561 425.809234171928,397.75733442548096 424.1516382745844,398.7709855986092 C421.43215046213135,400.433768042914 418.4785987387765,402.4055001604917 415.2435881346791,404.8118166004226 C412.01223751039396,407.21491513701784 408.51044814218926,410.04368149436084 404.78456463529403,413.34293125911046 C401.0606153055362,416.6394893744359 397.10891512501126,420.4132020487512 393.02122579912486,424.64280091581395 C390.9785075222263,426.75598659127195 388.90299749541634,428.9812226626753 386.82049375013935,431.29601629497853 C384.73872187698134,433.6098702988751 382.64915403581176,436.0142210084033 380.5979441171007,438.4604110279825 C378.2955921916638,441.20489744344616 376.0425179750984,443.9985982644809 373.97298795957,446.6659507185882 C371.9067776480433,449.3269989314231 370.02426380932496,451.86154179462466 368.5525542093444,453.91768958429134 C366.7798558058799,456.38773144042233 365.61488295995053,458.1613799398306 365.54334221121206,458.2781104396957 M231.90822648568553,566.5077852640873 C236.52189712618846,568.625960161824 240.4950592586579,570.3257226563005 244.07486947636966,571.786091487314 C247.65065287444153,573.2433481557094 250.82798861927364,574.457081852953 253.7426703376797,575.5203259977974 C256.65522737838387,576.5819894259446 259.3020880962666,577.4907396635746 261.7606127515104,578.2962262347032 C264.2180823507636,579.1009738363479 266.48567223519524,579.8012711782883 268.6119283318444,580.4266737522908 C272.86066501356316,581.6749966741758 276.5546774766742,582.6306082198588 279.9173559646308,583.4219150047547 C283.27721731047916,584.2116785805333 286.291544520739,584.8261290954841 289.08795898398085,585.3350991438645 C294.587288944072,586.3292270722337 299.2349796073098,586.9092891753421 303.4244307121004,587.2637207010314 C307.6061836656206,587.6139408794534 311.32944857665734,587.7383655001656 314.77180313662797,587.707330291186 C320.2610793907528,587.6524263725668 325.0636507862587,587.2181070376666 329.5617457661245,586.4994938275058 C334.053767140435,585.7769183379883 338.2413291653142,584.7696321411684 342.3360705111073,583.4609900446895 C346.8872989340643,582.0009035898559 351.33046143129195,580.1636196731906 355.8554368619609,577.8353775862303 C360.3782463588842,575.5040005525792 364.9829492579428,572.6782612781204 369.79877357389546,569.1566030384524 C374.61239549424613,565.63341194399 379.63721415337176,561.4108705327335 384.94078905898226,556.2444871635923 C390.242126232915,551.0781848252581 395.8222953186752,544.9645861386826 401.6862011762537,537.6614558692655 C407.19225752016234,530.8050266512258 412.94677364462154,522.8951678805577 418.86605685688335,513.8684620066058" />
    <path class="edge sharp visible" d="M6.453434432250009,359.92265781562435 C4.694405828905968,357.0676607651285 3.419940742519598,353.9152794138037 2.7005667186269626,350.63996401012434 C1.9790133709502777,347.3651280176065 1.8128965136090538,343.96892812008133 2.2114090128023225,340.6393068672516 C2.607705796328102,337.3094211745629 3.568441411142321,334.04771052241426 5.040449540859454,331.03467514887427 C6.510452388088329,328.020660924108 8.49102248338978,325.2567667766275 10.872556872431506,322.8959441054575 C13.252519775532777,320.5335372179675 16.03230559069055,318.5753340146502 19.058083452343595,317.12969972042436 C22.082898677604078,315.6820523086962 25.35225549405375,314.7476674048833 28.68523056213902,314.37825307388596 C32.01795907534322,314.0066209678051 35.41270799222032,314.2001370403698 38.6816150338351,314.9480921953703 C41.951019078175335,315.693871946844 45.09301377853002,316.99373283819205 47.93372391726245,318.77574173667824 M47.933723917262455,318.77574173667824 C54.81740240552017,330.4349253833312 60.745599934397646,342.8803881974448 65.98741188111795,356.3275969456179 C71.22997658167814,369.7687649164604 75.7861557000813,384.21167882136285 79.94612172106703,399.7026636616646 C84.10684049589263,415.1876077246357 87.8713461733009,431.72062272300656 91.55088834554797,449.17889189285654 C95.23118327163493,466.6311202853759 98.82651469256066,485.00860284937465 102.66920930809788,504.0193810556723 C106.5126566774749,523.0241184846395 110.6034672414635,542.6621515559057 115.2950448073525,562.4723799750309 C119.98737512708145,582.2765676168252 125.28047244871092,602.2529506064789 131.54881768704655,621.7712868842915 C137.81791567922198,641.2835823847735 145.06226158810364,660.3378311734145 153.67741343601338,678.1346494252547 C162.293318037763,695.9254268997643 172.28002857854085,712.4587738374732 184.05418018818534,726.766164648161 M200.8214489801113,744.6855299218369 C199.65846673807258,745.4155130570059 198.3742266323752,745.9515991390288 197.03740036097406,746.2651219458321 C195.7007723550441,746.5794893681378 194.31215524051603,746.6711539238873 192.9458013285715,746.5352141190776 C191.57936182123137,746.4001375709552 190.23579682243897,746.0375170251532 188.98694998787755,745.4667423446085 C187.73774277571377,744.8967568008983 186.5838122450757,744.1188723007947 185.58686123997643,743.1746843624042 M185.58686123997643,743.1746843624042 C184.49733152705724,742.1443177134635 183.5960217928624,740.9157804232551 182.94024536649303,739.5671931550773 C182.28336183852502,738.219144805482 181.8724289729407,736.7519033001479 181.7335773671893,735.2587686015139 C181.59349981648472,733.7657484084436 181.72559186924957,732.247784281642 182.121453689756,730.8014016077942 C182.51612766401502,729.3546944662954 183.17432113750962,727.9804873886033 184.05418018818534,726.766164648161 M47.933723917262455,318.77574173667824 C166.8411308626114,393.3125506975451 285.7485378079604,417.9129522914516 404.655944753309,396.87999206619054 M184.05418018818534,726.766164648161 C244.54940325552133,643.2024978856376 305.04462632285674,552.5313643960097 365.53984939019267,458.2835520425822 M365.53984939019267,458.2835520425822 C459.9426217470599,311.2098770710874 554.3453941039276,155.4264201917309 648.7481664607951,4.350403951833641 M888.0181540343631,82.08096323188747 C889.2245056919519,82.6875902946865 890.3052448110071,83.54212202675293 891.1737307705271,84.57605277209072 C892.0434221554619,85.60896977291868 892.6999749179147,86.82023363159094 893.0907544321828,88.1127400956014 C893.4830413131783,89.40478985885953 893.6091565107307,90.77676554198979 893.4589902985226,92.11867817948216 C893.3103895777112,93.46076490570276 892.8856584086644,94.77142326133495 892.2188466367652,95.94558031113212 M892.2188466367652,95.94558031113212 C882.735193877638,90.46370549972772 872.4495592588986,84.9871794147434 861.6838116933469,79.78557653277485 C850.9172590507992,74.57967524949308 839.6705934614403,69.64869716922722 828.2431416821852,65.14186153180361 C816.8148848259348,60.63072749306686 805.2058417797896,56.54373589717238 793.6927971447823,52.909750747177334 C782.1789474327792,49.271467195869064 770.7610961319144,46.086190090460256 759.6934856873372,43.262428197238435 C748.6250701657635,40.43436790270344 737.9068955004792,37.9678228203555 727.7706619807458,35.65094647971288 C717.6336233840177,33.32977173775704 708.0785259328421,31.158265737506508 699.3145277606014,28.804226771710088 C690.5497245113647,26.44588940460047 682.5760205410627,23.905019071945013 675.5800318271928,20.72905882972303 C668.5832380363272,17.548800186187894 662.5641595018938,13.733451633086265 657.6868700455067,8.710100989628131 M648.7481664607951,4.350403951833641 C649.1451680003274,3.7139409605540834 649.6878564325289,3.1691991501216803 650.3228149100662,2.7697971607731233 C650.9571363401964,2.3693840232382017 651.6827449670329,2.114929456397574 652.4282186937369,2.0314803276964515 C653.1735585395284,1.9468436764458688 653.9376085213271,2.0333428225450385 654.6451632957599,2.2824630931765446 C655.353114036058,2.5304558665408496 656.0034731826898,2.9406844733015776 656.5322256288572,3.4727704552058714 M656.5322256288572,3.4727704552058714 C657.1990669443652,4.140653163667768 657.6694029465483,5.001552081255288 657.8711529517121,5.9235291879670005 C658.0757887314701,6.844869972966025 658.0110545354088,7.823731721552475 657.6868700455068,8.710100989628131 M892.2188466367652,95.94558031113212 C715.3503839678136,407.80832068694866 538.4819212988637,587.6487112529827 361.6134586299133,593.7696946499946 M657.6868700455067,8.710100989628131 C578.0799323159661,227.42836483347278 498.4729945864243,392.4890783764165 418.86605685688335,513.8684620066056 M418.86605685688335,513.8684620066056 C346.1845208979591,624.6884519170555 273.50298493903546,699.0966367372796 200.82144898011143,744.6855299218369" />
    <path class="edge outline visible" d="M6.453434432250049,359.92265781562446 C10.362354448959556,366.27208384572674 14.048881189134256,372.92055845443883 17.60120169917319,379.94232626963174 C21.152830171273962,386.96248233691335 24.570211482132713,394.35600196144634 27.922155615880556,402.1520008295867 C33.006482805423154,413.97658991243003 37.938804485490095,426.7420769253753 42.92366523660118,440.3872885408644 C47.90710547816771,454.02849528757974 52.94289050708201,468.54731693019994 58.19579063661552,483.7704438154953 C63.447361327087094,498.9905547570031 68.91585283448146,514.9128612345472 74.7288111783364,531.2796071688583 C80.54053115361205,547.6443260843689 86.69652368165183,564.4513747500071 93.2896604617745,581.3862405600988 C97.13851086944683,591.2716966024153 101.14024145817176,601.1938886671893 105.31315674346094,611.083650041518 C109.48661654286067,620.9727851741973 113.83125737662633,630.8294956396261 118.38063015536699,640.5670799587297 C122.93054916487365,650.3040352128123 127.68519645715743,659.9218703437665 132.6934174042775,669.3162700519193 C137.70218629881913,678.7100378716791 142.96452518599935,687.8803762918334 148.54462196568025,696.7052771376807 C154.01212580343238,705.3508104942545 159.78682851697872,713.6583647320736 165.94040023343715,721.4681335862595 C172.09323818047343,729.2756673553866 178.62501698821941,736.585313829611 185.58686123997637,743.1746843624042 M365.54334221121206,458.2781104396957 Q365.5397647117684,458.28366962624284 365.53978777936504,458.2836480129317 M365.53978777936504,458.28364801293174 L365.53984939019267,458.2835520425822 M888.0181540343631,82.08096323188744 C877.8263902193569,76.94546695753722 866.6316345582042,71.61102227164206 854.8740733537379,66.50249423503146 C843.1149934680781,61.38744072235204 830.7928454716639,56.49711162280347 818.3048908877123,52.07183464593174 C809.8764224851861,49.081834991744884 801.371413864914,46.29153587426954 792.9064228554852,43.736387275571545 C784.4411790315837,41.179315964818514 776.0153473368651,38.85443116659922 767.7393207132317,36.74636086145953 C759.4631386427882,34.63700934069671 751.336893940068,32.74454770937675 743.4666826715172,31.01849136506828 C735.5962955242799,29.29106924239472 727.981879743282,27.73025608838385 720.7244105540232,26.246872382542115 C713.4668255220221,24.76226835847082 706.5660168514125,23.354257583407062 700.1198744705038,21.898861827522964 C693.6734776687455,20.442760310090225 687.6825733110827,18.93797251698048 682.2390467892782,17.240990324272815 C676.7941722233699,15.543508088526988 671.900620924632,13.654382798967545 667.6152196551523,11.418235687294326 C663.3251878928504,9.179990469823686 659.6535121052283,6.601188104219011 656.5322256288571,3.472770455205989" />
  </g>
</svg>
