<?xml version='1.0' ?>
<svg xmlns="http://www.w3.org/2000/svg" xmlns:xlink="http://www.w3.org/1999/xlink" version="1.1" width="800.1306542843492" height="395.94023703712355">
  <style type="text/css">.edge {
  fill: None;
}
.edge.visible {
  stroke: #000000;
}
.edge.hidden {
  stroke: #C8C8FF;
}
</style>
  <g>
    <path class="edge sharp hidden" d="M5.387830554048833,179.16259262376045 Q4.819481850297592,179.66364565226894 4.332984761101911,180.24450276538155 M5.387830554048833,179.16259262376045 C10.736599662193845,172.8031411425926 16.07856350592743,166.17789857227362 21.44165504874178,159.2987880205639 C26.804942682730825,152.4206028480559 32.18935801580069,145.2885496941577 37.62832456433608,137.94046228428584 C43.06748720404626,130.59330025361623 48.56120105922208,123.03010396697346 54.148380199141044,115.31461776743188 C59.73575543023479,107.60005694709236 65.4165959460717,99.73320621385417 71.23530636882217,91.80372052844862 C77.05421288274738,83.87516022224511 83.01098930358599,75.88396496387429 89.1555308064013,67.94570033172451 C95.30026840039122,60.00836107877673 101.63277107635781,52.123952452050005 108.2084245622565,44.43395064758949 C114.78427413933004,36.7448742223311 121.60327452633572,29.25020461933883 128.72630200412237,22.117328652315155 C135.8495255730835,14.98537806449345 143.2767762328256,8.215221112640233 151.07442081708948,2.0001552281145525 M370.80047259710204,161.30195325999773 Q386.81004549045736,164.05284531618165 402.81961838381267,167.6329911175098 M402.81961838381267,167.63299111750973 C529.0350376369303,195.8659632811698 655.2504568900463,263.03881825135215 781.465876143164,375.871780240636 M781.465876143164,375.871780240636 C764.7551185999689,378.9879836419701 748.0016860039991,381.88423530631485 731.3883206249976,384.20836693517975 C714.7783692515175,386.5405063153089 698.3084850950061,388.3005256599591 682.2570025797692,389.3604737060214 C666.2089340700516,390.4284295033476 650.5792672016088,390.79631400208615 635.7419285532987,390.5603929745084 C620.9080039105097,390.33247969819416 606.8664074878542,389.50076089556376 594.0866580187507,388.38571937426815 M781.465876143164,375.871780240636 C782.6093524684061,376.895770092731 783.992278043088,377.64995458470395 785.4723524565733,378.05673017562566 C786.9517316195686,378.46602806864547 788.5257505312445,378.5272265479109 790.0324436511897,378.23402648861764 M320.75349914751826,59.426645855642825 C307.18214736377087,58.290752030661174 293.610795580022,57.89952951598839 280.0394437962747,58.27900145925805 M280.0394437962747,58.279001459258055 C188.48890604886589,60.838868819559394 96.93836830145693,98.47051706330534 5.387830554048833,179.16259262376042" />
    <path class="edge outline hidden" d="M402.8196183838126,167.63299111750973 C400.20662803317725,167.04841786472545 398.004517901781,166.5269469233324 396.04454464875334,166.0385658842273 C394.0864944819667,165.55042496763252 392.3705872466736,165.0953754982833 390.78192601675437,164.6501284973673 C388.76328662120665,164.08392327477034 386.94755424160235,163.53305885001433 385.19044338822005,162.95961559594022 C383.2483373980645,162.32520874010245 381.3760198465417,161.66217168976584 379.47990075512274,160.9331495579763 C377.58611762134404,160.2046779843254 375.6697346064613,159.40979504775916 373.7025685458832,158.5265614892102 C371.737175165387,157.64407830823544 369.7222003979881,156.67281822381545 367.67909612139323,155.61185254896426 C365.6372012473218,154.55183707112297 363.56837852284656,153.401689721388 361.527943096332,152.18708732904943 C359.2039251577769,150.80513880574787 356.9182854168313,149.33830071563764 354.8143540336294,147.88669937898794 C352.71327419071645,146.43911517693232 350.7939231598527,145.0067329857715 349.27947422925706,143.80215889440936 M280.03944379627467,58.27900145925804 C281.89694810733783,58.22627290246957 284.217497772304,58.20330105733183 286.64471586522205,58.25012075652127 C289.851356897491,58.309536272356056 293.2428967939116,58.48961914076984 296.5113469846265,58.79454193895188 C299.7882601671726,59.09848598151298 302.95473123732114,59.52382879244443 305.9359588511502,60.048029588778114 C308.92120729284153,60.572592392188085 311.7275179178368,61.19373375488998 314.3888960170293,61.899740889280366 C317.0528255709058,62.6069062300282 319.57178628491846,63.397819651641726 322.04744763577526,64.29388994175584 C324.0788456283044,65.0298347996589 326.08046688888845,65.8375363228205 328.1307598043337,66.75584457757884 C330.1817029325476,67.67539455056155 332.28121292570415,68.70555452208838 334.5260013285914,69.91994475200909 C336.717406282421,71.10674345821005 339.0471820615169,72.46915592688637 341.62145327690814,74.11856623214464 C344.19618991846056,75.76995156390319 347.0154263628934,77.70833134958849 350.1983165535139,80.10039241963905" />
    <path class="edge sharp visible" d="M4.332984761101911,180.24450276538158 C2.933703552468187,181.9075768280551 2.104122120551271,184.03813169099894 2.0103567566333482,186.20953993013876 C1.9063394807110032,188.38048107836732 2.538807676878169,190.57762809070059 3.7811121890314823,192.36101906085514 C5.014981709086481,194.15025629134297 6.850336778574739,195.51368705264406 8.919661257399698,196.17829354961907 C10.985824380171632,196.8526638490266 13.272006080687605,196.82369540872065 15.32041834286872,196.0971865288632 M15.32041834286872,196.0971865288632 C25.62441955709879,183.62158698207023 35.85047681144002,170.0532643269177 46.11481257603646,155.6440292556917 C56.38358860109106,141.2457061357517 66.690643136401,126.00647059973828 77.27652594493743,110.48366797594046 C87.86684901393198,94.97177730342833 98.73600035615323,79.17631954313174 110.24885702739945,63.96017465934099 C121.76615395910378,48.754941726836115 133.92715621983314,34.12902167083713 147.22106815821317,21.25082909163657 M151.07442081708945,2.0001552281145507 C149.87783177096674,1.993002422990918 148.68040771940667,2.203371873252333 147.55791176862402,2.617953246494485 C146.43507824735278,3.0316197335487596 145.387878206625,3.649237338010347 144.48256970609097,4.431728626573882 M144.48256970609097,4.431728626573882 C143.19454895801934,5.541507907222411 142.19871233085271,6.9862954380796 141.61992998302227,8.58492533258849 C141.03746635925248,10.182217625285398 140.87353575824966,11.929280369728428 141.14869462541228,13.607045001242502 C141.41998760506743,15.285439069238018 142.12967455867326,16.89025913622869 143.1887644973704,18.22027232556023 C144.24478748214293,19.55272182081017 145.64751878931213,20.606972444720988 147.22106815821317,21.25082909163658 M15.32041834286872,196.0971865288632 C133.81376976094623,154.38593825123797 252.307121179024,140.93396474589477 370.80047259710204,161.30195325999773 M147.22106815821317,21.250829091636575 C214.5738701818945,48.90051579647539 281.926672205576,90.31393213904398 349.27947422925706,143.80215889440927 M349.27947422925706,143.80215889440927 C430.8818688257552,208.6066993858892 512.4842634222528,291.1357724496015 594.0866580187508,388.38571937426815 M790.0324436511897,378.23402648861764 C791.7645752624777,377.9007941698045 793.4029965364332,377.0974879592042 794.7271912194274,375.9322280519668 C796.0543724754866,374.7703708707494 797.0634181043899,373.2499918911572 797.6185171874791,371.57571967327584 C798.1779120323772,369.902877860624 798.2817161843806,368.0810779569378 797.9159612654727,366.35552164627546 C797.5546369835803,364.62903244987814 796.7248248804947,363.0038759904085 795.5382079201735,361.69878276545705 M795.5382079201734,361.69878276545705 C779.0462831189654,365.0324649217687 762.490646965098,368.13490193479396 746.0587084602136,370.6553561989684 C729.6301484511317,373.1838123337434 713.3252860910353,375.1302857196677 697.4261282640076,376.3680911279716 C681.5303489327813,377.61389840687497 666.0402741346255,378.1510377081578 651.3325086360585,378.07687617983964 C636.6281216332934,378.0107165221215 622.7060439301183,377.3332560348025 610.0374781754908,376.36591424269534 M594.0866580187508,388.38571937426815 C594.9336643055198,389.39625729299837 595.98313758695,390.2361072849603 597.1547643779909,390.8409976024695 C598.3257330854508,391.447161394463 599.6177716166113,391.817806704921 600.9320041948922,391.92456863059897 M600.9320041948922,391.924568630599 C602.7977403091227,392.08002404150596 604.7041424444901,391.695311603946 606.3635795704156,390.82847650379654 C608.025658742222,389.96671814039735 609.4345693147856,388.6260677840847 610.3777385752508,387.00879648368516 C611.3258472912999,385.3944159603804 611.8046803297965,383.50945013858467 611.7419953594965,381.6382993185292 C611.6850308054862,379.7669659254291 611.0867717936194,377.91643828557426 610.0374781754908,376.36591424269534 M795.5382079201734,361.69878276545705 C637.2766383292877,187.18629835728626 479.01506873840304,72.67280898623653 320.7534991475182,59.426645855642825 M610.0374781754908,376.36591424269534 C523.4244243014984,247.9567812054231 436.81137042750623,145.2255597357435 350.1983165535139,80.1003924196391 M350.19831655351396,80.10039241963908 C283.82368464137227,30.19268433776238 217.44905272923108,2.369870059873356 151.0744208170894,2.000155228114579" />
    <path class="edge outline visible" d="M4.332984761101898,180.2445027653816 C9.450790118547742,174.13304699312494 14.569168670630146,167.75355532547573 19.70788103201712,161.11877462064933 C24.846816425218698,154.48479132191258 30.006085627724822,147.59551898599852 35.211694145012494,140.48603184163747 C40.417525694114765,133.3773421033662 45.6696965579986,126.04843755664815 51.00045713294991,118.55671980072917 C56.33144073971591,111.06579945090019 61.74101405754925,103.41206589186987 67.26767237354522,95.67524809340064 C72.90928320418148,87.77879688727897 78.67386006950967,79.79639856426205 84.61145848394777,71.83318735875046 C90.54945616230106,63.87086383902437 96.66047538976424,55.92772743680368 103.00575107037972,48.13376758848395 C109.35142601491025,40.3406954259498 115.93135741259312,32.696799817316844 122.81795955709453,25.35692540097611 C129.70496096551105,18.017938670420932 136.89863312074644,10.982973132158081 144.48256970609097,4.431728626573916 M790.0324436511896,378.2340264886176 C777.2569863749322,380.7102513059005 764.4035343868787,383.0691083675903 751.5665837266525,385.13352149446337 C738.7307277050221,387.2007330685352 725.9113730112197,388.9735007077904 713.2336655655319,390.3531047545516 C703.030407723305,391.46524717757484 692.9205704031448,392.32464891575904 682.9837951302959,392.9174163517976 C673.0475619530229,393.51139869931717 663.2843908230632,393.83874674469183 653.7891019417941,393.9195843920864 C644.2943551561009,394.0016369509618 635.0674906190998,393.83717911185835 626.2185072083021,393.4803523004119 C617.3700658930801,393.1247404004466 608.8995057040619,392.5767595281395 600.9320041948922,391.9245686305991" />
  </g>
</svg>
