<?xml version='1.0' ?>
<svg xmlns="http://www.w3.org/2000/svg" xmlns:xlink="http://www.w3.org/1999/xlink" version="1.1" width="895.5203746697475" height="748.5962338062715">
  <style type="text/css">.edge {
  fill: None;
}
.edge.visible {
  stroke: #000000;
}
.edge.hidden {
  stroke: #C8C8FF;
}
</style>
  <g>
    <path class="edge sharp hidden" d="M7.70445080837311,377.91338462274626 Q7.321739739495078,377.38504744488193 6.9623553309965045,376.84057450922654 M7.70445080837311,377.91338462274626 C15.558974256144458,389.77391797344046 22.470066070488276,402.2226777508413 28.893438459293705,415.47458293539603 C35.314249613955795,428.7200959141524 41.2473413430795,442.7687543000627 47.07671129854113,457.6564953112256 C52.90352001985948,472.5378441165907 58.62660696751576,488.258275547209 64.55825523737377,504.67474505883257 C70.48734227308847,521.0848223646583 76.6249906310048,538.1909377514892 83.21176885097397,555.671064912731 C89.79598583679979,573.1447998681748 96.82933268467833,590.9925465980294 104.48066337844807,608.7132970333528 C112.12943283807448,626.4276552628787 120.39618614359198,644.0150171978725 129.37806272282643,660.7953930070468 C138.35737806791747,677.569376610423 148.05181668672543,693.536374087979 158.48680345106328,707.8374138460788 C168.91922898125765,722.1320613983803 180.09220265698232,734.7607512312262 191.95943479403698,744.6855299886321 M383.6518496790428,426.5421752553582 C410.26080771843124,424.1175444319819 436.8697657578199,419.3243460909858 463.47872379720883,412.11633124596517 M463.4787237972089,412.11633124596517 C600.8860559995737,374.89450208365054 738.2933882019377,273.2782562289447 875.700720404303,100.89892968777244 M875.700720404303,100.89892968777241 C867.2210744063632,95.72315411921666 857.6454357902139,90.30733131306273 847.3632778967674,85.01990092370235 C837.080148153161,79.72726739415158 826.0904991322575,74.5630262813944 814.7565923705366,69.74992931449387 C803.4217137586576,64.93162920740305 791.7425774059637,60.46447324616885 780.0542330445094,56.42552523452596 C768.3649168328973,52.38137408269275 756.6663926125259,48.765430880450836 745.2664983110255,45.5090715062062 C733.8656321593666,42.24750899177127 722.7633959265801,39.34553030533364 712.2404157358675,36.58882339997085 C701.7164636949974,33.82691335441773 691.7717676962018,31.210275089939405 682.6597420582599,28.378908634284773 C673.5467445701593,25.54233903843986 665.2664174429125,22.491041251418647 658.0449631908698,18.71932737564155 C650.8225370886686,14.94241035967411 644.6589838616727,10.445077254950784 639.7532942198059,4.575952238563333 M875.700720404303,100.89892968777241 C876.433297755237,99.97917183517099 877.3298353719949,99.19055135661746 878.3355240022399,98.58128060552639 C879.3407411305984,97.97123184193438 880.4545204455529,97.54088864942426 881.608773286847,97.31655907568467 C882.7628522133245,97.09133669762271 883.9567271412192,97.07226035715885 885.1174120957759,97.26049696743527 C886.2782423508091,97.4478355866712 887.4052016223117,97.84237681634431 888.4293957481455,98.4200003150489 M341.8516122057322,594.4137858652282 C291.6414062140125,595.6916283361908 241.43120022229223,583.0685206673743 191.22099423057236,554.7318703644548 M191.2209942305724,554.7318703644551 C130.04881308983926,520.2087157385282 68.8766319491064,462.36182958523597 7.704450808373281,377.9133846227462" />
    <path class="edge outline hidden" d="M463.4787237972089,412.1163312459651 C456.04769770712954,414.12512413976555 450.52596606117635,415.5892514323714 446.1098878981479,416.7877454711856 C441.7034814908756,417.9811285839795 438.402728566527,418.9088784429813 435.67479732505456,419.7069214670257 C432.23059464448755,420.7136841874972 429.6911672978347,421.51754485723484 427.45514687737153,422.2752529183763 C425.2301689027098,423.0309767979209 423.3085978542389,423.7405480688713 421.3982538066663,424.50515908865754 C419.36138573473875,425.32227055904485 417.33421701481615,426.2043160638119 415.1554325790265,427.24330437008865 C412.4015037602633,428.5575133584176 409.39938270597787,430.12576676368496 406.05893154570896,432.0765458655905 C402.72278573750964,434.02526110007295 399.0483098233265,436.35650203119224 395.0659157906403,439.140961650787 C392.4992862017584,440.93562577170945 389.81246655957807,442.9083919248913 387.0175174301926,445.0757304821298 C384.22327367337573,447.24215794965795 381.3209004293535,449.6031578212434 378.34220869614137,452.1496899567985 C375.3642223354978,454.6953110026437 372.309917485664,457.42646431245936 369.23085557657623,460.30859923427494 C366.15249904005725,463.1898230663804 363.0493854442843,466.2220285104863 359.9928266511153,469.34515440273816 C357.3301344299306,472.07407973782995 354.6991495621497,474.85574331026606 352.2152294649527,477.5884428841771 C349.7327687657166,480.3172797925597 347.39737283706455,482.99715270241705 345.36526223908254,485.4182047430843 C343.33461103906143,487.835394118223 341.6072451697108,489.99376262417155 340.3802483340228,491.57529875546953 C339.1547108962957,493.15297222123894 338.42954249223186,494.1538133123573 338.44268996772985,494.1516558885688 M402.35491021859605,504.945499470696 C396.78013348762846,513.8732984588781 391.57974597200547,521.5381071040812 386.71498932282,528.2094939368194 C381.8497916698484,534.8796231557253 377.3202238125793,540.5563334062393 373.07517765796865,545.4739843827688 C368.8296923915185,550.3903727201084 364.8687215153851,554.5477212063934 361.12885554811135,558.1450522582238 C357.3885576619855,561.7411015649698 353.8693407890273,564.7771969086148 350.4956877650428,567.4165089100414 C346.39347402941263,570.622724243177 342.5098314235338,573.2363138032217 338.6956019818001,575.4569133764395 C334.8807312434086,577.674273252434 331.1347730836504,579.4975416971054 327.28900865092294,581.0361856665947 C322.8458171310255,582.8065981288979 318.265061138694,584.1978583634047 313.2138535901611,585.238111210676 C308.15373288427696,586.2707637757234 302.6237798356022,586.9525675462904 296.04011586570357,587.0979596686957 C292.370804877167,587.174136022761 288.3582449781645,587.0737245725902 283.8063879025027,586.7054421777099 C279.24565256778334,586.3318892416969 274.1457755368976,585.6906801303813 268.06187941791904,584.5426279723665 C266.3895479213425,584.2275537887816 264.6314154802453,583.8658724826728 262.78748209462714,583.457584054041 C260.9412719305691,583.0487324825041 259.00185463374635,582.5906673379766 256.9399139515447,582.0654254354588 C254.87768041061992,581.5400057366634 252.6934523025409,580.9478355546346 250.35071257494457,580.2669851240616 C248.0072825796501,579.5856176474291 245.5064349322912,578.8165130676276 242.79224198058205,577.9231161209478 C240.07682884011612,577.0287776529742 237.1492737260543,576.0110480333718 233.91994011704287,574.8073556014812 C230.68829919069134,573.6018227634629 227.15846028325063,572.2134057180535 223.17879979385637,570.5304963724902 C219.19348626538778,568.8426818982259 214.76930027746806,566.8706285586433 209.60273420043723,564.371682669205 C207.01668075526544,563.1197118855247 204.24110120744612,561.7325579654595 201.20669297354735,560.151277746265 C198.17098196185339,558.5687760905828 194.87759730335475,556.7932762956974 191.2209942305723,554.7318703644553" />
    <path class="edge sharp visible" d="M6.9623553309965045,376.8405745092265 C5.092352793402109,374.00959697575263 3.708672102178525,370.85864107946827 2.8896676186568833,367.56613819005906 C2.068394813210509,364.27420037199425 1.812210173301271,360.8423693804271 2.135620933210877,357.46498150319485 C2.456704612707881,354.0873716033714 3.3572218288644486,350.76590144988523 4.786178376539404,347.6886580640483 C6.213014383952254,344.61043086365316 8.167572415537375,341.77797651054277 10.539170526264275,339.3516901176603 C12.909096376518177,336.9237702841188 15.694871415316818,334.9032376024861 18.738743846053346,333.4045100254265 C21.781582938726103,331.9036855943635 25.08099060683112,330.92541969169645 28.45012919608788,330.52510923023 C31.818991176111265,330.1224775453017 35.255891734633245,330.29800294144366 38.566207483409784,331.04174573713397 C41.877034897099975,331.78320755279066 45.05961435417044,333.09251386135526 47.933723917262625,334.89552178240285 M47.933723917262625,334.89552178240285 C55.071179228335026,346.139220662195 61.14565681269062,358.07250161018567 66.41852132537329,370.95603014924154 C71.69257627800718,383.8330312497881 76.16501815896812,397.6602799413998 80.13054394193558,412.5156734686906 C84.09726016485425,427.36453955747254 87.55706028977961,443.2415504819335 90.83797360902655,460.04183520843645 C94.12007736822483,476.83559249643037 97.22329432174483,494.55262358646644 100.50898608053755,512.9052891666554 C103.79586827928158,531.2514273083351 107.26522528329826,550.2331999401689 111.3117510221743,569.3801994720144 C115.35946720100164,588.5206715653512 119.98435211468833,607.8263705587008 125.61443201145684,626.6441205836708 C131.2457023481765,645.4553431701319 137.88216766797808,663.7786167882138 145.98518653771944,680.7779972912721 C154.08939584741202,697.7708503558215 163.66015870704473,713.4398103053481 175.1921660021109,726.7661647149562 M191.959434794037,744.6855299886322 C190.8261847415778,745.3968137050341 189.57784370612836,745.9241023029693 188.27784159651705,746.2406032108138 C186.97802474517368,746.5578644932541 185.62707033753048,746.6642110682734 184.29362140547272,746.5542394505366 C182.96010840009598,746.4450477395475 181.6446388477037,746.1195818076354 180.41405322685932,745.594378577446 C179.18316061797358,745.0698951977112 178.03764823116944,744.3458862498119 177.0357202360372,743.4591395751545 M177.0357202360372,743.4591395751545 C175.8857297540305,742.442852244281 174.92591078777733,741.212372267682 174.22013475279795,739.8495816912764 C173.51316031418747,738.487412430726 173.06072142646187,736.993882142216 172.89292567551175,735.4683778838585 C172.7237882050287,733.9430217992274 172.83941100431537,732.3867553707659 173.23209957213928,730.9031406220952 C173.62348294078836,729.4191811355093 174.29165977522882,728.0089068223049 175.1921660021109,726.7661647149562 M47.933723917262625,334.89552178240285 C159.8397658378562,405.0435426877424 271.74580775844976,436.7391487017094 383.6518496790428,426.5421752553582 M175.1921660021109,726.7661647149562 C229.77473313241694,651.3698074580684 284.35730026272313,574.1074012404617 338.93986739302915,493.42779361738354 M338.9398673930292,493.4277936173835 C439.2110096686213,345.2149696327662 539.4821519442136,185.4698813793471 639.7532942198059,4.575952238563332 M888.4293957481455,98.4200003150489 C889.6103571063774,99.08451856907368 890.6532957293444,99.99256319311964 891.4740200587378,101.07083294338436 C892.2960148488625,102.14813448619246 892.8949465109287,103.39454828463069 893.2224661948015,104.70945752768834 C893.5515356095278,106.02397979983847 893.6088544227471,107.40563873242832 893.3897962759469,108.74289929070424 C893.1723147706116,110.08041692132713 892.67868010871,111.37215674252218 891.9487412654596,112.51384239381828 M891.9487412654596,112.51384239381827 C882.7371563729813,106.59602504356788 872.6125931177279,100.5924008174604 861.8903649727183,94.81538868281758 C851.1677606051923,89.03361088466445 839.8474913479092,83.47844517797587 828.2343364434473,78.32887195178901 C816.620805316469,73.17453306209194 804.7143885423136,68.42578665289676 792.8093311331173,64.1281745349564 C780.9038975014056,59.82579675350595 768.9998232346552,55.974553263310405 757.3808191145657,52.486547296838964 C745.7614387719609,48.99377566685734 734.4271285760176,45.864241560599744 723.6510650779983,42.8766096322512 C712.8746253574631,39.884212040392484 702.656432334852,37.03371662644276 693.2591283309876,33.970349466302956 C683.8614481046076,30.902216642652963 675.2846568969748,27.621212072812817 667.7808627984741,23.639123254399415 C660.2766924774565,19.652268772475725 653.8455192655729,14.964330041978736 648.728917022765,8.95365598224106 M639.7532942198059,4.575952238563332 C640.1404383553922,3.8759365611333045 640.6988616949335,3.271778659291818 641.3663005932798,2.830840943323243 C642.0328890639893,2.3886183919109656 642.8071589984331,2.110498500548793 643.6027793075846,2.0274928169000144 C644.3982382839254,1.942954877856531 645.2134556991932,2.0536988831720575 645.9575357710628,2.3473760322260704 C646.702180073886,2.6396195621343295 647.3741977911851,3.1142098322937484 647.898659072206,3.7182311618042054 M647.898659072206,3.718231161804206 C648.5111149164059,4.420086841747238 648.9201683226792,5.296635749579377 649.0646814481879,6.2168637276300185 C649.2119667987125,7.136651915530754 649.094177340851,8.09674860732709 648.728917022765,8.95365598224106 M891.9487412654596,112.51384239381827 C708.5830315788834,399.68607527931414 525.2173218923082,589.747155109037 341.85161220573224,594.4137858652283 M648.728917022765,8.95365598224106 C566.6042480880421,202.42725158460084 484.4795791533191,373.4530780802427 402.3549102185961,504.94549947069595 M402.35491021859605,504.94549947069595 C332.2230850770762,617.2357969417307 262.0912599355567,700.6959218573219 191.95943479403695,744.6855299886322" />
    <path class="edge outline visible" d="M6.962355330996445,376.84057450922654 C10.964040779926307,382.91377210142434 14.708139771872883,389.22312637550573 18.27871635602332,395.8673097856094 C21.84887067153991,402.50976737517203 25.245366919286756,409.4865050594483 28.54044562670191,416.8478723174171 C31.835165656095764,424.2077711179582 35.02833248518433,431.95175045088246 38.18214365680974,440.0890429871918 C41.335659741026575,448.2251244291869 44.44968450780668,456.7539700332581 47.578153052550235,465.6509018296141 C53.83340941141982,483.43781180791024 60.15186989368297,502.7196106725894 66.89328616540088,523.0029219504574 C73.63303338798661,543.2792091487609 80.79139528087175,564.539439438357 88.68139013441652,586.0935621182306 C95.27491935978354,604.0916431209685 102.36204598863512,622.2660515592677 110.16542355814994,640.0839382707248 C117.97626532893722,657.8940886010174 126.5029300050202,675.3474985849728 136.17706875920658,691.6947003875559 C141.9755818006759,701.4856611744965 148.19340153110068,710.8694548114876 154.96497759353542,719.6011583113414 C161.73526063326614,728.3284825748666 169.05942651165418,736.4036568642667 177.03572023603718,743.4591395751543 M338.44268996772985,494.1516558885688 C338.44260670117995,494.15166828025593 338.602902992429,493.92575860195905 338.9398673930293,493.4277936173836 M888.4293957481455,98.42000031504881 C882.1697985171548,94.89236335171411 875.4642918435783,91.23731013320669 868.4210658446029,87.58445332875641 C861.3777122368401,83.93043445279596 853.9966391283285,80.27860694157461 846.3824635902265,76.72604546203661 C838.7681605255334,73.17232427785628 830.9207548558976,69.71786407604101 822.9412929079218,66.42726779354815 C814.9617035155495,63.13551417328066 806.8500576694864,60.00761942301741 798.7038332532445,57.075781022027044 C786.3210598646209,52.61478269965452 773.8641424153172,48.611384701678766 761.6732495734719,45.04858136459477 C749.48231068099,41.47929559989518 737.557786210464,38.3482123437167 726.2385554122101,35.45681795931797 C714.9190958377736,32.56006246872737 704.2053197501077,29.900603697545957 694.4297006664219,27.12981703566051 C684.653670081007,24.35479058900695 675.8161863140718,21.466044099278818 668.2382008344299,17.996238982855573 C664.0665295584297,16.08474481974788 660.2735280046362,13.999629327493034 656.8831045708278,11.656363332684293 C653.4912452401151,9.311490398662155 650.5018623124204,6.708620832162654 647.8986590722058,3.7182311618042263" />
  </g>
</svg>
