<?xml version='1.0' ?>
<svg xmlns="http://www.w3.org/2000/svg" xmlns:xlink="http://www.w3.org/1999/xlink" version="1.1" width="1160.409466425459" height="1079.6172512439673">
  <style type="text/css">.edge {
  fill: None;
}
.edge.visible {
  stroke: #000000;
}
.edge.hidden {
  stroke: #C8C8FF;
}
</style>
  <g>
    <path class="edge sharp hidden" d="M4.006765474588406,370.7559344874632 Q3.16921517777006,368.581810233538 2.6768281625581247,366.3045614935642 M4.006765474588406,370.7559344874632 C12.54844944031377,409.89407004392643 19.382759724941597,448.4206564164222 25.51021943164865,486.3238876427856 C31.629957897008584,524.2220865202997 37.042845784447735,561.4969302516814 42.53321143942338,597.9957071069914 C48.01585585305185,634.4894516134519 53.57597803421688,670.2071292438417 59.78171157065594,704.8551225004446 C65.97972386574794,739.4980834081991 72.82334751611404,773.0713599421679 80.66452135177235,805.1404288368626 C88.49797394608355,837.2044653827082 97.32897672568696,867.7642942892801 107.29327376288104,896.2444865233142 C117.24984955872804,924.7196464085 128.33971961216577,951.1151696211476 140.4824332377731,974.7147213602216 C152.61742562203324,998.3092407504457 165.80526157846327,1019.1077886670957 179.74929566392197,1036.2531245413572 C193.68560850803377,1053.3934280667706 208.37811948117422,1066.8805195497964 223.3139883824835,1075.7162526538477 M526.15679430804,594.6576871884006 C571.2826299353198,592.8440283727931 616.4084655625979,582.8559692597082 661.5343011898776,564.1221531416288 M661.5343011898776,564.1221531416288 C820.8626498215161,497.97760547461615 980.1909984531546,322.8063239220956 1139.5193470847935,13.459887403342066 M1139.5193470847935,13.459887403342123 C1128.6755368013387,10.676422307010341 1116.0402180525773,8.71229787261547 1102.4558888368815,7.592248985755395 C1088.8667473407759,6.468094283462232 1074.328595377737,6.188015128703879 1059.5491870946457,6.661783574951834 C1044.7649665311437,7.131446205766693 1029.7394896475898,8.354956437587889 1015.0457667393692,10.127123491760479 C1000.3472315507391,11.895184730500002 985.9804503374426,14.21190279159095 972.383689543372,16.75712406425204 C958.7821164688914,19.298239521480063 945.950563813637,22.067858190278194 934.1925541700068,24.63086362773887 C922.4297322459664,27.189763249766436 911.7404533335499,29.542049640456483 902.2934961736619,31.137643524774983 C892.8417267333626,32.72913159366037 884.632279045593,33.5639271561742 877.6991879997599,32.976988105155996 C870.7612846735165,32.38594323870474 865.0997379892112,30.37316375872141 860.613838984759,26.158644725919203 M1139.5193470847935,13.459887403342123 C1140.5163274916538,11.512689869541449 1142.1738344621658,9.914216877347325 1144.1558894819484,8.9884750601312 C1146.1334673893339,8.053206720429761 1148.421889851706,7.797113710028262 1150.5572862896843,8.272107942410413 M378.03247687798046,938.4602035291839 C313.2515104278289,905.6267595934827 248.47054397767738,840.9874099966004 183.68957752752647,741.07563768249 M183.6895775275266,741.0756376824904 C123.79530684321455,648.7006228679838 63.90103615890137,526.1739633500841 4.006765474588406,370.7559344874635" />
    <path class="edge outline hidden" d="M661.5343011898776,564.1221531416288 C652.3008571120596,567.9507422142756 643.1763142611902,571.9578306219353 634.0947306006615,576.2242704105211 C625.0168973256294,580.4887091786867 615.9868056695512,585.0135309944573 607.0434809952685,589.8218627546273 C598.1017327097047,594.6282725406801 589.2512258568187,599.7168624085843 580.5748012851184,605.0558280415103 C571.8980336755734,610.3938291820558 563.3990446095765,615.9794897631178 555.1504664735335,621.7534643818901 C546.9001008546038,627.5278533626692 538.9025940286833,633.4874286619672 531.1796454549168,639.5844923528628 C523.4541603460508,645.6833135700198 516.0039627422991,651.9170591321684 508.77856570959136,658.2878678264163 C501.5507988937078,664.6612844582652 494.54637308094414,671.1707389154626 487.647003993859,677.8925988556394 C480.74656809096115,684.6169673290527 473.94707031414697,691.555229785824 467.09863212482367,698.8557800709966 C462.5009159536667,703.7580026525502 457.8948667635476,708.8101373348047 453.3288019863265,713.9652149133271 C448.7682620481444,719.1135653497346 444.2477065228605,724.3648586824122 439.97014833542863,729.4837657277125 C434.514062646973,736.0100810645318 429.417979937378,742.3752339898466 425.58385026620175,747.3760975686987 C421.74549672898064,752.3669041478172 419.1690962301795,755.993421380475 418.6383305801109,756.7709263391916 M183.68957752752658,741.0756376824907 C195.0210818707806,758.5480105712368 205.47324891365773,773.2737977814115 215.09858301362988,785.8913204872986 C224.72504616478435,798.5054327137157 233.52467637303343,809.0112804358432 241.58159142895397,817.9516914027847 C249.6396355360568,826.8886918902556 256.95496449083066,834.260255622538 263.6433095169568,840.5137169235483 C270.33278359426515,846.763767745088 276.39527374292646,851.8957161353565 281.9781246197249,856.261402993083 C286.9484904045586,860.1418883645134 291.5190490683977,863.4023660272817 295.7629863500608,866.2027989486567 C300.00660126974736,869.0019804036666 303.92359480725827,871.3411171172858 307.5781265660729,873.3451309985878 C311.2323359629111,875.3478934135256 314.6240835810538,877.0155329961478 317.8085028886418,878.4379305973388 C320.9925998342535,879.859076732165 323.969368469311,881.0349808855601 326.78491612661765,882.020482850213 C333.32786177521297,884.3049120809941 339.018024362613,885.6323357922311 344.31119862422133,886.4199505455954 C349.5994507297099,887.1970059330796 354.4907145094054,887.4342523626889 359.3029643273516,887.2532241514486 C363.516022787812,887.0796184259304 367.66700535881813,886.606317450143 371.90290280753294,885.7877360872371 C376.13674822018857,884.9687451899548 380.455508510553,883.8044739055546 384.9487174361236,882.2378701346515 C389.4398743256345,880.6708568293718 394.10547985035146,878.7015110375877 398.977610758103,876.2613136973761 C403.84768962979507,873.8207068227864 408.924293884522,870.9092483997701 414.182043260445,867.4469524038598 C418.0583007416477,864.9013388206547 422.0318184404216,862.0743172253615 426.07181602674723,858.9623172870636 C430.1112463113464,855.851550823822 434.2171564834983,852.4558060175766 438.3428817648445,848.8060498389995 C442.4680397444642,845.1575271354789 446.61301283327873,841.2549930596265 450.71525180459105,837.1639518837019 C454.81692347417624,833.0741441828335 458.8758610262604,828.7958293818947 462.8136307858041,824.4290490547285 C466.757717291775,820.0562021787478 470.5804537565941,815.5995934856475 474.18693971720745,811.2125772564873 C477.7927270864548,806.8276070786255 481.1822639514974,802.5122293647072 484.24108929103534,798.4770878321654 C487.44131961400734,794.2568045341441 490.27933599196217,790.3431640142123 492.59363967077576,787.0581390503487 C494.9061637562199,783.7770785132939 496.69497514252333,781.124633532305 497.74874646120986,779.5337808360254" />
    <path class="edge sharp visible" d="M2.6768281625581247,366.3045614935642 C1.9886873932120763,363.1247769515038 1.8234263439296956,359.83270889939257 2.189660976105523,356.599994953278 C2.5539297629964084,353.3670588938037 3.4495391180772472,350.1948504487339 4.829795052748922,347.24875794858053 C6.208259232699573,344.3018266740603 8.070783908726716,341.58226328027064 10.320263157938843,339.2318568110675 C12.568312731703644,336.8800828842159 15.202361411504011,334.8984648189213 18.085078714714314,333.3903175514081 C20.966878391006837,331.8804176073947 24.09612209809751,330.8446296032528 27.309661460249334,330.33695609741187 C30.522891516384135,329.82732855803596 33.819051883730616,329.84603165502557 37.02629169012565,330.39209028274115 C40.23386295842607,330.93619851294767 43.35115094089246,332.0074306501783 46.215630709485346,333.54993616634493 C49.08104795221461,335.0906995205269 51.69243955670499,337.102081334197 53.913656243936714,339.4792148391921 M53.913656243936714,339.479214839192 C61.53045071786703,377.8779137748899 67.42237250766675,415.353347585853 72.2495530248084,452.1547173849041 C77.07505649078723,488.94911678655296 80.83581868410803,525.0694521762899 84.14501358368452,560.5697535396755 C87.45253143209811,596.063084505659 90.30848198676748,630.9363814452905 93.27908179404707,665.0485032168685 C96.24800455016387,699.1536545910434 99.33157655889102,732.4976307971657 103.04905693402412,764.7441195662658 C106.76486025799446,796.9836379379648 111.11457194837075,828.1256688726431 116.57049368638975,857.638728974072 C122.02473837324588,887.1448186780984 128.58519310774486,915.0219375488749 136.677202138564,940.5434310629103 C144.76753411822048,966.0579541795425 154.3894203941972,989.2168519394328 165.92124778261308,1009.0982986918248 C177.4513981198661,1028.972775046814 190.8914895695582,1045.5698003943064 206.57295151524886,1057.77237795628 M223.3139883824835,1075.7162526538477 C221.38694297480873,1076.9248243756422 219.12452423145487,1077.5898101821504 216.85000251557443,1077.616194007019 C214.57556386529367,1077.648975251863 212.29661404183165,1077.0430551876093 210.33878882521532,1075.8850114445427 M210.33878882521532,1075.885011444543 C208.8430146051502,1075.004382529286 207.5348490575526,1073.807501694613 206.52505334370957,1072.3957083338662 C205.51346934367746,1070.9851957702585 204.80140620935538,1069.3613771920907 204.44915442610565,1067.6617398324124 C204.0947490159119,1065.9625502486185 204.10055707359416,1064.1894771004436 204.4660859081313,1062.4926460581567 C204.82946399559245,1060.7953532540275 205.5521488261556,1059.176234015007 206.5729515152489,1057.7723779562803 M53.913656243936714,339.479214839192 C211.32803559863797,507.84053966457367 368.7424149533392,600.9843506806437 526.15679430804,594.6576871884006 M206.57295151524886,1057.77237795628 C277.2276115700336,960.4751803473448 347.88227162481934,860.9571362165422 418.5369316796041,756.9202363276145 M418.5369316796041,756.9202363276145 C565.8959007813229,539.9385071071541 713.2548698830407,303.30055782167324 860.613838984759,26.158644725919203 M1150.557286289684,8.272107942410413 C1151.9618166675202,8.57995061860096 1153.2976041770607,9.196003779172354 1154.4435945789405,10.064438391011398 C1155.5908040392378,10.93126197277946 1156.5467160604348,12.049332619153965 1157.2247017189666,13.317326912698277 C1157.904468321202,14.584367332170753 1158.3054207351925,15.999672421223023 1158.3912239569545,17.434980270733092 C1158.4790439236403,18.870165882201288 1158.2515999088248,20.323479049089862 1157.72950362333,21.66321464999362 M1157.72950362333,21.66321464999362 C1145.9465639755851,18.47145432931874 1132.5914002844502,16.196276210825626 1118.4213721227745,14.824267002629941 C1104.2472063889065,13.448455012222365 1089.2581761844979,12.975811932112236 1074.095789061022,13.286446568482537 C1058.929264365354,13.593278422640957 1043.5893827506188,14.683387993279842 1028.6017997469112,16.330406184649526 C1013.6100791710123,17.973621593807348 998.9706572061414,20.173745623696004 985.0933373610173,22.59793127663322 C971.2118799437022,25.018314147358584 958.0925246461326,27.662758641132505 946.0292229556525,30.091939858340133 C933.9617836929798,32.51731829333587 922.950398037396,34.72743345176535 913.1731654548636,36.17648253208096 C903.3917953001392,37.62172883018472 894.844578218468,38.305909050174584 887.5937616544351,37.57674248857055 C880.3388075182105,36.84377314475459 874.3802538996246,34.69745701934467 869.6644962218876,30.37903550692795 M860.613838984759,26.158644725919203 C860.967554539484,25.49209944882724 861.4748367452178,24.907885642333273 862.0851761755514,24.46417238036595 C862.6947955089383,24.01947006789219 863.4065050377613,23.715971690733042 864.1494404231331,23.583897247455923 C864.8921607192641,23.45061850575151 865.6649284003888,23.488974445116185 866.3908002110542,23.69514540055326 C867.1170053067478,23.900139317208325 867.7951630477054,24.272621817017843 868.3577500759268,24.77550565157744 M868.3577500759268,24.77550565157744 C869.1218577119062,25.454701564426827 869.6677155826347,26.374389989664863 869.8979259121128,27.37046796776393 C870.1320730490567,28.36562772024148 870.0493432267458,29.431901569308298 869.6644962218875,30.37903550692795 M1157.72950362333,21.66321464999362 C897.8304947082124,689.9698404137342 637.9314857930974,1070.186851119803 378.0324768779805,938.460203529184 M869.6644962218876,30.37903550692795 C745.6925796349948,337.22029644396673 621.7206630481029,592.450725357186 497.7487464612099,779.5337808360255 M497.74874646121,779.5337808360255 C406.27049376830166,917.5814249704888 314.79224107539267,1018.523575587152 223.31398838248353,1075.7162526538477" />
    <path class="edge outline visible" d="M2.676828162558081,366.3045614935643 C10.028604196230045,400.3332499873726 16.010205544702295,433.96369895277644 21.31423004354247,467.2191125713881 C26.613976283027085,500.47111592961954 31.236145672879676,533.3480839410587 35.75354478671206,565.7777334966709 C39.005389818587766,589.1366064454919 42.199726185531034,612.2639695855656 45.50741429664072,635.091984774167 C48.81370933196352,657.9191792060062 52.23335611145285,680.4470256863736 55.89820892217716,702.584704883193 C59.56166865711464,724.7215633232489 63.47033442328728,746.4682544797573 67.71705438573343,767.7109778312855 C71.9623812723927,788.9528804260506 76.54576235532568,809.6908152158367 81.52103967754039,829.7880004898576 C86.1736904865627,848.6268383937324 91.1877094938518,866.892039197438 96.568678857989,884.4874399604378 C101.95097917787271,902.0818141376842 107.70022985460466,919.0063882742276 113.85927980766348,935.1362550284557 C120.01966071646856,951.265095196931 126.58984090160051,966.5992279830945 133.64993604343422,980.9850016442588 C140.71136214101426,995.3697487196711 148.26270319529613,1008.8061366700869 156.42134164755169,1021.1117693517482 C164.1594884130604,1032.7538646066912 172.4489697379975,1043.3640238143134 181.42359624089215,1052.6338637206568 C190.39183780582655,1061.8963155354718 200.04522454871886,1069.8184480490088 210.33878882521532,1075.8850114445431 M418.6383305801109,756.7709263391916 Q418.5316579498696,756.9259140513377 418.5353238740222,756.9226022315479 M418.53532387402225,756.9226022315479 L418.5367523660201,756.92050034689 L418.536931679604,756.9202363276146 M1150.5572862896843,8.27210794241023 C1133.710826476286,4.566881067831955 1114.044327447402,2.541055419781262 1093.3274742013564,2.096924077861852 C1082.9688875189495,1.8727101911212378 1072.3494014013097,2.0411778510129643 1061.6790105726259,2.563647792666405 C1051.007646906251,3.085020617394483 1040.2865506179662,3.961172835834456 1029.6984759248437,5.122706659798286 C1015.0391543112526,6.728474570481691 1000.6452146244851,8.893303676618874 986.9275845102537,11.344005593845022 C973.2067450959397,13.791235374606684 960.162991474344,16.527351581544636 948.11495372896,19.1787721403869 C936.0643020623238,21.826557121076558 925.0060497687122,24.387330189785807 915.1831999766289,26.382539215068196 C905.3602501061985,28.376447601277942 896.7652935107434,29.797145801204163 889.6360939651915,30.126489920466035 C887.1891706013348,30.240232621344255 884.9110646863862,30.2305622616061 882.8168676864552,30.08007206177892 C880.7236958855676,29.930609079850743 878.8084018622044,29.640909982504176 877.0709856163638,29.210974769739142 C875.3306436713399,28.780034600528776 873.7621389296885,28.209443308607376 872.3273376148315,27.48241894540268 C870.8916356832591,26.753905412943045 869.5895587249407,25.87109362587146 868.3577500759269,24.775505651577532" />
  </g>
</svg>
