<?xml version='1.0' ?>
<svg xmlns="http://www.w3.org/2000/svg" xmlns:xlink="http://www.w3.org/1999/xlink" version="1.1" width="9207.873777396348" height="2678.5611239845166">
  <style type="text/css">.edge {
  fill: None;
}
.edge.visible {
  stroke: #000000;
}
.edge.hidden {
  stroke: #C8C8FF;
}
</style>
  <g>
    <path class="edge sharp hidden" d="M8672.843376871537,2676.4430384166753 C8667.336389329052,2676.0449088369314 8661.866828224245,2674.627759754422 8656.617722391336,2672.2390134817742 C8651.368090781372,2669.8525791677093 8646.339824911964,2666.494961794996 8641.701186503346,2662.278517928328 C8637.061619801081,2658.0641172367586 8632.812485152348,2652.9916211636273 8629.095971966599,2647.230771378077 C8625.378190350235,2641.4715587220485 8622.19367487871,2635.024991343032 8619.648989510988,2628.1067917558703 C8617.102780792136,2621.1897132519402 8615.196843673437,2613.8022023469543 8613.994956905532,2606.191468610723 C8612.791394209722,2598.5812645782476 8612.292090471208,2590.7491576808675 8612.51375387391,2582.9572348398547 C8612.733701390473,2575.165214758555 8613.674577698508,2567.414730080316 8615.304898158782,2559.965136578691 C8616.933578019769,2552.5148253666766 8619.251419624368,2545.366697759688 8622.180860471284,2538.7599524327275 M8622.180860471284,2538.759952432727 C8468.727640600575,2528.3104398139826 8315.716580221455,2518.594700372298 8163.214006180211,2509.5099198027715 C8010.71061883154,2500.4250123493966 7858.7157178207635,2491.9710637681874 7707.272857385966,2484.0417070064864 C7555.829183643731,2476.1122233609367 7404.937550477471,2468.7073315348994 7254.61873951702,2461.7171117279554 C7104.299115249128,2454.726765037163 6954.552313187045,2448.151090365466 6805.376342352341,2441.8766151646837 C6656.199558210203,2435.6020130800525 6507.59360529544,2429.6286104663404 6359.533720021396,2423.8393820276024 C6211.473021439907,2418.0500267050147 6063.958390499129,2412.444845557405 5916.94229100414,2406.9032605410666 C5769.925378201707,2401.3615486408794 5623.406996845065,2395.883432871965 5477.316838131026,2390.3447824428567 C5331.225866109555,2384.8060051299 5185.5631167306865,2379.2066931567506 5040.235508583011,2373.4191629841775 C4894.907087127895,2367.6315059277567 4749.913806903957,2361.6556306719126 4605.139813891533,2355.3603009296567 C4460.365007571664,2349.064844303551 4315.809488463313,2342.4499331910347 4171.334629938533,2335.380778557349 C4026.8589581063197,2328.311497039818 3882.463946857685,2320.7879720011138 3737.988196956451,2312.6718616587327 C3593.5116337477784,2304.5556244325007 3448.954331886514,2295.846801902585 3304.1321195282153,2286.403499538709 C3159.30909386248,2276.960070290983 3014.2211576997215,2266.7821612092966 2868.661366587253,2255.7243250156052 C2723.100762167347,2244.6663619380665 2577.068302797738,2232.7284717485245 2430.334271417487,2219.761654421174 C2283.5994267297997,2206.7947102099765 2136.1630100314765,2192.7988388609706 1987.7725316533338,2177.6214876005906 C1839.3812399677527,2162.4440094563606 1690.0358866023553,2146.085051400762 1539.461209279707,2128.388507912455 M8622.180860471284,2538.759952432727 C8989.236362011203,1710.6560179721869 8785.427515652565,882.5520835116387 8124.949102084852,54.44814905109888 M8124.949102084851,54.44814905109888 C7783.242533315286,80.46389998861054 7441.349988924207,109.50512412590123 7099.944040293175,140.35530879638802 C6758.527851386222,171.20991550392682 6417.598258239322,203.8734827446617 6077.541104508441,237.25331488946398 C5737.473710501645,270.63756907131796 5398.278755910871,304.73808815723925 5060.0553566665085,338.5859935555525 C4721.821717146232,372.43832099091753 4384.559632972362,406.03803473867424 4048.0814923497005,438.54007324460144 C3711.593111451125,471.0465337875803 3375.888674103756,502.45531908872965 3040.4938407868044,532.0451846312809 C2705.088767193939,561.6394722108842 2369.9932976314894,589.4148400318894 2034.4463648530752,614.7738606149825 C1698.8891917987478,640.1373032351275 1362.8805555284569,663.0843986173602 1025.3726610702352,683.1415363198198 C687.8545263360985,703.2030960593313 348.83713341403046,720.3746981190701 6.985959606474353,734.3065490946282 M8124.949102084851,54.44814905109888 C8123.38958669594,52.49372975039345 8122.035735245313,50.21187808310853 8120.945616518629,47.700464137306554 C8119.854693526917,45.18974831519651 8119.027813377053,42.450187304275055 8118.50043944945,39.59927852980347 C8117.9721528318,36.74870783385535 8117.743523915575,33.787605637403345 8117.82435961752,30.84297333625198 C8117.904252438987,27.898289537862873 8118.293586957618,24.97091861009508 8118.975664460026,22.186414037717434 C8119.656850324144,19.401472952820455 8120.630583868181,16.760195112893022 8121.855101545397,14.37586316054545 C8123.078855703336,11.990747342450597 8124.553043629159,9.863259976566125 8126.214438667611,8.084648642110881 C8127.875264033062,6.30497356792381 8129.722821235281,4.874683980206293 8131.677869502235,3.855124680108323 C8133.632591086434,2.8343134834558272 8135.69424405454,2.224524485555798 8137.774403969571,2.0519100784395867" />
    <path class="edge outline hidden" />
    <path class="edge sharp visible" d="M8713.435528050959,2659.4477717593945 C8707.61171629981,2665.418110601884 8701.06579165711,2669.9743037144417 8694.167999357247,2672.858647535771 C8687.271611463048,2675.7496998992256 8680.026812617882,2676.967456187679 8672.843376871537,2676.4430384166753 M1577.4739233784312,2078.086701536682 C1578.7775225951148,2081.0246322855355 1579.7905046283997,2084.2198961153417 1580.4742940549372,2087.5508167608723 C1581.1589748878976,2090.8813714182415 1581.5143102846512,2094.3468346470167 1581.5267699025007,2097.8152442709124 C1581.5401575694007,2101.283646916415 1581.2106663104928,2104.754214944748 1580.5508423390154,2108.0947899060156 C1579.8919123275955,2111.435717777403 1578.9027979864202,2114.645900484964 1577.6211645141125,2117.6030960142216 C1576.3403224393428,2120.5609772347207 1574.7672497554172,2123.2652056989973 1572.961848611782,2125.612806203968 C1571.1570757596141,2127.9613727061237 1569.1203807560762,2129.9527827018846 1566.9293195969994,2131.51120375105 C1564.738675614964,2133.070797290146 1562.394158532534,2134.197050775913 1559.9850463582438,2134.8470768006637 C1557.576108312018,2135.49839209815 1555.103117525049,2135.673333564185 1552.6602448772023,2135.3652405094244 M1552.6602448772023,2135.365240509424 C1550.2924950829115,2135.06784212337 1547.953518282787,2134.3169599322696 1545.7270369772568,2133.1394705436005 C1543.5002689148364,2131.9630668393042 1541.3864378266417,2130.360288128992 1539.461209279707,2128.3885079124557 M8713.435528050959,2659.4477717593945 C8560.636553041782,2647.9203665361892 8408.226121059044,2637.042943622315 8256.258180003199,2626.6299931980407 C8104.28944357009,2616.2176191841845 7952.763198063883,2606.2697176599268 7801.711120821636,2596.6169182972653 C7650.658248202119,2586.9646953450197 7500.079543846572,2577.6075745543685 7349.984414528637,2568.392325089025 C7199.88848983344,2559.177652034097 7050.276140175856,2550.104850304481 6901.13450176615,2541.036828555601 C6751.992067979171,2531.9693832171406 6603.320345440068,2522.9067178594255 6455.084199795683,2513.727880629603 C6306.8472587740325,2504.5496198102005 6159.045894647096,2495.2551871186965 6011.622702498328,2485.7397701939667 C5864.198714972289,2476.224929679655 5717.152899424416,2466.4891049321172 5570.405580374741,2456.4436230819524 C5423.657465947797,2446.398717642206 5277.207848019057,2436.0441550998316 5130.954780545147,2425.3074020771496 C4984.700917693973,2414.571225464884 4838.643605297633,2403.4528583723145 4692.65862674935,2391.895906913472 C4546.6728528238045,2380.33953186505 4400.759412746324,2368.3445724503604 4254.7718193467235,2355.8707742751626 C4108.783430569862,2343.397552510384 3962.720888470884,2330.4454919850978 3816.415435316211,2316.9904777967877 C3670.1091867842733,2303.5360400188974 3523.5600271966437,2289.57864857798 3376.5769282563283,2275.110328063243 C3229.593033938751,2260.642583958924 3082.175200268493,2245.663910780786 2934.1101283851626,2230.1824726097493 C2786.0442611245708,2214.7016108491325 2637.331155650905,2198.717984095619 2487.7352425403756,2182.255895921854 C2338.138534052581,2165.7943841585093 2187.6590179279224,2148.8544109749114 2036.0388541791974,2131.476419435432 C1884.4178950532068,2114.099004306369 1731.6562883031559,2096.283570821424 1577.4739233784312,2078.086701536682 M1539.461209279707,2128.3885079124557 C1085.5734606328106,1663.6945216398528 532.8371121169118,1199.0005353672386 6.985959606474353,734.3065490946283 M8137.774403969571,2.0519100784395867 C8139.802926804521,1.882324174190549 8141.848496880151,2.1283716444423044 8143.827629016734,2.7800117295811737 C8145.80695435295,3.4304755473646056 8147.719330919864,4.48636544061243 8149.486705880594,5.904584274219815 M8149.486705880594,5.904584274219815 C7806.212454273622,34.10717782047172 7463.0780881780365,64.78844283557187 7120.637825738907,96.95343790660314 C6778.188247266824,129.12107541230267 6436.432772451205,162.77244297393335 6095.664770514444,196.9865873492907 C5754.887452544726,231.2033741593162 5415.097607453871,265.9829377830687 5076.327755541576,300.47831314905625 C4737.548587596327,334.9763309497117 4399.789412829643,369.19016049260307 4062.8219026185366,402.34682487695 C3725.8450763744795,435.5061316959653 3389.659914685994,467.6082733564373 3053.7772400074223,497.9542611282991 C2717.8852492958936,528.302891334829 2382.295745594269,556.8953676527502 2046.2587024341879,583.1066895227068 C1710.212343241152,609.3206538273323 1373.7184445896582,633.1534636839947 1035.7661310886542,654.0541067040531 C697.8045015546954,674.9573921587794 358.38445717122664,692.9285107769027 16.234273624504567,707.4904383404936 M6.985959606474353,734.3065490946283 C6.028952762660473,733.4613836635714 5.168502887884473,732.3982807728912 4.447799457000349,731.1706010657953 C3.7265975634281077,729.9435066730201 3.145424412582283,728.5523176062529 2.733450075711712,727.0668607361517 C1.9037521032139015,724.0971662729432 1.7735531125115507,720.7498058563449 2.367924240562543,717.6693314270468 C2.9526058965280724,714.5851505865819 4.258191744475031,711.7870062285124 6.033287051772007,709.8136965009389 C6.918569446994583,708.8244658889712 7.916381095603042,708.0372696199453 8.976638867899705,707.4916187195241 C10.036674958141749,706.9451070133201 11.158739811688648,706.6403552756776 12.286514197696425,706.5926596332239 M12.286514197696421,706.5926596332237 C13.626833499938622,706.534520036432 14.974412085699095,706.8409793595688 16.234273624504567,707.4904383404937 M8149.486705880594,5.904584274219815 C9252.302551558416,890.4189801026131 9576.866451672668,1774.9333759310032 8713.435528050963,2659.4477717593945 M16.234273624504567,707.4904383404937 C903.8140999701707,1164.3558594058904 1374.8418245697094,1621.221280471284 1577.4739233784312,2078.086701536682" />
    <path class="edge outline visible" d="M8672.843376871535,2676.4430384166662 C8490.675231359432,2663.234061976296 8309.045205886658,2650.941634181957 8128.066533963681,2639.272995410727 C7947.086184620268,2627.6055152659355 7766.75718896445,2616.561824178055 7587.145812734176,2605.8816040643223 C7407.532759018862,2595.2025425611787 7228.637324866893,2584.8869520659878 7050.478806434962,2574.7069555924354 C6872.318610453399,2564.5281177136294 6694.895330329678,2554.48487389027 6518.181290830614,2544.381787788838 C6341.465573717308,2534.279860266303 6165.459097366459,2524.118090499501 5990.087213346288,2513.7334823640194 C5814.713651647285,2503.350032791588 5639.9746824167605,2492.7437448842816 5465.748682215699,2481.7840622831195 C5291.521004271196,2470.8255382291604 5117.80629549397,2459.513619515148 4944.435955629039,2447.7501891038564 C4771.063937956083,2435.98791722392 4598.036289333243,2423.774133680507 4425.137430880955,2411.043160314456 C4188.920512099101,2393.6474897963008 3952.958737112505,2375.2420591724454 3716.53464913094,2355.6549954628963 C3480.1063287595966,2336.0607404159146 3243.2142344848003,2315.285729285484 3005.0224026025153,2292.9567316435146 C2766.827023131309,2270.620131569307 2527.3304451441263,2246.7304219858097 2285.5973724471114,2220.7015043622905 C2043.8614369620318,2194.6645732117345 1799.8875458586274,2166.489311023409 1552.6602448772064,2135.365240509432 M8137.774403969572,2.0519100784367765 C7798.781751760255,30.29259383350346 7459.8148977537585,60.89285844087554 7121.4045728863875,92.9161758190273 C6782.985593370389,124.94176282892928 6445.1231429935215,158.39040260961093 6108.105622530232,192.38911676854886 C5771.079447418302,226.39010055923706 5434.898202219936,260.941158728181 5099.607957547664,295.2328625718595 C4764.30905822675,329.52683604728793 4429.901159431927,363.561455197451 4096.188001613799,396.5908410078283 C3756.275775562155,430.2353702255436 3417.0965827223176,462.83782389041 3078.163433147891,493.6734596054926 C2739.2215379473487,524.511698252304 2400.525686012212,553.5831189493308 2061.344009864878,580.2358613880364 C1722.1535880914278,606.8912067584704 1382.4773421057755,631.1278738705821 1041.3385268991078,652.3668845042308 C700.1909660663233,673.6084980696079 357.58083601252525,691.8524551565206 12.286514197690849,706.5926596332246" />
  </g>
</svg>
