<?xml version='1.0' ?>
<svg xmlns="http://www.w3.org/2000/svg" xmlns:xlink="http://www.w3.org/1999/xlink" version="1.1" width="1133.902394503154" height="1257.9653128892571">
  <style type="text/css">.edge {
  fill: None;
}
.edge.visible {
  stroke: #000000;
}
.edge.hidden {
  stroke: #C8C8FF;
}
</style>
  <g>
    <path class="edge sharp hidden" d="M224.3989483184705,92.9918649490537 C220.46019038409992,94.82970746969346 216.76313192368576,97.18443242702665 213.4322886183056,99.97673471176475 C210.10056718353337,102.76798946201326 207.13564447102272,105.99633117406174 204.6373750206965,109.55303271406038 C202.13798732103947,113.10894846185998 200.1056922558466,116.9925991736605 198.60893648613794,121.07318725441127 C197.11089757170555,125.15330446564094 196.14866114114258,129.42964209007542 195.75463413459096,133.75817733523814 C195.35924598251717,138.08658846462495 195.53213643212112,142.46643671773688 196.26748216754407,146.75021330608914 C197.00148082065436,151.03422091417585 198.29780567362454,155.22140418571757 200.11279831963114,159.17074291299002 C201.9265489550391,163.12065218800828 204.2586487667116,166.83202292655253 207.03055521772862,170.17985977262 C209.8014087336696,173.52856811775044 213.01158187170003,176.51315427197866 216.55295823971593,179.0331005768628 M216.55295823971593,179.03310057686278 C220.16262741336215,181.60340313714062 224.1159799325085,183.69014884930118 228.2746758118166,185.22031531755297 C232.43286147279477,186.75186719291983 236.79560298350862,187.72654878631667 241.21023102790878,188.11025324798123 M241.21023102790878,188.11025324798123 C337.59092024013245,196.5035146119435 433.9716094523553,261.1368901879004 530.3522986645786,362.6211175902164 M530.3522986645786,362.6211175902164 C672.3454197326372,512.1330406301684 814.3385408006961,741.6287734592602 956.3316618687559,989.1081117419067 M956.3316618687559,989.1081117419066 Q956.2993500195637,989.0373340725129 956.2994393481987,989.0375435545886 M956.2994393481987,989.0375435545886 C956.3006017516012,989.040184252445 957.2207552052541,991.055233994243 958.7391574703867,994.3663724873362 C960.2599994431229,997.6829235602664 962.3796198307937,1002.2967413827372 964.8455882075135,1007.6430578975156 C967.3137480402185,1012.9942348054537 970.1287854654233,1019.0790884039437 973.0996308248175,1025.4689416442043 C976.0724193885767,1031.863103090945 979.2015454899764,1038.563442177701 982.3503491929606,1045.2619116371686 C985.5008478486931,1051.9641371164414 988.6715537094628,1058.6656709666709 991.7732655161656,1065.1636344750762 C994.8764240239971,1071.664801816608 997.9111180812149,1077.9635768145597 1000.8286540603495,1083.9467880837012 C1003.7473884889966,1089.9326509992945 1006.5494944430134,1095.6041281843188 1009.2198348812634,1100.9222943541415 C1011.8911255174054,1106.2425599837334 1014.4311802412335,1111.2106925963672 1016.8514675526242,1115.8465517810203 M1016.8514675526242,1115.84655178102 L1016.98272483395,1116.0978702314842 M956.3316618687559,989.1081117419066 C956.9536878857107,990.1934075483632 957.7819019497155,991.1598596262958 958.759133754651,991.940754927483 C959.7356391891947,992.7225586837861 960.8604295775873,993.3182209297266 962.0558632058744,993.6866242014383 C963.2509537818386,994.0561387328323 964.5157897057454,994.1981165736088 965.7630619259353,994.1027568878014 C967.0104222868833,994.0085569237284 968.2392823475834,993.6770909339797 969.3648170853962,993.1312400765986 C970.4908588157389,992.5864358676811 971.5127298096774,991.8276563062209 972.3598922406717,990.9072774066318 C973.2079100387562,989.987686587264 973.880582567186,988.9071870309602 974.3314769186984,987.740363669245 C974.7834559093882,986.573959998887 975.0133180321491,985.322109235585 975.0051966317676,984.071223941116 C974.9982383557474,982.8203318376994 974.7533011241625,981.5713426834909 974.2872928731022,980.4104724654085 M974.2872928731022,980.4104724654084 Q974.2547319401269,980.3391664804366 974.2548734856091,980.3394902065231 M974.2548734856091,980.3394902065231 C974.2552709843968,980.3404069092732 974.6765187486528,981.2627335813162 975.4165102053202,982.8785899212505 C976.1570228554535,984.4956021329898 977.21635291741,986.806307910705 978.5069872351555,989.6151913635322 C979.7981081903913,992.4251538609361 981.3206071208247,995.7334579315369 983.000596720156,999.3748009326146 C984.6810384009995,1003.0171461510384 986.5190444701536,1006.9926941980274 988.4533859037533,1011.1642045166047 C990.3881448628943,1015.3366402253024 992.4193129058972,1019.705202103678 994.4973517240605,1024.1585605181135 C996.5757735117924,1028.6127674954428 998.7011397940976,1033.151934906919 1000.8346354101557,1037.6884928798918 C1005.1045435100987,1046.7680678743604 1009.3964498323251,1055.8139162678303 1013.5136103285646,1064.377468309777 C1017.6352396510991,1072.9509096510262 1021.5844821688387,1081.0472993795381 1025.289720969809,1088.4949681252965 C1028.998322805893,1095.9500676990506 1032.4652799464002,1102.7616910288393 1035.7131404625238,1108.9662319285596 C1038.9632582225765,1115.1757451849708 1041.9966383794385,1120.7834207501019 1044.8990318343276,1125.9648784251724 C1047.8025767419613,1131.148849985624 1050.577493968817,1135.9118483948055 1053.3417750929998,1140.4998822446526 C1056.106101878745,1145.087971508575 1058.8621515830123,1149.5063409519541 1061.7291943076607,1154.0025507608543 C1064.5951769026908,1158.4963575125244 1067.5745115392913,1163.073249368502 1070.7567846899492,1167.9135009123881 C1073.936891919802,1172.7488909277356 1077.3222966848978,1177.8528853697758 1080.9419396751985,1183.2696360230402 C1084.5583109535094,1188.6790666764578 1088.4112794782181,1194.4064982798877 1092.4381780036172,1200.2911226221922 C1096.4606990258471,1206.165968493345 1100.6595090699614,1212.2032518421615 1104.8493708014666,1217.9683672652454 C1106.942868917934,1220.8477266229431 1109.0315486934796,1223.6532806649188 1111.0782730297033,1226.2994959858117 C1113.1246201040565,1228.9448696705706 1115.1290854585027,1231.431068532331 1117.0439686622367,1233.6489933540358 C1118.9584400481256,1235.8659997123796 1120.7834030027159,1237.8148959287505 1122.4596261955123,1239.3608658120047 C1124.1354030144887,1240.9058404046666 1125.662513791085,1242.0480525622959 1126.969228727827,1242.624817957258 C1128.275462734774,1243.200511234401 1129.3613746212818,1243.210921646961 1130.1417685556123,1242.4633455684302 C1130.9216470041742,1241.7146205448482 1131.3960812199714,1240.2080729282634 1131.4654417697232,1237.7188286308842 M974.2872928731022,980.4104724654084 C724.3245113548904,356.89133240446677 474.3617298366832,-23.689789027295447 224.3989483184705,92.99186494905382" />
    <path class="edge outline hidden" d="M241.2485762596216,188.13751878541993 C235.8146052395932,187.6659991615092 230.4600676268634,186.29596550567163 225.46740772153316,184.09968788953083 C222.87102972731108,182.95876742042577 220.36973932860693,181.59462153427438 218.00626019034007,180.0313968843128 C217.5722337368014,179.7447081168445 217.2600539043281,179.52844340728385 217.07326658735073,179.39914320033142 C216.88337674531718,179.26724010298565 216.80406975497937,179.21093891593318 216.7607109236777,179.18041961175493 C216.71849495700718,179.15059556762688 216.7086637712658,179.14365091706838 216.69341806929913,179.13288538176602 C216.67875371856744,179.12252083477244 216.66330134679853,179.11153576314433 216.64706095399225,179.0999301668814 C216.62998364272423,179.08770239035582 216.6238968944252,179.08336890770386 216.6288007090947,179.08692971892515 C216.63476567329326,179.0912692761006 216.65926370101832,179.10901504440332 216.6871880405324,179.12931209979854 C216.741032766758,179.16838285179617 216.80517725385096,179.21552770395033 216.50820172981656,178.99969173523272 C216.36333847497687,178.89438404004432 216.12655956194865,178.72204627658206 215.82459424537973,178.501916902215 C215.52696876384326,178.2849619256417 215.16103487727764,178.01790407614976 214.87741662141605,177.81059776033368 C214.59812016083018,177.6064664741385 214.4045504705306,177.4645513568206 214.57387452969567,177.587659973187 C214.74304026853136,177.71067523707526 215.29107488909028,178.1103943956412 216.50027437814703,178.99403142958408 C217.10126641654367,179.43319449112997 217.8716391237599,179.99640868625804 218.81139249979543,180.68367401496792 C219.7516719955589,181.3713459799239 220.86844008465343,182.1883385091938 222.13581378971872,183.11584127035164 C223.40102239596607,184.04175775876237 224.81886048137372,185.07967048730504 226.3031383580508,186.16658607957677 C227.78416905005693,187.2511206428077 229.33423595423497,188.38656551922858 230.77659456796434,189.44352823068115 C232.21433510799287,190.49710253839694 233.54762367788183,191.47458803166626 234.47082978915782,192.15202629050563 C235.38771584627483,192.82482494002016 235.89852875271333,193.20052432013566 235.52115372489988,192.92560849697603 C235.13538058909506,192.64452482164418 233.8662806493252,191.71640148962828 230.99712988516725,189.61541897080335 C229.55975994404898,188.56287479228376 227.7174035104503,187.2134623566903 225.3529464944733,185.48123345640744 C222.9877215740179,183.74844027185804 220.1005939874123,181.6329762633782 216.55295823971574,179.03310057686278 M144.7435851777609,139.4550960501343 C145.81435057201122,139.54767079883553 146.69996487632804,139.66622153264973 147.58716796409635,139.82010869049506 C148.473312657696,139.9756026074173 149.36364363239636,140.16920825729127 150.41526572486177,140.45527533318617 C151.46461184613543,140.74164824210166 152.6778465828237,141.1232578859584 154.14834757822547,141.66301728239802 C155.61535502541278,142.20178158580146 157.34222622896306,142.90147095070816 159.32451948216658,143.79713578975148 C162.47975903359293,145.21719159554337 166.31777788255053,147.14946014394656 170.66290756471344,149.55290792082792 C175.00176892981182,151.9495296409159 179.84772351646913,154.81730787893898 184.84958998255317,157.92407953055198 C188.7311764817305,160.33356475820307 192.70369510071313,162.8838351377226 196.52004134234716,165.39039263136422 C200.33293729871835,167.8941667164144 203.98978752996317,170.35432655655768 207.14687955156597,172.50843867348829 C209.82734935167016,174.3371268622462 212.1482970127273,175.94563227514445 213.82763208395775,177.11819660206743 C215.5029384731452,178.28776647095407 216.55866860507797,179.03706713320489 216.59992893177696,179.06649545369322 M216.59992893177696,179.06649545369322 C218.10467042373384,180.05747812465168 219.0039841844196,180.65073269910286 219.54406649817903,181.007503258791 C220.08146869119415,181.36252578389818 220.25820798279435,181.48013633531465 220.24558282754995,181.47272767640501 C220.2308939962082,181.46397084986904 220.02564099966514,181.32941602942958 219.74346991662418,181.14379137102875 C219.45974873966023,180.9571521628582 219.0981169530541,180.71879785307448 218.72893432917198,180.47512420877513 C218.3586235335908,180.2307105320902 217.97995331629264,179.98045093178354 217.63179749908284,179.75008667383148 C217.28285437290407,179.519204569323 216.96377902897595,179.30779585727447 216.6914907933231,179.1271603890969 C216.14361206032325,178.76370238936065 215.7920367366432,178.5294272195249 215.61942244980435,178.41382024243347 C215.2705598546237,178.18000532225534 215.5947832463697,178.39347623148169 215.89601253590817,178.594255135916 C216.05012949096334,178.69687907646522 216.20329779939695,178.79929487717519 216.31888444783021,178.87679958810298 C216.4356968487858,178.95517250820916 216.5162137461019,179.00930375199462 216.56043513977772,179.03919331945912 C216.6502626476013,179.0998726019788 216.60217642359206,179.0674335370822 216.57032124063358,179.04523509108085 C216.55315767015014,179.03332251623976 216.5400627742594,179.024119676264 216.53103655296104,179.01762657115344 C216.52163268002678,179.01087273392017 216.51665270027027,179.00714715505688 216.49997192011813,178.99515111376323 C216.46808586062699,178.97182045347535 216.37579354779126,178.9076383426943 216.06042873775752,178.67723502950088 C215.903031334736,178.5624953138875 215.6988608288996,178.41067287579503 215.44791722024812,178.22176771522314 C215.2000895241476,178.03470220952806 214.91241418161783,177.8137326750701 214.62737991043286,177.58849142207245 C212.0580744789319,175.56286956573956 209.6873632709459,173.28309373242476 207.56252378066984,170.7942734668405 C205.07571736555744,167.89611158733436 202.92269988408418,164.69021512032026 201.16343365034407,161.2775324363514 C199.4033254158767,157.8648803690052 198.03693699604534,154.2455869484574 197.10065468457944,150.52145781069513 C196.16354510665084,146.79729138467115 195.65651020399017,142.96843410518574 195.59277280937042,139.1356475369017 C195.5282228825522,135.30275577547192 195.90693903067762,131.46607958899656 196.7193931849698,127.72343513405741 C197.53104954132826,123.98061758108827 198.77641247075655,120.33197662340831 200.42361556233675,116.87048167276049 C202.07003559024824,113.40874571919872 204.11826434721405,110.13430063642195 206.51450963958467,107.13336775457779 C208.90998660255036,104.13212596493503 211.65344866782323,101.40454123997799 214.66959041842694,99.02818549150004 C217.68497857389085,96.65145293033962 220.9730149815883,94.62609420941143 224.43729356062613,93.01913048539899 M956.2994393481977,989.0375435545886 C927.5095571514719,938.863334650116 898.4045085238552,888.8693881645137 868.718093821391,839.2196718252349 C839.0280717561269,789.5732934110164 808.7566836160165,740.2711451431243 777.536723598736,691.5706566506968 C761.6954886754709,666.8532878174332 745.6004767175004,642.305759282954 729.1935063513703,617.9654517229363 C712.7855097828049,593.6265552790283 696.0655548060807,569.4948798095832 678.9467263795732,545.6473172413503 C661.8268717506297,521.8011657892265 644.3081436719035,498.23912723831495 626.274893433595,475.07760476643375 C608.2406169928527,451.9174934106624 589.6918183925277,429.1578981339207 570.4841152546514,406.9547333650977 C569.4945673487908,405.78694027860996 568.3392311267346,404.4622726822592 567.1336838077932,403.08567837804196 C565.9244998262068,401.7057282292254 564.6583053348866,400.2672914651791 563.3505224701987,398.7830004150503 C562.0438133832914,397.299600649023 560.6848981790808,395.7610100487052 559.2737768575677,394.16722861409653 C557.8609144632438,392.57137141684336 556.3874408657882,390.91552309054464 554.8533560651994,389.19968363519905 C553.3203299919201,387.4857143625116 551.7263271502209,385.71387620072767 550.1010856285767,383.9192906627237 C548.4768065801647,382.12564101925057 546.8220034082777,380.31004943272666 545.193929212976,378.53438726595897 C541.9372579186623,374.98186344646786 538.7994843600002,371.60394685142796 536.3247640177666,368.9591034370023 C535.085134583865,367.634045902439 534.0095478015576,366.489833213758 533.1314531855479,365.5582359897777 C532.251794558128,364.62500473987393 531.5704293460469,363.90514815086544 531.0764747955341,363.38412554588945 C530.5808432042319,362.86138282101336 530.2722846846868,362.5370636581341 530.0921429645432,362.3476296101647 C529.9108538029394,362.1570461748928 529.8560408072811,362.0993045906729 529.835826540386,362.077573309741 C529.8158546560728,362.0561373367405 529.8264736186252,362.0665723377539 529.7812234716486,362.01892928765903 C529.738683352,361.9741173394237 529.6337347876845,361.8645287217944 529.45415292849,361.6778233190454 C529.3634758785865,361.5835523975496 529.2630243657446,361.4792081117013 529.1527983899623,361.364790461499 C529.0453818677037,361.2532779151419 528.9346227935727,361.13835846966265 528.8494213022162,361.0498445079258 C528.7649457208638,360.9620748587976 528.7056220726257,360.9002984174747 528.7206416204392,360.9151337318875 C528.7365911378511,360.93092061669785 528.8264187013933,361.0228470882754 529.0653182113685,361.26813892270843 C527.6422397372816,359.77443899411685 525.8530443602805,357.9030428928211 523.6198652850267,355.5848341606613 C521.3870877747917,353.2674731336474 518.7103265663035,350.50329947576904 515.5229586847308,347.24693247294726 C512.5797218429689,344.2321179038429 509.23009204089635,340.8427541263912 505.30762411015905,336.9208442170787 C501.3843942014819,333.00034965013987 496.8883261641393,328.5473089513398 491.6316394474589,323.4433547836368 C486.3741907528387,318.3408159583074 480.3561233788803,312.5873636640755 473.3683213925947,306.1042601503701 C466.3797574283689,299.6225719790393 458.4214588518163,292.4112325882352 449.2629743476291,284.4311338138618 C442.7293394404637,278.7553442270304 435.6012933437702,272.70405994554744 427.89436388203603,266.4074200892768 C420.1891127032781,260.11166947166885 411.90497815947793,253.57056327927273 403.1044799984536,246.939139314503 C394.3056601204049,240.30860458839553 384.99047662513124,233.58775208991347 375.26844118377744,226.95651830401977 C365.5480840254001,220.32617375678842 355.42087492094294,213.785447922145 345.0433174648815,207.53917596760158 C336.1525633291875,202.1387483080997 327.03327868057926,196.95841386181658 317.81634728421795,192.0759966427103 C308.59895953178903,187.19264560584327 299.28392503160774,182.60721179615322 289.989349578934,178.37137233029935 C280.69431777019156,174.13459904668457 271.4197450089568,170.2474201069064 262.2709591205836,166.7353657303249 C253.1217168761428,163.2223775359831 244.0982615045641,160.084513904838 235.29314286129934,157.32115815895273 C226.48756786196657,154.55686859530687 217.90032959094842,152.16708691692037 209.61119993379276,150.12504954855805 C201.32161392056886,148.08207836243457 193.33013652120823,146.38685148633544 185.70376165135434,144.98645844772525 C178.07693042543303,143.58513159135472 170.81520172901884,142.47863857247333 163.97279150785346,141.5879220212489 C157.12992493062023,140.69627165226368 150.70637682863583,140.0203977509352 144.74358517773817,139.45509605013234 M604.9107012445321,458.1013834438998 Q604.5587916009536,457.74788133571593 604.2121374056259,457.4016410910241 M241.2485762596216,188.13751878541993 C260.5905555708355,189.81353975161528 279.70226742576665,193.77329494078805 298.2395252157572,199.50744704081524 C316.78638656133546,205.24051389172917 334.7587938419719,212.74797765349788 352.08146000546,221.49011403882858 C366.47527125962216,228.76067249970498 380.41675955361023,236.8818880291858 393.945932234195,245.63865965592328 C407.47526206014646,254.39717966540462 420.59227627269576,263.7912557721435 433.3413822888812,273.65474172162254 C446.09064545043316,283.5199760538454 458.47200041562286,293.8546202288098 470.53425467175543,304.5414827088276 C482.5966660732546,315.2300935715898 494.33997676569794,326.27092273940667 505.81739430665857,337.5957333914221 C506.548025997403,338.32355714676766 507.2039451148746,338.97092598896506 507.8662927076143,339.6267117794754 C508.5263239295795,340.27995085958867 509.1880491270688,340.9364004953201 509.8695986520117,341.61564597630985 C511.2308074327502,342.9721264341077 512.6652038585424,344.4127322982442 514.1596890558707,345.9219143089035 C515.6531066025428,347.43013142349287 517.2117116798433,349.0123054101991 518.8115877651167,350.64715436602387 C520.4069881384427,352.2772433878832 522.0509991784661,353.9685139160439 523.5822112283022,355.5534346306108 C525.1116736804593,357.1362729453158 526.5091645847712,358.5925868209395 527.549117956087,359.6799409654177 C528.0716744591319,360.2264349797867 528.5026407947832,360.6777734190154 528.84201696304,361.0339562831034 C529.1811983901385,361.38979148222785 529.4250326251257,361.64603475198663 529.5934286280116,361.82299026371857 C529.9327148584522,362.1796679926617 529.9684412898046,362.2167294968234 530.0740117160932,362.32784809865746 C530.1240636655974,362.38055544482233 530.1961941343061,362.45683952252017 530.2740110573454,362.5392271798649 C530.31168852445,362.5791097735861 530.3490083905874,362.6186265831828 530.3699973781727,362.6407469772463 C530.3904377200952,362.6622811004167 530.394965005487,362.66686704151516 530.3522986645803,362.62111759021644 M974.25487348561,980.3394902065234 C974.7395637323629,981.5465830382014 974.9850018028981,982.8494361497437 974.9726431807076,984.150322424365 C974.9615177738654,985.8020827857305 974.5216724917057,987.4739018466964 973.7088243212798,988.9275386347088 C972.899121634932,990.3846922038261 971.7208717673888,991.6275994108978 970.3160494470428,992.5136160975069 C968.9129986766218,993.402435401935 967.2847818653925,993.9334753716782 965.6211613267767,994.0396920904726 C963.9593677609976,994.1502588537076 962.2605275847499,993.8302888266422 960.7637425380335,993.1316662805434 C958.9002647518182,992.2714608791161 957.3173230851985,990.8197652226694 956.2994393481995,989.0375435545895 M224.43729356062886,93.0191304853987 C237.36477435301822,86.98431527734738 250.82073055525285,82.039927956024 264.64657874664965,78.50011485717317 C278.4673305341568,74.95451828067506 292.6579743108256,72.81349592664942 306.91722734705854,72.22925675671462 C321.9437297947086,71.59866500077494 337.0350112310913,72.70110011153353 351.8327100417157,75.36522987797414 C366.6363076884114,78.0225473583587 381.14632270934834,82.24155949442513 395.16956090003805,87.66019006558587 C405.72295105525,91.73814024874396 416.00800003291147,96.49614667859004 426.00626900976897,101.7878184688663 C436.00557875313075,107.08039744353516 445.71810849568817,112.90664177863431 455.1545608763146,119.14556175089785 C471.66913915799114,130.067566350796 487.33407634281724,142.2353388688688 502.2847021509237,155.20719620564807 C517.2354602725055,168.1855067885398 531.4719070173678,181.9679021901382 545.1330768829566,196.293390202128 C562.1320261962595,214.14671605813447 578.2488917513812,232.80494645737403 593.6767664631868,252.01678947160963 C609.1031331101381,271.23119577119326 623.8405089137757,290.99921468577315 638.0397609730468,311.14132627685933 C652.237504967464,331.28600115329385 665.8971252175158,351.80476870623426 679.1272630062325,372.5898809869399 C692.3558927300944,393.37755655299276 705.1550399926231,414.4315768468109 717.5911202609277,435.7159659093984 C744.6032420750081,481.9225273682355 769.9733025357267,529.0724383220386 794.2114982128571,576.7884435891867 C818.4421821515751,624.5112621622432 841.5410013067072,672.8001750486443 863.8078235724802,721.4686996321927 C883.3208992525076,764.1305407030331 902.1945246690376,807.0832113052655 920.5643067323072,850.2492176470549 C938.9327063347073,893.4161833471428 956.7972625838464,936.7964847867872 974.2548734856127,980.3394902065304" />
    <path class="edge sharp visible" d="M30.85091091616141,75.84459741564916 C26.82875435139446,77.72130441707948 23.058734018394496,80.1371524695027 19.6732009997341,83.00733155312592 C16.286707136626116,85.87637718066655 13.28534558942555,89.199205811211 10.774479781466539,92.8591678883587 C8.262389000138716,96.51828923011276 6.24127410770001,100.51384489905155 4.782088508345548,104.7055685569757 C3.3214997575855656,108.89680351661252 2.4231192614143016,113.28340571690377 2.1184848311510143,117.71138105091839 M2.1184848311510143,117.71138105091839 C1.6699799183092077,124.16631874017584 2.4933528841478205,130.70618439686658 4.527859967412953,136.84850957934597 C6.556049880928033,142.99292358002126 9.793628225645064,148.73451493104477 14.001748926530652,153.64970601818703 C18.204813079482303,158.56922171884858 23.37480282525375,162.65810929360708 29.13030754740192,165.61471792955248 C34.88276860343067,168.57724345719927 41.21580039595091,170.40494481258318 47.662193625599684,170.96298571457666 M1016.9827248339499,1116.0978702314837 L1017.0612569566392,1116.24813955719 M1017.0612569566392,1116.2481395571897 C1021.1412173664528,1124.0537683646644 1024.875293501273,1130.9017822730546 1028.4392922473724,1137.1533831861466 C1032.0055337861086,1143.4098581799612 1035.40898416067,1149.0861269454326 1038.8882484511705,1154.6798656466024 C1042.3663401165495,1160.270881506487 1045.9275319224168,1165.7955740690234 1049.7775954455453,1171.6753799422625 C1051.7016748041008,1174.6131322241947 1053.696559319521,1177.636459536156 1055.7771969348362,1180.7737771808727 C1057.8567860027551,1183.909594368202 1060.0243210538176,1187.161762554861 1062.2798020880196,1190.5302817408426 C1064.5354379688417,1193.8982992023614 1066.8812127160545,1197.385028329774 1069.3070506510085,1200.962823334006 C1071.7322816378685,1204.539261141593 1074.2378035069908,1208.2072712874653 1076.7965460330868,1211.9012064765036 C1079.3545748792842,1215.5935470650854 1081.9660520769723,1219.3123191583002 1084.5839243636894,1222.9472266482314 C1087.200976238703,1226.580302133895 1089.8246508972593,1230.130019477738 1092.3849235491841,1233.434786452295 C1094.9442690575986,1236.7374840187667 1097.4404402538971,1239.7957376774173 1099.7774523296493,1242.3900117744552 C1102.113430530087,1244.9819790595977 1104.2904773044957,1247.1104732445956 1106.1836593356566,1248.4913679425874 C1108.0757007596987,1249.8697184248697 1109.684105135011,1250.5009758816157 1110.8520021450497,1250.029775886126 C1112.0186518161654,1249.5557942711162 1112.7450218165257,1247.979861665341 1112.8393163397259,1244.8687282955188 M47.662193625599684,170.96298571457666 C233.17884155227563,187.11860491736283 418.69548947895186,271.6989595220161 604.212137405627,457.40164109102415 M604.212137405627,457.40164109102415 C773.7545303836602,627.1140489396795 943.296923361694,881.2838932343764 1112.8393163397259,1244.8687282955188 M1112.8393163397259,1244.8687282955188 C1113.777599733472,1246.894360837191 1115.418309338139,1248.5832063792711 1117.4159680472007,1249.5796578839295 C1119.408516424726,1250.5862898299029 1121.7430532801025,1250.8930133691122 1123.9280015308757,1250.4352424621436 C1126.1152571619054,1249.988626483922 1128.1365340147556,1248.7809100350628 1129.5662164282521,1247.066394798303 C1131.004628560119,1245.359196681516 1131.8406933715376,1243.158028507158 1131.8983652248824,1240.9263877555784 M1131.8983652248824,1240.9263877555782 C1131.929453943516,1239.843142514169 1131.7825972686087,1238.7550726680142 1131.465441769723,1237.7188286308842 M1131.465441769723,1237.7188286308842 C940.8265400660653,614.1670778085362 750.1876383624086,278.68204854260404 559.5487366587508,124.28523870921191 M559.5487366587508,124.28523870921185 C383.31612807788787,-18.444038003674983 207.08351949702524,-6.420098667849919 30.85091091616141,75.84459741564916" />
    <path class="edge outline visible" d="M2.118484831150454,117.71138105091836 C2.437718601571602,113.07771910161692 3.1508392568839465,108.40168255417635 4.304165539616434,103.80702308520249 C5.454211567547505,99.21400397038805 7.044463222898331,94.70236193404027 9.02939211375815,90.44177856922988 C11.293804596983149,85.55520298127689 14.090755022083854,80.99992655838736 17.172700049308872,76.95887370378792 C20.255595688120575,72.91114119934528 23.619673369420262,69.37092650303562 27.04400687788325,66.33412382247519 C30.47107813526244,63.29378481714516 33.95459266016856,60.75015206740725 37.35028120693045,58.60010268732947 C40.75049463993803,56.449660307555696 44.05906953516504,54.68609553728501 47.25843346182046,53.195281499099345 M1017.0612569566401,1116.24813955719 C1007.2765578285631,1097.5253639699915 997.1330969477871,1078.306654197744 986.5924479844497,1058.5516776454233 C976.0508337054845,1038.7959107572294 965.1120313439569,1018.5038770889616 953.7105857324204,997.6131146411735 C942.3081748052557,976.7215618575137 930.4431206280791,955.2312802943318 918.0229391958555,933.0576785477615 C905.6017924480036,910.8832864653186 892.6255184451051,888.0255741994868 878.974604344532,864.377820941974 C871.4788859929208,851.4017042816571 863.7951132856493,838.2063475746545 855.9154087834415,824.816977957398 C848.0386768924348,811.4319825860783 839.9660132064922,797.8529743045058 831.7727733999823,784.2276591353473 C823.5825062046732,770.6067182121261 815.2716628887985,756.9394704013215 806.9988322403706,743.4961006118399 C798.7289742031451,730.0571050682962 790.4971288333678,716.8419875460758 782.5451180327,704.2434118403271 C775.8410514138116,693.6122211756424 769.3868239266054,683.4963435383336 763.2454961320899,673.9637136804674 C757.1028546097483,664.4291249139605 751.272505066892,655.4767772963309 745.780723685418,647.1197561376923 C740.2879134416837,638.7612479284902 735.1330636461278,630.9970595477141 730.3136423373574,623.798638889698 C725.4934770318916,616.5992030391959 721.0081325000061,609.9645282808881 716.8342448728355,603.8376371194989 C708.4841415868954,591.5819532215363 701.3845375405639,581.3577577309602 695.2213729248025,572.5715912133066 C692.1393862426304,568.1788154550948 689.2897148086695,564.1444203474139 686.6343564465367,560.4054243831953 C683.9793935499682,556.6673006588007 681.5181360120216,553.2235694473012 679.2236546921049,550.0356719567035 C675.2688205366766,544.5341488798765 671.815060117124,539.7762379110025 668.7500237291207,535.582442234809 C665.6858075683391,531.390048630328 663.0103154391101,527.7617703185293 660.6341639993329,524.5573684920956 C658.2588327867783,521.3543687373742 656.1828422636785,518.5752454680196 654.3397754501627,516.119017884668 C652.4975288638694,513.6641923730288 650.8882059871617,511.53226254739457 649.4683562023974,509.6615056163561 C645.9953498210393,505.0840720411041 643.6021091512287,501.9764023415863 641.8369097442873,499.69603783755224 C640.0783890748993,497.42577938859216 638.9479673015738,495.9829233610362 638.1809246271133,495.0079806167079 C637.3055298018797,493.89652614716596 636.904566899966,493.394747830371 636.6907723728114,493.1272841203137 C636.4782718646082,492.86204077737176 636.4528820979717,492.8310148152477 636.3635720550164,492.7210149671912 C636.304186310356,492.6480013899387 636.224177899654,492.5498598481086 636.054386360509,492.34347283673236 C635.8850388022125,492.13775721738295 635.6259081154736,491.8237961284878 635.2202653016716,491.33727104184084 C634.8150664687195,490.8514173472215 634.2633555087036,490.19299965484936 633.5208348867889,489.3164984132827 C632.778758245723,488.44066856374263 631.8458719427579,487.3467551650084 630.6903099068376,486.00803764239663 C629.3793819150513,484.49342195292974 627.7686680967843,482.642097882916 625.8965321255956,480.52899905879946 C624.0262343335521,478.41749378658255 621.8945143885862,476.0442137602621 619.5912049803093,473.5287120594707 C617.2897337511766,471.01480391057873 614.8166730587316,468.3586740872147 612.3133246086352,465.7244951221989 C609.8118143376831,463.09190970908287 607.2800163090785,460.4812751543133 604.9107012445321,458.10138344389986 M1131.8983652248826,1240.9263877555777 C1131.8691648786948,1241.9567347548434 1131.7908863142702,1242.966255954837 1131.638035421253,1243.9963821389151 C1131.4834319139045,1245.0264961272546 1131.2542560779611,1246.0772150996781 1130.8759406017616,1247.1896283588064 C1130.6504711621055,1247.8196414576644 1130.3915825268998,1248.472371854621 1130.052285373909,1249.1418342876668 C1129.713911914029,1249.8105640618849 1129.295129936368,1250.4960258721921 1128.7748135258023,1251.1717200093838 C1128.2554208083477,1251.8466814877452 1127.6344936579924,1252.5118752929898 1126.9167695667256,1253.1202872687013 C1126.1999691685721,1253.7279665855842 1125.3863718295079,1254.2788640729352 1124.5065784486435,1254.7054511271356 C1123.435373019385,1255.24452562529 1122.2818480318447,1255.598449834749 1121.1852642465553,1255.785851884251 C1120.085334751851,1255.9748259438134 1119.0395168052169,1256.0010103381887 1118.0933913035556,1255.9270494778518 C1117.1452464928723,1255.8529110206546 1116.2939644729804,1255.6823598035144 1115.528585488194,1255.4730675247727 C1114.7625135947837,1255.2618480422464 1114.0795150822998,1255.0156199928838 1113.4492287535397,1254.7380933690122 C1112.6241427670348,1254.3795149826424 1111.893405866226,1253.9885246934173 1111.213074388554,1253.580025864846 C1110.5334339637634,1253.1710331654742 1109.9041989621087,1252.7445319267563 1109.3007752016856,1252.3015971297502 C1108.2408924356787,1251.5196498676294 1107.2498571836486,1250.6888864707998 1106.279332092125,1249.8053011612303 C1105.3097636518319,1248.9219166308985 1104.3617168254818,1247.9858852736506 1103.4134920526167,1246.9988035926785 C1101.519939234055,1245.0253937012508 1099.61968648971,1242.8458729357474 1097.6896859484746,1240.509502181129 C1095.7612288970977,1238.1735883292138 1093.8114598938569,1235.683277549722 1091.851048531282,1233.0993736076641 C1089.8919655226139,1230.5152688339601 1087.9147222229885,1227.8379241693945 1085.9576818818914,1225.1212696971616 C1081.671527693517,1219.1797461473018 1077.4406965180588,1213.073999554469 1073.4094277255306,1207.1738217879729 C1069.3744149521078,1201.2646024519406 1065.5390569494505,1195.5610931900342 1061.9428166381992,1190.1800060356054 C1057.9187698627854,1184.1556770234777 1054.1961497958237,1178.5407012627334 1050.699484733539,1173.2040532313822 C1047.2001074479188,1167.860958215033 1043.9266113488873,1162.7961353541107 1040.7276485529526,1157.69817867536 C1036.8929003426174,1151.586705106976 1033.1675084507074,1145.4304998300431 1029.2703091130945,1138.6274079171908 C1025.3753480724106,1131.8298463411575 1021.3085610162799,1124.3853124553798 1016.851467552624,1115.8465517810203 M47.258433461773166,53.19528149912338 C58.75851812309446,47.84029257281959 70.25060615859152,42.81558981710542 82.07160066638619,38.081960817683566 C93.88733317894184,33.351363684904584 106.01313021277565,28.911434849188257 118.63855899931626,24.807854162238282 C131.2675579551582,20.70749540094514 144.37734671268763,16.943079329188706 158.25745724377168,13.650499717064196 C165.2001266494242,12.00515072376736 172.3393155889566,10.479516444530674 179.74048722399894,9.09946938218107 C187.14271001004803,7.71964150821756 194.8063266806378,6.485388180540207 202.82623262559355,5.428719176786956 C209.5945548300811,4.536581088897189 216.63066420888802,3.7932476210427724 223.59941357668407,3.2426038634833656 C230.57408982926586,2.6900283366667863 237.48636937147114,2.32767767118756 244.16641864822202,2.145697738575312 C250.85031982062426,1.9628035534198645 257.30588071391264,1.958403545442751 263.4704817074952,2.097394835435015 C269.6373627236698,2.236213627128213 275.51610051218483,2.517135454371155 281.1072769412752,2.9005778060519862 C286.6996646359734,3.284313651208022 292.0062343289994,3.7698700516513344 297.0608441818636,4.326232634046962 C302.11609965942733,4.883078939222233 306.92006534028815,5.510619750468232 311.52403773379103,6.191735252750918 C316.1285932271605,6.873248944647835 320.53275216233664,7.6088139449688805 324.803498701168,8.392810068349158 C329.07526893110736,9.176843085708368 333.21215017957206,10.010372136783275 337.30915081568764,10.889160388090431 C348.9558044615697,13.419196693607248 359.76209060357303,16.26590065525681 370.1187722311503,19.394038734204976 C380.46890716220764,22.522891578563925 390.3629805198113,25.93399991960422 400.0093625377288,29.612012165777838 C409.6518645739789,33.29040590612368 419.0417543462009,37.23630412950456 428.27967734835767,41.44490559698116 C437.5156670205667,45.65365878808573 446.59630513305416,50.1254949997067 455.5690186881187,54.85972977027472 C473.51178116330743,64.32821404029002 491.02170086930926,74.84712409207162 508.3059754426152,86.41492186245718 C516.9449725057077,92.19856462634986 525.5341178033027,98.24517998152797 534.0734113353989,104.55476792799135 C542.6135560695362,110.86496429176503 551.1132044566058,117.43865212407009 559.5487366587513,124.28523870921157" />
  </g>
</svg>
