<?xml version='1.0' ?>
<svg xmlns="http://www.w3.org/2000/svg" xmlns:xlink="http://www.w3.org/1999/xlink" version="1.1" width="3998.963693909896" height="1407.698182317849">
  <style type="text/css">.edge {
  fill: None;
}
.edge.visible {
  stroke: #000000;
}
.edge.hidden {
  stroke: #C8C8FF;
}
</style>
  <g>
    <path class="edge sharp hidden" d="M3111.143579475802,361.7936045770217 Q3110.097069491956,360.34872670611077 3109.229009120632,358.7900970565578 M3111.143579475802,361.7936045770217 Q3111.1408201078602,361.78836484227776 3111.1408254133835,361.7883730359416 M3111.1408254133835,361.7883730359417 C3111.141173717412,361.78892329554134 3111.578442812475,362.61996499872185 3112.340764834826,364.09263952749785 C3113.1036892335487,365.5662790869842 3114.1917537828626,367.68169182233214 3115.5099571573555,370.27703997544455 C3116.8287220222987,372.87328737008073 3118.37771293572,375.9496105327471 3120.077650304759,379.3693504679987 C3121.7781082783267,382.78992385558627 3123.6295999308036,386.5540543660246 3125.567422596092,390.54841966928075 C3127.505724979988,394.5435526356865 3129.53044559998,398.76906074517467 3131.5903139109437,403.13311623588993 C3133.650621054588,407.4978736005669 3135.746163112494,412.0013186967355 3137.837956854695,416.5712762334754 C3142.0248669158045,425.7164994050778 3146.184823543492,435.1086717613996 3150.135778670984,444.3778523288558 C3154.091792597225,453.6551049987255 3157.8415961688083,462.8138570882334 3161.3447876838973,471.71018649136846 C3164.851729648256,480.6124827429305 3168.114850701654,489.2568475166235 3171.1987617219042,497.6664304623936 C3174.285114841943,506.0798750026036 3177.1950490743843,514.263028923396 3180.061554091402,522.3471665190581 C3182.929192858746,530.4330604551757 3185.756193556217,538.4244292746666 3188.707290865134,546.5017248045535 C3191.6582135749086,554.5786714209097 3194.7360240416624,562.7460359561625 3198.1005681705924,571.1745006584517 C3201.4636293509,579.6005111932238 3205.116215338916,588.2921131035339 3209.1766494784183,597.351271947022 C3213.2342923198266,606.405871369007 3217.702574458258,615.832518932674 3222.6216628908205,625.6055163935495 C3227.5366516758127,635.3718491789367 3232.905237900476,645.4890230700372 3238.652798429977,655.7447289086537 C3244.3949509624304,665.9916648177957 3250.5188689452675,676.3816238829583 3256.798505326441,686.4567389206069 C3259.936564016658,691.4914461265101 3263.1103767522045,696.4422964605145 3266.2745437844496,701.2242920594168 C3269.4382501591144,706.005542170168 3272.592398053764,710.6180778960824 3275.6786893075623,714.956027705657 C3278.764479017856,719.2931662378938 3281.782499310594,723.3558592040572 3284.6604088069466,727.0155193071103 C3287.5377758738778,730.6743023436384 3290.2751193677223,733.9301928673209 3292.784909885877,736.6300457183477 C3295.294117088695,739.328955713663 3297.5758585391136,741.4719683865884 3299.52627200499,742.8795386173017 C3301.4760612696,744.286100203117 3303.0946097729548,744.957359696986 3304.2605776475416,744.6855299218369 M3508.095073420739,396.8799920661905 Q3533.275312487493,392.42295361376284 3558.455551554248,385.2555819340234 M3558.455551554246,385.25558193402355 C3698.7959633845753,345.32557581982326 3839.136375214907,242.6750202244137 3979.476787045235,84.37844295243914 M3979.4767870452347,84.37844295243917 Q3979.4807194708246,84.38043018413255 3979.480716044642,84.38042785357325 M3979.480716044642,84.38042785357325 C3979.475447873809,84.37744329353814 3977.099772942858,83.17871860246076 3973.359491865217,81.34644128297214 C3969.609440118387,79.50863361751198 3964.4919034099157,77.0357115678126 3958.739103615984,74.33501294930282 C3952.9778825973826,71.62951605786589 3946.5785196783527,68.69468084179029 3940.037442444233,65.80349347454593 C3933.4892934299487,62.908239907419 3926.796551285604,60.05507243329502 3920.257633752022,57.40312362892923 C3913.7129938827893,54.74784069772526 3907.3192998093587,52.29221468045126 3901.21474387443,50.102022602391884 C3895.105815048366,47.90922847053871 3889.283145545846,45.98030652207204 3883.762486757821,44.30817627605021 C3878.2388045231774,42.634176049279034 3873.014254188072,41.2154057691246 3868.0199306380946,39.99242549366326 C3863.02393308601,38.76830731049695 3858.255283504091,37.73841737619565 3853.5982047189395,36.811454333097494 C3848.940801376196,35.88408545533892 3844.392090015253,35.058081712955435 3839.8272058500997,34.23077837779138 C3835.2633465718645,33.403801281011276 3830.6804356744574,32.57396283562258 3825.982305205617,31.647732988219616 C3821.2865490682098,30.722561452245042 3816.4726945444086,29.6994367584281 3811.5110549620927,28.51446157335755 C3806.5531391557233,27.331276772759857 3801.444559475876,25.98467972508016 3796.259894976941,24.4609038621458 C3791.0803036984657,22.93965045672865 3785.8217487859415,21.239656480228472 3780.700859466642,19.417784174954537 C3775.586392812319,17.599166400242307 3770.6067129362564,15.657108540928105 3766.1582836849934,13.73959969504759 C3761.7176265432254,11.826077452772918 3757.805341211288,9.935542468103998 3755.0355106013703,8.327608740046061 C3752.2748015454545,6.724393688638722 3750.653668396589,5.4022181380137155 3751.0415975789674,4.752819033392152 M3979.4767870452347,84.37844295243917 C3980.877647355958,82.79136709986983 3982.7963739598044,81.67201670792377 3984.8673790419525,81.23366549747378 C3986.9364470656074,80.78625945856498 3989.1452104557984,81.02254715267667 3991.072814352025,81.89750734377273 M3760.5766986925637,10.218438930500296 C3759.9366215747154,9.685138491469152 3759.6194767277493,9.265023379057332 3759.7110121142578,9.00084058529359 M3759.711012114257,9.000840585293586 L3759.712020277907,8.997990801385157 M3759.712020277908,8.997990801385164 C3759.8005732434535,8.752659369317392 3760.2455538934214,8.643373800458832 3761.1259987129365,8.710100989628131 M3465.052587297343,593.7696946499946 C3430.2801730109622,594.9730825649985 3395.50775872457,589.4619156088528 3360.7353444381883,576.9193401128837 M3360.735344438189,576.9193401128838 C3312.562650091706,559.5432197575711 3264.3899557452273,528.6720488238143 3216.2172613987454,483.46335232243825 M3216.1788285731136,483.427281172295 C3181.1670788740093,450.5642125475384 3146.1553291749065,410.1274674926346 3111.1435794758027,361.7936045770217" />
    <path class="edge outline hidden" d="M3979.480716044641,84.38042785357317 C3953.5630334178973,113.60525324477409 3926.7715993608017,141.94850067686917 3898.8353434664177,169.16915287009414 C3870.901402961927,196.3798945714763 3841.82264062016,222.46804103398884 3811.3928169512355,246.9150812062717 C3780.965308672207,271.3522108867115 3749.186739066033,294.148234276923 3715.9156995598964,314.5071465539498 C3682.6469754436566,334.85614833913394 3647.8857814274597,352.7680390111346 3611.5555398555557,367.1693199754014 C3594.333910172549,373.9969983289277 3576.7879813513255,380.0202477891085 3558.974487538149,385.1076538453123 C3558.4746690966103,385.25020819150365 3558.4231437314434,385.26487477315965 3558.434882072518,385.2615056108264 C3558.455005108852,385.25574401118024 3558.5383918514394,385.231946667546 3558.534784397427,385.2329773557127 C3558.5395616386745,385.23161560656666 3558.4573446833265,385.2550818892223 3558.372647095812,385.2792517347124 C3558.296334203553,385.30102914288915 3558.2175406791353,385.3235101139014 3558.4555515542456,385.2555819340235 M3621.655214316859,214.93175032288664 L3621.3892902541793,215.36150852533643 M3371.5770969810233,606.3931763470941 C3379.80291538938,594.2384163611579 3387.895699802484,582.2434039220587 3395.725677733259,570.597779272115 C3403.55228332129,558.9577912727892 3411.116082426988,547.6671910626175 3418.1928769663878,537.0734451012084 C3422.16857061243,531.1236244419002 3426.0219505855803,525.3447926473008 3429.66269574189,519.879216854546 C3433.3051314768263,514.4110399545792 3436.735730380305,509.25490819257897 3439.9115075099808,504.48025770374323 C3443.089621545755,499.7014907465255 3446.0106506437705,495.30924305943466 3448.674594804025,491.30351464246985 C3451.3384610485136,487.2984032567932 3453.742979191285,483.68484913820504 3455.9084160194097,480.4343041832876 C3460.242036361974,473.9287240566637 3463.6143691845027,468.8839282508568 3466.342925020497,464.8237278990443 C3467.7075787999415,462.792896194592 3468.9133518205367,461.0047777337316 3469.99683677902,459.4030424682736 C3471.079767982292,457.8021116502657 3472.0412091088265,456.3863531637826 3472.902247709401,455.12196148922254 C3474.6879281837696,452.5023047717749 3476.095596422559,450.45868860344757 3477.2881066497375,448.74209716566014 C3478.4782661616177,447.02913855367115 3479.45125532535,445.64631439088714 3480.304369474945,444.44592590246276 C3481.1559734115876,443.24787081173554 3481.8861285272965,442.23468590327406 3482.5501053318035,441.32360545911706 C3483.213206864889,440.41387548959756 3483.808994809714,439.6080092815295 3484.3684932145984,438.8606523281788 C3485.4850338586384,437.36966429548994 3486.4613481147903,436.10540764368045 3487.4219771192556,434.89409404278763 C3488.378321900269,433.68916770515295 3489.324751418282,432.5286616943474 3490.282561408421,431.3918980194135 C3491.481737690654,429.9666842843216 3492.7228291880224,428.54597761991334 3494.00583590051,427.12977802618855 C3495.289598849843,425.7129627857958 3496.621319239736,424.295004427394 3497.978218102134,422.9000818274669 C3499.8140325917016,421.0126242715396 3501.698480834094,419.1660402961096 3503.5445375360346,417.43251931524395 C3505.391708665619,415.6975083216195 3507.2002747672987,414.0757050936236 3508.914340875222,412.597662233472 C3510.555566639209,411.18247348448074 3512.110050670224,409.89834288770356 3513.603152548623,408.70999028751464 C3515.0981847468656,407.52056269730457 3516.532056761662,406.4266994350593 3517.9841085328812,405.3630631424042 C3519.304468644049,404.39614765386483 3520.641135332214,403.45379375665874 3522.047911398571,402.5031277327881 C3523.453480976654,401.55352568980703 3524.92914809572,400.5956546039129 3526.494990420015,399.6263731589369 C3528.2161315358458,398.56094190891145 3530.0465012934505,397.4818434986639 3531.963659762925,396.41570166848567 C3533.8796034774086,395.34993471466595 3535.8822682814407,394.2971761890365 3537.9152103228016,393.2945438374427 C3541.7898670319723,391.3783543430995 3545.7976701051493,389.6543824945085 3549.316827200356,388.31879490847626 C3551.8492643857253,387.3541005068973 3554.1222804668923,386.59090380328547 3555.7887913455124,386.06268463536077 C3557.4517082038033,385.5352348930247 3558.508095059123,385.2426464523999 3558.5102500121784,385.24001228339273 M3558.510250012179,385.2400122833927 C3422.986077846325,424.12976251259386 3292.6745122998655,461.52353975700413 3167.3337359349975,497.4907525390194 M3167.3178837024816,497.4426983758237 Q3185.6380915295977,492.187633818202 3203.4240941786747,487.0858645089102 M3505.9155099287827,400.3240315822969 C3559.536458149019,384.94541741684884 3606.45266551961,371.49051927810916 3647.25164507151,359.7906173591132 C3688.054716380125,348.08954234892803 3722.745092928208,338.1421626928197 3752.0243319646916,329.7470627387769 C3810.592195524671,312.9541791222881 3847.5044720801247,302.3735457247667 3868.944074348608,296.2305013782094 M3868.908409066286,296.26745500554614 C3861.0220442109535,298.5309302843234 3851.7102987747307,301.2028802501712 3841.5368629254117,304.1216155755829 C3831.3601477666834,307.0412923684467 3820.3219261151853,310.2077020845736 3808.893861186315,313.4855756822836 C3797.4625046939445,316.7643941047645 3785.6411759437988,320.15471375803463 3773.809207555154,323.5477685583326 C3761.9740670304313,326.941733757852 3750.1279087440525,330.33854293313135 3738.561115150201,333.6549585738611 C3726.991371826382,336.9722206463391 3715.700424636542,340.20925263712456 3704.895966696704,343.30654491488787 C3694.088858076378,346.4045976759983 3683.767533368875,349.3631133962441 3674.065400185501,352.1438950265584 C3664.360968046616,354.9253360919184 3655.2749339221727,357.5292710045577 3646.8762956585283,359.93597806758703 C3638.473186086685,362.34395659821763 3630.764299707257,364.5527820387916 3623.7496365202314,366.5624543893076 C3616.736006972813,368.57184092322717 3610.423421837334,370.3801508349379 3604.7846165096435,371.9952628197043 C3599.1446792878223,373.61069910616754 3594.17770497726,375.03317197836384 3589.824761203693,376.27963329978144 C3581.1141878630747,378.7738956357389 3574.87233997922,380.5605140678659 3570.404867528257,381.83888130434 C3565.935130384755,383.1178899177875 3563.2211112675673,383.8939996589469 3561.509028576386,384.38341796014004 C3559.8017245847705,384.8714578744495 3559.085004680423,385.0760596342349 3558.7434957813693,385.17351291456674 C3558.4102780630974,385.26858242674814 3558.448627357963,385.25754262937966 3558.4797837543506,385.24865680398 C3558.5193269017286,385.23736311970373 3558.554851826803,385.22730473212226 3558.4459729943933,385.25830716061034 C3558.3428796456783,385.2876517686234 3558.1031932487235,385.3558082905927 3557.750382462488,385.45564986328463 C3557.3993852022104,385.5549765522547 3556.9442347026916,385.68340812930666 3556.458584364495,385.8195730144988 C3555.971337124755,385.9562035509269 3555.4589530878948,386.099026286618 3554.946553852223,386.24080647319573 C3554.4322471120104,386.38314107467187 3553.9136185997804,386.52567273419095 3553.3545667159538,386.67893661945646 C3552.7995409169625,386.8310484731149 3552.1827610951286,387.00002588595333 3551.568278505871,387.1677622741421 C3551.264431439151,387.2506561380918 3550.9651919540293,387.33208295662536 3550.7205062332037,387.3977360433677 C3550.4778022676383,387.4628197602548 3550.2876781939804,387.5126971196533 3550.255238883999,387.51721404337144 C3536.3438243172664,391.2321166307265 3522.2755826595358,394.37164154472583 3508.095384477052,396.8795003754671 M3761.399837937461,6.474444602466518 C3760.7226120185474,6.091426098017472 3760.154545427457,5.74380446930566 3759.7396408362856,5.462969523567566 C3759.327312572454,5.187094060826517 3759.0618693039896,4.960150172492004 3759.0594508684876,4.952393189717384 M3759.059450868486,4.952393189717384 C3759.0593152146034,4.9529528267666 3759.096413118162,4.9860583323718926 3759.1782851725643,5.088557808581692 C3759.259191552203,5.193002388736748 3759.389975117154,5.3636319597525 3759.551137567469,5.691757534144529 C3759.679893789764,5.961611541261799 3759.8355024207867,6.34598663784852 3759.917708866233,6.907935990240702 C3759.9574975875207,7.187844268839195 3759.975449280387,7.511773232899061 3759.947767143875,7.868842302139968 C3759.9205352093295,8.224957032702397 3759.845606250778,8.614877061602309 3759.7110121142564,9.000840585293759 M3979.480716044643,84.38042785357317 C3980.6136194719343,83.09925435908605 3982.083851475548,82.11739075875784 3983.7010712154974,81.56142719692218 C3985.3169494468707,81.00157663761354 3987.079815414591,80.86762611679744 3988.7617660386545,81.17732984956632 C3989.485728937023,81.30993140813466 3990.186595968513,81.51965919722603 3990.864367133111,81.80651321684012 C3990.945846412391,81.84104989503493 3991.016801415434,81.87209457459811 3991.077232142239,81.89964725552944 M3751.041597578967,4.7528190333922 L3751.0424767320233,4.7513699349486735 M3111.1408254133853,361.78837303594224 C3126.894962072079,383.53675508174416 3143.367994043226,404.69440137405616 3160.7981821423778,425.0796195900608 C3178.227747044968,445.454866496712 3196.6144680755638,465.0576853270568 3216.179156545987,483.42718709637234 M3216.217588042118,483.4632585902437 C3231.1245325927416,497.4520355129415 3246.714907530409,510.7177953176311 3263.0795647020277,522.9478498923177 C3279.444011887336,535.1745446306724 3296.5827413065977,546.3655341390244 3314.580725190055,556.1140548880945 C3318.265517183636,558.1078924381369 3321.9627340501297,560.0317372981046 3325.7026688292926,561.8915910223592 C3329.438222494533,563.7509334328896 3333.2095998122836,565.5436195878514 3337.016800782551,567.2696494872453 C3340.825833704413,568.9961013053176 3344.6655211635216,570.6495076471284 3348.5358631598824,572.2298685126786 C3350.471953667684,573.0201993554732 3352.41702705334,573.7919416553019 3354.371083316854,574.5450954121632 C3356.3212169774697,575.2967708988575 3358.287616896241,576.0318817369528 3360.183865012695,576.7198247375474 C3360.475678100684,576.8254984852206 3360.627856506926,576.8805589284776 3360.7215604884527,576.9144318515896 C3360.813952196881,576.9478289069959 3360.846856372036,576.9596710167266 3360.8648129545513,576.9661044006405 C3360.894978223074,576.9768870487911 3360.8816952974616,576.9719598625162 3360.9186374667393,576.9852566019 C3360.9506761121306,576.9967757238009 3361.0176991333096,577.0209917711019 3361.081883927337,577.0441698252754 C3361.146277662312,577.0674241984693 3361.201166938915,577.0872234395428 3361.2189887007976,577.0935687100044 C3361.2386610697085,577.1005854318843 3361.22083394622,577.093992080429 3361.192776893641,577.0836841407836 C3361.165838300241,577.0737818675581 3361.132131819274,577.061421114694 3361.1518659168196,577.0684442475372 C3361.170709496607,577.0751442311249 3361.248009481311,577.1030475952546 3361.4192683086053,577.1650312830747 C3361.587447796978,577.225897862003 3361.853815504887,577.3223788207429 3362.166487271844,577.4356493469248 C3362.4748080193117,577.547341547332 3362.8305355189746,577.6762231075975 3363.057398379371,577.7583479236298 C3363.2806526651693,577.8391638264768 3363.370678086727,577.8716396888066 3363.046210901469,577.7537462037886 C3362.721988696799,577.6359417343596 3361.971102507859,577.3633527076001 3360.513802209135,576.8345031561345 C3359.7894210870036,576.571626881275 3358.880780796021,576.2419088701888 3357.7878813361776,575.8453491228755 C3356.6918380489897,575.447648936263 3355.4047838392776,574.9806586682831 3353.9267187070427,574.4443783189346 C3352.451001875017,573.9089499642354 3350.7862631459316,573.3049535146323 3348.975581449446,572.6480167068028 C3347.1667840242267,571.9917634077453 3345.2107356045085,571.2820952854138 3343.203136750029,570.5537282790003 C3341.1980915766144,569.8262875979469 3339.1399471145382,569.0795862147155 3337.19575814055,568.37422318654 C3335.2549094300543,567.6700718012951 3333.426208243883,567.0066029685206 3331.970076996872,566.4782838065889 C3330.518198338647,565.9515072146387 3329.436804262888,565.55912387501 3329.1052190433566,565.4387309756377 C3328.77893305095,565.3202602912602 3329.200074882041,565.4729163812339 3330.896165655251,566.0880526144884 C3332.5987451771384,566.705542534204 3335.5735786493074,567.784535052471 3340.529679751653,569.5822169713812 C3345.4936105776655,571.3827389831675 3352.4357817998325,573.9008523405972 3362.284236071734,577.4731927095729 C3364.687549298311,578.3251780152381 3367.905941609081,579.4257179356549 3371.446489149047,580.5154391517847 C3374.993958717197,581.6096092702367 3378.8634370212785,582.6928562166045 3382.7555928729694,583.6302161099022 C3386.0651797340124,584.4287306471886 3389.3971355298586,585.1261368234574 3392.6634718738756,585.6975683572467 C3395.931883248985,586.269998000535 3399.13482166554,586.7165574691421 3402.2421754850448,587.0401677206277 C3408.6470669425544,587.7059254427332 3414.6071095743246,587.8523824111276 3420.2563195296943,587.5798733439451 C3425.903587739121,587.3065440392626 3431.240023272165,586.6142486990038 3436.3452733918753,585.5803553913071 C3440.701464563673,584.699902470545 3444.882229849189,583.5563187041224 3448.656127473818,582.3006167171992 C3452.4311371813787,581.047283589141 3455.7992792280597,579.6818322405821 3458.560250161528,578.4216033449682 C3459.902630889266,577.8103205175942 3461.1062039291046,577.2218696993004 3462.1945083681126,576.662803267806 C3463.283358004228,576.1031143651788 3464.2569390395074,575.5728098493499 3465.1540560800368,575.0610129063092 C3466.0517183176735,574.5485934921347 3466.872916560551,574.0546816507475 3467.67172093376,573.5509713764031 C3468.471070504076,573.0466386309255 3469.2480262047216,572.5325074524923 3470.07192367979,571.9628426436257 C3471.0737940357376,571.2751088252595 3472.166205135843,570.4723063430662 3473.4129483514103,569.4966564304273 C3474.6604477520505,568.5186734260255 3476.0622792681547,567.3678429911782 3477.703407453096,565.9210597899161 C3479.3452918231155,564.4719434968922 3481.2264728619634,562.7268744374513 3483.453088305085,560.4974207062772 C3485.680459933276,558.2656338833395 3488.2532659657404,555.549462388667 3491.298817319957,552.0951477475865 C3492.2578571724484,551.0172384549278 3493.278059076488,549.8280231004603 3494.356774710583,548.5504912701405 C3495.4364471951403,547.2707779121856 3496.576269904322,545.8986837100114 3497.799687831692,544.3976555292094 C3499.0235704217207,542.8957448499746 3500.3315117366824,541.2634220358822 3501.759268826726,539.44096404984 C3503.1875482296796,537.6177103076286 3504.734933926626,535.6054294493758 3506.4511092311664,533.323657318683 C3508.1684143369057,531.0399638871457 3510.052626581303,528.4904734512138 3512.1843652135476,525.5424654842582 C3514.3183909733157,522.5901983848411 3516.696887664164,519.245694234583 3519.4638156082615,515.2585168513848 C3522.23473784427,511.26353021717057 3525.3898628889415,506.63473704233866 3529.184292740163,500.90458216977987 C3531.0830139511763,498.0365031642972 3533.1441242352907,494.88801241447595 3535.4148928989503,491.3698521443559 C3537.6861330138386,487.85073480061897 3540.166844385576,483.9623462494104 3542.917486040949,479.58865471682356 C3546.4361421331646,473.98246378651106 3550.42408411332,467.5281721091298 3554.7619287957923,460.3372396783307 C3559.099371162749,453.1482361437062 3563.7867162320185,445.2225918556635 3568.693315983313,436.7257759007265 C3573.5995134190857,428.2308888419631 3578.7249655368737,419.16483011630487 3583.9277594816836,409.74707790314267 C3589.13015111097,400.3312545861546 3594.40988456727,390.56373778166204 3599.613782160903,380.7180147619263 C3608.7596295186895,363.4246660203505 3617.8189628777895,345.63878971228894 3626.6665991593904,327.664838097219 C3635.5187341072833,309.6827209031243 3644.159312844052,291.512597612952 3652.5893304608276,273.23039016040383 C3665.3924970506555,245.46408321376606 3677.699566015641,217.46181310953017 3689.5748685307913,189.31205916075666 C3701.4502605245243,161.16000684915787 3712.8937452020605,132.86040148209133 3723.972374652461,104.43747410043619 C3736.3162203033016,72.7664883600806 3748.205744223308,40.94543116564745 3759.7120202779056,8.99799080138547 M3465.0519529331646,593.7704995619415 C3458.734587902231,593.989437425574 3452.417431712616,593.9858198467535 3446.100484364329,593.7596468254801 C3434.8809368466673,593.3579387682444 3423.686959508328,592.2475498759865 3412.60483387567,590.4529838870042 C3401.522098707744,588.6597443138355 3390.5512132152858,586.182384223637 3379.761394174266,583.0824846507496 C3378.658666985204,582.7780066475901 3377.664199742654,582.4814259751104 3376.727408409683,582.1982914891006 C3375.789986384323,581.9143403468717 3374.9095176266874,581.6429882303961 3374.0138662827444,581.365496184847 C3373.118942424279,581.0879491178995 3372.203954246857,580.801932094647 3371.216074558438,580.4868209447582 C3370.2311156688183,580.172687680624 3369.1689793817163,579.8274557005092 3368.0603914389762,579.4586138390468 C3366.955523867099,579.091206400138 3365.8052695362394,578.7003182328284 3364.749126639,578.3354110272585 C3363.6938810667302,577.9709707679979 3362.743917544879,577.6365826701199 3362.071292930911,577.3976687645971 C3361.7328713792053,577.2773784592948 3361.4667414645296,577.1824082359128 3361.272903186885,577.1127580944506 C3361.079322252302,577.0432982850655 3360.9625812847307,577.0011269804834 3360.9047578736518,576.9802612169525 C3360.8454513190004,576.9588440736582 3360.8464842826897,576.9592738904508 3360.848610968098,576.9602078121734 C3360.8485034199016,576.960304049348 3360.8512737708497,576.9615851055485 3360.73534443819,576.9193401128838" />
    <path class="edge sharp visible" d="M3109.229009120632,358.7900970565578 Q3109.0236137324064,358.4212550116774 3108.828678138598,358.04677959873413 M3108.8286781386,358.046779598734 C3107.320904896804,355.1524788709177 3106.290809663593,352.01031150029183 3105.7924268055267,348.78510279024067 C3105.2920646519165,345.5602005493553 3105.323629743308,342.25364420652954 3105.8854663926763,339.0388819361368 C3106.445329946881,335.8237754614838 3107.5352237872094,332.70184603884906 3109.0979765253314,329.83685724785835 C3110.6589706516124,326.9709098902505 3112.6921518001473,324.3631358000111 3115.090867738646,322.1503279698927 C3117.4882251646723,319.93604840227556 3120.2500858459002,318.1176872675846 3123.2315739832247,316.7906282897275 C3126.2122471075118,315.4617397424658 3129.411265295547,314.6247246333481 3132.660821252414,314.323489334816 C3135.91019172222,314.02025975306174 3139.208702182085,314.25293995478637 3142.3833265008766,315.00932442589084 C3145.5584144507534,315.7637603881539 3148.608250409246,317.04157579776745 3151.3728525846927,318.77574173667824 M3151.3728525846923,318.77574173667824 Q3151.370426566612,318.7707161217457 3151.3704306203585,318.77072155862504 M3151.370430620358,318.770721558625 C3151.3707409776916,318.7712094244298 3151.755202754103,319.56867357670865 3152.419508381644,320.9847146033624 C3153.084373398446,322.401670243128 3154.029161291676,324.43733602252195 3155.1652273925984,326.9389216965582 C3156.301815839671,329.44135951561765 3157.6297615197236,332.4098504945718 3159.075045456125,335.71546444908233 C3160.520814695559,339.0218680805279 3162.0840012166345,342.665527952783 3163.7041745277024,346.53962483569444 C3165.3247960986923,350.4144489274524 3167.002483484981,354.5198432951215 3168.689357472807,358.7693505562695 C3170.37664267745,363.01952255817685 3172.0731935089366,367.4139407188183 3173.7426448243255,371.8847603970246 C3177.0846804120647,380.831424576256 3180.3070184849144,390.06561632949587 3183.240933759641,399.2409951830068 C3186.179650434085,408.4240114204459 3188.832473120088,417.55247924629265 3191.16511572657,426.49390493679687 C3193.5013743532304,435.4409690324149 3195.51998171005,444.2052554808268 3197.2879002709906,452.8121459014753 C3199.058249472562,461.42267574842253 3200.580438687938,469.8800740557433 3201.9894883289608,478.311626379275 C3203.399783231081,486.744819150292 3204.6994673685385,495.15643042565785 3206.0584284639503,503.71967829081177 C3207.417449440919,512.2825676246374 3208.838276185534,521.0013580363884 3210.4924731040505,530.0392287343125 C3212.1455445245833,539.0747419220938 3214.0345149287114,548.4335998841854 3216.299434779201,558.2129715448465 C3218.5620437521693,567.9879867165512 3221.203130981187,578.1877800749617 3224.2980423584113,588.7875388535562 C3227.3894574785713,599.3809421643792 3230.937225556628,610.378575383525 3234.9187972869836,621.5776726468891 C3238.8956873807338,632.7684154636693 3243.3089099364784,644.1648868128069 3248.0048298237325,655.3303963258311 C3250.351256972259,660.9104369970612 3252.7655972151942,666.4278366456646 3255.213686056879,671.8015746041563 C3257.661371166947,677.1746030054722 3260.1428839010628,682.4041029819318 3262.6127552782154,687.3891862651396 C3265.0821858806357,692.3734975230842 3267.540054151396,697.1135253530312 3269.9285494170304,701.4867647792148 C3272.316566864826,705.8591697120474 3274.6352903327956,709.8649195063698 3276.8135302479423,713.3581433725809 C3278.991255302135,716.850470277353 3281.028575828806,719.8304045192693 3282.839886148302,722.1269603884276 C3284.6506445637383,724.4225568280597 3286.2354717973044,726.0349081601908 3287.493308855615,726.766164648161 M3304.2605776475416,744.6855299218369 C3302.82335633817,745.5882029532366 3301.2002175029947,746.1928072416139 3299.5226917712966,746.4503490454549 M3299.522691771297,746.4503490454549 C3297.1025766169696,746.8276932956843 3294.574593305625,746.4692183528085 3292.3547951404757,745.4339192287229 C3290.131394684148,744.4063791941064 3288.2261226816518,742.7066326225141 3286.9525445743902,740.6144216651122 C3285.671667027344,738.5266715349126 3285.028201787727,736.0558105582367 3285.128048725038,733.6084895251244 C3285.2193475262375,731.1608348228698 3286.053529217359,728.7476761977362 3287.493308855615,726.7661646481611 M3151.3728525846923,318.77574173667824 C3270.280259530039,393.31255069754536 3389.1876664753904,417.91295229145123 3508.0950734207386,396.87999206619054 M3751.0415975789683,4.7528190333921545 L3751.043478510873,4.7497526964843075 M3751.043478510872,4.749752696484308 C3751.1785285336455,4.531886864021455 3751.546137496224,4.392443184960097 3752.1872951282244,4.350403951833641 M3287.493308855615,726.766164648161 C3315.521238230752,688.0504374949513 3343.5491676058896,647.8090610937286 3371.577096981028,606.3931763470943 M3371.577096981028,606.3931763470943 C3454.8478280720765,483.3469478699294 3538.1185591631297,349.9335824978549 3621.3892902541797,215.3615085253363 M3621.389290254182,215.3615085253364 C3664.9886252121946,144.9015419530834 3708.587960170211,74.12392512837079 3752.187295128225,4.3504039518336555 M3991.072814352025,81.89750734377273 L3991.293852481867,82.0005186536026 M3991.293852481867,82.0005186536026 C3992.5247559604636,82.59162229078123 3993.63177970989,83.43861561978292 3994.5242157633347,84.47209746636881 C3995.41789728775,85.50450250313139 3996.096039778779,86.7222964608182 3996.5030769565,88.02569529171352 C3996.911685419801,89.32860238497588 3997.048754604967,90.71572610215352 3996.9030539768164,92.07340681828089 C3996.758990613096,93.43126206635526 3996.3323105383533,94.75822991192366 3995.657975304195,95.94558031113212 M3995.6579753041947,95.94558031113212 Q3995.662132525217,95.94780768103831 3995.6621287832477,95.94780500959467 M3995.6621287832477,95.94780500959467 C3995.657122786715,95.944797068195 3993.302873320654,94.68526744235704 3989.580844419905,92.74946666058318 C3985.8495111308803,90.80808475311123 3980.747746146824,88.18889619643092 3974.9964906306936,85.31587999949431 C3969.2371739733267,82.4380024393311 3962.8257145235243,79.30476174563884 3956.257341489476,76.20401875702265 C3949.6821505612234,73.09913416765144 3942.9473937883636,70.02521179008366 3936.357399341397,67.15414764178186 C3929.7618302472642,64.27966165519666 3923.3083712186763,61.60649840460479 3917.1452603055627,59.21074243553132 C3910.9778179923287,56.81228439064603 3905.098071534217,54.68969813400629 3899.5329797777326,52.84341008840424 C3893.9647998681608,50.99513972946184 3888.7086223998676,49.42163208828447 3883.704937933006,48.06780881413535 C3878.699408560103,46.71272298911757 3873.9437199282856,45.57578603785546 3869.3267052285096,44.56656818528835 C3864.709088869726,43.556807544324215 3860.2274941826367,42.67323050878237 3855.753907906083,41.81020922848264 C3851.280963217568,40.947364922257535 3846.813374679236,40.103540878001716 3842.241093494969,39.17806451962015 C3837.670697145773,38.25348489778468 3832.992955890279,37.24571746855063 3828.1505963144887,36.07919827911197 C3823.311364820814,34.91429558869118 3818.304862746485,33.589105644792845 3813.1614029767493,32.07332646710537 C3808.0223145361606,30.559883550907145 3802.7436161398177,28.854315907646864 3797.478017889302,26.99173687871057 C3792.218034214981,25.132213873735363 3786.9684984261426,23.11414398981128 3782.0393287578513,21.058209239227473 C3777.117016912794,19.0060502750761 3772.512418927935,16.914490950992445 3768.7274720889254,15.009935299371598 C3764.950626320189,13.109875196655144 3761.9907794369524,11.395283273128861 3760.5766986925637,10.218438930500295 M3752.1872951282244,4.350403951833641 C3752.602200324955,3.6850733705915073 3753.1765144097444,3.1202076671222523 3753.8486346979835,2.716395580888839 C3754.520020730966,2.311363693795856 3755.287972016141,2.0681320169337725 3756.0701151317558,2.012791416041333 M3756.0701151317558,2.0127914160413334 C3756.8978713927736,1.9525750248620939 3757.739795833377,2.1035029281959483 3758.495089933812,2.4475045529223394 C3759.251120763029,2.7898839919210547 3759.918770900918,3.324542112679914 3760.418105951321,3.9874681029256744 C3760.9188629971623,4.649320594497767 3761.250146500524,5.43790668965457 3761.3722943705952,6.258812273845962 C3761.496204292923,7.079453634552743 3761.4106933622706,7.930513806460767 3761.1259987129365,8.710100989628131 M3995.6579753041947,95.94558031113212 C3818.7895126352428,407.8083206869465 3641.9210499662963,587.6487112529825 3465.0525872973435,593.7696946499946 M3216.2172613987445,483.4633523224381 L3216.178828573113,483.42728117229495 M3761.1259987129365,8.710100989628131 C3608.83752502447,427.1192436918949 3456.549051336005,649.1638424860298 3304.2605776475416,744.6855299218369" />
    <path class="edge outline visible" d="M3151.3704306203576,318.7707215586249 C3148.8990702617525,317.21212887753626 3146.1432958661826,316.0054429773566 3143.2693135046457,315.23070262727805 C3140.3944692691425,314.4536753243297 3137.400751183948,314.10689397341474 3134.430438369179,314.2066470141138 C3131.45949492358,314.30479787206355 3128.5116359947456,314.84826103384546 3125.711688559797,315.808748172817 C3122.9111799574507,316.76809406621453 3120.258607225387,318.1437193593056 3117.863290173719,319.8756652001224 C3115.467319638367,321.60670689959386 3113.3289742898555,323.69380207957977 3111.5394819153025,326.05196028118667 C3109.749081961066,328.4092276127302 3108.308249617292,331.037768408969 3107.2830059601583,333.8279321999859 C3106.2564388476453,336.61699455927663 3105.646520188319,339.56836786670436 3105.482419827613,342.54184591474166 C3105.3164183560843,345.51378813644016 3105.5976400797713,348.5090005623933 3106.302229261469,351.3445581983666 C3106.7953429609756,353.3531368580784 3107.4970882975445,355.3105086554207 3108.3924219390155,357.1748054329487 C3108.46231157292,357.32257231606064 3108.5420598387927,357.48302970484957 3108.6038479606923,357.60632892886326 C3108.666656300084,357.7312128326933 3108.713577880726,357.82381118906466 3108.744612702606,357.88412399797716 C3108.8069482577243,358.0056502597408 3108.8112714877834,358.01305639195476 3108.8141920903545,358.0188111156477 C3108.81505330919,358.0205470075784 3108.816807128533,358.0240242684002 3108.8194535483744,358.0292428981113 C3108.8227447171616,358.03555775542924 3108.8220234953333,358.033917563369 3108.8172898828807,358.02432232192905 C3108.812831440342,358.01533192745507 3108.804834673751,357.9996672128088 3108.8144304500074,358.0187831526498 C3108.8227779232234,358.0354342573078 3108.85481923942,358.09873085663764 3108.895671326763,358.1789161400309 C3108.9353294565262,358.25679381870526 3108.976436217988,358.3370252254651 3108.954323655393,358.29333086434514 C3108.9442747027397,358.2734673400677 3108.917731517712,358.2213130526757 3108.8858308127847,358.1587674949058 C3108.855643525081,358.0995660098627 3108.8171819866984,358.0242952842385 3108.828678138599,358.0467795987341 M3111.1408254133835,361.7883730359417 C3110.986907583942,361.575096194116 3110.761926824732,361.25936816327044 3110.4939307687296,360.85931350858993 C3110.227580817601,360.46225195751464 3109.9251152074185,359.98340034949183 3109.6628788671833,359.54203687340805 C3109.399277488008,359.0996100488925 3109.1814926619754,358.70810419039634 3109.044494915752,358.45448302220893 C3108.9051015480054,358.1962527608059 3108.8452210791297,358.07708584048424 3108.828344157331,358.0446665547835 C3108.811004899435,358.0106518563936 3108.8298872108503,358.0496518468743 3108.833995197356,358.0589736506364 C3108.8402856313405,358.0727157543766 3108.8277684100135,358.04597075319714 3108.81198688836,358.0108310830173 C3108.796256049335,357.97596595322506 3108.791135448019,357.9631499251412 3108.830100632388,358.0521053226984 C3108.8477680219103,358.0924656909661 3108.8756718226355,358.1568665729822 3108.890418549345,358.1914875444565 C3108.903317158641,358.2216755072558 3108.9056611125666,358.22853054656787 3108.822946281391,358.035762992616 M3108.822946281391,358.035762992616 C3108.8357895532226,358.0600282015588 3109.7775569933174,359.87378458307876 3111.291101542096,362.8686507154719 C3112.8077425262945,365.86858681481067 3114.896149933189,370.04962845040603 3117.2858705315607,374.9453507652738 C3120.355317845968,381.23146709858173 3123.9108492882715,388.67721559824565 3127.5601694010747,396.5852860735335 C3131.2155012335793,404.50305293479397 3134.9646619181167,412.88319290021803 3138.583695349795,421.2999200131523 C3141.4536888993944,427.9724275388262 3144.245073607233,434.672800205715 3146.9074402728497,441.2888298141972 C3149.571382811508,447.90752479350385 3152.1062272211584,454.44170677070167 3154.505676184386,460.8537526033261 C3157.7912567596786,469.6313771935753 3160.817513748629,478.16925902964556 3163.6688685510744,486.5465587561231 C3166.5226729800843,494.927680045522 3169.2016787039897,503.1484775451816 3171.85889803535,511.3951229623168 C3175.539569742072,522.8145041886017 3179.1823793571953,534.2939235340001 3183.2387810436144,546.3008246681188 C3186.166011818638,554.9663257737391 3189.309290066783,563.9017752617059 3192.805309456634,573.2223080842737 C3196.29916180699,582.5398446539131 3200.145779719655,592.2424774825122 3204.4211676223945,602.3613943571459 C3208.7043793440225,612.500444322719 3213.4187586462017,623.0593879973912 3218.5535175952964,633.9160681355999 C3223.6842490142762,644.7642804517861 3229.2353914656055,655.9103562101377 3235.083407269254,666.9950703755693 C3238.472136742045,673.4178557281539 3241.9575420233837,679.8126565400031 3245.495260823444,686.0633128774131 C3249.032476898109,692.3126468762794 3252.621973084833,698.4177466915401 3256.205330676167,704.2254803308784 C3258.6179874297763,708.1412193403794 3261.0376843339855,711.9212400063324 3263.426643789014,715.5097049172896 C3265.8170053009762,719.098227159426 3268.1837555844986,722.4950955189963 3270.5191534777427,725.6446220051771 C3272.8562423300173,728.794824822952 3275.1536199222987,731.6951428264551 3277.441670789467,734.3073694571676 C3278.5871708648233,735.6139352479258 3279.7319132664056,736.8490767710491 3280.8986483699537,738.0133769155456 C3282.0663315793963,739.1779060887976 3283.2550204125005,740.2713998158931 3284.5138681295875,741.3008310433249 C3285.1511739899574,741.8331023297718 3285.816089505146,742.3310998282216 3286.517824345443,742.8167414872313 C3287.220445709372,743.3014011586741 3287.9598863983992,743.7737049906758 3288.770178744501,744.228075279942 C3289.5813576142327,744.6814635816412 3290.4633881410314,745.1169183406055 3291.4751253185473,745.5013662016875 C3292.487749019691,745.8848320752043 3293.630079371553,746.2172910508388 3294.985794029457,746.4381741215972 C3296.2853477762633,746.6358232057678 3297.7988831087778,746.7130573306675 3299.5226917712985,746.4503490454549 M3751.0434785108723,4.749752696484052 C3739.70696127082,23.05102690667904 3728.487216418203,41.243303506825015 3717.3543648411423,59.33508098528881 C3706.224216729513,77.42250469719559 3695.1790290795607,95.41236310962388 3684.264619811502,113.1912492473441 C3673.3538200153816,130.96440638934925 3662.571865787278,148.5295250788504 3652.0656402616582,165.61278646059833 C3641.563930214489,182.68894361747374 3631.3360160559187,199.28617728879954 3621.655214316859,214.93175032288664 M3167.3337359349975,497.49075253901947 C2895.663107692544,575.4481063062824 2647.3313153567756,646.707459538935 2420.0057082312524,711.9383446955243 C2192.686156745253,777.1674914868822 1986.3734992581276,836.3679667051983 1798.9046266760754,890.160633264106 C1611.4414838335522,943.9516550251634 1442.822807640894,992.3346723952685 1291.0459058060956,1035.8844985152762 C1139.2744203315913,1079.4327698095808 1004.3453645814471,1118.147661696548 884.4076888405449,1152.5604566512798 C764.4751282913148,1186.9717832462793 659.5345773970872,1217.0808321372797 567.8781966876032,1243.3777760690718 C476.22664190546493,1269.673334688905 397.8598618826505,1292.1566147767041 331.2051283769543,1311.2790045741738 C264.55494313595733,1330.4000887761542 209.6173845570159,1346.1601161296792 164.947061451479,1358.9739223255349 C120.28102025082546,1371.786499396897 85.8827708724206,1381.652695585226 60.42680148118003,1388.9529351105668 C34.974858642740394,1396.2520188216722 18.46572896976009,1400.984992797547 9.68663049246241,1403.4999223685252 C0.9113139322612451,1406.013766358466 -0.1334608069652683,1406.3094193470477 5.445404735966122,1404.7045541995112 C11.027817989074016,1403.0986707096647 23.23436020617725,1399.5921287879696 41.05745284623348,1394.4740914153344 C58.88386913448214,1389.3551000261525 82.3273031856045,1382.6244790182836 110.47322607654407,1374.5446825075671 C138.62225841852418,1366.4639934735494 171.47422619186926,1357.0340007264751 208.20165292233236,1346.4921712271503 C244.93198449517558,1335.9495079446067 285.53820145385606,1324.2948854889848 329.2741510766711,1311.7424282889224 C373.01281024909355,1299.1891933708425 419.88160892908104,1285.738006911021 469.2102502913655,1271.581220533521 C518.5414149575294,1257.4237099055317 570.3328101336681,1242.5604880225362 623.9847803472901,1227.1636306981136 C677.6390964010083,1211.7661000691833 733.1543568656776,1195.834827960215 789.9965789676496,1179.5230407664717 C846.8409779665362,1163.210628767709 905.0126900755254,1146.517600785316 964.0386751379334,1129.5796916879317 C1023.0666764170767,1112.6412039124928 1082.949284767305,1095.4577391062992 1143.2699039263796,1078.1488320738285 C1203.5923866311723,1060.8393901906468 1264.353197444878,1043.4044149941517 1325.1879095288775,1025.9484682990264 C1386.024340246643,1008.492028352729 1446.9349732467008,991.0145304974264 1507.6034938922492,973.6067282552101 C1568.2735957723291,956.1984722042971 1628.7018705433752,938.8598298829919 1688.616268899969,921.66885082163 C1748.5321183619897,904.477455306651 1807.9343614020386,887.433645547565 1866.5915707344254,870.6038129380554 C1925.2501080744069,853.7735992112013 1983.1638669517563,837.1572893641239 2040.1385956599133,820.8106059837012 C2097.1145360740356,804.4635748709076 2153.151687314065,788.3861010463411 2208.089717100592,772.6241729849521 C2263.028848856282,756.8619286913009 2316.8690863931506,741.4151649331999 2369.480944517747,726.3210179937369 C2422.093801211964,711.226584502615 2473.4784924497408,696.4847064150258 2523.533485220736,682.1244987974516 C2573.5893792752317,667.7640325535938 2622.31577601344,653.7851790411875 2669.6363708760823,640.2098139403616 C2764.284303014582,613.0571490968376 2853.284826974092,587.5253818200148 2936.2913372236476,563.713813724754 C3019.3081764070944,539.8992820410414 3096.3362994535496,517.8034289877654 3167.317883702479,497.44269837582357 M3203.424094178674,487.08586450891016 C3262.522027220436,470.1341053502718 3317.1918782798807,454.4530165862126 3367.550644208405,440.0089416598364 C3417.9126188486116,425.5639463155931 3463.9653417344243,412.35543862227314 3505.915509928782,400.32403158229704 M3868.9440743486084,296.2305013782094 C3878.606383709929,293.4619837235675 3885.131001240735,291.5933684440512 3889.075907467042,290.464529482847 C3893.0198408177544,289.335970285931 3894.385103352536,288.94688896421417 3893.702257752303,289.14504376132476 C3893.0180174929405,289.34359928935186 3890.286429638143,290.1291728477673 3885.998850164858,291.36078799327163 C3881.709577378203,292.5928894949627 3875.8648280355983,294.270884951781 3868.9084090662855,296.26745500554625 M3508.0953844770515,396.879500375467 C3491.728654614977,399.77514929960313 3475.2123380239536,401.82839661901517 3458.6314417585363,402.98428051252995 C3442.0511572750593,404.14139576581465 3425.406296519473,404.4010616832781 3408.7989995412345,403.74271622390086 C3389.8851553349505,402.9948279004799 3371.018762660682,401.0568777293948 3352.3437105619037,397.97164308472674 C3333.667599206638,394.8886890419554 3315.1828931993064,390.65846301708785 3297.003954607231,385.3867823217818 C3271.2826955358455,377.9304950022545 3246.183400322696,368.3852213223771 3221.8796048232302,357.15027615604095 C3197.5707218536677,345.9151567053543 3174.0572630047886,332.9906265029575 3151.370430620359,318.770721558625 M3995.662128783247,95.94780500959467 C3996.265349697856,94.88526044465738 3996.6709898587087,93.71114098857598 3996.852317280445,92.50283785754647 C3997.0790573181516,91.00468624070868 3996.9581987822394,89.45545421982176 3996.501870592607,88.01058963335876 C3995.874568888931,86.00368760279599 3994.5927748117074,84.20940335929056 3992.8977188502263,82.9653435835797 C3992.6517903089507,82.78408638571186 3992.4030711479877,82.61772596798774 3992.1426887520843,82.46000674919142 C3992.013619468797,82.38174407920923 3991.8817223495994,82.30593738343586 3991.746997394493,82.23258666187127 C3991.613247305496,82.15972341696252 3991.4711292416773,82.08670212015923 3991.3520371116333,82.02870293438156 C3991.2545400971394,81.98143364544144 3991.2840216970703,81.99574632716619 3991.288321984046,81.99784990103822 C3991.2986692710288,82.00288552987678 3991.2972152072543,82.00220334493459 3991.2839597927095,81.99580334621149 C3991.2684409130948,81.98830589517499 3991.2532081326026,81.98095564545375 3991.2382614512276,81.97375259704762 C3991.2259816126616,81.96784314854476 3991.220225030595,81.96510654481659 3991.220991705022,81.96554278586314 C3991.2225655542616,81.9664350943602 3991.2255419898493,81.96804276971957 3991.1386324943624,81.92609313280437 C3991.060406819446,81.8883555177061 3990.8874080552932,81.80469090744131 3990.8318791011375,81.7780519128014 C3990.805099016713,81.76520984261786 3990.8139537937686,81.76966402388857 3990.8758018485364,81.7998343781781 C3990.935844338915,81.82912896336276 3991.051473943431,81.885397804647 3991.1888298838007,81.95221751056233 C3991.3237001300026,82.01783157188669 3991.480496928349,82.09409358064445 3991.553494024764,82.12972298670427 C3991.6251731424604,82.16471314301344 3991.6077269233097,82.15648755625523 3991.35413191757,82.03373555291489 C3991.1039094010143,81.91261934245043 3990.602672571991,81.66976643093486 3989.7907810290144,81.27625050649928 C3989.3873005683763,81.0806883086771 3988.909324145261,80.84899681967774 3988.3789146222957,80.59187747567316 C3987.849815039955,80.33539349676987 3987.2670810389527,80.05289898574341 3986.6892663520507,79.77279467451929 C3986.1134038706537,79.49363724670242 3985.5409196764936,79.21612257342834 3985.0848118330528,78.99505866559066 C3984.6314698596225,78.7753362931782 3984.2925714749163,78.61112723830755 3984.258309672593,78.59468152309242 C3984.227823999467,78.58006734926782 3984.499594939968,78.71206215938383 3985.36926361679,79.13406163470344 C3986.2439420863075,79.55849101470538 3987.713632200405,80.27152522049325 3990.213929679231,81.48444225063469 C3988.969414766871,80.89161505013932 3986.7338106047464,79.83247646437397 3983.8413765595947,78.48265232879245 C3980.946483338649,77.13153033877637 3977.3947917905175,75.48973803586601 3973.451752637504,73.69658464255961 C3969.0369557190056,71.68867804717362 3964.1340524677967,69.49224898763777 3959.022055293075,67.25347345948836 C3953.9069972052907,65.01307810116637 3948.5829984786737,62.73040613428372 3943.2436970248677,60.506431811994744 C3935.374413681131,57.2277772405657 3927.490923116047,54.08644219663127 3919.937314495161,51.25777831472617 C3912.3747122730274,48.42413375590111 3905.1419124072445,45.903173389928206 3898.33162704671,43.731070216126476 C3890.3053746319806,41.16866970023075 3882.8707486184367,39.095308203667614 3875.89918784365,37.39567681013285 C3868.9223883646882,35.691992506803274 3862.4083222343593,34.36175935970362 3856.0815588645532,33.17606046766806 C3849.1119051947685,31.869140688824977 3842.3625972067807,30.731376191443587 3835.420465075952,29.43452245486655 C3831.991116623138,28.794365787709594 3828.5159212311764,28.116426878235178 3824.962792200382,27.36980350117964 C3821.410664015514,26.623586007073186 3817.780581713909,25.808679543340414 3814.0684561187754,24.905538892957168 C3810.7682447644625,24.102789470455352 3807.4038343090624,23.230520519312616 3803.9977757483275,22.28556410385299 C3800.5927358026534,21.341043560313633 3797.1461818492794,20.323947899181547 3793.709333771233,19.24347087753103 C3790.6117857839467,18.269888765807654 3787.5239270283,17.246147534564614 3784.505654533382,16.18870077045105 C3781.4884686508376,15.131818633524418 3778.541436309987,14.04183257908655 3775.7537169848047,12.950061371645575 C3772.967276606557,11.858945062797632 3770.338761117682,10.76505662431396 3767.991974566363,9.717104576851245 C3765.6475769337394,8.670643322185263 3763.5815603547007,7.6675388312727755 3761.9834507180635,6.797292605973616 C3761.7808989605683,6.687625651097157 3761.5863613670354,6.580009649928136 3761.399837937461,6.474444602466518 M3991.0772321422382,81.89964725552944 C3991.330113016141,82.01555757519931 3991.2817282914693,81.99572113747634 3991.2864030009578,81.99688024162032 C3991.2831156017537,81.99493074170093 3991.3128415216106,82.01035234855073 3991.3035173917165,82.0057032431815 C3991.295835856864,82.00219675012751 3991.2499629783497,81.97526331482814 3991.260264092323,81.97814062240144 C3991.263911513618,81.97901564777817 3991.279573582186,81.98752087426708 3991.289084168863,81.99518258240873 C3991.300642260003,82.00322347699064 3991.2934665310217,82.00606722227762 3991.295368814111,82.00124785491141 M3991.295368814111,82.00124785491141 L3991.294983948483,82.00106279899785 L3991.293852481866,82.00051865360263 M3751.0424767320233,4.751369934948674 C3751.2811368205876,4.358028207016034 3751.559309620736,4.019931733210689 3751.840227274563,3.741975864208707 C3752.121831113206,3.463265310308735 3752.4063076061243,3.2425571559344477 3752.6763736552857,3.0643157580054927 C3753.2189147695426,2.709066409011418 3753.6990701705295,2.513514183017697 3754.121912155191,2.3737145269562347 C3754.877756670674,2.1326065330525528 3755.4800093974022,2.0592710846932984 3756.0701151317558,2.0127914160413525 M3216.179156545987,483.42718709637234 L3216.217588042121,483.4632585902442 M3995.662128783247,95.94780500959467 C3978.9087125665683,125.52038288664106 3961.6356515301973,154.77030509872122 3943.7481515560185,183.65022961948972 C3925.8583636911067,212.52631352415804 3907.3541368883957,241.03239973751462 3888.0766160893204,269.01360898240534 C3868.7968073995144,296.9909776111954 3848.7437047133617,324.44346927152003 3827.6943920318554,351.10866743541396 C3806.6427914596234,377.77002498320786 3784.59498089205,403.64408903457127 3761.263983389707,428.3609058107309 C3749.773248103753,440.5150377638867 3737.972810897757,452.36435180608856 3725.808974952483,463.8356399543087 C3713.6453743435814,475.30534625861577 3701.1183749954075,486.3970266689409 3688.1808695072004,496.99318157269767 C3675.2435993553618,507.5877546325412 3661.8958230635008,517.6868021858169 3648.097022649312,527.1285329903795 C3634.2984575715054,536.5686819510298 3620.048868371369,545.3515141629663 3605.314326485111,553.2709467544885 C3590.707441868266,561.1195147810715 3575.631711232302,568.1137412349384 3560.1225210268813,573.9904736372689 C3544.6168749529106,579.867209380017 3528.677738987812,584.6263053492787 3512.4397018495633,588.0045420228907 C3496.8435445762543,591.252689251405 3480.9753832682673,593.2223246302294 3465.051952933164,593.7704995619414" />
  </g>
</svg>
