<?xml version='1.0' ?>
<svg xmlns="http://www.w3.org/2000/svg" xmlns:xlink="http://www.w3.org/1999/xlink" version="1.1" width="646.1334840926486" height="548.5148491420629">
  <style type="text/css">.edge {
  fill: None;
}
.edge.visible {
  stroke: #000000;
}
.edge.hidden {
  stroke: #C8C8FF;
}
</style>
  <g>
    <path class="edge sharp hidden" d="M290.5800934207714,138.2665585781997 C278.2004844563664,150.17283562412592 266.5554481452603,164.18607303440535 256.3464086147895,179.462200999079 C246.13122553925726,194.73295613597227 237.35784919207987,211.25790813028476 230.5547349879188,228.04169676890263 C223.74320089857275,244.82440076514717 218.90580610539803,261.8563849186538 216.33392401790383,278.11174987113304 C213.7523667044133,294.3704501896582 213.43778800766293,309.84327590083586 215.40913574056768,323.59824173457093 M219.8694142436156,342.39070319900543 C222.600606674044,350.2784679104158 226.28683036419787,357.246676342953 230.8297805574588,363.10949962292506 C235.37110478182163,368.97442200645503 240.76865664966354,373.7333155559617 246.87849258572706,377.25927033785354 M290.5800934207714,138.2665585781997 Q184.51407624278926,77.02931500862023 78.44805906480715,15.792071439040782 M299.22562454760765,379.9774615257269 C309.01403434114894,380.82999600401234 329.88481315062006,387.7637549079078 374.38534156139923,413.4561469649518 M374.38534156139923,413.45614696495176 C416.2879656317128,437.64863825169914 479.1419017371842,478.47346729808567 573.4228058953904,546.5148490420628 M623.42280700535,378.26265097015227 C620.1505166289944,376.37288447940034 616.5557933902562,375.0418018547443 612.7075548156749,374.2949221641298 C608.8596624162695,373.54724438053313 604.7584722240882,373.3838117207906 600.4826116674358,373.8077574413098 C596.2069895626869,374.23090078774106 591.7569388139705,375.2413985851522 587.2177752215539,376.8198783295601 C582.6787331824107,378.3975821318274 578.050834963669,380.5431791452939 573.4228058953904,383.21553285651765 M573.4228058953904,383.2155328565176 Q467.35678871740834,321.9782892869381 361.2907715394262,260.7410457173587 M573.4228058953904,383.2155328565176 C531.0356178013205,346.5071511720639 495.0006305428433,314.38307556558 464.36589478644134,286.43109988409464 M296.02138941133137,125.39231403502441 C290.5800934207712,122.25078033013413 290.5800934207715,127.32757860408188 290.5800934207715,138.26655857819975" />
    <path class="edge outline hidden" d="M374.3853415613993,413.4561469649518 L162.2533072054349,290.9816598257928" />
    <path class="edge sharp visible" d="M215.4091357405677,323.59824173457093 C216.36629874301195,330.29729429277415 217.86026332249276,336.59180573948817 219.8694142436156,342.3907031990053 M246.87849258572703,377.2592703378536 C252.9869766935782,380.78756585458757 259.80707381540094,383.0825357093147 267.15690658949376,384.0829763930795 C274.50573419149066,385.0858749148268 282.3834925835852,384.7941329308912 290.58009342077145,383.2155328565176 M290.58009342077145,383.2155328565176 Q184.5140762427893,321.9782892869381 78.44805906480718,260.74104571735865 M78.44805906480715,15.792071439040782 C69.45642295201016,24.442594425971965 60.84905950963359,34.19966996862378 52.90177001105971,44.750659225069576 C44.95297418452894,55.29984091042134 37.66551272859596,66.64126105133501 31.272889587670228,78.41151781095593 C24.87822569790029,90.18079916349934 19.379416658094275,102.37704656747931 14.952657234204093,114.60946609311219 C10.523453332088538,126.84180541037784 7.167002803544502,139.10837291096783 4.990852837362598,151.01612242762445 C2.812012100061203,162.92469199691422 1.8138176790207727,174.47255140382958 2.028253097413696,185.28968366392968 C2.2399245431016026,196.1084834686875 3.6641920109155346,206.1948370438752 6.25541991520269,215.2255561362079 C8.843988301170064,224.25868308179403 12.599105826654437,232.23474010999635 17.400450809761615,238.89815760905913 C22.199411859407757,245.56456836457767 28.04383734063551,250.91728058582606 34.74645822976283,254.78478319869464 M34.74645822976283,254.78478319869464 C40.85494233761405,258.3130787154286 47.67503945943672,260.6080485701558 55.02487223352941,261.6084892539205 C62.37369983552649,262.6113877756678 70.25145822762062,262.31964579173217 78.44805906480718,260.7410457173586 M290.58009342077145,383.2155328565176 C290.58009342077116,383.21553285651754 290.5800934207716,379.2244675742905 299.22562454760765,379.9774615257269 M573.4228058953904,546.5148490420628 Q467.35678871740834,485.2776054724835 361.2907715394262,424.0403619029039 M78.44805906480718,260.74104571735865 C78.44805906480718,260.74104571735865 78.44805906480713,242.59667725229806 162.2533072054349,290.98165982579286 M162.2533072054349,290.98165982579286 C204.15593127574869,315.17415111254 267.0098673812198,355.9989801589266 361.29077153942615,424.0403619029039 M573.4228058953904,546.5148490420628 C580.3650065382959,542.5085802053893 587.3062157242132,537.3121561986829 593.9490320811386,531.148220296193 C600.5927595317852,524.9872267204997 606.9361964508706,517.8604831793331 612.7075534834165,510.0733408031826 C618.4806542654281,502.2882050556706 623.6800264069881,493.8448940855804 628.0828988508151,485.10516727200763 C632.488197514067,476.3663388967906 636.0957384739445,467.333591048966 638.7509538541613,458.39393924010164 C641.4090689847256,449.45400017457246 643.1140996878239,440.60971084113663 643.7929926577601,432.24001157437937 C644.475009177901,423.8688641450916 644.1306936063611,415.97469760377385 642.7747983941263,408.895743075108 C641.4219815382061,401.81430423191745 639.0579718896714,395.5500997563709 635.7840572235214,390.37152463239767 C632.5129106146336,385.18964291932525 628.3327937619748,381.0948704120551 623.42280700535,378.2626509701522 M361.2907715394262,424.0403619029039 C368.2329721823304,420.0340930662292 375.17418136824824,414.8376690595243 381.8169977251745,408.67373315703395 C388.46072517582155,402.5127395813416 394.8041620949067,395.3859960401743 400.5755191274525,387.5988536640236 C406.3486199094641,379.8137179165119 411.54799205102364,371.3704069464213 415.95086449485103,362.6306801328486 C420.3561631581024,353.891851757632 423.96370411798017,344.8591039098069 426.618919498197,335.91945210094275 C429.2770346287621,326.9795130354137 430.98206533185885,318.13522370197734 431.6609583017963,309.76552443522075 C432.3429748219364,301.39437700593254 431.9986592503973,293.5002104646149 430.64276403816217,286.42125593594915 C429.28994718224186,279.3398170927588 426.9259375337072,273.07561261721173 423.6520228675574,267.89703749323894 C420.3808762586693,262.7151557801663 416.2007594060108,258.62038327289645 411.2907726493859,255.78816383099345 M411.2907726493859,255.78816383099345 C408.01848227302975,253.89839734024127 404.423759034292,252.5673147155855 400.57552045971084,251.820435024971 C396.7276280603054,251.07275724137423 392.62643786812396,250.9093245816319 388.3505773114716,251.333270302151 C384.07495520672325,251.75641364858234 379.62490445800574,252.76691144599334 375.08574086558974,254.345391190401 C370.5466988264458,255.92309499266838 365.91880060770444,258.0686920061347 361.2907715394262,260.7410457173587 M464.3658947864414,286.43109988409464 C345.354411258967,177.84174824647482 307.8440233337033,132.2181149126363 296.0213894113313,125.39231403502438 M361.2907715394262,260.7410457173587 C154.23553545740947,81.42595128374771 98.7552521605979,11.500656591315707 83.88935505536712,2.9178268958654883 M83.88935505536713,2.9178268958655025 C78.44805906480713,-0.22370680902470244 78.4480590648072,4.853091464922962 78.44805906480718,15.792071439040797" />
    <path class="edge outline visible" d="M246.8784925857271,377.2592703378536 L34.74645822976284,254.7847831986947 M623.42280700535,378.2626509701523 L411.2907726493859,255.7881638309935 M296.02138941133137,125.39231403502451 L83.8893550553671,2.917826895865595" />
  </g>
</svg>
