# Exported by Open CASCADE Technology [dev.opencascade.org]
#  Vertices: 138
#     Faces: 184
g SOLID
v 571.692200 -18.743486 541.978027
v 568.750183 -20.038364 541.978027
v 567.204346 -22.856663 541.978027
v 567.693665 -26.033598 541.978027
v 570.015869 -28.256165 541.978027
v 550.732849 -32.758080 876.322510
v 553.247375 -18.489063 876.322510
v 548.701782 -20.555830 876.322510
v 546.461182 -25.018307 876.322510
v 547.335449 -29.584452 876.322510
v 565.689209 -21.657951 625.498779
v 563.315002 -23.320711 625.498779
v 562.090332 -25.947790 625.498779
v 562.343201 -28.835262 625.498779
v 560.905762 -23.059919 709.066650
v 558.277283 -24.900814 709.066650
v 556.921387 -27.809336 709.066650
v 557.201355 -31.006145 709.066650
v 556.086243 -22.528959 792.685669
v 553.203247 -24.548086 792.685669
v 551.716003 -27.738203 792.685669
v 552.023132 -31.244522 792.685669
v 554.042236 -34.127525 792.685669
vn -0.087209 0.995673 0.032095
vn -0.675621 0.737165 -0.011103
vn -0.983467 0.173312 -0.052501
vn -0.884471 -0.460537 -0.074945
vn -0.421511 -0.904167 -0.069354
vn -0.422434 -0.906145 0.021234
vn -0.087025 0.993575 -0.072362
vn -0.690653 0.717832 -0.087841
vn -0.989725 0.125322 -0.068846
vn -0.875185 -0.483020 -0.027256
vn -0.342110 0.939651 0.004123
vn -0.765799 0.642453 -0.028411
vn -0.983322 0.173286 -0.055217
vn -0.937410 -0.341294 -0.069148
vn -0.342084 0.939579 -0.013058
vn -0.765480 0.642185 -0.040476
vn -0.983115 0.173250 -0.058899
vn -0.937765 -0.341423 -0.063452
vn -0.341834 0.938893 -0.040359
vn -0.764768 0.641588 -0.059126
vn -0.982802 0.173194 -0.064068
vn -0.938293 -0.341616 -0.053893
vn -0.642398 -0.765733 -0.031270
vt 0.000000 0.000000
vt 0.250000 0.000000
vt 0.500000 0.000000
vt 0.750000 0.000000
vt 1.000000 0.000000
vt 1.000000 1.000000
vt 0.000000 1.000000
vt 0.259259 1.000000
vt 0.518519 1.000000
vt 0.759259 1.000000
vt 0.100000 0.250000
vt 0.300000 0.250000
vt 0.500000 0.250000
vt 0.700000 0.250000
vt 0.100000 0.500000
vt 0.300000 0.500000
vt 0.500000 0.500000
vt 0.700000 0.500000
vt 0.100000 0.750000
vt 0.300000 0.750000
vt 0.500000 0.750000
vt 0.700000 0.750000
vt 0.900000 0.750000
f 11/11/11 1/1/1 2/2/2
f 12/12/12 2/2/2 3/3/3
f 12/12/12 11/11/11 2/2/2
f 13/13/13 12/12/12 3/3/3
f 14/14/14 3/3/3 4/4/4
f 14/14/14 4/4/4 5/5/5
f 14/14/14 13/13/13 3/3/3
f 15/15/15 7/7/7 1/1/1
f 15/15/15 1/1/1 11/11/11
f 16/16/16 11/11/11 12/12/12
f 16/16/16 15/15/15 11/11/11
f 17/17/17 12/12/12 13/13/13
f 17/17/17 16/16/16 12/12/12
f 18/18/18 14/14/14 5/5/5
f 18/18/18 13/13/13 14/14/14
f 18/18/18 17/17/17 13/13/13
f 19/19/19 8/8/8 7/7/7
f 19/19/19 7/7/7 15/15/15
f 20/20/20 9/9/9 8/8/8
f 20/20/20 8/8/8 19/19/19
f 20/20/20 15/15/15 16/16/16
f 20/20/20 19/19/19 15/15/15
f 21/21/21 16/16/16 17/17/17
f 21/21/21 20/20/20 16/16/16
f 21/21/21 9/9/9 20/20/20
f 22/22/22 10/10/10 9/9/9
f 22/22/22 9/9/9 21/21/21
f 22/22/22 17/17/17 18/18/18
f 22/22/22 21/21/21 17/17/17
f 23/23/23 5/5/5 6/6/6
f 23/23/23 6/6/6 10/10/10
f 23/23/23 18/18/18 5/5/5
f 23/23/23 10/10/10 22/22/22
f 23/23/23 22/22/22 18/18/18
v 570.015869 -28.256165 541.978027
v 575.646545 -30.058048 541.978027
v 581.119507 -30.273930 541.978027
v 586.729919 -28.988844 541.978027
v 593.286804 -25.642057 541.978027
v 603.740540 -16.444874 541.978027
v 624.416016 14.207836 541.978027
v 645.091431 58.652725 541.978027
v 662.329529 87.223419 876.322510
v 550.732849 -32.758080 876.322510
v 565.798401 -37.944939 876.322510
v 576.781189 -38.969765 876.322510
v 585.933472 -37.663834 876.322510
v 594.407837 -34.450600 876.322510
v 602.882263 -29.088257 876.322510
v 611.356628 -21.360426 876.322510
v 622.655762 -7.003017 876.322510
v 642.492676 30.858633 876.322510
v 573.657898 -34.399235 625.498779
v 590.495789 -30.343935 625.498779
v 607.333740 -15.041663 625.498779
v 569.738037 -37.365406 709.066650
v 624.171692 10.821011 625.498779
v 588.399536 -34.049694 709.066650
v 607.061096 -18.445044 709.066650
v 565.782471 -38.531654 792.685669
v 625.722656 9.733876 709.066650
v 586.268555 -36.819485 792.685669
v 606.754639 -22.144300 792.685669
v 627.240723 7.268321 792.685669
v 647.726807 53.192802 792.685669
vn -0.421511 -0.904167 -0.069354
vn -0.172838 -0.983072 -0.060795
vn 0.094508 -0.994234 -0.050658
vn 0.339351 -0.939796 -0.040309
vn 0.548881 -0.835338 -0.030679
vn 0.738454 -0.673957 -0.021617
vn 0.878841 -0.476913 -0.013878
vn 0.924740 -0.380574 -0.004386
vn 0.957489 -0.285440 -0.041712
vn -0.422434 -0.906145 0.021234
vn -0.204460 -0.978579 0.024077
vn 0.029444 -0.999473 0.013636
vn 0.252432 -0.967614 -0.001183
vn 0.448379 -0.893692 -0.016443
vn 0.608866 -0.792708 -0.029940
vn 0.726807 -0.685678 -0.039961
vn 0.829199 -0.556919 -0.047656
vn 0.919136 -0.390837 -0.049346
vn -0.106001 -0.993206 -0.048010
vn 0.502549 -0.864057 -0.029162
vn 0.775524 -0.630927 -0.022213
vn -0.144860 -0.988907 -0.032843
vn 0.878017 -0.478229 -0.019584
vn 0.450214 -0.892597 -0.024020
vn 0.760087 -0.649343 -0.024928
vn -0.199815 -0.979790 -0.009214
vn 0.879629 -0.474962 -0.025757
vn 0.359682 -0.932961 -0.014554
vn 0.727610 -0.685386 -0.028795
vn 0.876362 -0.480382 -0.034963
vn 0.936142 -0.350141 -0.032229
vt 1.000000 0.000000
vt 1.075000 0.000000
vt 1.147900 0.000000
vt 1.222630 0.000000
vt 1.309967 0.000000
vt 1.449210 0.000000
vt 1.724605 0.000000
vt 2.000000 0.000000
vt 2.000000 1.000000
vt 1.000000 1.000000
vt 1.135000 1.000000
vt 1.233415 1.000000
vt 1.315428 1.000000
vt 1.391365 1.000000
vt 1.467302 1.000000
vt 1.543240 1.000000
vt 1.644490 1.000000
vt 1.822245 1.000000
vt 1.100000 0.250000
vt 1.300000 0.250000
vt 1.500000 0.250000
vt 1.100000 0.500000
vt 1.700000 0.250000
vt 1.300000 0.500000
vt 1.500000 0.500000
vt 1.100000 0.750000
vt 1.700000 0.500000
vt 1.300000 0.750000
vt 1.500000 0.750000
vt 1.700000 0.750000
vt 1.900000 0.750000
f 42/42/42 24/24/24 25/25/25
f 42/42/42 25/25/25 26/26/26
f 42/42/42 26/26/26 27/27/27
f 43/43/43 27/27/27 28/28/28
f 43/43/43 28/28/28 29/29/29
f 43/43/43 42/42/42 27/27/27
f 44/44/44 29/29/29 30/30/30
f 44/44/44 43/43/43 29/29/29
f 45/45/45 33/33/33 24/24/24
f 45/45/45 24/24/24 42/42/42
f 46/46/46 30/30/30 31/31/31
f 46/46/46 44/44/44 30/30/30
f 47/47/47 43/43/43 44/44/44
f 47/47/47 42/42/42 43/43/43
f 47/47/47 45/45/45 42/42/42
f 48/48/48 44/44/44 46/46/46
f 48/48/48 47/47/47 44/44/44
f 49/49/49 34/34/34 33/33/33
f 49/49/49 35/35/35 34/34/34
f 49/49/49 33/33/33 45/45/45
f 49/49/49 45/45/45 47/47/47
f 50/50/50 46/46/46 31/31/31
f 50/50/50 48/48/48 46/46/46
f 51/51/51 36/36/36 35/35/35
f 51/51/51 37/37/37 36/36/36
f 51/51/51 35/35/35 49/49/49
f 51/51/51 49/49/49 47/47/47
f 52/52/52 38/38/38 37/37/37
f 52/52/52 39/39/39 38/38/38
f 52/52/52 40/40/40 39/39/39
f 52/52/52 47/47/47 48/48/48
f 52/52/52 37/37/37 51/51/51
f 52/52/52 48/48/48 50/50/50
f 52/52/52 51/51/51 47/47/47
f 53/53/53 41/41/41 40/40/40
f 53/53/53 40/40/40 52/52/52
f 53/53/53 52/52/52 50/50/50
f 54/54/54 31/31/31 32/32/32
f 54/54/54 32/32/32 41/41/41
f 54/54/54 41/41/41 53/53/53
f 54/54/54 50/50/50 31/31/31
f 54/54/54 53/53/53 50/50/50
v 645.091431 58.652725 541.978027
v 643.125183 59.627491 541.978027
v 659.528198 88.276375 876.322510
v 662.329529 87.223419 876.322510
v 658.036133 83.314896 792.685669
v 657.515625 84.416733 792.685669
v 649.103638 69.230232 625.498779
v 656.328796 84.693222 792.685669
v 648.099304 69.516983 625.498779
v 647.312866 64.050873 583.734192
v 646.012634 64.928154 583.734192
v 660.122559 86.272629 834.505432
v 658.405212 87.253639 834.505432
v 645.705261 60.419800 552.416565
v 646.015747 62.148304 562.855408
v 644.526306 61.375153 552.416565
v 646.076782 63.686127 573.294556
v 659.690491 87.766342 844.960266
v 660.879150 87.855072 855.414856
v 661.793945 87.616226 865.869019
v 660.104614 88.739937 865.869019
v 645.235962 60.316589 547.197266
v 661.739502 88.456001 871.095825
vn 0.924740 -0.380574 -0.004386
vn -0.862680 0.505513 -0.015492
vn -0.908760 0.416063 0.032342
vn 0.957489 -0.285440 -0.041712
vn 0.998689 -0.008961 -0.050389
vn 0.625890 0.775283 -0.084845
vn 0.661399 0.741437 -0.113235
vn -0.219260 0.974050 -0.056149
vn -0.170532 0.980598 -0.096672
vn 0.971627 0.224186 -0.075374
vn -0.155484 0.982506 -0.102502
vn 0.952933 0.296129 -0.065012
vn -0.229233 0.972537 -0.040305
vn 0.988084 0.138518 -0.067104
vn 0.779719 0.616308 -0.110466
vn -0.068986 0.991457 -0.110696
vn 0.361114 0.924349 -0.123190
vn 0.286802 0.956006 -0.061619
vn 0.725643 0.684677 -0.068262
vn 0.971115 0.230801 -0.060552
vn -0.162718 0.986187 -0.030944
vn 0.806204 0.581585 -0.108596
vn 0.748737 0.659750 -0.064214
vt 2.000000 0.000000
vt 3.000000 0.000000
vt 3.000000 1.000000
vt 2.000000 1.000000
vt 2.100000 0.750000
vt 2.400000 0.750000
vt 2.400000 0.250000
vt 2.700000 0.750000
vt 2.700000 0.250000
vt 2.200000 0.125000
vt 2.700000 0.125000
vt 2.200000 0.875000
vt 2.700000 0.875000
vt 2.175000 0.031250
vt 2.350000 0.062500
vt 2.675000 0.031250
vt 2.525000 0.093750
vt 2.525000 0.906250
vt 2.350000 0.937500
vt 2.175000 0.968750
vt 2.675000 0.968750
vt 2.337500 0.015625
vt 2.337500 0.984375
f 59/59/59 58/58/58 55/55/55
f 60/60/60 59/59/59 61/61/61
f 62/62/62 56/56/56 57/57/57
f 62/62/62 63/63/63 56/56/56
f 62/62/62 61/61/61 63/63/63
f 62/62/62 60/60/60 61/61/61
f 64/64/64 61/61/61 59/59/59
f 64/64/64 59/59/59 55/55/55
f 65/65/65 56/56/56 63/63/63
f 65/65/65 63/63/63 61/61/61
f 65/65/65 61/61/61 64/64/64
f 66/66/66 59/59/59 60/60/60
f 66/66/66 58/58/58 59/59/59
f 67/67/67 62/62/62 57/57/57
f 67/67/67 60/60/60 62/62/62
f 67/67/67 66/66/66 60/60/60
f 68/68/68 64/64/64 55/55/55
f 68/68/68 69/69/69 64/64/64
f 70/70/70 56/56/56 65/65/65
f 70/70/70 69/69/69 68/68/68
f 71/71/71 65/65/65 64/64/64
f 71/71/71 64/64/64 69/69/69
f 71/71/71 70/70/70 65/65/65
f 71/71/71 69/69/69 70/70/70
f 72/72/72 66/66/66 67/67/67
f 72/72/72 73/73/73 66/66/66
f 74/74/74 58/58/58 66/66/66
f 74/74/74 66/66/66 73/73/73
f 75/75/75 67/67/67 57/57/57
f 75/75/75 73/73/73 72/72/72
f 75/75/75 72/72/72 67/67/67
f 75/75/75 74/74/74 73/73/73
f 76/76/76 55/55/55 56/56/56
f 76/76/76 68/68/68 55/55/55
f 76/76/76 56/56/56 70/70/70
f 76/76/76 70/70/70 68/68/68
f 77/77/77 57/57/57 58/58/58
f 77/77/77 75/75/75 57/57/57
f 77/77/77 58/58/58 74/74/74
f 77/77/77 74/74/74 75/75/75
v 643.125183 59.627491 541.978027
v 611.377197 10.910645 541.978027
v 595.503174 -6.528050 541.978027
v 583.597717 -15.035914 541.978027
v 577.644958 -17.539358 541.978027
v 571.692200 -18.743486 541.978027
v 553.247375 -18.489063 876.322510
v 659.528198 88.276375 876.322510
v 624.101257 26.895273 876.322510
v 600.857666 2.145589 876.322510
v 581.487976 -10.581831 876.322510
v 567.367676 -15.959335 876.322510
v 623.210388 28.191872 625.498779
v 639.237244 54.506638 625.498779
v 607.183472 6.238500 625.498779
v 591.156616 -10.100541 625.498779
v 642.443604 60.370682 709.066650
v 624.675171 30.500929 709.066650
v 606.906799 6.438893 709.066650
v 589.138367 -10.962405 709.066650
v 645.619385 64.632706 792.685669
v 626.108215 31.781012 792.685669
v 606.597046 6.640941 792.685669
v 587.085876 -10.737789 792.685669
v 567.574768 -20.305452 792.685669
vn -0.862680 0.505513 -0.015492
vn -0.788805 0.614624 -0.004905
vn -0.666485 0.745519 0.000220
vn -0.464205 0.885665 0.010606
vn -0.299689 0.953830 0.019852
vn -0.087209 0.995673 0.032095
vn -0.087025 0.993575 -0.072362
vn -0.908760 0.416063 0.032342
vn -0.794779 0.606601 0.019006
vn -0.639471 0.768655 -0.015695
vn -0.440118 0.896467 -0.051405
vn -0.264828 0.961754 -0.069969
vn -0.835227 0.549897 -0.002903
vn -0.868468 0.495724 -0.004683
vn -0.770214 0.637773 -0.004004
vn -0.633272 0.773921 -0.003588
vn -0.877356 0.479826 0.003673
vn -0.836347 0.548196 0.002231
vn -0.761471 0.648186 -0.004186
vn -0.612980 0.790020 -0.011087
vn -0.882818 0.469457 0.015594
vn -0.829690 0.558134 0.010068
vn -0.736874 0.676014 -0.004637
vn -0.568304 0.822482 -0.023551
vn -0.277797 0.960071 -0.033065
vt 3.000000 0.000000
vt 3.444444 0.000000
vt 3.666667 0.000000
vt 3.833333 0.000000
vt 3.916667 0.000000
vt 4.000000 0.000000
vt 4.000000 1.000000
vt 3.000000 1.000000
vt 3.333333 1.000000
vt 3.552033 1.000000
vt 3.734283 1.000000
vt 3.867142 1.000000
vt 3.300000 0.250000
vt 3.100000 0.250000
vt 3.500000 0.250000
vt 3.700000 0.250000
vt 3.100000 0.500000
vt 3.300000 0.500000
vt 3.500000 0.500000
vt 3.700000 0.500000
vt 3.100000 0.750000
vt 3.300000 0.750000
vt 3.500000 0.750000
vt 3.700000 0.750000
vt 3.900000 0.750000
f 90/90/90 78/78/78 79/79/79
f 90/90/90 91/91/91 78/78/78
f 92/92/92 79/79/79 80/80/80
f 92/92/92 90/90/90 79/79/79
f 93/93/93 80/80/80 81/81/81
f 93/93/93 81/81/81 82/82/82
f 93/93/93 82/82/82 83/83/83
f 93/93/93 92/92/92 80/80/80
f 94/94/94 85/85/85 78/78/78
f 94/94/94 78/78/78 91/91/91
f 95/95/95 94/94/94 91/91/91
f 95/95/95 91/91/91 90/90/90
f 96/96/96 92/92/92 93/93/93
f 96/96/96 90/90/90 92/92/92
f 96/96/96 95/95/95 90/90/90
f 97/97/97 93/93/93 83/83/83
f 97/97/97 96/96/96 93/93/93
f 98/98/98 86/86/86 85/85/85
f 98/98/98 85/85/85 94/94/94
f 99/99/99 86/86/86 98/98/98
f 99/99/99 94/94/94 95/95/95
f 99/99/99 98/98/98 94/94/94
f 100/100/100 87/87/87 86/86/86
f 100/100/100 95/95/95 96/96/96
f 100/100/100 96/96/96 97/97/97
f 100/100/100 86/86/86 99/99/99
f 100/100/100 99/99/99 95/95/95
f 101/101/101 88/88/88 87/87/87
f 101/101/101 87/87/87 100/100/100
f 101/101/101 100/100/100 97/97/97
f 102/102/102 83/83/83 84/84/84
f 102/102/102 89/89/89 88/88/88
f 102/102/102 84/84/84 89/89/89
f 102/102/102 97/97/97 83/83/83
f 102/102/102 88/88/88 101/101/101
f 102/102/102 101/101/101 97/97/97
v 571.692200 -18.743486 541.978027
v 568.750183 -20.038364 541.978027
v 567.204346 -22.856663 541.978027
v 567.693665 -26.033598 541.978027
v 570.015869 -28.256165 541.978027
v 643.125183 59.627491 541.978027
v 611.377197 10.910645 541.978027
v 595.503174 -6.528050 541.978027
v 583.597717 -15.035914 541.978027
v 577.644958 -17.539358 541.978027
v 645.091431 58.652725 541.978027
v 575.646545 -30.058048 541.978027
v 581.119507 -30.273930 541.978027
v 586.729919 -28.988844 541.978027
v 593.286804 -25.642057 541.978027
v 603.740540 -16.444874 541.978027
v 624.416016 14.207836 541.978027
vn 0.000000 0.000000 -1.000000
vn 0.000000 0.000000 -1.000000
vn 0.000000 0.000000 -1.000000
vn 0.000000 0.000000 -1.000000
vn 0.000000 0.000000 -1.000000
vn 0.000000 0.000000 -1.000000
vn 0.000000 0.000000 -1.000000
vn 0.000000 0.000000 -1.000000
vn 0.000000 0.000000 -1.000000
vn 0.000000 0.000000 -1.000000
vn 0.000000 0.000000 -1.000000
vn 0.000000 0.000000 -1.000000
vn 0.000000 0.000000 -1.000000
vn 0.000000 0.000000 -1.000000
vn 0.000000 0.000000 -1.000000
vn 0.000000 0.000000 -1.000000
vn 0.000000 0.000000 -1.000000
vt -0.000000 0.000000
vt -2.952042 -1.271921
vt -6.068350 -0.483915
vt -8.060976 2.038341
vt -8.106380 5.252415
vt 106.035355 -1.085833
vt 48.742725 8.854985
vt 25.162533 9.111895
vt 10.824055 6.190850
vt 4.936396 3.537951
vt 106.661072 1.017718
vt -5.590155 10.602166
vt -2.020166 14.756157
vt 2.742292 17.988308
vt 9.658897 20.509047
vt 23.513180 21.897707
vt 60.038315 16.155109
f 107/107/107 106/106/106 105/105/105
f 103/103/103 105/105/105 104/104/104
f 103/103/103 107/107/107 105/105/105
f 114/114/114 107/107/107 103/103/103
f 112/112/112 114/114/114 103/103/103
f 115/115/115 114/114/114 112/112/112
f 116/116/116 112/112/112 111/111/111
f 116/116/116 115/115/115 112/112/112
f 117/117/117 116/116/116 111/111/111
f 110/110/110 117/117/117 111/111/111
f 118/118/118 117/117/117 110/110/110
f 109/109/109 118/118/118 110/110/110
f 119/119/119 118/118/118 109/109/109
f 108/108/108 119/119/119 109/109/109
f 113/113/113 119/119/119 108/108/108
v 659.528198 88.276375 876.322510
v 624.101257 26.895273 876.322510
v 600.857666 2.145589 876.322510
v 581.487976 -10.581831 876.322510
v 567.367676 -15.959335 876.322510
v 553.247375 -18.489063 876.322510
v 662.329529 87.223419 876.322510
v 550.732849 -32.758080 876.322510
v 565.798401 -37.944939 876.322510
v 576.781189 -38.969765 876.322510
v 585.933472 -37.663834 876.322510
v 594.407837 -34.450600 876.322510
v 602.882263 -29.088257 876.322510
v 611.356628 -21.360426 876.322510
v 622.655762 -7.003017 876.322510
v 642.492676 30.858633 876.322510
v 548.701782 -20.555830 876.322510
v 546.461182 -25.018307 876.322510
v 547.335449 -29.584452 876.322510
vn -0.000000 0.000000 1.000000
vn -0.000000 0.000000 1.000000
vn -0.000000 0.000000 1.000000
vn -0.000000 0.000000 1.000000
vn -0.000000 0.000000 1.000000
vn -0.000000 0.000000 1.000000
vn -0.000000 0.000000 1.000000
vn -0.000000 0.000000 1.000000
vn -0.000000 0.000000 1.000000
vn -0.000000 0.000000 1.000000
vn -0.000000 0.000000 1.000000
vn -0.000000 0.000000 1.000000
vn -0.000000 0.000000 1.000000
vn -0.000000 0.000000 1.000000
vn -0.000000 0.000000 1.000000
vn -0.000000 0.000000 1.000000
vn -0.000000 0.000000 1.000000
vn -0.000000 0.000000 1.000000
vn -0.000000 0.000000 1.000000
vt 150.641998 -1.206374
vt 82.294716 17.538151
vt 48.364998 18.797653
vt 25.642372 14.231069
vt 11.820133 8.128131
vt 0.000000 0.000000
vt 151.893890 1.511890
vt -11.819934 8.379560
vt -4.752656 22.659895
vt 2.337251 31.110050
vt 9.764041 36.615799
vt 18.049620 40.288544
vt 27.846111 42.432953
vt 39.305637 42.895145
vt 57.434879 40.628666
vt 98.160149 27.649523
vt -4.685617 -1.725960
vt -9.416316 -0.127699
vt -12.004774 3.734150
f 127/127/127 137/137/137 138/138/138
f 125/125/125 136/136/136 137/137/137
f 125/125/125 137/137/137 127/127/127
f 128/128/128 125/125/125 127/127/127
f 124/124/124 125/125/125 128/128/128
f 129/129/129 124/124/124 128/128/128
f 123/123/123 124/124/124 129/129/129
f 130/130/130 123/123/123 129/129/129
f 131/131/131 123/123/123 130/130/130
f 132/132/132 123/123/123 131/131/131
f 133/133/133 122/122/122 123/123/123
f 133/133/133 123/123/123 132/132/132
f 134/134/134 122/122/122 133/133/133
f 121/121/121 122/122/122 134/134/134
f 135/135/135 121/121/121 134/134/134
f 120/120/120 121/121/121 135/135/135
f 126/126/126 120/120/120 135/135/135
