<?xml version='1.0' ?>
<svg xmlns="http://www.w3.org/2000/svg" xmlns:xlink="http://www.w3.org/1999/xlink" version="1.1" width="1133.9023945134104" height="1262.6617416962113">
  <style type="text/css">.edge {
  fill: None;
}
.edge.visible {
  stroke: #000000;
}
.edge.hidden {
  stroke: #C8C8FF;
}
</style>
  <g>
    <path class="edge sharp hidden" d="M250.86125221781003,199.88742005024662 C245.99964194343562,199.4651374653163 241.20121892213746,198.32511223549892 236.66918787419104,196.51562147517086 C232.13635322826846,194.70814411831591 227.87117272354692,192.23170632050304 224.05426663439124,189.1911797756208 M224.05426663439124,189.1911797756208 C220.74138909719682,186.55414916951852 217.7659773386398,183.49382754070086 215.2231826828709,180.10808058943817 C212.67940336423612,176.72307335336185 210.56864370365122,173.0131766473201 208.95840315260006,169.09702917156048 C207.34702367168674,165.18135019213818 206.23641811099407,161.06004027956158 205.662102100766,156.86489460089888 C205.08656599972576,152.66991613312808 205.04741048167645,148.40176587372272 205.5458882676288,144.1969346485035 C206.04314305476748,139.99195862512414 207.07795249236855,135.85096716976707 208.61722455489996,131.90638485407192 C210.15534925509687,127.96135501483073 212.1976929232825,124.2133587280026 214.6789426404857,120.78225306321794 C217.1591943945601,117.3504258717523 220.0779592754259,114.23603244190039 223.3418994018892,111.53866760523849 C226.60505465419584,108.8403535979323 230.21287022305222,106.55949505682449 234.04996950837085,104.76903175131906 M234.04996950837085,104.76903175131906 C481.6240559803533,-10.797588670248983 729.1981424523321,360.15892908419386 976.7722289243135,956.9505605338235 M976.7722289243134,956.9505605338235 Q980.3375402999693,965.5450071533758 983.9028516756243,974.201555199597 M983.9028516756243,974.201555199597 Q985.3843314916546,977.8401179063599 986.8632699364313,981.4591656610518 M986.8632699364313,981.4591656610518 L986.8657960018763,981.4653469802884 M986.8657960018763,981.4653469802882 C993.0570176468235,996.6149307413009 999.215296505572,1011.5068264294382 1005.345767135416,1026.0836452850035 C1011.4762253594736,1040.659629536072 1017.5788753546269,1054.9205369545698 1023.6585043161501,1068.7856098549084 C1029.7381208718868,1082.6498481507508 1035.7947163939932,1096.1182519284362 1041.832730715722,1109.0866945764872 C1047.8707326316642,1122.054302620042 1053.890153347229,1134.5219495339652 1059.8950853336476,1146.3621397808868 C1065.9000049142794,1158.2014954233118 1071.8904357657655,1169.413394398741 1077.8701229973155,1179.8469722439131 C1083.849797823079,1190.27971548459 1089.8187290289065,1199.9341375950135 1095.7803143619865,1208.6360051860358 C1101.7418872892802,1217.3370381725629 1107.696114343827,1225.085516639691 1113.6460459107943,1231.683838272385 C1119.5959650719738,1238.281325300581 1125.5415887455763,1243.728655494347 1131.485619954744,1247.8048576127508 M983.9028516756243,974.201555199597 L983.9181540658878,974.2389231101382 M983.9181540658877,974.2389231101382 C984.3897655323582,975.3957109477604 984.6413851848646,976.6415643990482 984.6556897361144,977.8907108613305 C984.6711511437854,979.1398437267216 984.4492873875952,980.3913383603289 984.0053726218496,981.5590344619068 C983.5625393608334,982.7271411158116 982.8979859445785,983.8105762660152 982.057463924221,984.7347495019508 C981.217798096719,985.6597007310993 980.2027913669992,986.4246997241429 979.0823230536793,986.9770803373574 C977.9623667212121,987.5304982594515 976.7377855256269,987.8708848198447 975.492886303095,987.9748050311377 C974.2480838682036,988.0798780538105 972.9838931449383,987.9484063540801 971.7873486287305,987.5894416353153 C970.5904721966126,987.2315850830736 969.4621361442598,986.6465038611984 968.4800216265048,985.8744785808803 C967.4971926948497,985.103363319232 966.6613183253133,984.1458782979754 966.029945518425,983.0679433731566 M966.0299455184249,983.0679433731566 C972.4472889009344,998.851754201577 978.8315019609989,1014.3679992582097 985.1879044429324,1029.5545115972561 C991.5442947620061,1044.7400374585397 997.8728745029476,1059.5958306022371 1004.1786228499691,1074.032102705154 C1010.484359034129,1088.4673883303076 1016.7672638243678,1102.4831529146786 1023.0319758447863,1115.9619867576737 C1029.2966757023441,1129.4398341229037 1035.5431827900811,1142.3807507467568 1041.7757951719918,1154.6397055512343 M966.0299455184249,983.0679433731566 C826.4919707667351,745.0892805994711 686.9539960150458,524.4864462955226 547.4160212633574,378.2904983249445 M547.4160212633573,378.29049832494434 C448.56443158150745,274.7222625980477 349.7128418996593,208.49585847525134 250.86125221781,199.88742005024662 M250.86125221781003,199.88742005024662 C240.7403837223195,191.83007581723308 230.56859175710125,184.2320582874927 220.35353503535836,177.25071764056835 C210.13848225046976,170.27180199232237 199.88016470905694,163.90956322689223 189.58635135624766,158.38925148680894 C179.29254194029306,152.87136474540353 168.96323671294243,148.19540502934493 158.60631485124972,144.65452244414965 C148.2493969264115,141.1160648576327 137.86486236723138,138.7126844019796 127.46070058268877,137.80543114569448 M127.46070058268877,137.80543114569448 C114.20227448569922,136.65402525108493 100.91196362996607,137.9252798807807 87.6065611256411,142.52616108946563 C74.30116900352762,147.1334374670128 60.980685232822445,155.07034042354937 47.662193625599684,167.42290074190842" />
    <path class="edge outline hidden" d="M224.05426663439175,189.1911797756208 C214.90264116611274,181.9053841857012 205.83422123421994,175.13225726921445 196.97229137436204,169.05688619479184 C188.11307181408102,162.98231663598534 179.46034232583497,157.60550291924258 171.21327583342276,153.1339746504462 C166.94016830484475,150.81672402205615 162.76773947018324,148.73839967727122 158.74580063207907,146.9258703807795 C154.7233785721571,145.11264946779937 150.85144650879198,143.56522360311234 147.16628553373323,142.2910962897299 C143.480641336857,141.0162773598591 139.98176822828717,140.01475698129263 136.69241708888364,139.27467339536557 C133.40258272766266,138.53389819295003 130.32227033560778,138.05455978317363 127.46070058268924,137.80543114569446 M976.7722289243156,956.9505605338231 L979.3536034196268,963.1850870006799 L981.9380015893439,969.4509588781686 L984.5254777236014,975.7484724146932 L986.8632699364316,981.4591656610517 M413.817290402676,32.75218670855861 L413.6440596044614,32.69138493209147 M983.9181540658883,974.2389231101383 Q984.6732204607786,976.0930644923651 985.4277552727062,977.9431989430941 Q985.804900965049,978.8673331779387 986.1820466573918,979.7914674127833 Q986.523921329634,980.6284071965358 986.8657960018763,981.4653469802884 M618.2476546033768,469.9662487543882 L618.3597493845639,470.08275434249515 M127.46070058271744,137.8054311456969 C148.1826558436076,139.60987294844492 169.09268727596367,142.7223491322503 190.1353149587331,147.35060777504785 C211.17490626510875,151.97492756178104 232.34707259751553,158.1149414778294 253.51131549587296,165.86810963132885 C263.68520786880316,169.594103910552 273.8524625648691,173.68481432171535 283.98575445180757,178.13773655379646 C294.11842507248775,182.58969516978593 304.2171335473026,187.4038683669958 314.2371592887451,192.55077058384285 C324.2565634530247,197.696707890707 334.19728554719387,203.17537697751044 343.9972008231861,208.93027480314208 C353.7964942111114,214.68420642489838 363.45498144412215,220.71436954578536 372.8931249082798,226.93720741619143 C383.31342990678127,233.79593906245356 393.485438381931,240.91677842760598 403.2489239410667,248.08910094895512 C413.01405449808357,255.2623318681674 422.37066213908696,262.4870459435766 431.20458041208235,269.57805375265804 C440.0401436829588,276.6699699596028 448.3530175858275,283.62817990021983 456.075095609362,290.2929292921551 C463.798818630777,296.9585870819532 470.9317457728591,303.33078432306996 477.4518304649473,309.27520187331913 C487.23988965864544,318.2128927869329 495.66690486145046,326.2224416247853 503.00535102231095,333.33544270635184 C510.344653284339,340.4533947196227 516.6004369865724,346.683103242752 522.0691479106545,352.1947886829391 C527.5363475223969,357.70753243007556 532.2215248381381,362.51055736041434 536.3788088940116,366.8037164757419 C540.5322142240384,371.0940412732638 544.1627767763478,374.88280452191924 547.4160212633606,378.29049832494434" />
    <path class="edge sharp visible" d="M47.662193625599684,167.4229007419084 C42.87424713036441,167.00696894861102 38.1475429674937,165.89505179299093 33.67629990654691,164.1328366331706 C29.204309047028122,162.37251945758902 24.98895079741836,159.96236712373496 21.203430177720946,157.00141097224343 C17.416653227103335,154.0420617897171 14.06070822400939,150.53268560547994 11.273489417677736,146.61747971961248 C8.484609048704218,142.70345719748684 6.265186622474101,138.3846324994792 4.7064156877020835,133.83846292694582 C3.1457153495589085,129.2929553575638 2.246075664480258,124.52129611129561 2.0444620379667704,119.71954886212845 C1.8408104166214594,114.91788761594661 2.3352382400649927,110.0873986430662 3.5074307120760153,105.42656282943452 C4.677644792051302,100.76522992181688 6.5253162153876385,96.27477360183119 8.974524634856166,92.13970336856976 C11.421977809842604,88.00359396306969 14.470324796462007,84.22395618778671 17.994311735813096,80.95609224894699 M17.994311735813096,80.95609224894699 C21.795693090595947,77.4276095463808 26.15056006427882,74.49709311278855 30.85091091616141,72.30451244298092 M30.85091091616141,72.30451244298092 C158.5063707449999,12.7154404160514 286.16183057383785,-12.08473087642548 413.81729040267663,32.75218670855859 M413.81729040267663,32.75218670855859 C653.0400669200326,116.7753215556014 892.2628434373878,445.34800875605237 1131.485619954744,1247.8048576127508 M1041.7757951719918,1154.6397055512346 L1041.7758972319784,1154.6399062855662 M1041.7758972319784,1154.6399062855664 C1047.7285590854462,1166.3473580920897 1053.6685436314126,1177.4325086326974 1059.5993053710006,1187.7454806703947 C1065.5300569900558,1198.0576318749324 1071.4515858027307,1207.5976045765585 1077.3670629352562,1216.192538209785 C1083.282529947249,1224.7866510098493 1089.1919452790926,1232.435724741512 1095.0981966821214,1238.9439155107766 C1101.0044379646188,1245.451285446881 1106.9075153183041,1250.8177724205884 1112.810033119622,1254.8245492094036 M1131.485619954744,1247.8048576127508 C1132.0752650059042,1249.7684806771597 1132.0374052544373,1251.913437908097 1131.378833997145,1253.855028328609 C1130.7280062857203,1255.7992283885276 1129.4599719798825,1257.5296550400274 1127.802157571474,1258.7359467541278 C1126.149164043338,1259.9488361607714 1124.115256881781,1260.6311159475047 1122.0652251971803,1260.6604157761167 C1120.0153265738963,1260.6978858358361 1117.9602808210152,1260.0821942888024 1116.2686703242523,1258.9237718310612 M1116.2686703242523,1258.9237718310612 C1114.7713917317615,1257.9058423043875 1113.5614415248112,1256.4717942727518 1112.8100331196222,1254.824549209404 M1112.810033119622,1254.8245492094038 C947.9559069475406,894.7519082711824 783.1017807754603,641.2885862738315 618.2476546033794,469.96624875438835 M618.2476546033793,469.96624875438823 C428.0525009441185,272.30860398448397 237.8573472848601,183.98594514290954 47.662193625599684,167.42290074190873" />
    <path class="edge outline visible" d="M61.52173293852684,51.170377973901225 C53.847902676952415,54.7509691501296 46.34356406943786,59.05184337141068 39.078311028386,64.02874739159577 C31.810635704069337,69.00606420682067 24.78204594621543,74.65941082094953 17.994311735812516,80.95609224894707 M413.6440596044614,32.69138493209146 C408.08948071589566,30.742808445936163 401.9185495401853,28.59939894070644 394.72693065472794,26.22141580346335 C391.1278429680879,25.032346357862068 387.27046308824345,23.78441422139012 383.0586633069332,22.47227715716926 C378.84468865291683,21.160156772292325 374.27810520930166,19.78378890411107 369.20188883204537,18.338298337376898 C363.0004274259516,16.57817104477938 356.09082557714265,14.714202171461405 347.7981389015233,12.752326737821459 C343.64625377947414,11.771795508950312 339.1491551399926,10.766645477188195 334.116955732897,9.745852369843524 C329.0783336904407,8.725578035073319 323.51111107512156,7.6891241409261255 317.04556684664294,6.65999204679531 C313.47421940994616,6.09562089470009 309.7389603206657,5.548333520629079 305.5802210517427,5.016052249570318 C301.42180235227147,4.484876362601402 296.8550005292122,3.9648523561888394 291.6053177544558,3.489695258932908 C286.35068398307834,3.017171987121681 280.42339042470263,2.5862435667056807 273.4284095403512,2.30022353161991 C269.9276933179224,2.1584478247870678 266.15756901972276,2.0543782860544377 262.0251239859818,2.0156939267402714 C257.88987037108325,1.977770914450113 253.39645307037844,2.004287776666322 248.3745863916092,2.1439657032319133 C244.59928032949108,2.2495074779158974 240.65091346940025,2.4200506272997346 236.68171353467304,2.6578299703791046 C232.71037134008947,2.895168948374067 228.71655332174947,3.1990950264204243 224.79287020258238,3.5596281373741676 C220.86768475616006,3.9199830044630253 217.0115413548188,4.336474405003805 213.27527419247528,4.794228808129548 C209.53791743076957,5.251990446005479 205.91976356569805,5.750693001267962 202.44134900172045,6.275744908819033 C195.47786957862192,7.327518714214619 189.09602036175565,8.477078698617307 183.19223948172146,9.659557725021166 C177.27888898238317,10.845861455300719 171.8367936676735,12.063113661490926 166.49303870242056,13.355169479804715 C160.7241378626592,14.752873508492481 155.29932466452814,16.184845939899695 150.10958454721276,17.645049287035015 C144.9213862621825,19.10529131134742 139.96967811369464,20.59377405437195 135.18842363319078,22.105541454104603 C125.6316322629969,25.12936999676236 116.74218745805678,28.245274244011217 108.26710446537199,31.42496699535267 C99.796514652108,34.60515108618337 91.75448422545438,37.849189758325565 84.001471905669,41.14245501481706 C76.25116455996762,44.436219327456605 68.78330742288276,47.77911122281519 61.52173293850047,51.17037797391441 M1116.2686703242516,1258.923771831061 C1109.587762703743,1254.3598674841057 1103.2358660900686,1248.5449848071312 1097.0162659261691,1241.7151677723614 C1090.8008436411485,1234.8822959548231 1084.717717805904,1227.0344897794907 1078.687154471988,1218.322259301106 C1072.4675933715948,1209.3315289439822 1066.304319979881,1199.425408764849 1060.1609900342069,1188.7618314120027 C1054.0183507646402,1178.0977136012511 1047.8956549411087,1166.6761386167834 1041.7758972319798,1154.6399062855662 M618.3597493845639,470.0827543424951 C620.5208621191337,472.3319801087308 622.942486515071,474.9471199509346 625.7874451344497,478.1427024702126 C628.6396088014358,481.348361664868 631.9151361550898,485.1345176484051 635.9785910904989,489.99784593250763 C637.3030036885908,491.5832742909331 638.7185879179881,493.29413446078905 640.2440989750178,495.1559888122698 C641.7701332685668,497.0186194672043 643.4060962642972,499.0322475322436 645.1853937810821,501.2441718742974 C646.9652136556921,503.4568710064553 648.8883699259052,505.86786964410754 651.0028944297011,508.5461607770839 C653.1179404126274,511.2252251868142 655.4243565036844,514.1715853203484 657.984775956515,517.4758859166377 C659.7636191086668,519.7716872184661 661.6731055100568,522.253183891846 663.7399165583822,524.9587556230962 C665.8074901708902,527.665540576912 668.0323855944072,530.5963955944617 670.4626360237592,533.8236705939125 C672.8936503466362,537.0521611569324 675.5300168394213,540.5770667077159 678.4411577156252,544.5047729443496 C681.353063814694,548.4336970855531 684.539741461255,552.7654169184686 688.0920391090485,557.6404194691576 C692.2451194519804,563.3491877792569 696.7814657375259,569.6235328080573 702.079562602014,577.064049247443 C707.3802584673278,584.5095833639687 713.4323312558269,593.0975388194258 720.6870376269644,603.569005265641 C724.3160082022956,608.8081791355131 728.2481423805505,614.5234708647134 732.5576257821715,620.8457717560585 C736.8677274948875,627.1694299565454 741.554854254228,634.0993551294379 746.7105043913115,641.8044432335276 C751.8669247973394,649.5112365482001 757.491544404368,657.9924506043308 763.6974290739438,667.4647272570178 C769.904235970311,676.9390570217271 776.6919837524813,687.4037071932535 784.199560632168,699.1328067633242 C791.1184593189695,709.9457105307173 798.6071281411228,721.7789188339286 806.327526053047,734.1403990339472 C814.0506278324589,746.504485060144 822.0043505476398,759.3935525823777 829.9263614426704,772.3885320946251 C837.8515956523777,785.3876598084133 845.7440098879335,798.4894091114436 853.431524204369,811.3908601408162 C861.1227812826688,824.2980017470908 868.6080302878478,837.001554678935 875.8199886071716,849.3579352267029 C884.8720857659537,864.8719669870678 893.4887781149117,879.821906848087 901.7644196623094,894.3295460378498 C910.0390968877605,908.8358671596249 917.9722150121775,922.8991180969797 925.6311270292974,936.6041841743233 C933.289312989848,950.3082928929736 940.6727845436279,963.6534472384482 947.8285651004317,976.6977264917352 C954.9838578660448,989.7414090956238 961.9109513352076,1002.4834470941598 968.6432107643677,1014.9652135851757 C982.1069929044324,1039.9289075984773 994.7907733715952,1063.8456863082733 1006.9003164082964,1087.0015981473707 C1012.9553549418612,1098.5805964740084 1018.8664763122002,1109.9700418408793 1024.6660998992465,1121.2217879579161 C1030.4661887566147,1132.4743802627386 1036.1542715312162,1143.5885038045649 1041.7757951719932,1154.6397055512346" />
  </g>
</svg>
