<?xml version='1.0' ?>
<svg xmlns="http://www.w3.org/2000/svg" xmlns:xlink="http://www.w3.org/1999/xlink" version="1.1" width="895.5203747995847" height="744.3030915589447">
  <style type="text/css">.edge {
  fill: None;
}
.edge.visible {
  stroke: #000000;
}
.edge.hidden {
  stroke: #C8C8FF;
}
</style>
  <g>
    <path class="edge sharp hidden" d="M8.093988975054344,377.88387412100417 L7.875787368665854,377.59241398706115 M8.093988975054344,377.88387412100417 C15.89395047283704,388.42462451851924 22.882248474462365,399.63864804442267 29.48664467183791,411.7532746758852 C36.08852479982918,423.86172496867255 42.30650312357069,436.87077836701945 48.49789139220972,450.83482736519 C54.68676359146449,464.7927000246856 60.84904573561676,479.70556828400555 67.27159963105352,495.4548871545071 C73.69163745710598,511.1980296863339 80.37194703444291,527.7776228293427 87.52894022669082,544.9021841119854 C94.6834173495544,562.0205690559526 102.31457808732907,579.6839221395537 110.56838436088086,597.4278234083334 C118.8196745650484,615.1655483384384 127.69361030499309,632.9838214537209 137.26570355882083,650.2452853168212 C146.83528074326426,667.5005728412459 157.10301544159074,684.1990511134882 168.07396968914566,699.5304252132781 C179.0424078673164,714.8556229743944 190.7140655947155,728.8137165630569 203.0235549639283,740.4214735760953 M405.66387086977767,397.2936351876049 C429.199640610522,392.0125761633834 452.7354103512654,384.9603525986993 476.27118009200933,376.18954353116885 M476.2711800920091,376.18954353116885 C609.5267186745434,326.5307093832849 742.7822572570792,221.78034079623512 876.0377958396139,71.48140032785969 M876.0377958396139,71.48140032785966 C867.4987897462042,67.89896623062957 857.9993557757479,64.12293289229785 847.903925622888,60.466401537636344 C837.8074838683647,56.80513750232347 827.1150459314375,53.26337545068076 816.1627186601634,50.02170154924101 C805.2093797872255,46.775294967149875 793.9961515799403,43.82897653526174 782.8308160397753,41.23081736187014 C771.6644688979464,38.62792550782717 760.5460144232372,36.37319291228081 749.7549097705275,34.38217562528557 C738.9627935161534,32.3864256576389 728.4980270837785,30.654390998543423 718.6117427816926,28.969112639814437 C708.7244468779433,27.27910160043409 699.4156331044827,25.63584686142028 690.9081089230135,23.68987435634928 C682.3995731398803,21.739169170626933 674.6923269487388,19.48574621884743 667.9808529647008,16.44761637634791 C661.2683673790001,13.404753853197064 655.5516540004027,9.577184439326265 650.9968705974352,4.350403951833471 M876.0377958396139,71.48140032785966 C877.3792367383273,69.96250495426986 879.1943349206649,68.8704845973202 881.1646713179064,68.39690707706674 C883.1331689112967,67.91574259147296 885.2468334100917,68.0554637679543 887.1348644981979,68.79156073540756 M363.51118095996316,591.5394500583565 C298.8797653643048,596.7550489456727 234.24834976864656,579.1990560346316 169.616934172989,536.7940490907397 M169.61693417298898,536.7940490907398 C115.77595244034401,501.4687017624015 61.9349707076995,448.89896725414457 8.093988975054359,377.88387412100417" />
    <path class="edge outline hidden" d="M476.27118009200694,376.1895435311688 C467.6637397883445,379.3916687409419 461.38375197838883,381.6795843347644 456.49795833300254,383.4866622405658 C451.6218888284531,385.28657030641983 448.1400134884729,386.605640684252 445.3913499273399,387.6764897834513 C442.3023780457181,388.87850414328284 440.14416468438645,389.7674713537797 438.36800259543475,390.5315706341761 C436.60107313438516,391.2930552399656 435.2161949457148,391.9296719156546 433.92317436276346,392.55638899148227 C432.3474256555372,393.3221865993323 430.90251407160645,394.0763563990798 429.33610021385846,394.9602013090673 C427.33098744915173,396.0933110487857 425.11771071262285,397.4445016863796 422.5413273561039,399.19520285038783 C419.97142944643724,400.9425358777559 417.03842491678085,403.08937943153865 413.768963630828,405.7228553143579 C411.78492342816224,407.321310812896 409.68385990225806,409.0884299205869 407.4774450797098,411.04006524393606 C405.271682204956,412.9907614753533 402.9605680335573,415.12597392242765 400.5740291303526,417.4352606175608 C398.18814217494224,419.74360822076153 395.7268304877255,422.2260300720201 393.23827517178347,424.8457896296309 C390.75037180363637,427.4646100953098 388.2352248067629,430.22076826734 385.75926982249086,433.0512330299128 C383.19133391747806,435.9848751035234 380.67334188969033,438.9871937467853 378.37166769547423,441.84957351611513 C376.0738585988357,444.70456406759433 373.99236733576805,447.41961574514005 372.40179059479044,449.57921500533877 C370.75669945401523,451.80782902611486 369.64712537285305,453.4339151043205 369.4473787877285,453.73673194905524 M423.30053338269954,508.61366820683014 C417.949496774298,516.7587073862576 412.935169744177,523.773109549907 408.2196654816638,529.904353250076 C403.5037739402489,536.0343150819762 399.0867114767192,541.2811254207063 394.9197544246085,545.856378187792 C390.752403140126,550.4303414058295 386.83518109278407,554.3327733700306 383.1083400166482,557.7391759901452 C379.38108680751725,561.1442692882468 375.8442675877234,564.0533918059033 372.4266152279017,566.6054074788685 C366.8696986695929,570.7525710906499 361.64435929712454,573.9693232698121 356.4010955021176,576.6240831847427 C351.15658965760565,579.2709235558667 345.9095616060371,581.3591138151328 340.24966205614936,583.0219126522692 C337.41831132045587,583.8509476251248 334.4818404077798,584.5692601427158 331.37392495827254,585.171768817607 C328.2650911022977,585.7735859775589 324.9864960384756,586.2602473197384 321.4470203224659,586.6077519945256 C317.9053948122086,586.9540476765304 314.1064890188815,587.1627612070353 309.9003521041501,587.1767004074062 C305.6897612139988,587.1883932345477 301.07819978323676,587.0081780076099 295.79281105503196,586.5168420791108 C292.9557532719775,586.2536367206534 289.90680758647557,585.8884121541461 286.5798866210534,585.3963421036849 C283.24861866836335,584.9016535563053 279.63236556902484,584.2745135866586 275.55976072534594,583.4279423651751 C273.5223270526965,583.0040545076195 271.36966665153477,582.5248043919976 269.06621747016845,581.97148332676 C266.76195782367637,581.417669755585 264.307984167881,580.7904888763957 261.64629824667105,580.0576162744923 C258.9831969810642,579.3238526762741 256.11388949735783,578.485393939336 252.94100471546517,577.4851421953317 C249.76589754908815,576.4834636478932 246.2891504082537,575.321281619777 242.35142226643526,573.9017221896147 C239.0515771340405,572.7081149612511 235.503553720682,571.3618565173376 231.43401385726716,569.7057049499116 C227.3618454737129,568.0455036909162 222.78630940235578,566.0875880380114 217.3510494839085,563.5624629280031 C214.63142038017588,562.2976855800918 211.69326125894645,560.8876627536619 208.47176742203027,559.2745127693289 C205.24979705256231,557.6605158389731 201.74431764535407,555.8438619326203 197.87703441222453,553.7429726667281 C194.0094142874181,551.641009057311 189.77956885767824,549.2553101357942 185.09962318932702,546.4742336843973 C180.41959612499764,543.6918414925015 175.28880018608666,540.5146016837006 169.61693417298827,536.7940490907398" />
    <path class="edge sharp visible" d="M7.875787368665854,377.5924139870611 C5.83466774357056,374.8333045920844 4.273213974116069,371.72073717607293 3.2818680639442057,368.43499712306766 C2.2881798450538033,365.14996469173275 1.8651213553722978,361.6934874775623 2.0371969691782756,358.2657704532444 C2.206828764141394,354.83793162270683 2.9715048360606606,351.4406556012063 4.286933781542698,348.27071852591587 C5.600102403818093,345.09984442629695 7.463332693036554,342.15797659176957 9.76870316218248,339.61551303859164 C12.072260409358186,337.07140653007104 14.816745967265772,334.928041763008 17.84319453285672,333.3095660988144 C20.868488444220937,331.6889331562692 24.174154054607875,330.594041059706 27.5687214704678,330.08830789346285 C30.962927466071744,329.58015471470515 34.4442502115594,329.6614270312829 37.81104562087489,330.32741730528534 C41.17831500483195,330.9910070550844 44.42928623526048,332.23896528559766 47.37565742133393,333.99900813856317 M47.375657421333926,333.99900813856317 C54.49834090187696,343.9394602587668 60.700414879604466,354.70505597482685 66.21663066164307,366.53605901603976 C71.73396186789527,378.3610907439357 76.56543487845855,391.2515297969846 80.97703287844169,405.2804431316109 C85.38974630263856,419.303385152921 89.38258471625531,434.46480145580824 93.25276318238326,450.6705622238281 C97.12405707272487,466.8703516785307 100.87269101557767,484.1144855983655 104.82711195201524,502.14163739401505 C108.78264831266645,520.1628178763472 112.94397166690248,538.9670162344954 117.67076083377924,558.1257091062689 C122.39866542486968,577.278430664726 127.69203582860084,596.7856467368097 133.94178274201113,616.0516371874603 C140.19264507963499,635.3116563247943 147.39988392693817,654.330449840695 155.9856418589408,672.3451008272326 C164.57251521515735,690.3537805004538 174.5379076560735,707.3583176443102 186.3351936346926,722.4285985780027 M203.0235549639283,740.4214735760953 C201.8372646992238,741.1588668465436 200.52634720039595,741.6949819290937 199.16330203220485,742.0001690120138 C197.80045996773012,742.3062622570192 196.3861420517728,742.3812819864823 194.99856572676555,742.221079268598 C193.61088322272886,742.0617990203046 192.25060697027257,741.6673725624228 190.9929660043726,741.0596130478541 C189.73492126496973,740.4526897524521 188.58011399709875,739.6327243150303 187.59240933788232,738.6450644654323 M187.59240933788232,738.6450644654323 C186.54802512980666,737.6022386132807 185.69101266460177,736.3725305748562 185.0741900722644,735.0317271062968 C184.45631764351512,733.6914071100937 184.0790034962146,732.2407911494405 183.9655014535481,730.7692810536453 C183.85084708271884,729.2978602856961 184.00007256522966,727.8064233288844 184.40398088764982,726.3868877690277 C184.80677731598024,724.9670364161605 185.4640169463947,723.6199324837045 186.3351936346926,722.4285985780027 M47.375657421333926,333.99900813856317 C166.805061904148,405.283542263182 286.2344663869626,424.0917276761421 405.6638708697777,397.2936351876049 M186.3351936346926,722.4285985780026 C247.40432962955612,638.8478906477321 308.4734656244218,548.078512857925 369.5426016192863,453.58940160862414 M369.5426016192863,453.58940160862414 C463.3606912786696,308.42953047883185 557.1787809380522,154.49073228241326 650.9968705974352,4.350403951833499 M887.1348644981979,68.79156073540756 C888.4694110688451,69.30784566352678 889.6900802868654,70.11534789653155 890.6872881109268,71.14157461801466 C891.6859163719362,72.16641915517609 892.459802334367,73.40867258591288 892.9394706931773,74.75681348098084 C893.421005894547,76.1042886848986 893.6077070215795,77.55592129191938 893.4828141438707,78.98139147495014 C893.3598959190496,80.40703310920667 892.9255415376057,81.80468446164355 892.2187444231067,83.04887295956013 M892.2187444231067,83.04887295956013 C882.9507323171712,78.7272991334152 872.9045857310122,74.36576922138119 862.3708638011161,70.2215804790058 C851.8367236765664,66.07309487574405 840.8150082082786,62.14195044214095 829.5845670824509,58.56513232892577 C818.3537077619702,54.98401735482427 806.9141227839496,51.75722870111053 795.5329523842989,48.901439413695485 C784.151363789996,46.04135326539399 772.8281897740626,43.5522664833911 761.8188611221238,41.330540008778854 C750.8091142755312,39.1045166732802 740.1132127929342,37.145853645172295 729.9748780096655,35.23059976072844 C719.8361250317448,33.31104901539827 710.2549387531533,31.434907413732258 701.4633310589419,29.25791168718532 C692.671305170077,27.07661909975205 684.668857865591,24.59447238743784 677.6762915802456,21.346896176879095 C670.6833071002475,18.095023105434006 664.7002036393898,14.077720535744364 659.9355741821472,8.710100989627904 M650.9968705974352,4.350403951833471 C651.4039353933316,3.697718581398739 651.9643196176189,3.1416151761386253 652.6201065547511,2.739567610891535 C653.2752027156079,2.336395292387704 654.0245796845494,2.0879674101936074 654.7907874813056,2.0199604410880516 C655.5568774690557,1.9506388477863017 656.3384863415638,2.0618558325106995 657.0548335291032,2.342116258295855 C657.7716605378201,2.6211471474667287 658.4219989914797,3.0687424889874864 658.9386348782759,3.6386429572082646 M658.9386348782759,3.6386429572082646 C659.5483572484587,4.308200147717539 659.9697747244933,5.146754130079387 660.1432159486003,6.035565909144442 C660.3191220349416,6.923893039622149 660.2464797609348,7.85956753283226 659.9355741821473,8.710100989627904 M892.2187444231067,83.04887295956013 C715.9828899353924,393.7811649174252 539.7470354476784,577.3176429371609 363.5111809599631,591.5394500583565 M659.9355741821473,8.710100989627904 C581.057227248999,225.42657807235966 502.17888031585153,388.5541850504785 423.3005333827037,508.6136682068302 M423.30053338270375,508.6136682068302 C349.87487390977833,620.3737021006061 276.4492144368529,694.8142147483286 203.0235549639283,740.4214735760953" />
    <path class="edge outline visible" d="M7.875787368667261,377.5924139870611 C13.231145441213004,384.83884166151336 18.19220123460353,392.58543010355055 22.980827159031872,401.0702442067833 C27.76657375911732,409.5491906421857 32.379782167590434,418.7664400683446 36.961703713043214,428.7957626796257 C41.87922456453261,439.55923990698676 46.75749043024376,451.2607922826506 51.745783252479825,463.82396862536245 C56.73313569916303,476.38387458631155 61.82990203262754,489.80393623359197 67.15903367969632,503.9161316965899 C72.48751232765451,518.0257450344112 78.04774321947335,532.8260239072329 83.94439380687992,548.0766469394948 C89.84067877161813,563.325376103165 96.07277036220066,579.0229811455594 102.7350985956427,594.8761123705797 C106.60747600648081,604.089299434169 110.62798121153828,613.348410541701 114.8216028293402,622.5889324082674 C119.01570958391972,631.8287906797125 123.3829341135214,641.0500656018999 127.96184886644262,650.1696632265325 C132.5412481175736,659.2885944943076 137.33233895430192,668.3058543562366 142.38725977479896,677.119690871981 C147.44266445493807,685.9328582691301 152.76190048112423,694.5426082118025 158.41065432150546,702.828453438961 C162.83061228521035,709.3111587511385 167.45209644489293,715.5903839550457 172.30684031499572,721.5893408452212 C177.16125600193922,727.5875469361721 182.24893088091002,733.3053916708277 187.5924093378835,738.6450644654325 M369.44737878772855,453.73673194905524 Q369.41487786578523,453.7854526055056 369.4148334226875,453.78563884192755 M369.4148334226875,453.78563884192755 L369.41496381747584,453.78544141878365 L369.4336575722273,453.7569895043612 L369.48456349819935,453.6789546709442 L369.54260161928414,453.5894016086239 M887.1348644981972,68.79156073540759 C881.266350065198,66.5162100186529 875.0313541953408,64.13878497878675 868.5242895109251,61.757534417038535 C862.0170157364594,59.37539367462196 855.2376703944631,56.98942503539053 848.2748115858311,54.67295224185863 C841.3117449776078,52.355590380908254 834.1651621497722,50.10772199072437 826.9178028146194,47.97777692610184 C819.6702369703283,45.846943907310475 812.3218918657452,43.83403183914744 804.9497249573441,41.962607859682485 C794.5728461440062,39.3260582960701 784.1527515193585,36.97378538236258 773.9052711188842,34.89720241049255 C763.65757274725,32.8171733258616 753.5822809379645,31.012067997845662 743.8891225340446,29.37680856107172 C734.1958435004454,27.73846216085987 724.884490210388,26.269195466667586 716.1614118758783,24.777495636860856 C707.4383102531699,23.28306799293926 699.3032759241862,21.765441028180813 691.9620060313783,19.956723105735314 C684.7332793617722,18.177013523525815 678.2809026588686,16.115096779541858 672.7628841405636,13.497142494084336 C670.0020229279831,12.188233624759974 667.4719342490514,10.74220593446303 665.1717608880361,9.11687258932723 C662.8708552898951,7.4907250019141705 660.8002665717273,5.686310330417604 658.9386348782765,3.6386429572082766" />
  </g>
</svg>
