<?xml version='1.0' ?>
<svg xmlns="http://www.w3.org/2000/svg" xmlns:xlink="http://www.w3.org/1999/xlink" version="1.1" width="1133.902394503154" height="1248.4257232004197">
  <style type="text/css">.edge {
  fill: None;
}
.edge.visible {
  stroke: #000000;
}
.edge.hidden {
  stroke: #C8C8FF;
}
</style>
  <g>
    <path class="edge sharp hidden" d="M246.84554452712655,190.07633813860107 C242.23161631394322,189.67542026146936 237.67446584846908,188.62855602960502 233.34812780884957,186.97572350559992 C229.02116166221634,185.3245354408943 224.92598552785768,183.06775362992238 221.21898859139165,180.29156211846632 M221.21898859139165,180.29156211846632 C217.77916448244832,177.717293157213 214.6737078114249,174.69697356038176 212.00483770762193,171.33001901425945 C209.33494487442735,167.96387538372386 207.10208648108886,164.25166160181942 205.37975824979154,160.31556782717433 C203.65623438403972,156.37999744262888 202.44352956510346,152.2212073925328 201.78156034876582,147.97608713219 C201.11830160897986,143.73116815599047 201.00588965275813,139.40063111815425 201.44802515230944,135.12701847870784 C201.88886237686148,130.85327172866016 202.88417315366726,126.63716633053447 204.40119631038368,122.61747829368586 C205.9169982617306,118.59732960244786 207.9542580896058,114.77427270467953 210.44591703265888,111.27414623890819 C212.93651265881243,107.77326300800142 215.88108917684286,104.59589748280409 219.1827249584897,101.84663463025737 C222.48352519366958,99.09636895356527 226.14083255453863,96.77466711562217 230.03426181768918,94.95794983967362 M230.03426181768918,94.95794983967363 C479.99704333589807,-21.723704136675504 729.9598248541089,358.8574172950864 979.922606372319,982.3765573560283 M979.922606372319,982.3765573560283 C992.7723683091906,1011.8948021346048 1005.5294038256143,1040.1872821113711 1018.2242526988998,1066.757574985348 C1030.918947590303,1093.3156985111584 1043.551455838571,1118.1516349341823 1056.1480057283025,1140.4282202047496 C1068.7444016361515,1162.6926361271496 1081.304839185467,1182.3977008970953 1093.8512351681336,1198.3655087162235 C1106.397477168919,1214.3211471871846 1118.929677603056,1226.53952870733 1131.465441769723,1233.5020057296051 M979.922606372319,982.3765573560283 C980.3886146233781,983.5374275741093 980.6335518549643,984.7864167283199 980.6405101309838,986.0373088317365 C980.6486315313658,987.2881941262053 980.4187694086042,988.5400448895072 979.9667904179147,989.7064485598645 C979.5158960664022,990.8732719215793 978.843223537973,991.9537714778843 977.9952057398881,992.8733622972517 C977.1480433088939,993.7937411968401 976.1261723149555,994.5525207583013 975.0001305846129,995.0973249672188 C973.8745958467998,995.6431758245989 972.6457357861001,995.9746418143487 971.3983754251519,996.0688417784215 C970.1511032049622,996.1642014642284 968.8862672810557,996.022223623453 967.6911767050913,995.6527090920586 C966.4957430768036,995.2843058203467 965.3709526884114,994.688643574406 964.3944472538678,993.9068398181028 C963.4172154489318,993.1259445169143 962.5890013849292,992.1594924389848 961.9669753679729,991.0741966325263 M961.9669753679727,991.0741966325263 C972.0712513578759,1014.3036532775308 982.124562172378,1036.7679026246108 992.1405438085923,1058.235956753475 C1002.1564778807373,1079.6992461096227 1012.1350827745939,1100.166340247556 1022.0886626933469,1119.2728376109492 M961.9669753679727,991.0741966325263 C818.2630967758287,740.6131847530335 674.5592181836867,508.5717279372562 530.8553395915433,359.2181058619241 M530.8553395915433,359.2181058619241 C436.18540790340427,260.8262090128651 341.5154762152644,198.32061908804923 246.84554452712658,190.0763381386012 M246.84554452712655,190.07633813860107 C237.340804508736,182.961783369031 227.80510627301808,176.3153068142382 218.2431062395341,170.25612523922464 C208.68111177657585,164.19851094006663 199.09281551585215,158.72819162068814 189.48302985164625,154.00826777005128 C179.8732497579662,149.28991119527012 170.24198026080393,145.32195008923074 160.5941897291651,142.31136866485573 C150.94640476805188,139.30235451633646 141.28209877246206,137.25072004948169 131.6063960861223,136.40733320117417 M131.6063960861223,136.40733320117417 C117.64181643609072,135.19463426908925 103.6534617403944,136.48871154929887 89.65731033810238,141.2049274138466 C75.66118310597452,145.92794359067665 61.65725916725118,154.07309835184498 47.6621936255997,166.74616281329747" />
    <path class="edge outline hidden" d="M221.21898859139128,180.29156211846635 C212.77145325171725,173.96810631911003 204.42968241115005,168.15485181913198 196.29456123038875,162.98138231934888 C188.16119047197,157.80795212750402 180.2344693733571,153.2743069358546 172.66429492084472,149.51113106748872 C164.8004760087446,145.59979930372597 157.31377671078977,142.52483703452518 150.42704698437615,140.3521784840747 C143.53440692276808,138.1730775138828 137.24173643270146,136.8962802624411 131.60639608612382,136.40733320117414 M610.8128518815738,459.8348782163573 L610.9048329552286,459.9281513931385 M131.60639608614656,136.407333201176 C152.24816627581933,138.20442281506806 172.96618913508556,141.29958353152495 193.7107207972941,145.86294275751993 C214.45323269931478,150.42283680900783 235.22225340427818,156.45092937003443 255.9114857602723,164.0203229613789 C266.7291532978039,167.97694309752885 277.51949034296587,172.3456089383098 288.25803325125827,177.12475771122902 C298.9958314920158,181.9027637232899 309.6818355959036,187.0912526674892 320.27073122745935,192.65666446730285 C330.8588821914808,198.2209335062585 341.3499246831705,204.16212540082867 351.6776936761072,210.41468277046005 C362.0047180015097,216.66609737923338 372.1684688281586,223.22887746306742 382.0819304386732,230.0054683373791 C392.2082142855195,236.91614470658294 402.09220238549835,244.07456634401393 411.58368459188495,251.2779495117077 C421.0766084217019,258.48210265648436 430.1770263579266,265.73121733152396 438.77509370988196,272.84406915719086 C447.37460268526735,279.9576909599408 455.47176107638404,286.9350499133188 462.99708964860065,293.6164809960183 C470.5238598442476,300.29868205580124 477.478800220995,306.6849552449064 483.8327970002601,312.63719490035754 C494.49236850990496,322.63848953427026 503.4965442278202,331.4655428307482 511.1998195858579,339.16582994236757 C518.9061239625842,346.87528602129987 525.3115279794326,353.457975915373 530.8553395915433,359.2181058619242" />
    <path class="edge sharp visible" d="M47.662193625599684,166.74616281329747 C42.849507338944775,166.32809779865997 38.098712914052086,165.20677850064084 33.60701735666688,163.42875028936174 C29.114555614157357,161.65265827572287 24.882394104514397,159.22033404239983 21.086208550868918,156.23274309557652 C17.28873573398489,153.24678860922577 13.928256725961546,149.70636750797397 11.144265645242047,145.75844197144852 C8.35857316983583,141.81171674311003 6.15011471083158,137.4585447335033 4.610562267346481,132.87962569718488 C3.0690364259120644,128.30137064256988 2.1968291297738753,123.49859533743061 2.030145540515985,118.67066225133584 C1.8613811018684272,113.84280145465782 2.3981855229205578,108.99107637122059 3.618276974227925,104.31688132805553 C4.83635362874737,99.64216085490254 6.7373907718729455,95.14622287176341 9.242475562957273,91.01569331985036 C11.745779881166476,86.884084423219 14.852460316037975,83.11899085500494 18.43355951884952,79.87670096048109 M18.433559518849517,79.87670096048109 C22.1296165694079,76.5272839211461 26.330656680562228,73.73650629015589 30.850910916161414,71.62777451437 M30.85091091616141,71.62777451437 C161.90825998582076,10.450713824278532 292.965609055479,-11.880964492334599 424.0229581251378,39.390042425789396 M424.0229581251378,39.390042425789396 C659.8371193399994,131.64301089238472 895.6512805548612,462.18863904433374 1131.465441769723,1233.5020057296051 M1022.0886626933469,1119.272837610949 L1022.0897019287922,1119.2748322373127 M1022.0897019287925,1119.274832237313 C1029.6855932545006,1133.8529578632613 1037.2668781430507,1147.6354150459167 1044.8385031369555,1160.4079801216528 C1052.4101119990517,1173.1789291792547 1059.9720609665046,1184.9399861299373 1067.528844891206,1195.4316788023527 C1075.0856126840986,1205.9217554566344 1082.637215434243,1215.1424678326507 1090.1876963029115,1222.789095251338 C1097.7381610397701,1230.4341066518907 1105.2875038951577,1236.5050330951199 1112.839316339725,1240.6519053942393 M1131.465441769723,1233.5020057296051 C1132.0469390764015,1235.3918705306776 1132.0474479395505,1237.454560710368 1131.466885855695,1239.3447110630311 C1130.8931058546575,1241.2369315318856 1129.7409319061658,1242.9478370678476 1128.2032794204977,1244.190956170095 C1126.670094779902,1245.4395814792956 1124.7585563768778,1246.2146426165184 1122.7887261068292,1246.386366219066 C1120.8195243276368,1246.5651527420155 1118.8011673817582,1246.139785912681 1117.0716035611993,1245.181489737986 M1117.0716035611993,1245.1814897379863 C1115.2287763220763,1244.1698984742088 1113.723667782479,1242.5590653095985 1112.8393163397252,1240.6519053942393 M1112.839316339725,1240.6519053942393 C945.4971615203419,881.7854962910891 778.155006700956,629.5126368158609 610.8128518815729,459.8348782163572 M610.8128518815729,459.83487821635725 C423.0959657962478,269.49801709123204 235.37907971092403,183.09338859287263 47.662193625599684,166.74616281329767" />
    <path class="edge outline visible" d="M62.1763688572546,50.367296547366095 C54.50493341950948,53.947028799120474 46.98725385992468,58.2179598304821 39.686339823509684,63.14606198389416 C32.38338241903228,68.07444951820158 25.297190537724823,73.66000817455958 18.433559518848597,79.87670096048112 M424.0229581251351,39.39004242578932 C418.74375113637376,37.326369949134246 412.8829712607566,35.0458786608917 406.0602784164615,32.488893074063256 C402.6458758597116,31.210140451914718 398.9880688671592,29.861869893260298 394.99690227519886,28.433726411388108 C391.0037163248903,27.005479789751277 386.67884896034667,25.49741709364986 381.8758029841947,23.8962954229608 C376.4437837156634,22.089126234458135 370.42692281669247,20.163959367953165 363.35767156113707,18.096550376379458 C359.8190903663758,17.062854943017907 356.0154278551803,15.993499814738886 351.82454513232364,14.886106381876882 C347.63019953209647,13.778769711628017 343.05186916540777,12.633326181851112 337.87045457064954,11.448986536048155 C336.0933216597731,11.041167049329568 334.251374052003,10.634332571414914 332.34461174734025,10.22848310230422 C330.4363948001202,9.82157627138507 328.45696802544114,9.412562291378686 326.36868419750255,8.999834454728298 C322.1903980595094,8.175197094037829 317.5836388762415,7.332421097750317 312.2329064223342,6.481654455445971 C309.5557179353197,6.056826786840768 306.6901388710618,5.63088147644985 303.5731634640082,5.211274064390542 C300.4549898230549,4.791908520435045 297.08733547770663,4.37861389662747 293.3757383744113,3.9853534548961465 C289.66048645599545,3.5926560378747414 285.6101544734639,3.2188523717359017 281.03445266089943,2.8928538278909204 C278.7445584919457,2.7301427104605107 276.32070253488564,2.5797701450244457 273.7149054015915,2.4486893329755057 C271.10798668570584,2.3177569550829484 268.32029303767473,2.205969274062731 265.2727090826411,2.1244020563011645 C259.943735100951,1.9822247163278943 254.37465136637385,1.9596402098994008 248.86807065755073,2.06893261102213 C243.35582635403665,2.1768539970404293 237.8991099323815,2.4139042886244204 232.64449001193867,2.754861681110108 C227.38666562476197,3.095445728759893 222.3273535661828,3.538407747065508 217.52493756295905,4.04865154722046 C212.72053279966048,4.55905540256541 208.17137132464495,5.1359784915572595 203.8809497723862,5.749150050498549 C199.58909581613477,6.362736087992737 195.5552279517693,7.012236333033649 191.74304603561168,7.679161791238131 C187.92971259025174,8.346609033844162 184.33760482548627,9.031351210219784 180.89825698743581,9.729586030620984 C177.45794668153283,10.42838124847614 174.17005132144112,11.140632504632974 170.93925426464494,11.87827363253269 C167.70757545431826,12.616470068429463 164.53301407294154,13.380117128129188 161.2959379241247,14.196778398061495 C156.14609104195742,15.497335755045517 151.2287190886035,16.835008035583023 146.47997405165628,18.203955619485402 C141.73203468958664,19.572950361095167 137.15339989383435,20.973248792693244 132.7026923777561,22.40032798915621 C123.80458244749236,25.25474579155631 115.40916042266014,28.215451448254438 107.33907498227762,31.25720994095162 C99.27197590522213,34.29930971530804 91.53768394441823,37.42277086645751 84.03682302031677,40.61167613514266 C76.53766762671862,43.80087178060857 69.26993762473491,47.055420196964064 62.17636885718913,50.36729654739656 M1117.0716035611986,1245.181489737986 C1108.5465237270844,1240.464665808293 1100.4795492924663,1233.9354134794457 1092.5948088828231,1226.0086668665529 C1084.7157683771402,1218.0755409964477 1077.0189618964291,1208.744920842297 1069.3881153770367,1198.2531213172697 C1061.4166297576771,1187.2842086513804 1053.5200336767218,1175.0568218706967 1045.6483191391544,1161.8178512250126 C1037.7775997800306,1148.5775825041094 1029.9317619642957,1134.3257299182073 1022.0886626933471,1119.2728376109487 M610.9048329552286,459.9281513931384 C612.8786334228867,461.93251797622804 615.0858655763175,464.270400354447 617.6712179128267,467.1312308698005 C620.2630877958078,470.00110902542747 623.2331105284438,473.3939928526487 626.9084659092562,477.7526486211258 C628.121939074713,479.1920113838983 629.4193096306486,480.74689389444063 630.8180826257382,482.4409861379782 C632.2173559556122,484.13581411169764 633.7180324545391,485.9698532130117 635.3516265451443,487.98739387223316 C636.9857206283924,490.0056696079172 638.7527330332184,492.2074482961092 640.6981779762604,494.65760250808296 C642.6441225698051,497.1084911428009 644.7685004314664,499.80775669590173 647.1308159919663,502.84083557550036 C648.7360366425786,504.90197301715176 650.4580726168499,507.1282787388739 652.32100281529,509.5541947777014 C654.1845797819574,511.9811292376729 656.1890491816491,514.6076707510189 658.3765994252524,517.4967771468168 C660.5647972766817,520.3869034936324 662.9360741808783,523.539591459169 665.5507515678628,527.0463575010021 C668.1660774022707,530.5541450237253 671.0248019283235,534.4160073590161 674.2054031039252,538.752062429398 C676.0365082401721,541.2550977368384 677.9446839529624,543.8670526524041 679.9781214020558,546.6665432789456 C682.0111830245593,549.4653595741154 684.168726757069,552.450304602437 686.4884206148182,555.6811131883758 C688.8081040958045,558.9119069637982 691.2891580757322,562.3871573190147 693.9689600204814,566.1661843840474 C696.6491170382955,569.9458561594189 699.5272423946335,574.0278976667851 702.6506556011991,578.4896809256653 C705.7747893306578,582.9527684157401 709.1434312840454,587.7941906795072 712.8240756140676,593.1278382099291 C716.50580591681,598.4634494924003 720.4987589698881,604.2898790637023 724.9008361621841,610.7760024741822 C729.3043647770276,617.2647491575655 734.1162379047901,624.4117827023024 739.4749967657054,632.4594303000606 C744.8355724989971,640.5103606915786 750.7422543391428,649.4604981582946 757.3844559329071,659.6440881171429 C764.5636990466296,670.6640732363318 772.969919236852,683.6953513324937 782.1872007437588,698.2336480908656 C791.402045684135,712.7645427972035 801.4279519411972,728.8024561657521 811.7807798922655,745.6358564248198 C822.1311712768028,762.4618546318547 832.8084843553477,780.0833397294109 843.2603556423546,797.58152248887 C853.7097903628313,815.0723031962973 863.9337832917703,832.4397815656279 873.311747080765,848.5579109113233 C881.3667678588508,862.4002432087152 889.0520350464537,875.7402524212944 896.4432385347259,888.6783800106357 C903.8337017593592,901.6154823067716 910.9297126385164,914.1501102922886 917.786233681459,926.3539972189974 C931.4954067887811,950.7568033741385 944.2585998363231,973.8513909349435 956.3453394181428,995.9869243363122 C968.4289793200708,1018.1193885125388 979.8237290795382,1039.2738325330254 990.7123242536217,1059.7134825286582 C1001.603649440034,1080.1589536099134 1011.9763833643234,1099.8706646700125 1022.089701928794,1119.2748322373131" />
  </g>
</svg>
