<?xml version='1.0' ?>
<svg xmlns="http://www.w3.org/2000/svg" xmlns:xlink="http://www.w3.org/1999/xlink" version="1.1" width="1163.9023944886658" height="1289.692960070697">
  <style type="text/css">.edge {
  fill: None;
}
.edge.visible {
  stroke: #000000;
}
.edge.hidden {
  stroke: #C8C8FF;
}
</style>
  <g>
    <path class="edge sharp hidden" d="M254.90427401261877,208.73857086262905 C250.79529594925563,208.3792301583781 246.73141643312158,207.50835730303731 242.83601246783914,206.15239041520303 C238.94024377773184,204.79747122886937 235.213504437621,202.957651605837 231.76893268748933,200.6887865267177 M231.76893268748933,200.68878652671768 C228.07441095851502,198.25687427737725 224.70528848799657,195.3315556595579 221.77903233261026,192.01482303411217 C218.85167744754526,188.69906009178789 216.36774046007926,184.99250793736874 214.41382490166473,181.0243973328936 C212.4585947662011,177.05693429509716 211.0337541361437,172.82866041445325 210.1889801346656,168.48699653722764 C209.3427677859256,164.14561277223686 209.0767813407011,159.69165697874382 209.40029503987088,155.28041829956575 C209.72234723535976,150.86907268355492 210.6338389485975,146.5012752792887 212.10299090775231,142.32931140195797 C213.57076054236643,138.15686101544438 215.5959136761252,134.1810302658424 218.10784135595986,130.54043849734626 C220.61856281107399,126.8990146973692 223.61558529491046,123.59351589436194 226.99441725863568,120.73918967190298 C230.37230314482463,117.88374419504919 234.13136382707506,115.4800090194081 238.14053545620027,113.61179183309264 M238.14053545620027,113.61179183309264 C488.3925428115864,-3.0525712917908123 738.6445501669734,374.6237124228422 988.8965575223583,982.700684740674 M988.8965575223583,982.700684740674 C1003.3654931826254,1014.6369111268981 1017.876827000126,1045.759041984447 1032.2676165490186,1075.3125004513056 C1046.665371644932,1104.8560580776525 1060.9425824722387,1132.8309433133086 1075.1313419216845,1158.2053557619406 C1089.3270669181522,1183.5698673700613 1103.4343405367592,1206.33390619116 1117.6802909848425,1225.1884482945834 C1131.9332069799457,1244.0330895574964 1146.3247998045258,1258.9682341027349 1161.277232982502,1268.4076344653329 M988.8965575223583,982.700684740674 C989.4208251764387,983.9728998499874 989.7028114848963,985.3442660261356 989.723051039409,986.7201197689252 C989.744569908691,988.0959543194834 989.5043275675056,989.475245297365 989.0189071719952,990.7627832196117 C988.5346840523677,992.050771870011 987.8056466019574,993.246039713689 986.8821184505773,994.2660795763112 C985.9595390928562,995.286977684691 984.8431624338086,996.1318817763016 983.6100498588546,996.7424709335643 C982.3775054831395,997.3542062549006 981.0291509871738,997.7311676880646 979.6580597752618,997.847333550544 C978.2870771825943,997.9647741667433 976.8943873676651,997.8213311410462 975.5761248801953,997.4269064875685 C974.257496231824,997.0337076202057 973.0142853449679,996.3898235662281 971.9323082329763,995.5397004566896 C970.8495412873403,994.6905839143039 969.9288200319013,993.6358641235416 969.2337004017272,992.4483471522002 M969.2337004017272,992.4483471522001 C811.8798754369964,723.9172900997049 654.5260504722675,477.1500349404896 497.17222550753706,334.63464216764464 M497.172225507537,334.6346421676446 C416.41624167589714,261.4939304175278 335.6602578442587,215.81183433812458 254.90427401261877,208.73857086262882 M254.90427401261877,208.73857086262905 C246.99479285377993,203.38828765838554 239.09737080851554,198.45631378029123 231.1838146133154,193.97510066163662 C223.27074440981545,189.49585362151447 215.34154005637916,185.46736734083146 207.38161605709678,181.97714345178096 C199.42217804951426,178.48888564126267 191.4320203960848,175.5388902223763 183.4101653684966,173.26970902621636 C175.38879633260854,171.00249390858866 167.3357299225615,169.41609301368734 159.26359617764246,168.70810837150833 M159.26359617764248,168.70810837150833 C151.78810352989677,168.05405170925204 144.296424317792,168.15411750912642 136.8090019415807,169.20739098052675 C129.32193710860741,170.26211089244222 121.83912911152781,172.2700384758838 114.39103256126316,175.4707592746749 C106.94329355423679,178.67292651398137 99.53026599402543,183.0678869686378 92.19241570222016,188.93572651689675 C84.85492295365302,194.80501250567127 77.59260747349197,202.14717758804838 70.45594629399693,211.2828079767102" />
    <path class="edge outline hidden" d="M231.76893268748972,200.6887865267177 C224.51090992527935,195.91010321934564 217.39078729894072,191.57863176661326 210.50399281922572,187.75584164073197 C203.61971746736765,183.93376598096 196.96877026213326,180.6203716480396 190.71711479425414,177.89713316523995 C184.23946529202468,175.07163590438532 178.18349663231035,172.8805949790187 172.84316525539361,171.37082024459968 C167.50285183861635,169.85381982959575 162.8781757046366,169.0180856055394 159.26359617764135,168.7081083715083 M637.7298927900283,501.5324383685277 Q638.0009976562202,501.8033705055375 638.3176059783734,502.12670365999855 M159.26359617760863,168.7081083715053 C178.61445434350026,170.40144829356092 197.82064417995383,173.27069044018398 216.79759434875177,177.34681525507196 C236.48632119237996,181.58275506967846 255.93269525173272,187.09913394904981 275.0040682451682,193.84733869907885 C294.07197937072715,200.58777614218826 312.7648894303691,208.56003945595552 330.8532178419004,217.49803085253245 C348.93808438555465,226.42825494218977 366.4183692810985,236.32420711465744 382.96755964578415,246.70230498834601 C399.51328814259307,257.0726355551152 415.12792210854377,267.9251118231062 429.38801636033713,278.5586668169894 C436.3150954257725,283.7180711352384 442.93565647587354,288.8317426206404 449.22980532726814,293.8305845325608 C455.5245831775262,298.8301871568679 461.4929488290784,303.7149602076943 467.1326200667268,308.4371068912368 C472.77292030323844,313.16001428716606 478.08452612584745,317.7202953158122 483.0827672875295,322.0914531302049 C488.08163744807433,326.46337165698407 492.7671429476941,330.6461669695103 497.1722255075374,334.6346421676446" />
    <path class="edge sharp visible" d="M70.45594629399693,211.28280797671022 C63.18025222149961,210.64716124465528 55.99943882251554,208.93982521261725 49.21624764004219,206.23278073451831 C42.43186268348451,203.528729524988 36.04697554699775,199.82571813833474 30.330771664904983,195.27986464740658 C24.612562552482338,190.73653378376386 19.564617344225546,185.3516172066731 15.399756328604768,179.3521418303675 C11.232248543806723,173.35450472097125 7.94897680782894,166.74396731078335 5.6883631578782206,159.79922850514643 C3.424685469579327,152.85548783125859 2.184291287704255,145.57946565187225 2.0194753461045805,138.27791739251757 C1.8514377272241351,130.97644257133544 2.7590243616237893,123.65146033865311 4.7039716101021,116.61179044567447 C6.645812523952637,109.57126305688288 9.624476758150218,102.81799446713772 13.51438445977914,96.63670100537365 C17.40156438408927,90.45369178630995 22.198912678612366,84.84436682294222 27.704174175561274,80.04521397517033 M27.704174175561274,80.04521397517033 C32.9971544327502,75.42722881135728 38.94324390000109,71.5593771267439 45.31033845936963,68.59263943240558 M45.31033845936963,68.59263943240558 C160.4314362766956,14.924620138467047 275.5525340940209,-10.12253657931242 390.67363191134615,17.861187049181158 M390.6736319113461,17.861187049181158 C647.541498935064,80.30082266869648 904.4093659587847,406.7615063449196 1161.277232982502,1268.4076344653329 M969.2337004017272,992.4483471522001 C981.8644814330977,1021.8269984431811 994.5380706746528,1050.5165766628754 1007.1209339328439,1077.9416361723659 C1019.7087584174243,1105.3596656038796 1032.205856918642,1131.5131763251907 1044.6176095818564,1155.6298805140673 M1044.6176095818564,1155.629880514067 L1044.6176867345139,1155.630030374012 M1044.6176867345137,1155.6300303740122 C1051.9331897003212,1169.838525722953 1059.2222444885524,1183.335272131094 1066.5085375649155,1195.9302504544132 C1073.7954287983187,1208.524381186771 1081.0795583198526,1220.2167438343092 1088.4013609923713,1230.7935867061149 C1095.7237618219317,1241.3695819869613 1103.083835802475,1250.830057492077 1110.5387661940053,1258.9375289836694 C1117.994294742575,1267.0441528843014 1125.5446797021316,1273.7977727714092 1133.2638527298195,1278.9371718603127 M1161.277232982502,1268.4076344653329 C1161.7157024912146,1269.8770820435955 1161.926633683858,1271.4140931507504 1161.9002373102155,1272.9473364740459 C1161.8746230127215,1274.4805930519663 1161.611690070917,1276.0095670258556 1161.123640971188,1277.4633000496647 C1160.6363334279747,1278.9172818216302 1159.9240733918596,1280.2955345877028 1159.0199161781447,1281.5340948482205 C1158.1163908306407,1282.7731161238391 1157.0212717591423,1283.8720290034164 1155.7853825654342,1284.7798338628827 C1154.549956567457,1285.68826898785 1153.1741752809437,1286.4052912239993 1151.7218874809005,1286.897624211233 C1150.2698509916322,1287.3906978931402 1148.7417954791415,1287.658916926036 1147.2086366559406,1287.6898334986447 C1145.67549380417,1287.7215320751409 1144.1377623562603,1287.51591767406 1142.6668071725094,1287.082532657713 C1141.1956311211693,1286.6498979801859 1139.7917252043317,1285.9896380534813 1138.520243382417,1285.1323950040614 M1138.520243382417,1285.1323950040614 C1136.2429667317585,1283.6026032925354 1134.4023165947597,1281.4331990538421 1133.2638527298195,1278.937171860313 M1133.2638527298195,1278.937171860313 C968.0858660832215,918.157158294775 802.9078794366264,668.4537123436687 637.7298927900292,501.5324383685276 M637.7298927900292,501.5324383685276 C448.6385772913519,310.44545443400875 259.5472617926754,227.84495770221736 70.45594629399687,211.28280797671033" />
    <path class="edge outline visible" d="M69.55124254216662,52.46770227092509 C62.19807057670481,55.894430088655895 54.988782360928546,59.94130236035444 47.99916741080153,64.55489781805298 C41.00758608332709,69.16858300136407 34.23567802150191,74.34899137067528 27.704174175561093,80.04521397517033 M390.67363191134336,17.861187049181126 C386.33947861554657,16.8090077295012 381.70730358983,15.707639496753725 376.61694446360104,14.559455493216928 C371.5242061428218,13.411457777864404 365.9924301603812,12.213867528025707 359.76565880892576,10.978845802105822 C356.65027844440135,10.36157289223437 353.35825893036974,9.735277812110322 349.8364820471484,9.10399962258951 C346.3135720464125,8.472868983828938 342.56276097035743,7.836489766113586 338.5001976795772,7.202884157305112 C334.43515225205965,6.569622163361325 330.06228665859817,5.938557779532434 325.2297277268988,5.327112872480617 C320.3921743597828,4.7163820324473456 315.10174727398004,4.124261143955729 309.06869032636405,3.587871169646178 C305.3800717611716,3.2640601109481273 301.51481951610236,2.964839126749612 297.2265066098855,2.710201090410287 C292.9388790759175,2.4562428580969464 288.25165807599336,2.240508826381468 282.8982636432914,2.111827347525265 C280.2203327829446,2.0480792823356024 277.3739649529254,2.007068866386604 274.31348593300424,2.000800685346574 C271.252272024618,1.9947977560476724 267.97841263717726,2.0231418980688884 264.4266042369851,2.1050229785811325 C260.8729066775736,2.1874735290844622 257.04475432304446,2.322549326674987 252.82541551323845,2.5450119952432466 C248.60187744386442,2.7686422844674032 243.99355016966854,3.078010169443733 238.76811186236228,3.540065613615298 C235.889698357342,3.7956589985635674 232.7930651123897,4.102520727378422 229.59239252362948,4.461352948331212 C226.3907028809833,4.819927122064924 223.0847483157035,5.230191718040204 219.76022809396707,5.68565008313478 C216.43479798364902,6.140971245581839 213.0905705570682,6.641250643539261 209.7877645789788,7.1761764704948 C206.48415872807178,7.71106506298965 203.2217365848699,8.280409087161113 200.0383168540946,8.872880692337995 C193.6660252735424,10.058583465957096 187.62868070215444,11.332972013365826 182.00894739271035,12.625523314151003 C176.38198470791374,13.92016928559372 171.1644418057982,15.231141579718857 166.2363286763648,16.548265281923477 C160.76874885263393,18.011272359681232 155.6610173924509,19.477782739964407 150.79574416651718,20.949865689216864 C145.9321892928803,22.421869733842108 141.3127265024906,23.899339332314387 136.86785324553787,25.382148882322205 C127.98420163452067,28.34767536313867 119.78406056313239,31.33437128919599 112.00968388203839,34.33308158641995 C104.23975090800272,37.3320610008948 96.9113854759886,40.341961570076364 89.87678300564224,43.362088994507545 C82.84491651751253,46.38263372086597 76.09829613198166,49.413866264314656 69.55124254211023,52.46770227095203 M1138.520243382416,1285.1323950040617 C1129.614460654124,1279.1215905301303 1121.3496421384375,1271.650215511152 1113.3997625765394,1263.0288376634255 C1105.4550112567454,1254.4024466600886 1097.8251988907414,1244.6260528280027 1090.3278909986068,1233.8698555263236 C1082.5410734256884,1222.6903686278831 1074.9005509149472,1210.4591196015333 1067.3060264819592,1197.3597706960206 C1059.7133555699402,1184.260060304163 1052.1666827356737,1170.2922500331392 1044.6176095818555,1155.629880514067 M638.3176059783734,502.1267036599986 C639.3459757494281,503.17745968786596 640.721507560716,504.62805278520295 642.4408620437505,506.5008031676421 C644.1628788244517,508.37721229813985 646.2287182768987,510.6757787137392 648.7095853672666,513.5212675757065 C651.1931147552997,516.3704151857313 654.0916717812545,519.7664852421246 657.5510057459614,523.9366878517818 C661.0130020083355,528.1105492094979 665.0357752094637,533.0585431204787 669.8396189848409,539.1103246372551 C671.8347802210048,541.6259133143479 673.9814937439161,544.3588714054921 676.3053882000008,547.3470959521856 C678.6301897849637,550.3367714676868 681.1321723031002,553.5817134387383 683.8623640094152,557.1604460334761 C686.5934628446072,560.7406295970222 689.5527708679786,564.6546037842563 692.8167159431079,569.0215198899534 C696.0815681471155,573.3898869644594 699.6510574028828,578.2111959574302 703.627011182567,583.645225290281 C705.6008931843467,586.3509644097044 707.6404205965691,589.1513943192072 709.796904069402,592.1309487826142 C711.9528298519576,595.1095384651449 714.2247518031442,598.265568630459 716.6483652453894,601.6564591778458 C719.071870946724,605.0471743526941 721.6461082471402,608.6710658384955 724.4037557235608,612.5806431034498 C727.1617454084363,616.4908344042028 730.1021853773376,620.6850274129888 733.267336043913,625.2329246003626 C736.4332788683087,629.7822252318729 739.8229724983971,634.6835459708489 743.5008577667807,640.0458857236466 C747.1799851423491,645.4104183289168 751.1463442642308,651.234285876886 755.4991549662069,657.6878871431487 C759.8536577247337,664.1444706702223 764.5936521713725,671.2291038444667 769.865735723315,679.1956887441651 C775.139961281173,687.1660453130094 780.9453160523518,696.0166695361851 787.4883736196789,706.1070702280983 C794.0855806843738,716.3003841965359 801.7866587991336,728.2940403610714 810.2908091849367,741.7592329682896 C818.7904396867243,755.213964213274 828.093142459555,770.1402319009401 837.7715619719999,785.9163121353521 C847.445461600431,801.6819310075314 857.4950779684773,818.297362426455 867.3664987923116,834.8479643536753 C877.2333997321313,851.3881049186613 886.9221051277391,867.8634159919415 895.7521459429045,883.0663373925472 C903.847772814566,896.9981670502455 911.5423422240883,910.3809656376411 918.9294947041308,923.345189306317 C926.3156635198283,936.3079856765145 933.3939011103066,948.8514052720473 940.2303054065592,961.0659398870964 C947.0659671145926,973.2794230736392 953.6592812326646,985.1632194237566 960.0555532216414,996.7783807334617 C966.4513236985271,1008.392866484635 972.6495377505807,1019.7379153394523 978.681458500094,1030.8556634550073 C990.7444828908978,1053.0908429988992 1002.1419315711071,1074.4125755898274 1013.0593534818329,1095.09303794962 C1018.5182987527553,1105.4341131058354 1023.8568075889334,1115.6151047893002 1029.1045168861763,1125.6845483957463 C1034.3526889758307,1135.7548199235487 1039.5095472308126,1145.712741518388 1044.6176867345139,1155.630030374012" />
  </g>
</svg>
