<?xml version='1.0' ?>
<svg xmlns="http://www.w3.org/2000/svg" xmlns:xlink="http://www.w3.org/1999/xlink" version="1.1" width="895.5203747994901" height="746.1610031802179">
  <style type="text/css">.edge {
  fill: None;
}
.edge.visible {
  stroke: #000000;
}
.edge.hidden {
  stroke: #C8C8FF;
}
</style>
  <g>
    <path class="edge sharp hidden" d="M8.083761279676764,379.4094679506792 C15.893994952998186,389.8388233983272 22.88631670000396,400.9451506232769 29.491737772200977,412.9623828086296 C36.09462636185317,424.9733873971631 42.31061427669661,437.8952969461005 48.49980325698208,451.7876719276026 C54.68645975472265,465.67381931228556 60.846317317905246,480.53043212953366 67.26856817552424,496.2426981405678 C73.68828655059836,511.9487365547823 80.37039822010895,528.5104281627838 87.53318590179416,545.6385880148492 C94.6934411009345,562.7605202700959 102.33437231224946,580.4489207694089 110.603352742221,598.2402318521255 C118.86980068964772,616.0253153380229 127.76429785573082,633.9133094073247 137.36330793569647,651.2662836884296 C146.9597855331171,668.6130303727143 157.26077604441986,685.4247572688016 168.27183365357473,700.8891612941485 C179.28035878018446,716.3473377226758 190.99895100464605,730.4581912804625 203.3622549996726,742.2350461740251 M405.2161327679492,398.2351068941359 C429.3511283938429,392.7542014112129 453.4861240197369,385.407147112692 477.62111964563036,376.2537204960944 M477.6211196456304,376.25372049609445 C610.4266325579066,325.88596673450246 743.2321454701822,220.82354033473473 876.0376583824582,71.02593134468478 M876.0376583824582,71.0259313446848 C867.5038191327138,67.58877898362448 858.0080159646157,63.947013223723815 847.9143533655558,60.41453325597916 C837.8197066847567,56.877260472662776 827.1272005729955,53.449273481502395 816.1733852289706,50.310272637484104 C805.2185858032063,47.16647897789406 794.0024771451782,44.311671465446004 782.8340551648902,41.79135161911563 C771.6646491028627,39.266238957213424 760.5429297185765,37.07561396142882 749.7503386333402,35.13077931472692 C738.9567634663642,33.18115185245317 728.492316598441,31.47731473926213 718.610885362183,29.796371822108323 C708.7284700441872,28.110636089382695 699.4290703578579,26.44779455269431 690.9390193471199,24.450752222987322 C682.4479842546415,22.448917077708472 674.7662978377551,20.112881139410963 668.092738851687,16.951350583028518 C661.4181957838802,13.785027211074159 655.751780146893,9.793209221034799 651.2647164072605,4.35040395183364 M876.0376583824582,71.0259313446848 C877.3638623591858,69.52441754229696 879.152764919811,68.43966232626852 881.0973014033897,67.95786062563897 C883.0400295698762,67.46881754145483 885.128893812171,67.58510148529143 887.005336813521,68.28675368015786 M363.53467173075524,592.5671072831082 C288.7604579504991,598.8627604254399 213.9862441702441,574.630965967806 139.21203038998857,516.569079722589 M139.21203038998848,516.5690797225886 C95.50260735321754,482.62888269606736 51.79318431644767,437.1289044896262 8.083761279676764,379.4094679506792" />
    <path class="edge outline hidden" d="M477.62111964563064,376.2537204960944 C472.92112686421217,378.03364717400115 468.88948609259654,379.5419339252693 465.38020854165984,380.8514734151379 C461.87164252461423,382.1604594425902 458.88543404796025,383.27069600480615 456.29551388899034,384.239577507013 C453.7063092578641,385.20790709637714 451.5133815838468,386.03487721805703 449.6106930413218,386.7624274053269 C447.70872668322824,387.48942826237584 446.0969824157616,388.11700257350105 444.68964019485213,388.67170731345 C441.6510430280112,389.86967062028714 439.5436173459454,390.7499545374276 437.8109089185185,391.5051016301432 C436.087636390918,392.25760324281833 434.7395928061158,392.8850519715121 433.47440086812765,393.5057989443212 C432.02994198246574,394.2164918446662 430.6914247836084,394.9192422484096 429.2425795433456,395.7391659094944 C428.14375761437805,396.3619983851092 426.9879330279786,397.046077963833 425.73208203241455,397.8332816097304 C424.47721737841897,398.61992330942047 423.12333430245656,399.50910258279646 421.6548331265926,400.5271198607958 C418.72149204887404,402.560655808233 415.320199779147,405.11703346146675 411.4975669158981,408.3006817804031 C407.67976029231494,411.4789634759675 403.44167557441983,415.29121333164994 398.9526747030027,419.70170433571394 C396.7098233248449,421.9045559421348 394.4063822598987,424.25364341796615 392.0827034314509,426.71710692694376 C389.7599175608516,429.17941984274404 387.4159523457542,431.757113878581 385.115969039094,434.38627054989996 C382.59790808534217,437.2633110150278 380.132755800936,440.1980363229395 377.87684142744433,442.9950855509969 C375.6243351365411,445.7855592071303 373.5811793627571,448.4381998908696 371.9990432654569,450.5737267916596 C370.0841127917708,453.15075139968735 368.8569289269337,454.9700744871847 368.85795703322304,454.97526272794425 M424.2293292318436,508.04802288447866 C418.84542877424315,516.2806421701276 413.8030473200396,523.3715289032175 409.06225870940597,529.5723568604203 C404.3211155138014,535.7718519918913 399.88156419670884,541.081289902593 395.6937491556839,545.7150269623153 C391.5055805931131,550.3474294826793 387.56914466283615,554.3041370237198 383.82468503226767,557.7621422804427 C380.07987461777435,561.2188085863444 376.5270323946906,564.1767856738147 373.09657689026926,566.7755807557479 C368.94326843500255,569.9194356031905 364.97149322418534,572.5363060548224 361.0474072324298,574.7957005299909 C357.12296608769293,577.0524482075284 353.245527296423,578.9512210974179 349.27027343683227,580.5873063198113 C346.6901624788521,581.6479562106384 344.0608134429145,582.5937865755129 341.34348985949515,583.4376480682541 C338.6254753796238,584.2809483498055 335.8195400139917,585.0222986414514 332.8675817783818,585.6588270675367 C329.91491417083347,586.2947885137725 326.8162493644278,586.8259339399589 323.4936100386899,587.2335091244627 C320.1702530373586,587.6405169999608 316.6229317786072,587.9239503074512 312.75356859539164,588.0491649689402 C308.8735119935512,588.1719194229074 304.65508739369335,588.1295841789192 299.913667089843,587.8440433391872 C295.16299310349996,587.5538558835891 289.88889808047196,587.020064658336 283.6473144932935,586.0337858782739 C280.9023253577266,585.5978751411014 277.9559573939241,585.0640865410024 274.7360234052859,584.4004713310535 C271.5125304706377,583.7345465094203 268.0117016198449,582.9352413698806 264.0733166123779,581.914648465294 C262.1030864479419,581.4037370287344 260.0222755418398,580.836879609657 257.7983323349565,580.195407012804 C255.57373373112097,579.5534973452919 253.20679969083926,578.8375473542177 250.64680913662286,578.016786067107 C248.08571817708338,577.195264633431 245.33267254330767,576.2697355089641 242.306321429641,575.1882798522695 C239.2782819354047,574.105633732826 235.9783438176156,572.86809349388 232.27806326013797,571.3905436055475 C228.28111426619404,569.7934300034601 223.93207078340447,567.9563393770795 218.8073073561869,565.6262814918331 C213.67918652666054,563.2868024217706 207.78104581768213,560.4540326371648 200.58040536644515,556.6436801710861 C196.97947913200653,554.7357019899622 193.04942394871097,552.577527229173 188.72585293203153,550.0818318776709 C184.4036087795724,547.5861835532354 179.68465092691122,544.7506053310998 174.5406121795203,541.4875753470347 C169.39989937417718,538.2264399094212 163.82875394496588,534.5323339108337 157.89050239267024,530.3685940800515 C151.95870362744088,526.2103192044983 145.6517890656254,521.5726501950231 139.2120303899892,516.5690797225888" />
    <path class="edge sharp visible" d="M8.083761279676764,379.4094679506792 L7.982211555486288,379.2745818935322 M7.9822115554862885,379.2745818935321 C5.919842812780394,376.52114537516974 4.33732750373398,373.40970024528633 3.3267555086771035,370.1213082098651 C2.3138227466075465,366.83364261223903 1.8733703196178413,363.3707757875457 2.031029189113877,359.9342191990542 C2.1862206203885526,356.49755030247104 2.939440331034879,353.08901606061977 4.246856813844548,349.90696640395333 C5.551988297244991,346.72397886057394 7.410623044233821,343.76916548034455 9.714603155646495,341.21447311866314 C12.016748442868886,338.6581271928497 14.763016465139506,336.5032589367223 17.793596061053854,334.87526470838213 C20.823005999249737,333.24509499045683 24.13511890775276,332.1426641865637 27.537195826907407,331.63212514488697 C30.938905312201445,331.11914359306286 34.42877282154651,331.19832545700234 37.80371565015963,331.86506286850175 C41.179136332301525,332.52937693449826 44.43784038149363,333.78089336165874 47.390196822910184,335.5467837748811 M47.390196822910184,335.54678377488113 C54.51482824878545,345.3808249366021 60.72137507848153,356.03999872702565 66.24089314954466,367.77270068018095 C71.76159765448136,379.4993755146804 76.59527340078513,392.29957851191176 81.00619637446312,406.25294588353194 C85.41830578201473,420.2002861364961 89.4076624169407,435.3007907638489 93.27176241370927,451.4653366548748 C97.13704884435147,467.6238554272439 100.87707863683649,484.84641546328623 104.82256807409357,502.87513432991113 C108.76924394522428,520.8978260778799 112.92137946112723,539.7266766564322 117.64291105319296,558.9350443101047 C122.36562907913236,578.1373848451209 127.65774318123447,597.7192424552582 133.9164099393513,617.0852160626799 C140.17626313134153,636.4451625514453 147.40266897934657,655.589225037496 156.0260042116788,673.7532431206225 C164.65052587788472,691.9112340850929 174.6719769284182,709.08918064664 186.55395424005292,724.3541630826809 M203.3622549996726,742.2350461740251 C202.17145338348567,742.9863423871452 200.8526372905685,743.5339303114223 199.47989878898395,743.8470457968427 C198.10737368573874,744.1610958365386 196.6816039101415,744.2405192707638 195.28268968250788,744.0808540015948 C193.88366709663578,743.9221411121462 192.51219184662213,743.5244179546404 191.24531414688607,742.9100285470067 C189.9780184572745,742.2965017658948 188.81594656944236,741.4666123467953 187.82438372195446,740.4669841022636 M187.82438372195446,740.4669841022636 C186.79215206683793,739.427860287065 185.94516449915622,738.2054588919286 185.33484560411028,736.8739968144193 C184.72350753316175,735.5430023898308 184.34919173843227,734.103717418167 184.2346244142015,732.6435272412909 C184.11893924064947,731.1834251925814 184.26306886035613,729.703263058063 184.65826234934354,728.2929079203514 C185.05237588305138,726.8822507247896 185.69732587097695,725.5422158853704 186.5539542400529,724.354163082681 M47.390196822910184,335.54678377488113 C166.6655088045903,406.8306941610192 285.940820786269,425.3217789429331 405.2161327679492,398.23510689413587 M186.55395424005292,724.354163082681 C247.38641411747858,639.917859762882 308.2188739949051,548.990404892507 369.05133387233127,454.678166076269 M369.0513338723312,454.678166076269 C463.1224613839747,308.83401212511393 557.1935888956169,154.89567749453963 651.2647164072605,4.35040395183367 M887.005336813521,68.28675368015786 C888.3577324120052,68.78848951585515 889.5984662107667,69.58780715589728 890.6143972270885,70.61181738084298 C891.6317796466434,71.6343856110048 892.4230119436247,72.88029104460117 892.9159418758226,74.23592141904876 C893.410794138344,75.59085124454674 893.6066899012942,77.05370985977598 893.4857666328548,78.49109953515698 C893.3668824009139,79.92865911072029 892.9313368601773,81.33884664798501 892.2188466414163,82.59306870337775 M892.2188466414163,82.59306870337775 C882.9559557339342,78.41679120851326 872.9134059019963,74.1895442298032 862.3814243406727,70.16942213192141 C851.8490521524081,66.1449430508461 840.827248234759,62.32758885059909 829.5953022284713,58.85345836643642 C818.3629655952437,55.37497089908033 806.9204868733804,52.23970714780859 795.5362181493081,49.46177041845997 C784.1515587982965,46.67947670591782 772.8251094450768,44.25451001529878 761.8142846217586,42.07897812302381 C750.8030691715002,39.89908924755536 740.1074782511434,37.968635170431035 729.9739888384765,36.05772813865431 C719.8401087988702,34.14246412368412 710.2683302669535,32.24674715406151 701.4941926661966,30.018693947372444 C692.719664438499,27.78628375748989 684.7427771419609,25.22153733054085 677.788132645731,21.850575854693684 C670.8330975225606,18.475257395653035 664.9003051996986,14.2937238877143 660.2034199919726,8.710100989628131 M651.2647164072605,4.350403951833641 C651.6777646436734,3.6880688269280135 652.2487681706497,3.1252713066707543 652.9170118119266,2.7218535518123015 C653.5845316218158,2.317239039971554 654.3480796745656,2.07273686354865 655.1264668125332,2.0143461713120017 C655.9047480923354,1.9545609108450746 656.6964556510853,2.080994435668818 657.4174068038479,2.380202267935795 C658.1388928787233,2.678117916604098 658.7883135940544,3.1482658376386876 659.2966151773106,3.740655397417755 M659.2966151773105,3.7406553974177545 C659.8729808420691,4.409408983061423 660.2663713737284,5.233726335909066 660.4237358004971,6.102440971311497 C660.5833363144241,6.970747466220593 660.5064413809796,7.880879723078708 660.2034199919726,8.710100989628131 M892.2188466414163,82.59306870337775 C715.9907883378642,393.3266181690247 539.7627300343091,577.7294958535018 363.53467173075524,592.5671072831082 M660.2034199919726,8.710100989628131 C581.5453897385948,224.82126296955897 502.88735948521924,387.7703103254451 424.2293292318414,508.04802288447877 M424.2293292318414,508.04802288447877 C350.60697115445225,620.6255791012562 276.98461307706094,695.820532033105 203.36225499967253,742.235046174025" />
    <path class="edge outline visible" d="M7.982211555486174,379.2745818935321 C13.327411204055597,386.4182416258468 18.276621166773722,394.06141682523094 23.054291486625253,402.4492445806988 C27.82850504133366,410.8310425626888 32.43298220304357,419.9580028285461 36.997370641470596,429.90699049300156 C41.42910861270445,439.56398060230555 45.85067998004195,449.99732644884364 50.33984196999923,461.1545805606595 C54.82994094082924,472.3096561307355 59.393548329581336,484.18804419465766 64.13107987666311,496.67585008082597 C68.86796760934628,509.16184157962505 73.77968622165574,522.2563269389759 78.94623355144299,535.7946658063784 C84.11243847808373,549.3315094417474 89.53135916967194,563.3118028096162 95.27220092770813,577.5296014223592 C101.0139504315393,591.7457812829301 107.07447977563989,606.2004311753727 113.54839174667046,620.6433491094223 C120.02447688129332,635.0836844192472 126.91176654319833,649.5154694966302 134.3668785536784,663.6177616275477 C141.82451094557015,677.7152692338323 149.8507421130981,691.4895309349608 158.675112862276,704.4877152780952 C167.5004995418729,717.4772774913928 177.1297481570686,729.7009230797709 187.8243837219543,740.4669841022637 M368.8579570332222,454.9752627279443 L368.8699265473806,454.95712318278703 L368.9142819257004,454.8894500533428 L368.99213379061166,454.7697452043893 L369.05133387233036,454.6781660762691 M887.0053368135204,68.28675368015791 C877.7502353731986,64.84311855742065 867.5713388060242,61.139789970895414 856.8409728141435,57.53892441394959 C846.1091863377573,53.9323911400786 834.8244967793565,50.427889467432266 823.3194543994763,47.228888502082704 C811.8136646396034,44.02441706044428 800.0860836767786,41.12503677888844 788.4483313808464,38.58106080061983 C776.8105077620371,36.03179791098566 765.2610665550409,33.83756624599241 754.1096249628065,31.90067149044172 C743.3966258260881,30.03785783452157 733.0435966333713,28.413957474850356 723.3216399015787,26.807071502979625 C713.5990489204469,25.197481792919245 704.5015910530622,23.60916647753346 696.2938155121385,21.720602508287897 C688.0838572580999,19.830439203076473 680.7760985145691,17.6334016550005 674.5847480657794,14.77414043694364 C671.4870606670229,13.34395491507266 668.666219984013,11.749019750109305 666.1234966919908,9.93383396364144 C663.5795431809798,8.117347106838219 661.3149217327599,6.083268386232393 659.2966151773098,3.740655397417811" />
  </g>
</svg>
