# Exported by Open CASCADE Technology [dev.opencascade.org]
#  Vertices: 172
#     Faces: 270
g SOLID
v 686.756104 -4.187973 541.978027
v 686.911377 -8.001282 541.978027
v 690.684265 -8.576460 541.978027
v 704.580200 30.266499 916.646973
v 706.249023 32.065788 916.646973
v 690.020020 0.951843 635.724182
v 690.542847 -0.509284 635.724182
v 691.753723 -1.479819 635.724182
v 694.211609 12.090776 729.385864
v 692.902405 -1.704383 635.724182
v 694.921326 2.995619 682.564392
v 699.435425 23.008801 822.999573
v 702.131836 27.988880 869.812195
v 691.978577 1.096791 659.146912
v 692.639160 0.726572 659.146912
v 694.007568 5.797150 705.977112
v 694.586670 8.652233 729.385864
v 697.027954 19.386314 799.596924
v 698.444702 22.363001 822.999573
v 699.205261 22.937117 822.999573
v 694.652161 13.444468 752.791321
v 695.912903 14.977173 776.194641
v 696.977478 19.266577 799.596924
v 696.860962 18.761589 799.596924
v 698.097717 21.475487 822.999573
v 698.267273 20.537766 822.999573
v 698.342346 16.751158 799.596924
v 698.903015 19.827915 822.999573
v 699.714294 24.877850 846.404053
v 703.983826 30.264471 893.225769
v 701.737061 27.855824 869.812195
v 702.562561 29.199421 893.225769
v 693.742981 4.431148 694.271301
v 694.312439 10.947506 741.088928
v 700.401733 26.105064 858.107544
v 699.514893 24.476978 846.404053
v 699.432251 24.036970 846.404053
v 700.263489 24.652807 858.107544
v 698.936523 21.863401 834.701477
v 704.229675 31.199539 904.935303
v 692.226624 5.102788 688.417969
v 693.209900 7.457905 711.829651
v 693.598328 8.920335 723.533997
v 693.159485 9.484145 717.681946
v 693.903809 11.549711 735.237488
v 698.569458 22.690819 828.850403
v 698.523987 22.581450 828.850403
v 698.420166 22.120642 828.850403
v 699.087158 23.402452 840.552673
v 700.617004 26.422121 863.959717
v 703.914001 30.847252 910.790833
v 693.305237 3.547423 685.491211
v 692.821045 8.666593 708.903442
v 693.024353 6.739109 705.977112
v 693.450623 6.199916 705.977112
v 693.534912 10.570204 726.459961
v 693.663330 10.934762 729.385864
v 693.802063 9.662854 729.385864
v 693.928711 9.980695 732.311707
v 698.432251 20.870234 825.924988
v 701.252380 27.361244 866.885925
v 704.911987 31.937101 913.718811
v 692.822571 6.318532 701.587585
vn -0.796867 0.604154 -0.000982
vn -0.742773 -0.664862 0.079040
vn 0.512272 -0.858255 0.031254
vn -0.801877 -0.585900 0.117104
vn 0.524767 0.844852 -0.104137
vn -0.996762 -0.067741 0.043325
vn -0.811480 -0.578565 0.082242
vn -0.387452 -0.916689 0.097783
vn -0.752108 0.657839 -0.039773
vn 0.013694 -0.995740 0.091181
vn 0.193646 -0.976219 0.097461
vn -0.229827 0.968627 -0.094558
vn -0.185425 0.978803 -0.086963
vn -0.601154 -0.792924 0.099429
vn -0.362365 -0.926191 0.104220
vn -0.465960 -0.877325 0.114816
vn -0.589082 -0.799745 0.115713
vn -0.907477 0.420097 -0.002238
vn -0.796794 0.603753 -0.024547
vn -0.361137 0.928769 -0.083476
vn -0.991980 0.122788 0.029966
vn -0.894507 -0.437121 0.093712
vn -0.934243 0.356580 0.006355
vn -0.995247 0.088661 0.040278
vn -0.994365 0.096661 0.043521
vn -0.893936 -0.436925 0.099879
vn -0.208576 -0.969556 0.128286
vn -0.530721 -0.837827 0.127991
vn -0.825615 0.564094 -0.012561
vn 0.046084 0.994527 -0.093767
vn -0.445759 0.893000 -0.062042
vn -0.970603 0.235765 0.048423
vn -0.405456 -0.907094 0.113076
vn -0.914435 -0.395852 0.084324
vn -0.837831 0.545897 -0.006030
vn -0.947868 0.317934 0.021557
vn -0.997378 0.047777 0.054350
vn -0.921238 -0.376201 0.098960
vn -0.882135 -0.459548 0.103217
vn -0.378427 0.924216 -0.051165
vn -0.908381 -0.410917 0.077408
vn -0.876275 -0.473938 0.086749
vn -0.908935 -0.408648 0.082732
vn -0.995318 0.091723 0.030470
vn -0.987783 0.153866 0.024683
vn -0.909602 0.415462 0.003993
vn -0.935994 0.351791 0.012608
vn -0.995428 0.083564 0.046270
vn -0.996907 0.059215 0.051672
vn -0.935654 0.352191 0.022670
vn -0.960957 0.271584 0.052943
vn -0.454545 -0.883895 0.110085
vn -0.989723 0.140890 0.024462
vn -0.858903 -0.504451 0.088403
vn -0.687959 -0.718063 0.105345
vn -0.988773 0.147353 0.024782
vn -0.985813 0.166294 0.022794
vn -0.924022 -0.373800 0.080354
vn -0.921525 -0.379695 0.081380
vn -0.890925 -0.442834 0.100756
vn -0.643004 0.764932 -0.037737
vn -0.361047 0.931356 -0.047118
vn -0.871859 -0.482196 0.085721
vt 0.000000 0.000000
vt 0.500000 0.000000
vt 1.000000 0.000000
vt 1.000000 1.000000
vt 0.000000 1.000000
vt 0.300000 0.250000
vt 0.500000 0.250000
vt 0.700000 0.250000
vt 0.100000 0.500000
vt 0.850000 0.250000
vt 0.950000 0.375000
vt 0.050000 0.750000
vt 0.150000 0.875000
vt 0.625000 0.312500
vt 0.725000 0.312500
vt 0.725000 0.437500
vt 0.700000 0.500000
vt 0.325000 0.687500
vt 0.300000 0.750000
vt 0.100000 0.750000
vt 0.350000 0.562500
vt 0.600000 0.625000
vt 0.350000 0.687500
vt 0.450000 0.687500
vt 0.500000 0.750000
vt 0.700000 0.750000
vt 0.975000 0.687500
vt 0.900000 0.750000
vt 0.375000 0.812500
vt 0.125000 0.937500
vt 0.250000 0.875000
vt 0.625000 0.937500
vt 0.737500 0.406250
vt 0.525000 0.531250
vt 0.412500 0.843750
vt 0.475000 0.812500
vt 0.575000 0.812500
vt 0.762500 0.843750
vt 0.737500 0.781250
vt 0.312500 0.968750
vt 0.468750 0.390625
vt 0.518750 0.453125
vt 0.506250 0.484375
vt 0.312500 0.468750
vt 0.312500 0.515625
vt 0.393750 0.765625
vt 0.418750 0.765625
vt 0.518750 0.765625
vt 0.556250 0.796875
vt 0.506250 0.859375
vt 0.656250 0.984375
vt 0.709375 0.382812
vt 0.284375 0.445312
vt 0.525000 0.437500
vt 0.625000 0.437500
vt 0.303125 0.492188
vt 0.300000 0.500000
vt 0.500000 0.500000
vt 0.506250 0.507812
vt 0.709375 0.757812
vt 0.328125 0.867188
vt 0.328125 0.992188
vt 0.510938 0.425781
f 6/6/6 1/1/1 2/2/2
f 7/7/7 6/6/6 2/2/2
f 8/8/8 2/2/2 3/3/3
f 8/8/8 7/7/7 2/2/2
f 9/9/9 1/1/1 6/6/6
f 10/10/10 8/8/8 3/3/3
f 11/11/11 10/10/10 3/3/3
f 12/12/12 5/5/5 1/1/1
f 12/12/12 1/1/1 9/9/9
f 13/13/13 5/5/5 12/12/12
f 14/14/14 7/7/7 8/8/8
f 14/14/14 6/6/6 7/7/7
f 15/15/15 10/10/10 11/11/11
f 15/15/15 8/8/8 10/10/10
f 15/15/15 14/14/14 8/8/8
f 15/15/15 11/11/11 14/14/14
f 16/16/16 11/11/11 17/17/17
f 18/18/18 19/19/19 20/20/20
f 18/18/18 9/9/9 21/21/21
f 18/18/18 20/20/20 12/12/12
f 18/18/18 12/12/12 9/9/9
f 18/18/18 21/21/21 22/22/22
f 23/23/23 19/19/19 18/18/18
f 23/23/23 18/18/18 22/22/22
f 24/24/24 25/25/25 19/19/19
f 24/24/24 26/26/26 25/25/25
f 24/24/24 19/19/19 23/23/23
f 24/24/24 23/23/23 22/22/22
f 27/27/27 3/3/3 4/4/4
f 27/27/27 22/22/22 17/17/17
f 27/27/27 4/4/4 28/28/28
f 27/27/27 28/28/28 26/26/26
f 27/27/27 11/11/11 3/3/3
f 27/27/27 17/17/17 11/11/11
f 27/27/27 26/26/26 24/24/24
f 27/27/27 24/24/24 22/22/22
f 29/29/29 13/13/13 12/12/12
f 30/30/30 5/5/5 13/13/13
f 30/30/30 13/13/13 31/31/31
f 32/32/32 30/30/30 31/31/31
f 33/33/33 11/11/11 16/16/16
f 34/34/34 17/17/17 22/22/22
f 34/34/34 22/22/22 21/21/21
f 35/35/35 13/13/13 29/29/29
f 35/35/35 29/29/29 36/36/36
f 35/35/35 36/36/36 37/37/37
f 38/38/38 4/4/4 32/32/32
f 38/38/38 39/39/39 28/28/28
f 38/38/38 28/28/28 4/4/4
f 38/38/38 37/37/37 39/39/39
f 38/38/38 35/35/35 37/37/37
f 40/40/40 5/5/5 30/30/30
f 40/40/40 30/30/30 32/32/32
f 41/41/41 6/6/6 14/14/14
f 42/42/42 16/16/16 17/17/17
f 43/43/43 44/44/44 42/42/42
f 43/43/43 42/42/42 17/17/17
f 45/45/45 34/34/34 21/21/21
f 45/45/45 21/21/21 9/9/9
f 46/46/46 29/29/29 12/12/12
f 46/46/46 12/12/12 20/20/20
f 47/47/47 39/39/39 46/46/46
f 48/48/48 39/39/39 47/47/47
f 49/49/49 29/29/29 46/46/46
f 49/49/49 36/36/36 29/29/29
f 49/49/49 39/39/39 37/37/37
f 49/49/49 46/46/46 39/39/39
f 49/49/49 37/37/37 36/36/36
f 50/50/50 35/35/35 38/38/38
f 50/50/50 38/38/38 32/32/32
f 50/50/50 32/32/32 31/31/31
f 51/51/51 32/32/32 4/4/4
f 51/51/51 40/40/40 32/32/32
f 52/52/52 33/33/33 41/41/41
f 52/52/52 41/41/41 14/14/14
f 52/52/52 14/14/14 11/11/11
f 52/52/52 11/11/11 33/33/33
f 53/53/53 42/42/42 44/44/44
f 53/53/53 9/9/9 6/6/6
f 53/53/53 44/44/44 9/9/9
f 53/53/53 6/6/6 41/41/41
f 53/53/53 16/16/16 42/42/42
f 53/53/53 54/54/54 55/55/55
f 53/53/53 55/55/55 16/16/16
f 56/56/56 57/57/57 9/9/9
f 56/56/56 9/9/9 44/44/44
f 56/56/56 58/58/58 57/57/57
f 56/56/56 17/17/17 58/58/58
f 56/56/56 43/43/43 17/17/17
f 56/56/56 44/44/44 43/43/43
f 59/59/59 17/17/17 34/34/34
f 59/59/59 9/9/9 57/57/57
f 59/59/59 57/57/57 58/58/58
f 59/59/59 58/58/58 17/17/17
f 59/59/59 34/34/34 45/45/45
f 59/59/59 45/45/45 9/9/9
f 60/60/60 28/28/28 39/39/39
f 60/60/60 20/20/20 19/19/19
f 60/60/60 19/19/19 25/25/25
f 60/60/60 25/25/25 26/26/26
f 60/60/60 26/26/26 28/28/28
f 60/60/60 39/39/39 48/48/48
f 60/60/60 47/47/47 46/46/46
f 60/60/60 48/48/48 47/47/47
f 60/60/60 46/46/46 20/20/20
f 61/61/61 35/35/35 50/50/50
f 61/61/61 50/50/50 31/31/31
f 61/61/61 31/31/31 13/13/13
f 61/61/61 13/13/13 35/35/35
f 62/62/62 4/4/4 5/5/5
f 62/62/62 51/51/51 4/4/4
f 62/62/62 40/40/40 51/51/51
f 62/62/62 5/5/5 40/40/40
f 63/63/63 33/33/33 16/16/16
f 63/63/63 41/41/41 33/33/33
f 63/63/63 53/53/53 41/41/41
f 63/63/63 54/54/54 53/53/53
f 63/63/63 55/55/55 54/54/54
f 63/63/63 16/16/16 55/55/55
v 690.684265 -8.576460 541.978027
v 703.114197 -3.023421 541.978027
v 714.301147 -1.123494 541.978027
v 724.369385 -1.815110 541.978027
v 734.437622 -4.687019 541.978027
v 744.505859 -9.647754 541.978027
v 759.028198 -20.297503 541.978027
v 773.550476 -34.828220 541.978027
v 751.046387 -41.541321 916.646973
v 704.580200 30.266499 916.646973
v 701.396240 1.101721 635.724182
v 716.099976 1.627752 635.724182
v 730.803711 -3.463391 635.724182
v 745.507385 -13.593850 635.724182
v 702.878662 8.746576 729.385864
v 715.777222 5.585989 729.385864
v 728.675781 -2.459200 729.385864
v 741.574341 -14.565499 729.385864
v 704.910522 17.377785 822.999573
v 716.049866 9.639478 822.999573
v 727.189209 -1.663503 822.999573
v 738.328491 -15.630734 822.999573
v 749.467834 -31.361792 822.999573
vn 0.512272 -0.858255 0.031254
vn 0.286249 -0.957590 0.032916
vn 0.042558 -0.998755 0.026042
vn -0.175689 -0.984348 0.013890
vn -0.363743 -0.931499 -0.001362
vn -0.510251 -0.859853 -0.017210
vn -0.655931 -0.753850 -0.038263
vn -0.747085 -0.662368 -0.055978
vn -0.847284 -0.529442 -0.042442
vn -0.801877 -0.585900 0.117104
vn 0.232789 -0.970408 0.064169
vn -0.159614 -0.986569 0.034710
vn -0.464248 -0.885697 -0.003761
vn -0.646000 -0.762480 -0.036177
vn -0.034243 -0.995273 0.090874
vn -0.406224 -0.912818 0.041769
vn -0.620761 -0.783993 -0.003233
vn -0.731635 -0.680767 -0.035606
vn -0.450810 -0.887883 0.091834
vn -0.655228 -0.754732 0.032499
vn -0.753952 -0.656895 -0.006734
vn -0.802409 -0.595918 -0.031971
vn -0.824897 -0.563286 -0.047471
vt 1.000000 0.000000
vt 1.150000 0.000000
vt 1.285000 0.000000
vt 1.406500 0.000000
vt 1.528000 0.000000
vt 1.649500 0.000000
vt 1.824750 0.000000
vt 2.000000 0.000000
vt 2.000000 1.000000
vt 1.000000 1.000000
vt 1.100000 0.250000
vt 1.300000 0.250000
vt 1.500000 0.250000
vt 1.700000 0.250000
vt 1.100000 0.500000
vt 1.300000 0.500000
vt 1.500000 0.500000
vt 1.700000 0.500000
vt 1.100000 0.750000
vt 1.300000 0.750000
vt 1.500000 0.750000
vt 1.700000 0.750000
vt 1.900000 0.750000
f 74/74/74 64/64/64 65/65/65
f 75/75/75 65/65/65 66/66/66
f 75/75/75 66/66/66 67/67/67
f 75/75/75 74/74/74 65/65/65
f 76/76/76 67/67/67 68/68/68
f 76/76/76 68/68/68 69/69/69
f 76/76/76 75/75/75 67/67/67
f 77/77/77 69/69/69 70/70/70
f 77/77/77 70/70/70 71/71/71
f 77/77/77 76/76/76 69/69/69
f 78/78/78 73/73/73 64/64/64
f 78/78/78 64/64/64 74/74/74
f 78/78/78 74/74/74 75/75/75
f 79/79/79 78/78/78 75/75/75
f 80/80/80 75/75/75 76/76/76
f 80/80/80 79/79/79 75/75/75
f 80/80/80 76/76/76 77/77/77
f 81/81/81 77/77/77 71/71/71
f 81/81/81 80/80/80 77/77/77
f 82/82/82 73/73/73 78/78/78
f 83/83/83 73/73/73 82/82/82
f 83/83/83 78/78/78 79/79/79
f 83/83/83 82/82/82 78/78/78
f 84/84/84 72/72/72 73/73/73
f 84/84/84 79/79/79 80/80/80
f 84/84/84 83/83/83 79/79/79
f 84/84/84 73/73/73 83/83/83
f 85/85/85 80/80/80 81/81/81
f 85/85/85 72/72/72 84/84/84
f 85/85/85 84/84/84 80/80/80
f 86/86/86 71/71/71 72/72/72
f 86/86/86 81/81/81 71/71/71
f 86/86/86 85/85/85 81/81/81
f 86/86/86 72/72/72 85/85/85
v 773.550476 -34.828220 541.978027
v 775.168579 -33.671474 541.978027
v 751.940247 -41.105350 916.646973
v 751.046387 -41.541321 916.646973
v 755.155273 -39.737206 822.999573
v 772.282227 -35.451660 588.862183
v 768.795410 -36.998325 635.724182
v 771.415161 -36.243153 588.862183
v 765.562439 -37.512913 682.564392
v 761.546692 -38.824860 729.385864
v 755.957397 -39.700611 822.999573
v 753.139221 -40.577991 869.812195
v 753.736389 -40.156605 869.812195
v 763.636719 -38.316196 705.977112
v 773.714905 -35.424370 553.701050
v 774.581543 -34.469456 553.701050
v 773.713745 -35.233849 565.422791
v 772.623962 -35.849113 577.143188
v 752.912842 -40.781506 881.518188
v 752.663330 -40.899654 893.225769
v 751.812561 -41.412285 904.935303
v 752.344788 -40.984867 904.935303
v 774.833984 -34.765411 547.839661
v 752.055603 -41.384750 910.790833
v 774.254150 -35.222591 544.908875
vn -0.747085 -0.662368 -0.055978
vn 0.867994 0.492294 0.065066
vn 0.938926 0.341741 0.040397
vn -0.847284 -0.529442 -0.042442
vn -0.633943 -0.772114 -0.044229
vn 0.993110 -0.097513 0.064991
vn 0.757255 -0.651848 0.040730
vn 0.006842 -0.999721 -0.022623
vn 0.986686 -0.146984 0.069613
vn 0.082637 -0.996557 -0.006794
vn 0.701978 -0.711543 0.030539
vn -0.118226 -0.992693 -0.024170
vn 0.974426 -0.221236 0.039345
vn 0.682975 -0.729428 0.038483
vn 0.100578 -0.994788 -0.016736
vn 0.998063 -0.003950 0.062092
vn 0.865049 -0.499826 0.043178
vn 0.502768 -0.864333 0.012378
vn 0.380690 -0.924691 -0.004751
vn 0.783192 -0.621627 0.013794
vn -0.056386 -0.997935 -0.030754
vn 0.986620 -0.160397 0.029202
vn 0.887542 -0.458728 0.042874
vn 0.802578 -0.596503 0.007281
vn 0.123834 -0.992188 -0.015098
vt 2.000000 0.000000
vt 3.000000 0.000000
vt 3.000000 1.000000
vt 2.000000 1.000000
vt 2.100000 0.750000
vt 2.800000 0.125000
vt 2.600000 0.250000
vt 2.300000 0.125000
vt 2.800000 0.375000
vt 2.350000 0.500000
vt 2.600000 0.750000
vt 2.300000 0.875000
vt 2.800000 0.875000
vt 2.575000 0.437500
vt 2.325000 0.031250
vt 2.825000 0.031250
vt 2.650000 0.062500
vt 2.475000 0.093750
vt 2.475000 0.906250
vt 2.650000 0.937500
vt 2.325000 0.968750
vt 2.825000 0.968750
vt 2.662500 0.015625
vt 2.662500 0.984375
vt 2.331250 0.007812
f 91/91/91 90/90/90 87/87/87
f 92/92/92 93/93/93 94/94/94
f 95/95/95 88/88/88 89/89/89
f 95/95/95 92/92/92 88/88/88
f 95/95/95 93/93/93 92/92/92
f 96/96/96 87/87/87 94/94/94
f 96/96/96 97/97/97 91/91/91
f 96/96/96 91/91/91 87/87/87
f 96/96/96 94/94/94 93/93/93
f 98/98/98 91/91/91 97/97/97
f 98/98/98 90/90/90 91/91/91
f 99/99/99 95/95/95 89/89/89
f 99/99/99 97/97/97 95/95/95
f 99/99/99 98/98/98 97/97/97
f 100/100/100 97/97/97 96/96/96
f 100/100/100 95/95/95 97/97/97
f 100/100/100 93/93/93 95/95/95
f 100/100/100 96/96/96 93/93/93
f 101/101/101 94/94/94 87/87/87
f 102/102/102 88/88/88 92/92/92
f 102/102/102 92/92/92 103/103/103
f 102/102/102 103/103/103 101/101/101
f 104/104/104 92/92/92 94/94/94
f 104/104/104 103/103/103 92/92/92
f 104/104/104 94/94/94 101/101/101
f 104/104/104 101/101/101 103/103/103
f 105/105/105 98/98/98 99/99/99
f 105/105/105 99/99/99 106/106/106
f 107/107/107 90/90/90 98/98/98
f 107/107/107 98/98/98 105/105/105
f 107/107/107 105/105/105 106/106/106
f 108/108/108 99/99/99 89/89/89
f 108/108/108 106/106/106 99/99/99
f 108/108/108 107/107/107 106/106/106
f 109/109/109 88/88/88 102/102/102
f 109/109/109 102/102/102 101/101/101
f 110/110/110 89/89/89 90/90/90
f 110/110/110 90/90/90 107/107/107
f 110/110/110 108/108/108 89/89/89
f 110/110/110 107/107/107 108/108/108
f 111/111/111 87/87/87 88/88/88
f 111/111/111 101/101/101 87/87/87
f 111/111/111 88/88/88 109/109/109
f 111/111/111 109/109/109 101/101/101
v 775.168579 -33.671474 541.978027
v 751.297180 0.251046 541.978027
v 739.361511 10.651258 541.978027
v 730.409729 15.342449 541.978027
v 723.695923 17.029318 541.978027
v 717.088501 17.100824 541.978027
v 710.290771 15.477461 541.978027
v 704.172791 12.500992 541.978027
v 698.054810 8.048234 541.978027
v 692.405457 2.591640 541.978027
v 686.756104 -4.187973 541.978027
v 706.249023 32.065788 916.646973
v 751.940247 -41.105350 916.646973
v 731.633057 3.513507 916.646973
v 718.941040 21.148323 916.646973
v 712.595032 27.385851 916.646973
v 745.472534 0.587738 635.724182
v 729.850830 13.379310 635.724182
v 714.229065 16.607466 635.724182
v 755.385681 -23.737003 729.385864
v 741.899902 -1.879252 729.385864
v 750.451050 -25.844696 822.999573
v 739.167114 -4.575472 822.999573
v 727.883179 10.292789 822.999573
v 728.414062 11.798497 729.385864
v 716.599182 19.306973 822.999573
v 705.315247 23.013966 822.999573
v 702.512756 12.639519 635.724182
v 696.315186 10.471264 682.564392
v 712.483887 16.606415 659.146912
v 712.947937 17.368942 705.977112
v 714.928284 17.648016 729.385864
v 699.768311 20.754383 799.596924
v 714.140442 20.083441 811.298096
vn 0.867994 0.492294 0.065066
vn 0.727757 0.684814 0.037399
vn 0.559827 0.828218 0.025458
vn 0.346860 0.937764 0.016958
vn 0.130215 0.991425 0.011011
vn -0.110263 0.993884 0.006008
vn -0.345352 0.938471 0.002280
vn -0.518325 0.855184 0.000274
vn -0.647914 0.761713 -0.000700
vn -0.734406 0.678710 -0.000999
vn -0.796867 0.604154 -0.000982
vn 0.524767 0.844852 -0.104137
vn 0.938926 0.341741 0.040397
vn 0.859209 0.511540 0.009274
vn 0.743123 0.668261 -0.034577
vn 0.649292 0.757645 -0.066296
vn 0.745409 0.665001 0.046261
vn 0.457539 0.888867 0.023945
vn -0.102908 0.994678 -0.005137
vn 0.886450 0.458641 0.062081
vn 0.794798 0.605253 0.044325
vn 0.908081 0.415656 0.051183
vn 0.846449 0.531289 0.035435
vn 0.724147 0.689552 0.011345
vn 0.584003 0.811514 0.019623
vn 0.485498 0.873816 -0.027137
vn 0.108522 0.990984 -0.078577
vn -0.498347 0.866680 -0.022709
vn -0.586057 0.809020 -0.044991
vn -0.125938 0.991965 -0.012086
vn 0.004743 0.999805 -0.019188
vn 0.150453 0.988463 -0.017485
vn -0.191356 0.977334 -0.090559
vn 0.375935 0.925975 -0.035245
vt 3.000000 0.000000
vt 3.270000 0.000000
vt 3.405000 0.000000
vt 3.506250 0.000000
vt 3.582187 0.000000
vt 3.656921 0.000000
vt 3.733808 0.000000
vt 3.803006 0.000000
vt 3.872204 0.000000
vt 3.936102 0.000000
vt 4.000000 0.000000
vt 4.000000 1.000000
vt 3.000000 1.000000
vt 3.444444 1.000000
vt 3.722222 1.000000
vt 3.861111 1.000000
vt 3.300000 0.250000
vt 3.500000 0.250000
vt 3.700000 0.250000
vt 3.100000 0.500000
vt 3.300000 0.500000
vt 3.100000 0.750000
vt 3.300000 0.750000
vt 3.500000 0.750000
vt 3.500000 0.500000
vt 3.700000 0.750000
vt 3.900000 0.750000
vt 3.850000 0.250000
vt 3.950000 0.375000
vt 3.725000 0.312500
vt 3.725000 0.437500
vt 3.700000 0.500000
vt 3.975000 0.687500
vt 3.737500 0.718750
f 128/128/128 112/112/112 113/113/113
f 128/128/128 113/113/113 114/114/114
f 129/129/129 114/114/114 115/115/115
f 129/129/129 115/115/115 116/116/116
f 129/129/129 128/128/128 114/114/114
f 130/130/130 116/116/116 117/117/117
f 130/130/130 117/117/117 118/118/118
f 130/130/130 118/118/118 119/119/119
f 130/130/130 129/129/129 116/116/116
f 131/131/131 124/124/124 112/112/112
f 131/131/131 112/112/112 128/128/128
f 132/132/132 131/131/131 128/128/128
f 133/133/133 124/124/124 131/131/131
f 134/134/134 125/125/125 124/124/124
f 134/134/134 131/131/131 132/132/132
f 134/134/134 124/124/124 133/133/133
f 134/134/134 133/133/133 131/131/131
f 135/135/135 126/126/126 125/125/125
f 135/135/135 132/132/132 136/136/136
f 135/135/135 125/125/125 134/134/134
f 135/135/135 134/134/134 132/132/132
f 137/137/137 127/127/127 126/126/126
f 137/137/137 126/126/126 135/135/135
f 138/138/138 123/123/123 127/127/127
f 138/138/138 127/127/127 137/137/137
f 139/139/139 119/119/119 120/120/120
f 139/139/139 120/120/120 121/121/121
f 139/139/139 121/121/121 122/122/122
f 139/139/139 130/130/130 119/119/119
f 140/140/140 139/139/139 122/122/122
f 141/141/141 128/128/128 129/129/129
f 141/141/141 139/139/139 140/140/140
f 141/141/141 129/129/129 130/130/130
f 141/141/141 130/130/130 139/139/139
f 142/142/142 132/132/132 128/128/128
f 142/142/142 143/143/143 136/136/136
f 142/142/142 128/128/128 141/141/141
f 142/142/142 136/136/136 132/132/132
f 142/142/142 140/140/140 143/143/143
f 142/142/142 141/141/141 140/140/140
f 144/144/144 122/122/122 123/123/123
f 144/144/144 140/140/140 122/122/122
f 144/144/144 123/123/123 138/138/138
f 144/144/144 143/143/143 140/140/140
f 145/145/145 136/136/136 143/143/143
f 145/145/145 135/135/135 136/136/136
f 145/145/145 144/144/144 138/138/138
f 145/145/145 137/137/137 135/135/135
f 145/145/145 138/138/138 137/137/137
f 145/145/145 143/143/143 144/144/144
v 775.168579 -33.671474 541.978027
v 751.297180 0.251046 541.978027
v 739.361511 10.651258 541.978027
v 730.409729 15.342449 541.978027
v 723.695923 17.029318 541.978027
v 717.088501 17.100824 541.978027
v 710.290771 15.477461 541.978027
v 704.172791 12.500992 541.978027
v 698.054810 8.048234 541.978027
v 692.405457 2.591640 541.978027
v 686.756104 -4.187973 541.978027
v 686.911377 -8.001282 541.978027
v 690.684265 -8.576460 541.978027
v 703.114197 -3.023421 541.978027
v 714.301147 -1.123494 541.978027
v 724.369385 -1.815110 541.978027
v 734.437622 -4.687019 541.978027
v 744.505859 -9.647754 541.978027
v 759.028198 -20.297503 541.978027
v 773.550476 -34.828220 541.978027
vn -0.000000 -0.000000 -1.000000
vn -0.000000 -0.000000 -1.000000
vn -0.000000 -0.000000 -1.000000
vn -0.000000 -0.000000 -1.000000
vn -0.000000 -0.000000 -1.000000
vn -0.000000 -0.000000 -1.000000
vn -0.000000 -0.000000 -1.000000
vn -0.000000 -0.000000 -1.000000
vn -0.000000 -0.000000 -1.000000
vn -0.000000 -0.000000 -1.000000
vn -0.000000 -0.000000 -1.000000
vn -0.000000 -0.000000 -1.000000
vn -0.000000 -0.000000 -1.000000
vn -0.000000 -0.000000 -1.000000
vn -0.000000 -0.000000 -1.000000
vn -0.000000 -0.000000 -1.000000
vn -0.000000 -0.000000 -1.000000
vn -0.000000 -0.000000 -1.000000
vn -0.000000 -0.000000 -1.000000
vn -0.000000 -0.000000 -1.000000
vt 93.195656 0.782208
vt 59.613338 25.129845
vt 44.949936 31.097214
vt 34.960621 32.631802
vt 28.062601 32.050201
vt 21.789106 29.975056
vt 15.885211 26.234915
vt 11.063164 21.435249
vt 6.719878 15.239081
vt 3.145411 8.245298
vt 0.000000 0.000000
vt 1.383555 -3.556854
vt 5.139055 -2.877398
vt 15.096343 6.406559
vt 25.062525 11.831736
vt 34.810913 14.442640
vt 45.266373 14.991086
vt 56.399239 13.563601
vt 73.590393 8.199024
vt 92.040146 -0.836772
f 158/158/158 157/157/157 156/156/156
f 155/155/155 158/158/158 156/156/156
f 159/159/159 158/158/158 155/155/155
f 154/154/154 159/159/159 155/155/155
f 153/153/153 159/159/159 154/154/154
f 160/160/160 159/159/159 153/153/153
f 152/152/152 160/160/160 153/153/153
f 151/151/151 161/161/161 160/160/160
f 151/151/151 160/160/160 152/152/152
f 150/150/150 161/161/161 151/151/151
f 149/149/149 161/161/161 150/150/150
f 148/148/148 162/162/162 161/161/161
f 148/148/148 161/161/161 149/149/149
f 147/147/147 163/163/163 162/162/162
f 147/147/147 164/164/164 163/163/163
f 147/147/147 162/162/162 148/148/148
f 146/146/146 165/165/165 164/164/164
f 146/146/146 164/164/164 147/147/147
v 706.249023 32.065788 916.646973
v 704.580200 30.266499 916.646973
v 751.046387 -41.541321 916.646973
v 751.940247 -41.105350 916.646973
v 731.633057 3.513507 916.646973
v 718.941040 21.148323 916.646973
v 712.595032 27.385851 916.646973
vn -0.000000 -0.000000 1.000000
vn -0.000000 -0.000000 1.000000
vn -0.000000 -0.000000 1.000000
vn -0.000000 -0.000000 1.000000
vn -0.000000 -0.000000 1.000000
vn -0.000000 -0.000000 1.000000
vn -0.000000 -0.000000 1.000000
vt 0.000000 0.000000
vt 0.657040 -2.364476
vt 86.166138 -0.450984
vt 86.263611 0.538750
vt 37.622459 6.643095
vt 15.951310 5.082674
vt 7.312510 2.949700
f 172/172/172 166/166/166 167/167/167
f 171/171/171 172/172/172 167/167/167
f 170/170/170 171/171/171 167/167/167
f 168/168/168 170/170/170 167/167/167
f 169/169/169 170/170/170 168/168/168
